{
    "asset" : {
        "generator" : "Khronos glTF Blender I/O v1.7.33",
        "version" : "2.0"
    },
    "extensionsUsed" : [
        "KHR_materials_unlit"
    ],
    "scene" : 0,
    "scenes" : [
        {
            "extras" : {
                "t3dExportOnSave__" : 1,
                "t3dExportFormat__" : 2,
                "t3dExportLights__" : 0,
                "t3dExportCameras__" : 0,
                "t3dCollections__" : {
                    "Collection" : {
                        "objects" : [
                            "Player",
                            "Plane",
                            "SpikeBase",
                            "SpikeBase.001"
                        ],
                        "offset" : [
                            0.0,
                            0.0,
                            0.0
                        ]
                    }
                }
            },
            "name" : "Scene",
            "nodes" : [
                0,
                1,
                3,
                5
            ]
        }
    ],
    "nodes" : [
        {
            "extras" : {
                "t3dGameProperties__" : [
                    {
                        "name" : "gameobject",
                        "valueType" : 3,
                        "valueString" : "player"
                    }
                ],
                "t3dBoundsType__" : 1
            },
            "mesh" : 0,
            "name" : "Player",
            "translation" : [
                0,
                1,
                -10
            ]
        },
        {
            "mesh" : 1,
            "name" : "Plane",
            "translation" : [
                0,
                0,
                -10
            ]
        },
        {
            "extras" : {
                "t3dBoundsType__" : 1,
                "t3dGameProperties__" : [
                    {
                        "name" : "death",
                        "valueBool" : 1,
                        "valueReference" : {},
                        "valueReferenceScene" : {}
                    }
                ]
            },
            "mesh" : 2,
            "name" : "Spikes"
        },
        {
            "children" : [
                2
            ],
            "extras" : {
                "t3dBoundsType__" : 1,
                "t3dGameProperties__" : []
            },
            "mesh" : 3,
            "name" : "SpikeBase",
            "translation" : [
                5,
                1,
                -11
            ]
        },
        {
            "extras" : {
                "t3dBoundsType__" : 1,
                "t3dGameProperties__" : [
                    {
                        "name" : "death",
                        "valueBool" : 1,
                        "valueReference" : {},
                        "valueReferenceScene" : {}
                    }
                ]
            },
            "mesh" : 2,
            "name" : "Spikes.001"
        },
        {
            "children" : [
                4
            ],
            "extras" : {
                "t3dBoundsType__" : 1,
                "t3dGameProperties__" : []
            },
            "mesh" : 3,
            "name" : "SpikeBase.001",
            "rotation" : [
                0,
                0.7071068286895752,
                0,
                0.7071068286895752
            ],
            "translation" : [
                9,
                1,
                -7
            ]
        }
    ],
    "materials" : [
        {
            "extensions" : {
                "KHR_materials_unlit" : {}
            },
            "extras" : {
                "t3dMaterialShadeless__" : 1
            },
            "name" : "Vertex Coloring",
            "pbrMetallicRoughness" : {
                "metallicFactor" : 0,
                "roughnessFactor" : 0.9
            }
        }
    ],
    "meshes" : [
        {
            "extras" : {
                "t3dVertexColorNames__" : [
                    "Col"
                ]
            },
            "name" : "Cube",
            "primitives" : [
                {
                    "attributes" : {
                        "POSITION" : 0,
                        "NORMAL" : 1,
                        "TEXCOORD_0" : 2,
                        "COLOR_0" : 3
                    },
                    "indices" : 4,
                    "material" : 0
                }
            ]
        },
        {
            "extras" : {
                "t3dVertexColorNames__" : [
                    "Col"
                ]
            },
            "name" : "Plane",
            "primitives" : [
                {
                    "attributes" : {
                        "POSITION" : 5,
                        "NORMAL" : 6,
                        "TEXCOORD_0" : 7,
                        "COLOR_0" : 8
                    },
                    "indices" : 9,
                    "material" : 0
                }
            ]
        },
        {
            "extras" : {
                "t3dVertexColorNames__" : [
                    "Col"
                ]
            },
            "name" : "Cube.002",
            "primitives" : [
                {
                    "attributes" : {
                        "POSITION" : 10,
                        "NORMAL" : 11,
                        "TEXCOORD_0" : 12,
                        "COLOR_0" : 13
                    },
                    "indices" : 14,
                    "material" : 0
                }
            ]
        },
        {
            "extras" : {
                "t3dVertexColorNames__" : [
                    "Col"
                ]
            },
            "name" : "Cube.001",
            "primitives" : [
                {
                    "attributes" : {
                        "POSITION" : 15,
                        "NORMAL" : 16,
                        "TEXCOORD_0" : 17,
                        "COLOR_0" : 18
                    },
                    "indices" : 19,
                    "material" : 0
                }
            ]
        }
    ],
    "accessors" : [
        {
            "bufferView" : 0,
            "componentType" : 5126,
            "count" : 24,
            "max" : [
                1,
                1,
                1
            ],
            "min" : [
                -1,
                -1,
                -1
            ],
            "type" : "VEC3"
        },
        {
            "bufferView" : 1,
            "componentType" : 5126,
            "count" : 24,
            "type" : "VEC3"
        },
        {
            "bufferView" : 2,
            "componentType" : 5126,
            "count" : 24,
            "type" : "VEC2"
        },
        {
            "bufferView" : 3,
            "componentType" : 5123,
            "count" : 24,
            "normalized" : true,
            "type" : "VEC4"
        },
        {
            "bufferView" : 4,
            "componentType" : 5123,
            "count" : 36,
            "type" : "SCALAR"
        },
        {
            "bufferView" : 5,
            "componentType" : 5126,
            "count" : 81,
            "max" : [
                16,
                0,
                16
            ],
            "min" : [
                -16,
                0,
                -16
            ],
            "type" : "VEC3"
        },
        {
            "bufferView" : 6,
            "componentType" : 5126,
            "count" : 81,
            "type" : "VEC3"
        },
        {
            "bufferView" : 7,
            "componentType" : 5126,
            "count" : 81,
            "type" : "VEC2"
        },
        {
            "bufferView" : 8,
            "componentType" : 5123,
            "count" : 81,
            "normalized" : true,
            "type" : "VEC4"
        },
        {
            "bufferView" : 9,
            "componentType" : 5123,
            "count" : 384,
            "type" : "SCALAR"
        },
        {
            "bufferView" : 10,
            "componentType" : 5126,
            "count" : 144,
            "max" : [
                1.4901161193847656e-08,
                1,
                3
            ],
            "min" : [
                -1,
                -0.9999999403953552,
                -3
            ],
            "type" : "VEC3"
        },
        {
            "bufferView" : 11,
            "componentType" : 5126,
            "count" : 144,
            "type" : "VEC3"
        },
        {
            "bufferView" : 12,
            "componentType" : 5126,
            "count" : 144,
            "type" : "VEC2"
        },
        {
            "bufferView" : 13,
            "componentType" : 5123,
            "count" : 144,
            "normalized" : true,
            "type" : "VEC4"
        },
        {
            "bufferView" : 14,
            "componentType" : 5123,
            "count" : 144,
            "type" : "SCALAR"
        },
        {
            "bufferView" : 15,
            "componentType" : 5126,
            "count" : 20,
            "max" : [
                1,
                1,
                3
            ],
            "min" : [
                0,
                -1,
                -3
            ],
            "type" : "VEC3"
        },
        {
            "bufferView" : 16,
            "componentType" : 5126,
            "count" : 20,
            "type" : "VEC3"
        },
        {
            "bufferView" : 17,
            "componentType" : 5126,
            "count" : 20,
            "type" : "VEC2"
        },
        {
            "bufferView" : 18,
            "componentType" : 5123,
            "count" : 20,
            "normalized" : true,
            "type" : "VEC4"
        },
        {
            "bufferView" : 19,
            "componentType" : 5123,
            "count" : 30,
            "type" : "SCALAR"
        }
    ],
    "bufferViews" : [
        {
            "buffer" : 0,
            "byteLength" : 288,
            "byteOffset" : 0
        },
        {
            "buffer" : 0,
            "byteLength" : 288,
            "byteOffset" : 288
        },
        {
            "buffer" : 0,
            "byteLength" : 192,
            "byteOffset" : 576
        },
        {
            "buffer" : 0,
            "byteLength" : 192,
            "byteOffset" : 768
        },
        {
            "buffer" : 0,
            "byteLength" : 72,
            "byteOffset" : 960
        },
        {
            "buffer" : 0,
            "byteLength" : 972,
            "byteOffset" : 1032
        },
        {
            "buffer" : 0,
            "byteLength" : 972,
            "byteOffset" : 2004
        },
        {
            "buffer" : 0,
            "byteLength" : 648,
            "byteOffset" : 2976
        },
        {
            "buffer" : 0,
            "byteLength" : 648,
            "byteOffset" : 3624
        },
        {
            "buffer" : 0,
            "byteLength" : 768,
            "byteOffset" : 4272
        },
        {
            "buffer" : 0,
            "byteLength" : 1728,
            "byteOffset" : 5040
        },
        {
            "buffer" : 0,
            "byteLength" : 1728,
            "byteOffset" : 6768
        },
        {
            "buffer" : 0,
            "byteLength" : 1152,
            "byteOffset" : 8496
        },
        {
            "buffer" : 0,
            "byteLength" : 1152,
            "byteOffset" : 9648
        },
        {
            "buffer" : 0,
            "byteLength" : 288,
            "byteOffset" : 10800
        },
        {
            "buffer" : 0,
            "byteLength" : 240,
            "byteOffset" : 11088
        },
        {
            "buffer" : 0,
            "byteLength" : 240,
            "byteOffset" : 11328
        },
        {
            "buffer" : 0,
            "byteLength" : 160,
            "byteOffset" : 11568
        },
        {
            "buffer" : 0,
            "byteLength" : 160,
            "byteOffset" : 11728
        },
        {
            "buffer" : 0,
            "byteLength" : 60,
            "byteOffset" : 11888
        }
    ],
    "buffers" : [
        {
            "byteLength" : 11948,
            "uri" : "data:application/octet-stream;base64,"
        }
    ]
}
