{
    "asset" : {
        "generator" : "Khronos glTF Blender I/O v3.5.13",
        "version" : "2.0"
    },
    "extensionsUsed" : [
        "KHR_materials_unlit"
    ],
    "scene" : 0,
    "scenes" : [
        {
            "extras" : {
                "t3dExportOnSave__" : 1,
                "t3dExportFormat__" : 2,
                "t3dExportLights__" : 0,
                "t3dExportCameras__" : 0,
                "t3dCollections__" : {
                    "Collection" : {
                        "objects" : [
                            "Player",
                            "Plane",
                            "SpikeBase",
                            "SpikeBase.001"
                        ],
                        "offset" : [
                            0.0,
                            0.0,
                            0.0
                        ]
                    }
                },
                "t3dCameraResolution__" : [
                    1920,
                    1080
                ],
                "t3dWorlds__" : {
                    "World" : {
                        "ambient color" : [
                            0.04445478320121765,
                            0.04445478320121765,
                            0.04445478320121765,
                            1.0
                        ],
                        "ambient energy" : 1.0
                    }
                },
                "t3dCurrentWorld__" : "World"
            },
            "name" : "Scene",
            "nodes" : [
                0,
                1,
                3,
                5
            ]
        }
    ],
    "nodes" : [
        {
            "extras" : {
                "t3dGameProperties__" : [
                    {
                        "name" : "gameobject",
                        "valueType" : 3,
                        "valueString" : "player"
                    },
                    {
                        "name" : "solid",
                        "valueBool" : 1
                    }
                ],
                "t3dBoundsType__" : 1,
                "t3dOriginalLocalPosition__" : [
                    0.0,
                    10.0,
                    1.0
                ]
            },
            "mesh" : 0,
            "name" : "Player",
            "translation" : [
                0,
                1,
                -10
            ]
        },
        {
            "extras" : {
                "t3dOriginalLocalPosition__" : [
                    0.0,
                    10.0,
                    0.0
                ]
            },
            "mesh" : 1,
            "name" : "Plane",
            "translation" : [
                0,
                0,
                -10
            ]
        },
        {
            "extras" : {
                "t3dBoundsType__" : 1,
                "t3dGameProperties__" : [
                    {
                        "name" : "death",
                        "valueBool" : 1,
                        "valueReference" : {},
                        "valueReferenceScene" : {}
                    },
                    {
                        "name" : "solid",
                        "valueType" : 0,
                        "valueBool" : 1,
                        "valueInt" : 0,
                        "valueFloat" : 0.0,
                        "valueString" : "",
                        "valueReference" : null,
                        "valueReferenceScene" : null,
                        "valueColor" : [
                            1.0,
                            1.0,
                            1.0,
                            1.0
                        ],
                        "valueVector3D" : [
                            0.0,
                            0.0,
                            0.0
                        ]
                    }
                ],
                "t3dOriginalLocalPosition__" : [
                    10.0,
                    13.0,
                    1.0
                ]
            },
            "mesh" : 2,
            "name" : "Spikes"
        },
        {
            "children" : [
                2
            ],
            "extras" : {
                "t3dBoundsType__" : 1,
                "t3dGameProperties__" : [
                    {
                        "name" : "solid",
                        "valueType" : 0,
                        "valueBool" : 1,
                        "valueInt" : 0,
                        "valueFloat" : 0.0,
                        "valueString" : "",
                        "valueReference" : null,
                        "valueReferenceScene" : null,
                        "valueColor" : [
                            1.0,
                            1.0,
                            1.0,
                            1.0
                        ],
                        "valueVector3D" : [
                            0.0,
                            0.0,
                            0.0
                        ]
                    }
                ],
                "t3dOriginalLocalPosition__" : [
                    5.0,
                    11.0,
                    1.0
                ]
            },
            "mesh" : 3,
            "name" : "SpikeBase",
            "translation" : [
                5,
                1,
                -11
            ]
        },
        {
            "extras" : {
                "t3dBoundsType__" : 1,
                "t3dGameProperties__" : [
                    {
                        "name" : "death",
                        "valueBool" : 1,
                        "valueReference" : {},
                        "valueReferenceScene" : {}
                    },
                    {
                        "name" : "solid",
                        "valueBool" : 1,
                        "valueReference" : {},
                        "valueReferenceScene" : {}
                    }
                ],
                "t3dOriginalLocalPosition__" : [
                    10.0,
                    13.0,
                    1.0
                ]
            },
            "mesh" : 2,
            "name" : "Spikes.001"
        },
        {
            "children" : [
                4
            ],
            "extras" : {
                "t3dBoundsType__" : 1,
                "t3dGameProperties__" : [
                    {
                        "name" : "solid",
                        "valueType" : 0,
                        "valueBool" : 1,
                        "valueInt" : 0,
                        "valueFloat" : 0.0,
                        "valueString" : "",
                        "valueReference" : null,
                        "valueReferenceScene" : null,
                        "valueColor" : [
                            1.0,
                            1.0,
                            1.0,
                            1.0
                        ],
                        "valueVector3D" : [
                            0.0,
                            0.0,
                            0.0
                        ]
                    }
                ],
                "t3dOriginalLocalPosition__" : [
                    9.399999618530273,
                    7.0,
                    1.0
                ]
            },
            "mesh" : 3,
            "name" : "SpikeBase.001",
            "rotation" : [
                0,
                0.7071068286895752,
                0,
                0.7071068286895752
            ],
            "translation" : [
                9.399999618530273,
                1,
                -7
            ]
        }
    ],
    "materials" : [
        {
            "extensions" : {
                "KHR_materials_unlit" : {}
            },
            "extras" : {
                "t3dMaterialShadeless__" : 1
            },
            "name" : "Vertex Coloring",
            "pbrMetallicRoughness" : {
                "metallicFactor" : 0,
                "roughnessFactor" : 0.9
            }
        }
    ],
    "meshes" : [
        {
            "extras" : {
                "t3dVertexColorNames__" : [
                    "Col"
                ],
                "t3dActiveVertexColorIndex__" : 0
            },
            "name" : "Cube",
            "primitives" : [
                {
                    "attributes" : {
                        "_.SCULPT_FACE_SET" : 0,
                        "COLOR_0" : 1,
                        "POSITION" : 2,
                        "TEXCOORD_0" : 3,
                        "NORMAL" : 4
                    },
                    "indices" : 5,
                    "material" : 0
                }
            ]
        },
        {
            "extras" : {
                "t3dVertexColorNames__" : [
                    "Col"
                ],
                "t3dActiveVertexColorIndex__" : 0
            },
            "name" : "Plane",
            "primitives" : [
                {
                    "attributes" : {
                        "_.SCULPT_FACE_SET" : 6,
                        "COLOR_0" : 7,
                        "POSITION" : 8,
                        "TEXCOORD_0" : 9,
                        "NORMAL" : 10
                    },
                    "indices" : 11,
                    "material" : 0
                }
            ]
        },
        {
            "extras" : {
                "t3dVertexColorNames__" : [
                    "Col"
                ],
                "t3dActiveVertexColorIndex__" : 0
            },
            "name" : "Cube.002",
            "primitives" : [
                {
                    "attributes" : {
                        "_.SCULPT_FACE_SET" : 12,
                        "COLOR_0" : 13,
                        "POSITION" : 14,
                        "TEXCOORD_0" : 15,
                        "NORMAL" : 16
                    },
                    "indices" : 17,
                    "material" : 0
                }
            ]
        },
        {
            "extras" : {
                "t3dVertexColorNames__" : [
                    "Col"
                ],
                "t3dActiveVertexColorIndex__" : 0
            },
            "name" : "Cube.001",
            "primitives" : [
                {
                    "attributes" : {
                        "_.SCULPT_FACE_SET" : 18,
                        "COLOR_0" : 19,
                        "POSITION" : 20,
                        "TEXCOORD_0" : 21,
                        "NORMAL" : 22
                    },
                    "indices" : 23,
                    "material" : 0
                }
            ]
        }
    ],
    "accessors" : [
        {
            "bufferView" : 0,
            "componentType" : 5126,
            "count" : 24,
            "type" : "SCALAR"
        },
        {
            "bufferView" : 1,
            "componentType" : 5123,
            "count" : 24,
            "normalized" : true,
            "type" : "VEC4"
        },
        {
            "bufferView" : 2,
            "componentType" : 5126,
            "count" : 24,
            "max" : [
                1,
                1,
                1
            ],
            "min" : [
                -1,
                -1,
                -1
            ],
            "type" : "VEC3"
        },
        {
            "bufferView" : 3,
            "componentType" : 5126,
            "count" : 24,
            "type" : "VEC2"
        },
        {
            "bufferView" : 4,
            "componentType" : 5126,
            "count" : 24,
            "type" : "VEC3"
        },
        {
            "bufferView" : 5,
            "componentType" : 5123,
            "count" : 36,
            "type" : "SCALAR"
        },
        {
            "bufferView" : 6,
            "componentType" : 5126,
            "count" : 81,
            "type" : "SCALAR"
        },
        {
            "bufferView" : 7,
            "componentType" : 5123,
            "count" : 81,
            "normalized" : true,
            "type" : "VEC4"
        },
        {
            "bufferView" : 8,
            "componentType" : 5126,
            "count" : 81,
            "max" : [
                16,
                0,
                16
            ],
            "min" : [
                -16,
                0,
                -16
            ],
            "type" : "VEC3"
        },
        {
            "bufferView" : 9,
            "componentType" : 5126,
            "count" : 81,
            "type" : "VEC2"
        },
        {
            "bufferView" : 10,
            "componentType" : 5126,
            "count" : 81,
            "type" : "VEC3"
        },
        {
            "bufferView" : 11,
            "componentType" : 5123,
            "count" : 384,
            "type" : "SCALAR"
        },
        {
            "bufferView" : 12,
            "componentType" : 5126,
            "count" : 144,
            "type" : "SCALAR"
        },
        {
            "bufferView" : 13,
            "componentType" : 5123,
            "count" : 144,
            "normalized" : true,
            "type" : "VEC4"
        },
        {
            "bufferView" : 14,
            "componentType" : 5126,
            "count" : 144,
            "max" : [
                1.4901161193847656e-08,
                1,
                3
            ],
            "min" : [
                -1,
                -0.9999999403953552,
                -3
            ],
            "type" : "VEC3"
        },
        {
            "bufferView" : 15,
            "componentType" : 5126,
            "count" : 144,
            "type" : "VEC2"
        },
        {
            "bufferView" : 16,
            "componentType" : 5126,
            "count" : 144,
            "type" : "VEC3"
        },
        {
            "bufferView" : 17,
            "componentType" : 5123,
            "count" : 144,
            "type" : "SCALAR"
        },
        {
            "bufferView" : 18,
            "componentType" : 5126,
            "count" : 20,
            "type" : "SCALAR"
        },
        {
            "bufferView" : 19,
            "componentType" : 5123,
            "count" : 20,
            "normalized" : true,
            "type" : "VEC4"
        },
        {
            "bufferView" : 20,
            "componentType" : 5126,
            "count" : 20,
            "max" : [
                1,
                1,
                3
            ],
            "min" : [
                0,
                -1,
                -3
            ],
            "type" : "VEC3"
        },
        {
            "bufferView" : 21,
            "componentType" : 5126,
            "count" : 20,
            "type" : "VEC2"
        },
        {
            "bufferView" : 22,
            "componentType" : 5126,
            "count" : 20,
            "type" : "VEC3"
        },
        {
            "bufferView" : 23,
            "componentType" : 5123,
            "count" : 30,
            "type" : "SCALAR"
        }
    ],
    "bufferViews" : [
        {
            "buffer" : 0,
            "byteLength" : 96,
            "byteOffset" : 0,
            "target" : 34962
        },
        {
            "buffer" : 0,
            "byteLength" : 192,
            "byteOffset" : 96,
            "target" : 34962
        },
        {
            "buffer" : 0,
            "byteLength" : 288,
            "byteOffset" : 288,
            "target" : 34962
        },
        {
            "buffer" : 0,
            "byteLength" : 192,
            "byteOffset" : 576,
            "target" : 34962
        },
        {
            "buffer" : 0,
            "byteLength" : 288,
            "byteOffset" : 768,
            "target" : 34962
        },
        {
            "buffer" : 0,
            "byteLength" : 72,
            "byteOffset" : 1056,
            "target" : 34963
        },
        {
            "buffer" : 0,
            "byteLength" : 324,
            "byteOffset" : 1128,
            "target" : 34962
        },
        {
            "buffer" : 0,
            "byteLength" : 648,
            "byteOffset" : 1452,
            "target" : 34962
        },
        {
            "buffer" : 0,
            "byteLength" : 972,
            "byteOffset" : 2100,
            "target" : 34962
        },
        {
            "buffer" : 0,
            "byteLength" : 648,
            "byteOffset" : 3072,
            "target" : 34962
        },
        {
            "buffer" : 0,
            "byteLength" : 972,
            "byteOffset" : 3720,
            "target" : 34962
        },
        {
            "buffer" : 0,
            "byteLength" : 768,
            "byteOffset" : 4692,
            "target" : 34963
        },
        {
            "buffer" : 0,
            "byteLength" : 576,
            "byteOffset" : 5460,
            "target" : 34962
        },
        {
            "buffer" : 0,
            "byteLength" : 1152,
            "byteOffset" : 6036,
            "target" : 34962
        },
        {
            "buffer" : 0,
            "byteLength" : 1728,
            "byteOffset" : 7188,
            "target" : 34962
        },
        {
            "buffer" : 0,
            "byteLength" : 1152,
            "byteOffset" : 8916,
            "target" : 34962
        },
        {
            "buffer" : 0,
            "byteLength" : 1728,
            "byteOffset" : 10068,
            "target" : 34962
        },
        {
            "buffer" : 0,
            "byteLength" : 288,
            "byteOffset" : 11796,
            "target" : 34963
        },
        {
            "buffer" : 0,
            "byteLength" : 80,
            "byteOffset" : 12084,
            "target" : 34962
        },
        {
            "buffer" : 0,
            "byteLength" : 160,
            "byteOffset" : 12164,
            "target" : 34962
        },
        {
            "buffer" : 0,
            "byteLength" : 240,
            "byteOffset" : 12324,
            "target" : 34962
        },
        {
            "buffer" : 0,
            "byteLength" : 160,
            "byteOffset" : 12564,
            "target" : 34962
        },
        {
            "buffer" : 0,
            "byteLength" : 240,
            "byteOffset" : 12724,
            "target" : 34962
        },
        {
            "buffer" : 0,
            "byteLength" : 60,
            "byteOffset" : 12964,
            "target" : 34963
        }
    ],
    "buffers" : [
        {
            "byteLength" : 13024,
            "uri" : "data:application/octet-stream;base64,"
        }
    ]
}
