{
    "asset" : {
        "generator" : "Khronos glTF Blender I/O v3.5.13",
        "version" : "2.0"
    },
    "extensionsUsed" : [
        "KHR_lights_punctual"
    ],
    "extensionsRequired" : [
        "KHR_lights_punctual"
    ],
    "extensions" : {
        "KHR_lights_punctual" : {
            "lights" : [
                {
                    "color" : [
                        1,
                        0.0034617672208696604,
                        0
                    ],
                    "intensity" : 79.57747154594767,
                    "type" : "point",
                    "name" : "Light"
                }
            ]
        }
    },
    "scene" : 0,
    "scenes" : [
        {
            "extras" : {
                "t3dExportFormat__" : 2,
                "t3dExportOnSave__" : 1,
                "t3dPackTextures__" : 1,
                "t3dCameraResolution__" : [
                    1920,
                    1080
                ],
                "t3dCollections__" : {
                    "Collection" : {
                        "objects" : [
                            "Plane",
                            "Fire",
                            "Particle",
                            "Field",
                            "Plane.001",
                            "Particle2",
                            "Ring"
                        ],
                        "offset" : [
                            0.0,
                            0.0,
                            0.0
                        ]
                    }
                },
                "t3dWorlds__" : {
                    "World" : {
                        "ambient color" : [
                            0.05087608844041824,
                            0.05087608844041824,
                            0.05087608844041824,
                            1.0
                        ],
                        "ambient energy" : 1.0
                    }
                },
                "t3dCurrentWorld__" : "World"
            },
            "name" : "Scene",
            "nodes" : [
                0,
                2,
                3,
                4,
                5,
                6,
                7
            ]
        }
    ],
    "nodes" : [
        {
            "extras" : {
                "t3dOriginalLocalPosition__" : [
                    0.0,
                    0.0,
                    0.0
                ]
            },
            "mesh" : 0,
            "name" : "Plane"
        },
        {
            "extensions" : {
                "KHR_lights_punctual" : {
                    "light" : 0
                }
            },
            "extras" : {
                "t3dOriginalLocalPosition__" : [
                    0.07624521851539612,
                    1.0054539442062378,
                    2.9038619995117188
                ]
            },
            "name" : "Light",
            "rotation" : [
                -0.28416627645492554,
                0.7269423007965088,
                0.34203392267227173,
                0.5232754945755005
            ],
            "translation" : [
                0.07624530792236328,
                1.9038619995117188,
                -1.0054539442062378
            ]
        },
        {
            "children" : [
                1
            ],
            "extras" : {
                "t3dVisible__" : 1,
                "t3dOriginalLocalPosition__" : [
                    -5.0,
                    0.0,
                    1.0
                ]
            },
            "mesh" : 1,
            "name" : "Fire",
            "translation" : [
                -5,
                1,
                0
            ]
        },
        {
            "extras" : {
                "t3dOriginalLocalPosition__" : [
                    -15.0,
                    0.0,
                    6.0
                ]
            },
            "mesh" : 2,
            "name" : "Particle",
            "translation" : [
                -15,
                6,
                0
            ]
        },
        {
            "extras" : {
                "t3dVisible__" : 1,
                "t3dOriginalLocalPosition__" : [
                    12.0,
                    0.0,
                    1.0
                ]
            },
            "mesh" : 3,
            "name" : "Field",
            "translation" : [
                12,
                1,
                0
            ]
        },
        {
            "extras" : {
                "t3dOriginalLocalPosition__" : [
                    12.0,
                    0.0,
                    0.05111226812005043
                ]
            },
            "mesh" : 4,
            "name" : "Plane.001",
            "translation" : [
                12,
                0.05111226812005043,
                0
            ]
        },
        {
            "extras" : {
                "t3dOriginalLocalPosition__" : [
                    -9.0,
                    0.0,
                    6.0
                ]
            },
            "mesh" : 5,
            "name" : "Particle2",
            "translation" : [
                -9,
                6,
                0
            ]
        },
        {
            "extras" : {
                "t3dVisible__" : 1,
                "t3dOriginalLocalPosition__" : [
                    0.5160894393920898,
                    7.025581359863281,
                    1.0
                ]
            },
            "mesh" : 1,
            "name" : "Ring",
            "translation" : [
                0.5160894393920898,
                1,
                -7.025581359863281
            ]
        }
    ],
    "materials" : [
        {
            "name" : "Material",
            "pbrMetallicRoughness" : {
                "baseColorTexture" : {
                    "index" : 0
                },
                "metallicFactor" : 0,
                "roughnessFactor" : 0.4000000059604645
            }
        },
        {
            "extras" : {
                "t3dMaterialColor__" : [
                    0.03106340952217579,
                    0.03106340952217579,
                    0.03106340952217579,
                    1.0
                ],
                "t3dMaterialShadeless__" : 1
            },
            "name" : "Black",
            "pbrMetallicRoughness" : {
                "baseColorFactor" : [
                    0.800000011920929,
                    0.800000011920929,
                    0.800000011920929,
                    1
                ],
                "metallicFactor" : 0,
                "roughnessFactor" : 0.4000000059604645
            }
        },
        {
            "alphaMode" : "BLEND",
            "extras" : {
                "t3dMaterialShadeless__" : 1,
                "t3dCompositeMode__" : 1,
                "t3dBillboardMode__" : 2
            },
            "name" : "Particle",
            "pbrMetallicRoughness" : {
                "baseColorTexture" : {
                    "index" : 1
                },
                "metallicFactor" : 0,
                "roughnessFactor" : 0.5
            }
        },
        {
            "extras" : {
                "t3dMaterialShadeless__" : 1,
                "t3dCompositeMode__" : 0
            },
            "name" : "Field",
            "pbrMetallicRoughness" : {
                "baseColorTexture" : {
                    "index" : 2
                },
                "metallicFactor" : 0,
                "roughnessFactor" : 0.5
            }
        },
        {
            "alphaMode" : "BLEND",
            "extras" : {
                "t3dMaterialShadeless__" : 1,
                "t3dCompositeMode__" : 1
            },
            "name" : "FieldAdditive",
            "pbrMetallicRoughness" : {
                "baseColorTexture" : {
                    "index" : 3
                },
                "metallicFactor" : 0,
                "roughnessFactor" : 0.5
            }
        }
    ],
    "meshes" : [
        {
            "name" : "Plane",
            "primitives" : [
                {
                    "attributes" : {
                        "POSITION" : 0,
                        "TEXCOORD_0" : 1,
                        "NORMAL" : 2
                    },
                    "indices" : 3,
                    "material" : 0
                },
                {
                    "attributes" : {
                        "POSITION" : 4,
                        "TEXCOORD_0" : 5,
                        "NORMAL" : 6
                    },
                    "indices" : 7,
                    "material" : 1
                }
            ]
        },
        {
            "name" : "Cube.001",
            "primitives" : [
                {
                    "attributes" : {
                        "POSITION" : 8,
                        "TEXCOORD_0" : 9,
                        "NORMAL" : 10
                    },
                    "indices" : 11
                }
            ]
        },
        {
            "name" : "Plane.001",
            "primitives" : [
                {
                    "attributes" : {
                        "POSITION" : 12,
                        "TEXCOORD_0" : 13,
                        "NORMAL" : 14
                    },
                    "indices" : 15,
                    "material" : 2
                }
            ]
        },
        {
            "name" : "Cube.002",
            "primitives" : [
                {
                    "attributes" : {
                        "POSITION" : 16,
                        "TEXCOORD_0" : 17,
                        "NORMAL" : 18
                    },
                    "indices" : 11
                }
            ]
        },
        {
            "name" : "Plane.002",
            "primitives" : [
                {
                    "attributes" : {
                        "POSITION" : 19,
                        "TEXCOORD_0" : 20,
                        "NORMAL" : 21
                    },
                    "indices" : 22,
                    "material" : 3
                },
                {
                    "attributes" : {
                        "POSITION" : 23,
                        "TEXCOORD_0" : 24,
                        "NORMAL" : 25
                    },
                    "indices" : 26,
                    "material" : 4
                }
            ]
        },
        {
            "name" : "Plane.003",
            "primitives" : [
                {
                    "attributes" : {
                        "_.SCULPT_FACE_SET" : 27,
                        "POSITION" : 28,
                        "TEXCOORD_0" : 29,
                        "NORMAL" : 30
                    },
                    "indices" : 15,
                    "material" : 2
                }
            ]
        }
    ],
    "textures" : [
        {
            "sampler" : 0,
            "source" : 0
        },
        {
            "sampler" : 1,
            "source" : 1
        },
        {
            "sampler" : 1,
            "source" : 2
        },
        {
            "sampler" : 1,
            "source" : 2
        }
    ],
    "images" : [
        {
            "bufferView" : 4,
            "mimeType" : "image/png",
            "name" : "barrel"
        },
        {
            "bufferView" : 17,
            "mimeType" : "image/png",
            "name" : "particle"
        },
        {
            "bufferView" : 25,
            "mimeType" : "image/png",
            "name" : "field"
        }
    ],
    "accessors" : [
        {
            "bufferView" : 0,
            "componentType" : 5126,
            "count" : 2048,
            "max" : [
                44,
                0,
                17
            ],
            "min" : [
                -20,
                0,
                -15
            ],
            "type" : "VEC3"
        },
        {
            "bufferView" : 1,
            "componentType" : 5126,
            "count" : 2048,
            "type" : "VEC2"
        },
        {
            "bufferView" : 2,
            "componentType" : 5126,
            "count" : 2048,
            "type" : "VEC3"
        },
        {
            "bufferView" : 3,
            "componentType" : 5123,
            "count" : 3072,
            "type" : "SCALAR"
        },
        {
            "bufferView" : 5,
            "componentType" : 5126,
            "count" : 154,
            "max" : [
                53,
                16,
                25
            ],
            "min" : [
                -47,
                -16,
                -25
            ],
            "type" : "VEC3"
        },
        {
            "bufferView" : 6,
            "componentType" : 5126,
            "count" : 154,
            "type" : "VEC2"
        },
        {
            "bufferView" : 7,
            "componentType" : 5126,
            "count" : 154,
            "type" : "VEC3"
        },
        {
            "bufferView" : 8,
            "componentType" : 5123,
            "count" : 432,
            "type" : "SCALAR"
        },
        {
            "bufferView" : 9,
            "componentType" : 5126,
            "count" : 24,
            "max" : [
                0.5,
                0.5,
                0.5
            ],
            "min" : [
                -0.5,
                -0.5,
                -0.5
            ],
            "type" : "VEC3"
        },
        {
            "bufferView" : 10,
            "componentType" : 5126,
            "count" : 24,
            "type" : "VEC2"
        },
        {
            "bufferView" : 11,
            "componentType" : 5126,
            "count" : 24,
            "type" : "VEC3"
        },
        {
            "bufferView" : 12,
            "componentType" : 5123,
            "count" : 36,
            "type" : "SCALAR"
        },
        {
            "bufferView" : 13,
            "componentType" : 5126,
            "count" : 4,
            "max" : [
                0.4999999701976776,
                0.5,
                8.742277657347586e-08
            ],
            "min" : [
                -0.4999999701976776,
                -0.5,
                -8.742277657347586e-08
            ],
            "type" : "VEC3"
        },
        {
            "bufferView" : 14,
            "componentType" : 5126,
            "count" : 4,
            "type" : "VEC2"
        },
        {
            "bufferView" : 15,
            "componentType" : 5126,
            "count" : 4,
            "type" : "VEC3"
        },
        {
            "bufferView" : 16,
            "componentType" : 5123,
            "count" : 6,
            "type" : "SCALAR"
        },
        {
            "bufferView" : 18,
            "componentType" : 5126,
            "count" : 24,
            "max" : [
                0.5,
                0.5,
                0.5
            ],
            "min" : [
                -0.5,
                -0.5,
                -0.5
            ],
            "type" : "VEC3"
        },
        {
            "bufferView" : 19,
            "componentType" : 5126,
            "count" : 24,
            "type" : "VEC2"
        },
        {
            "bufferView" : 20,
            "componentType" : 5126,
            "count" : 24,
            "type" : "VEC3"
        },
        {
            "bufferView" : 21,
            "componentType" : 5126,
            "count" : 342,
            "max" : [
                4,
                0.35976508259773254,
                4
            ],
            "min" : [
                -4,
                0.35976508259773254,
                -4
            ],
            "type" : "VEC3"
        },
        {
            "bufferView" : 22,
            "componentType" : 5126,
            "count" : 342,
            "type" : "VEC2"
        },
        {
            "bufferView" : 23,
            "componentType" : 5126,
            "count" : 342,
            "type" : "VEC3"
        },
        {
            "bufferView" : 24,
            "componentType" : 5123,
            "count" : 384,
            "type" : "SCALAR"
        },
        {
            "bufferView" : 26,
            "componentType" : 5126,
            "count" : 160,
            "max" : [
                4,
                2.059765100479126,
                4
            ],
            "min" : [
                -4,
                0.35976508259773254,
                -4
            ],
            "type" : "VEC3"
        },
        {
            "bufferView" : 27,
            "componentType" : 5126,
            "count" : 160,
            "type" : "VEC2"
        },
        {
            "bufferView" : 28,
            "componentType" : 5126,
            "count" : 160,
            "type" : "VEC3"
        },
        {
            "bufferView" : 29,
            "componentType" : 5123,
            "count" : 288,
            "type" : "SCALAR"
        },
        {
            "bufferView" : 30,
            "componentType" : 5126,
            "count" : 4,
            "type" : "SCALAR"
        },
        {
            "bufferView" : 31,
            "componentType" : 5126,
            "count" : 4,
            "max" : [
                0.4999999701976776,
                0.5,
                8.742277657347586e-08
            ],
            "min" : [
                -0.4999999701976776,
                -0.5,
                -8.742277657347586e-08
            ],
            "type" : "VEC3"
        },
        {
            "bufferView" : 32,
            "componentType" : 5126,
            "count" : 4,
            "type" : "VEC2"
        },
        {
            "bufferView" : 33,
            "componentType" : 5126,
            "count" : 4,
            "type" : "VEC3"
        }
    ],
    "bufferViews" : [
        {
            "buffer" : 0,
            "byteLength" : 24576,
            "byteOffset" : 0,
            "target" : 34962
        },
        {
            "buffer" : 0,
            "byteLength" : 16384,
            "byteOffset" : 24576,
            "target" : 34962
        },
        {
            "buffer" : 0,
            "byteLength" : 24576,
            "byteOffset" : 40960,
            "target" : 34962
        },
        {
            "buffer" : 0,
            "byteLength" : 6144,
            "byteOffset" : 65536,
            "target" : 34963
        },
        {
            "buffer" : 0,
            "byteLength" : 5629,
            "byteOffset" : 71680
        },
        {
            "buffer" : 0,
            "byteLength" : 1848,
            "byteOffset" : 77312,
            "target" : 34962
        },
        {
            "buffer" : 0,
            "byteLength" : 1232,
            "byteOffset" : 79160,
            "target" : 34962
        },
        {
            "buffer" : 0,
            "byteLength" : 1848,
            "byteOffset" : 80392,
            "target" : 34962
        },
        {
            "buffer" : 0,
            "byteLength" : 864,
            "byteOffset" : 82240,
            "target" : 34963
        },
        {
            "buffer" : 0,
            "byteLength" : 288,
            "byteOffset" : 83104,
            "target" : 34962
        },
        {
            "buffer" : 0,
            "byteLength" : 192,
            "byteOffset" : 83392,
            "target" : 34962
        },
        {
            "buffer" : 0,
            "byteLength" : 288,
            "byteOffset" : 83584,
            "target" : 34962
        },
        {
            "buffer" : 0,
            "byteLength" : 72,
            "byteOffset" : 83872,
            "target" : 34963
        },
        {
            "buffer" : 0,
            "byteLength" : 48,
            "byteOffset" : 83944,
            "target" : 34962
        },
        {
            "buffer" : 0,
            "byteLength" : 32,
            "byteOffset" : 83992,
            "target" : 34962
        },
        {
            "buffer" : 0,
            "byteLength" : 48,
            "byteOffset" : 84024,
            "target" : 34962
        },
        {
            "buffer" : 0,
            "byteLength" : 12,
            "byteOffset" : 84072,
            "target" : 34963
        },
        {
            "buffer" : 0,
            "byteLength" : 1360,
            "byteOffset" : 84084
        },
        {
            "buffer" : 0,
            "byteLength" : 288,
            "byteOffset" : 85444,
            "target" : 34962
        },
        {
            "buffer" : 0,
            "byteLength" : 192,
            "byteOffset" : 85732,
            "target" : 34962
        },
        {
            "buffer" : 0,
            "byteLength" : 288,
            "byteOffset" : 85924,
            "target" : 34962
        },
        {
            "buffer" : 0,
            "byteLength" : 4104,
            "byteOffset" : 86212,
            "target" : 34962
        },
        {
            "buffer" : 0,
            "byteLength" : 2736,
            "byteOffset" : 90316,
            "target" : 34962
        },
        {
            "buffer" : 0,
            "byteLength" : 4104,
            "byteOffset" : 93052,
            "target" : 34962
        },
        {
            "buffer" : 0,
            "byteLength" : 768,
            "byteOffset" : 97156,
            "target" : 34963
        },
        {
            "buffer" : 0,
            "byteLength" : 308,
            "byteOffset" : 97924
        },
        {
            "buffer" : 0,
            "byteLength" : 1920,
            "byteOffset" : 98232,
            "target" : 34962
        },
        {
            "buffer" : 0,
            "byteLength" : 1280,
            "byteOffset" : 100152,
            "target" : 34962
        },
        {
            "buffer" : 0,
            "byteLength" : 1920,
            "byteOffset" : 101432,
            "target" : 34962
        },
        {
            "buffer" : 0,
            "byteLength" : 576,
            "byteOffset" : 103352,
            "target" : 34963
        },
        {
            "buffer" : 0,
            "byteLength" : 16,
            "byteOffset" : 103928,
            "target" : 34962
        },
        {
            "buffer" : 0,
            "byteLength" : 48,
            "byteOffset" : 103944,
            "target" : 34962
        },
        {
            "buffer" : 0,
            "byteLength" : 32,
            "byteOffset" : 103992,
            "target" : 34962
        },
        {
            "buffer" : 0,
            "byteLength" : 48,
            "byteOffset" : 104024,
            "target" : 34962
        }
    ],
    "samplers" : [
        {
            "magFilter" : 9728,
            "minFilter" : 9984
        },
        {
            "magFilter" : 9729,
            "minFilter" : 9987
        }
    ],
    "buffers" : [
        {
            "byteLength" : 104072,
            "uri" : "data:application/octet-stream;base64,"
        }
    ]
}
