{
    "asset" : {
        "generator" : "Khronos glTF Blender I/O v1.7.33",
        "version" : "2.0"
    },
    "extensionsUsed" : [
        "KHR_materials_unlit"
    ],
    "scene" : 0,
    "scenes" : [
        {
            "extras" : {
                "t3dExportOnSave__" : 1,
                "t3dExportFormat__" : 2,
                "t3dPackTextures__" : 0,
                "t3dExportLights__" : 0
            },
            "name" : "Scene",
            "nodes" : [
                0,
                1,
                2,
                3,
                4,
                5,
                6,
                7,
                8,
                9,
                10,
                11
            ]
        }
    ],
    "nodes" : [
        {
            "extras" : {
                "t3dBoundsType__" : 1
            },
            "mesh" : 0,
            "name" : "Cube.003",
            "scale" : [
                8,
                1,
                2
            ],
            "translation" : [
                -23,
                1,
                0
            ]
        },
        {
            "extras" : {
                "t3dBoundsType__" : 3
            },
            "mesh" : 1,
            "name" : "Sphere",
            "translation" : [
                0,
                1,
                0
            ]
        },
        {
            "extras" : {
                "t3dBoundsType__" : 3
            },
            "mesh" : 2,
            "name" : "Cylinder",
            "translation" : [
                4,
                1,
                0
            ]
        },
        {
            "extras" : {
                "t3dBoundsType__" : 1
            },
            "mesh" : 0,
            "name" : "Cube.006",
            "rotation" : [
                0,
                0.3826834559440613,
                0,
                0.9238795042037964
            ],
            "translation" : [
                1.5140012502670288,
                1,
                -5.510545253753662
            ]
        },
        {
            "extras" : {
                "t3dBoundsType__" : 1
            },
            "mesh" : 0,
            "name" : "Cube.007",
            "rotation" : [
                0,
                -1,
                0,
                -1.6292068494294654e-07
            ],
            "translation" : [
                7.514001369476318,
                1,
                -2.010545253753662
            ]
        },
        {
            "extras" : {
                "t3dBoundsType__" : 1
            },
            "mesh" : 3,
            "name" : "Cube",
            "translation" : [
                3,
                1,
                4
            ]
        },
        {
            "extras" : {
                "t3dBoundsType__" : 4
            },
            "mesh" : 4,
            "name" : "Plane",
            "translation" : [
                12.5,
                1,
                3.5999999046325684
            ]
        },
        {
            "extras" : {
                "t3dBoundsType__" : 4
            },
            "mesh" : 5,
            "name" : "Ground",
            "translation" : [
                0,
                1,
                0
            ]
        },
        {
            "extras" : {
                "t3dBoundsType__" : 2,
                "t3dCapsuleCustomEnabled__" : 0
            },
            "mesh" : 6,
            "name" : "YellowCapsule",
            "translation" : [
                -3,
                2,
                4
            ]
        },
        {
            "extras" : {
                "t3dBoundsType__" : 1
            },
            "mesh" : 0,
            "name" : "Cube.001",
            "rotation" : [
                0,
                0.7071068286895752,
                0,
                0.7071068286895752
            ],
            "translation" : [
                11.514001846313477,
                3,
                -2.010545253753662
            ]
        },
        {
            "extras" : {
                "t3dBoundsType__" : 1
            },
            "mesh" : 0,
            "name" : "Cube.002",
            "rotation" : [
                0,
                1,
                0,
                -1.6292068494294654e-07
            ],
            "translation" : [
                12.514001846313477,
                5,
                -2.010545253753662
            ]
        },
        {
            "extras" : {
                "t3dBoundsType__" : 2
            },
            "mesh" : 7,
            "name" : "StaticCapsule",
            "rotation" : [
                0,
                0,
                0.42966026067733765,
                0.9029906392097473
            ],
            "translation" : [
                -9.80000114440918,
                2.0500006675720215,
                3.0000016689300537
            ]
        }
    ],
    "materials" : [
        {
            "extensions" : {
                "KHR_materials_unlit" : {}
            },
            "name" : "Vertex Color",
            "pbrMetallicRoughness" : {
                "metallicFactor" : 0,
                "roughnessFactor" : 0.9
            }
        }
    ],
    "meshes" : [
        {
            "name" : "Cube",
            "primitives" : [
                {
                    "attributes" : {
                        "POSITION" : 0,
                        "NORMAL" : 1,
                        "TEXCOORD_0" : 2,
                        "COLOR_0" : 3
                    },
                    "indices" : 4,
                    "material" : 0
                }
            ]
        },
        {
            "name" : "Sphere",
            "primitives" : [
                {
                    "attributes" : {
                        "POSITION" : 5,
                        "NORMAL" : 6,
                        "TEXCOORD_0" : 7,
                        "COLOR_0" : 8
                    },
                    "indices" : 9,
                    "material" : 0
                }
            ]
        },
        {
            "name" : "Cylinder",
            "primitives" : [
                {
                    "attributes" : {
                        "POSITION" : 10,
                        "NORMAL" : 11,
                        "TEXCOORD_0" : 12,
                        "COLOR_0" : 13
                    },
                    "indices" : 14,
                    "material" : 0
                }
            ]
        },
        {
            "name" : "Cube.004",
            "primitives" : [
                {
                    "attributes" : {
                        "POSITION" : 15,
                        "NORMAL" : 16,
                        "TEXCOORD_0" : 17,
                        "COLOR_0" : 18
                    },
                    "indices" : 19,
                    "material" : 0
                }
            ]
        },
        {
            "name" : "Plane",
            "primitives" : [
                {
                    "attributes" : {
                        "POSITION" : 20,
                        "NORMAL" : 21,
                        "TEXCOORD_0" : 22,
                        "COLOR_0" : 23
                    },
                    "indices" : 24,
                    "material" : 0
                }
            ]
        },
        {
            "name" : "Plane.002",
            "primitives" : [
                {
                    "attributes" : {
                        "POSITION" : 25,
                        "NORMAL" : 26,
                        "TEXCOORD_0" : 27,
                        "COLOR_0" : 28
                    },
                    "indices" : 29,
                    "material" : 0
                }
            ]
        },
        {
            "name" : "Cube.001",
            "primitives" : [
                {
                    "attributes" : {
                        "POSITION" : 30,
                        "NORMAL" : 31,
                        "TEXCOORD_0" : 32,
                        "COLOR_0" : 33
                    },
                    "indices" : 34,
                    "material" : 0
                }
            ]
        },
        {
            "name" : "Cube.002",
            "primitives" : [
                {
                    "attributes" : {
                        "POSITION" : 35,
                        "NORMAL" : 36,
                        "TEXCOORD_0" : 37,
                        "COLOR_0" : 38
                    },
                    "indices" : 39,
                    "material" : 0
                }
            ]
        }
    ],
    "accessors" : [
        {
            "bufferView" : 0,
            "componentType" : 5126,
            "count" : 48,
            "max" : [
                0.5,
                1,
                4
            ],
            "min" : [
                -0.5,
                -1,
                -4
            ],
            "type" : "VEC3"
        },
        {
            "bufferView" : 1,
            "componentType" : 5126,
            "count" : 48,
            "type" : "VEC3"
        },
        {
            "bufferView" : 2,
            "componentType" : 5126,
            "count" : 48,
            "type" : "VEC2"
        },
        {
            "bufferView" : 3,
            "componentType" : 5123,
            "count" : 48,
            "normalized" : true,
            "type" : "VEC4"
        },
        {
            "bufferView" : 4,
            "componentType" : 5123,
            "count" : 108,
            "type" : "SCALAR"
        },
        {
            "bufferView" : 5,
            "componentType" : 5126,
            "count" : 1984,
            "max" : [
                0.9999997019767761,
                1,
                0.9999994039535522
            ],
            "min" : [
                -0.9999990463256836,
                -1,
                -0.9999987483024597
            ],
            "type" : "VEC3"
        },
        {
            "bufferView" : 6,
            "componentType" : 5126,
            "count" : 1984,
            "type" : "VEC3"
        },
        {
            "bufferView" : 7,
            "componentType" : 5126,
            "count" : 1984,
            "type" : "VEC2"
        },
        {
            "bufferView" : 8,
            "componentType" : 5123,
            "count" : 1984,
            "normalized" : true,
            "type" : "VEC4"
        },
        {
            "bufferView" : 9,
            "componentType" : 5123,
            "count" : 2880,
            "type" : "SCALAR"
        },
        {
            "bufferView" : 10,
            "componentType" : 5126,
            "count" : 192,
            "max" : [
                1,
                1,
                1
            ],
            "min" : [
                -1,
                -1,
                -1
            ],
            "type" : "VEC3"
        },
        {
            "bufferView" : 11,
            "componentType" : 5126,
            "count" : 192,
            "type" : "VEC3"
        },
        {
            "bufferView" : 12,
            "componentType" : 5126,
            "count" : 192,
            "type" : "VEC2"
        },
        {
            "bufferView" : 13,
            "componentType" : 5123,
            "count" : 192,
            "normalized" : true,
            "type" : "VEC4"
        },
        {
            "bufferView" : 14,
            "componentType" : 5123,
            "count" : 372,
            "type" : "SCALAR"
        },
        {
            "bufferView" : 15,
            "componentType" : 5126,
            "count" : 24,
            "max" : [
                0.5,
                0.5,
                0.5
            ],
            "min" : [
                -0.5,
                -0.5,
                -0.5
            ],
            "type" : "VEC3"
        },
        {
            "bufferView" : 16,
            "componentType" : 5126,
            "count" : 24,
            "type" : "VEC3"
        },
        {
            "bufferView" : 17,
            "componentType" : 5126,
            "count" : 24,
            "type" : "VEC2"
        },
        {
            "bufferView" : 18,
            "componentType" : 5123,
            "count" : 24,
            "normalized" : true,
            "type" : "VEC4"
        },
        {
            "bufferView" : 19,
            "componentType" : 5123,
            "count" : 36,
            "type" : "SCALAR"
        },
        {
            "bufferView" : 20,
            "componentType" : 5126,
            "count" : 962,
            "max" : [
                26,
                1.4234769344329834,
                8
            ],
            "min" : [
                0,
                -1,
                -8
            ],
            "type" : "VEC3"
        },
        {
            "bufferView" : 21,
            "componentType" : 5126,
            "count" : 962,
            "type" : "VEC3"
        },
        {
            "bufferView" : 22,
            "componentType" : 5126,
            "count" : 962,
            "type" : "VEC2"
        },
        {
            "bufferView" : 23,
            "componentType" : 5123,
            "count" : 962,
            "normalized" : true,
            "type" : "VEC4"
        },
        {
            "bufferView" : 24,
            "componentType" : 5123,
            "count" : 1560,
            "type" : "SCALAR"
        },
        {
            "bufferView" : 25,
            "componentType" : 5126,
            "count" : 328,
            "max" : [
                50,
                3,
                50
            ],
            "min" : [
                -50,
                -1,
                -50
            ],
            "type" : "VEC3"
        },
        {
            "bufferView" : 26,
            "componentType" : 5126,
            "count" : 328,
            "type" : "VEC3"
        },
        {
            "bufferView" : 27,
            "componentType" : 5126,
            "count" : 328,
            "type" : "VEC2"
        },
        {
            "bufferView" : 28,
            "componentType" : 5123,
            "count" : 328,
            "normalized" : true,
            "type" : "VEC4"
        },
        {
            "bufferView" : 29,
            "componentType" : 5123,
            "count" : 1572,
            "type" : "SCALAR"
        },
        {
            "bufferView" : 30,
            "componentType" : 5126,
            "count" : 2176,
            "max" : [
                0.5,
                2,
                0.5
            ],
            "min" : [
                -0.49999988079071045,
                -2,
                -0.4999990463256836
            ],
            "type" : "VEC3"
        },
        {
            "bufferView" : 31,
            "componentType" : 5126,
            "count" : 2176,
            "type" : "VEC3"
        },
        {
            "bufferView" : 32,
            "componentType" : 5126,
            "count" : 2176,
            "type" : "VEC2"
        },
        {
            "bufferView" : 33,
            "componentType" : 5123,
            "count" : 2176,
            "normalized" : true,
            "type" : "VEC4"
        },
        {
            "bufferView" : 34,
            "componentType" : 5123,
            "count" : 3252,
            "type" : "SCALAR"
        },
        {
            "bufferView" : 35,
            "componentType" : 5126,
            "count" : 2176,
            "max" : [
                0.9999999403953552,
                4.5499982833862305,
                0.9999997615814209
            ],
            "min" : [
                -0.9999998211860657,
                -4.550001621246338,
                -0.9999983310699463
            ],
            "type" : "VEC3"
        },
        {
            "bufferView" : 36,
            "componentType" : 5126,
            "count" : 2176,
            "type" : "VEC3"
        },
        {
            "bufferView" : 37,
            "componentType" : 5126,
            "count" : 2176,
            "type" : "VEC2"
        },
        {
            "bufferView" : 38,
            "componentType" : 5123,
            "count" : 2176,
            "normalized" : true,
            "type" : "VEC4"
        },
        {
            "bufferView" : 39,
            "componentType" : 5123,
            "count" : 3252,
            "type" : "SCALAR"
        }
    ],
    "bufferViews" : [
        {
            "buffer" : 0,
            "byteLength" : 576,
            "byteOffset" : 0
        },
        {
            "buffer" : 0,
            "byteLength" : 576,
            "byteOffset" : 576
        },
        {
            "buffer" : 0,
            "byteLength" : 384,
            "byteOffset" : 1152
        },
        {
            "buffer" : 0,
            "byteLength" : 384,
            "byteOffset" : 1536
        },
        {
            "buffer" : 0,
            "byteLength" : 216,
            "byteOffset" : 1920
        },
        {
            "buffer" : 0,
            "byteLength" : 23808,
            "byteOffset" : 2136
        },
        {
            "buffer" : 0,
            "byteLength" : 23808,
            "byteOffset" : 25944
        },
        {
            "buffer" : 0,
            "byteLength" : 15872,
            "byteOffset" : 49752
        },
        {
            "buffer" : 0,
            "byteLength" : 15872,
            "byteOffset" : 65624
        },
        {
            "buffer" : 0,
            "byteLength" : 5760,
            "byteOffset" : 81496
        },
        {
            "buffer" : 0,
            "byteLength" : 2304,
            "byteOffset" : 87256
        },
        {
            "buffer" : 0,
            "byteLength" : 2304,
            "byteOffset" : 89560
        },
        {
            "buffer" : 0,
            "byteLength" : 1536,
            "byteOffset" : 91864
        },
        {
            "buffer" : 0,
            "byteLength" : 1536,
            "byteOffset" : 93400
        },
        {
            "buffer" : 0,
            "byteLength" : 744,
            "byteOffset" : 94936
        },
        {
            "buffer" : 0,
            "byteLength" : 288,
            "byteOffset" : 95680
        },
        {
            "buffer" : 0,
            "byteLength" : 288,
            "byteOffset" : 95968
        },
        {
            "buffer" : 0,
            "byteLength" : 192,
            "byteOffset" : 96256
        },
        {
            "buffer" : 0,
            "byteLength" : 192,
            "byteOffset" : 96448
        },
        {
            "buffer" : 0,
            "byteLength" : 72,
            "byteOffset" : 96640
        },
        {
            "buffer" : 0,
            "byteLength" : 11544,
            "byteOffset" : 96712
        },
        {
            "buffer" : 0,
            "byteLength" : 11544,
            "byteOffset" : 108256
        },
        {
            "buffer" : 0,
            "byteLength" : 7696,
            "byteOffset" : 119800
        },
        {
            "buffer" : 0,
            "byteLength" : 7696,
            "byteOffset" : 127496
        },
        {
            "buffer" : 0,
            "byteLength" : 3120,
            "byteOffset" : 135192
        },
        {
            "buffer" : 0,
            "byteLength" : 3936,
            "byteOffset" : 138312
        },
        {
            "buffer" : 0,
            "byteLength" : 3936,
            "byteOffset" : 142248
        },
        {
            "buffer" : 0,
            "byteLength" : 2624,
            "byteOffset" : 146184
        },
        {
            "buffer" : 0,
            "byteLength" : 2624,
            "byteOffset" : 148808
        },
        {
            "buffer" : 0,
            "byteLength" : 3144,
            "byteOffset" : 151432
        },
        {
            "buffer" : 0,
            "byteLength" : 26112,
            "byteOffset" : 154576
        },
        {
            "buffer" : 0,
            "byteLength" : 26112,
            "byteOffset" : 180688
        },
        {
            "buffer" : 0,
            "byteLength" : 17408,
            "byteOffset" : 206800
        },
        {
            "buffer" : 0,
            "byteLength" : 17408,
            "byteOffset" : 224208
        },
        {
            "buffer" : 0,
            "byteLength" : 6504,
            "byteOffset" : 241616
        },
        {
            "buffer" : 0,
            "byteLength" : 26112,
            "byteOffset" : 248120
        },
        {
            "buffer" : 0,
            "byteLength" : 26112,
            "byteOffset" : 274232
        },
        {
            "buffer" : 0,
            "byteLength" : 17408,
            "byteOffset" : 300344
        },
        {
            "buffer" : 0,
            "byteLength" : 17408,
            "byteOffset" : 317752
        },
        {
            "buffer" : 0,
            "byteLength" : 6504,
            "byteOffset" : 335160
        }
    ],
    "buffers" : [
        {
            "byteLength" : 341664,
            "uri" : "data:application/octet-stream;base64,"
        }
    ]
}
