{
	"asset":{
		"generator":"Khronos glTF Blender I/O v3.5.30",
		"version":"2.0"
	},
	"extensionsUsed":[
		"KHR_materials_unlit"
	],
	"scene":0,
	"scenes":[
		{
			"extras":{
				"t3dExportOnSave__":true,
				"t3dExportFormat__":2,
				"t3dPackTextures__":false,
				"t3dExportLights__":0,
				"t3dCameraResolution__":[
					1920,
					1080
				],
				"t3dExportFilepath__":"",
				"t3dExportCameras__":true,
				"t3dRenderResolutionW__":640,
				"t3dRenderResolutionH__":360,
				"t3dSectorRendering__":false,
				"t3dSectorRenderDepth__":0,
				"t3dPlaybackFPS__":60,
				"t3dAnimationSampling__":true,
				"t3dAnimationInterpolation__":true,
				"t3dCollections__":{
					"Collection":{
						"objects":[
							"Cube.003",
							"Sphere",
							"Cylinder",
							"Cube.006",
							"Cube.007",
							"Cube",
							"Plane",
							"Ground",
							"YellowCapsule",
							"Cube.001",
							"Cube.002",
							"StaticCapsule",
							"Cube.004"
						],
						"offset":[
							0.0,
							0.0,
							0.0
						]
					}
				},
				"t3dWorlds__":{
					"World":{
						"ambient color":[
							0.05087608844041824,
							0.05087608844041824,
							0.05087608844041824,
							1.0
						],
						"ambient energy":1.0
					}
				},
				"t3dCurrentWorld__":"World"
			},
			"name":"Scene",
			"nodes":[
				0,
				1,
				2,
				3,
				4,
				5,
				6,
				7,
				8,
				9,
				10,
				11,
				12
			]
		}
	],
	"nodes":[
		{
			"extras":{
				"t3dBoundsType__":1,
				"t3dOriginalLocalPosition__":[
					-26.0,
					0.0,
					1.0
				]
			},
			"mesh":0,
			"name":"Cube.003",
			"scale":[
				16,
				1,
				4
			],
			"translation":[
				-26,
				1,
				0
			]
		},
		{
			"extras":{
				"t3dBoundsType__":3,
				"t3dOriginalLocalPosition__":[
					0.0,
					0.0,
					1.0
				]
			},
			"mesh":1,
			"name":"Sphere",
			"translation":[
				0,
				1,
				0
			]
		},
		{
			"extras":{
				"t3dBoundsType__":3,
				"t3dOriginalLocalPosition__":[
					4.0,
					0.0,
					1.0
				]
			},
			"mesh":2,
			"name":"Cylinder",
			"translation":[
				4,
				1,
				0
			]
		},
		{
			"extras":{
				"t3dBoundsType__":1,
				"t3dOriginalLocalPosition__":[
					1.5140012502670288,
					5.510545253753662,
					1.0
				]
			},
			"mesh":0,
			"name":"Cube.006",
			"rotation":[
				0,
				0.3826834559440613,
				0,
				0.9238795638084412
			],
			"translation":[
				1.5140012502670288,
				1,
				-5.510545253753662
			]
		},
		{
			"extras":{
				"t3dBoundsType__":1,
				"t3dOriginalLocalPosition__":[
					7.514001369476318,
					2.010545253753662,
					1.0
				]
			},
			"mesh":0,
			"name":"Cube.007",
			"rotation":[
				0,
				1,
				0,
				1.6292068494294654e-07
			],
			"translation":[
				7.514001369476318,
				1,
				-2.010545253753662
			]
		},
		{
			"extras":{
				"t3dBoundsType__":1,
				"t3dOriginalLocalPosition__":[
					3.0,
					-4.0,
					1.0
				]
			},
			"mesh":3,
			"name":"Cube",
			"translation":[
				3,
				1,
				4
			]
		},
		{
			"extras":{
				"t3dBoundsType__":4,
				"t3dTrianglesCustomBroadphaseEnabled__":0,
				"t3dTrianglesCustomBroadphaseGridSize__":0,
				"t3dOriginalLocalPosition__":[
					12.5,
					-3.5999999046325684,
					1.0
				]
			},
			"mesh":4,
			"name":"Plane",
			"translation":[
				12.5,
				1,
				3.5999999046325684
			]
		},
		{
			"extras":{
				"t3dBoundsType__":4,
				"t3dTrianglesCustomBroadphaseEnabled__":0,
				"t3dTrianglesCustomBroadphaseGridSize__":0,
				"t3dOriginalLocalPosition__":[
					0.0,
					0.0,
					1.0
				]
			},
			"mesh":5,
			"name":"Ground",
			"translation":[
				0,
				1,
				0
			]
		},
		{
			"extras":{
				"t3dBoundsType__":2,
				"t3dCapsuleCustomEnabled__":0,
				"t3dOriginalLocalPosition__":[
					-3.0,
					-4.0,
					2.0
				]
			},
			"mesh":6,
			"name":"YellowCapsule",
			"translation":[
				-3,
				2,
				4
			]
		},
		{
			"extras":{
				"t3dBoundsType__":1,
				"t3dOriginalLocalPosition__":[
					11.514001846313477,
					2.010545253753662,
					3.0
				]
			},
			"mesh":0,
			"name":"Cube.001",
			"rotation":[
				0,
				0.7071068286895752,
				0,
				0.7071068286895752
			],
			"translation":[
				11.514001846313477,
				3,
				-2.010545253753662
			]
		},
		{
			"extras":{
				"t3dBoundsType__":1,
				"t3dOriginalLocalPosition__":[
					12.514001846313477,
					2.010545253753662,
					5.0
				]
			},
			"mesh":0,
			"name":"Cube.002",
			"rotation":[
				0,
				-1,
				0,
				1.6292068494294654e-07
			],
			"translation":[
				12.514001846313477,
				5,
				-2.010545253753662
			]
		},
		{
			"extras":{
				"t3dBoundsType__":2,
				"t3dOriginalLocalPosition__":[
					-9.80000114440918,
					-3.0000016689300537,
					2.0500006675720215
				]
			},
			"mesh":7,
			"name":"StaticCapsule",
			"rotation":[
				0,
				0,
				0.4296603500843048,
				0.9029906988143921
			],
			"translation":[
				-9.80000114440918,
				2.0500006675720215,
				3.0000016689300537
			]
		},
		{
			"extras":{
				"t3dBoundsType__":1,
				"t3dOriginalLocalPosition__":[
					31.0,
					21.0,
					1.0
				]
			},
			"mesh":0,
			"name":"Cube.004",
			"scale":[
				16,
				1,
				4
			],
			"translation":[
				31,
				1,
				-21
			]
		}
	],
	"materials":[
		{
			"extensions":{
				"KHR_materials_unlit":{}
			},
			"extras":{
				"t3dMaterialShadeless__":1
			},
			"name":"Vertex Color",
			"pbrMetallicRoughness":{
				"metallicFactor":0,
				"roughnessFactor":0.9
			}
		}
	],
	"meshes":[
		{
			"extras":{
				"t3dVertexColorNames__":[
					"Col"
				],
				"t3dActiveVertexColorIndex__":0
			},
			"name":"Cube",
			"primitives":[
				{
					"attributes":{
						"COLOR_0":0,
						"POSITION":1,
						"TEXCOORD_0":2,
						"NORMAL":3
					},
					"indices":4,
					"material":0
				}
			]
		},
		{
			"extras":{
				"t3dVertexColorNames__":[
					"Col"
				],
				"t3dActiveVertexColorIndex__":0
			},
			"name":"Sphere",
			"primitives":[
				{
					"attributes":{
						"COLOR_0":5,
						"POSITION":6,
						"TEXCOORD_0":7,
						"NORMAL":8
					},
					"indices":9,
					"material":0
				}
			]
		},
		{
			"extras":{
				"t3dVertexColorNames__":[
					"Col"
				],
				"t3dActiveVertexColorIndex__":0
			},
			"name":"Cylinder",
			"primitives":[
				{
					"attributes":{
						"COLOR_0":10,
						"POSITION":11,
						"TEXCOORD_0":12,
						"NORMAL":13
					},
					"indices":14,
					"material":0
				}
			]
		},
		{
			"extras":{
				"t3dVertexColorNames__":[
					"Col"
				],
				"t3dActiveVertexColorIndex__":0
			},
			"name":"Cube.004",
			"primitives":[
				{
					"attributes":{
						"COLOR_0":15,
						"POSITION":16,
						"TEXCOORD_0":17,
						"NORMAL":18
					},
					"indices":19,
					"material":0
				}
			]
		},
		{
			"extras":{
				"t3dVertexColorNames__":[
					"Col"
				],
				"t3dActiveVertexColorIndex__":0
			},
			"name":"Plane",
			"primitives":[
				{
					"attributes":{
						"COLOR_0":20,
						"POSITION":21,
						"TEXCOORD_0":22,
						"NORMAL":23
					},
					"indices":24,
					"material":0
				}
			]
		},
		{
			"extras":{
				"t3dVertexColorNames__":[
					"Col"
				],
				"t3dActiveVertexColorIndex__":0
			},
			"name":"Plane.002",
			"primitives":[
				{
					"attributes":{
						"COLOR_0":25,
						"POSITION":26,
						"TEXCOORD_0":27,
						"NORMAL":28
					},
					"indices":29,
					"material":0
				}
			]
		},
		{
			"extras":{
				"t3dVertexColorNames__":[
					"Col"
				],
				"t3dActiveVertexColorIndex__":0
			},
			"name":"Cube.001",
			"primitives":[
				{
					"attributes":{
						"COLOR_0":30,
						"POSITION":31,
						"TEXCOORD_0":32,
						"NORMAL":33
					},
					"indices":34,
					"material":0
				}
			]
		},
		{
			"extras":{
				"t3dVertexColorNames__":[
					"Col"
				],
				"t3dActiveVertexColorIndex__":0
			},
			"name":"Cube.002",
			"primitives":[
				{
					"attributes":{
						"COLOR_0":35,
						"POSITION":36,
						"TEXCOORD_0":37,
						"NORMAL":38
					},
					"indices":39,
					"material":0
				}
			]
		}
	],
	"accessors":[
		{
			"bufferView":0,
			"componentType":5123,
			"count":90,
			"normalized":true,
			"type":"VEC4"
		},
		{
			"bufferView":1,
			"componentType":5126,
			"count":90,
			"max":[
				0.5,
				1,
				4
			],
			"min":[
				-0.5,
				-1,
				-4
			],
			"type":"VEC3"
		},
		{
			"bufferView":2,
			"componentType":5126,
			"count":90,
			"type":"VEC2"
		},
		{
			"bufferView":3,
			"componentType":5126,
			"count":90,
			"type":"VEC3"
		},
		{
			"bufferView":4,
			"componentType":5123,
			"count":288,
			"type":"SCALAR"
		},
		{
			"bufferView":5,
			"componentType":5123,
			"count":1984,
			"normalized":true,
			"type":"VEC4"
		},
		{
			"bufferView":6,
			"componentType":5126,
			"count":1984,
			"max":[
				0.9999997019767761,
				1,
				0.9999994039535522
			],
			"min":[
				-0.9999990463256836,
				-1,
				-0.9999987483024597
			],
			"type":"VEC3"
		},
		{
			"bufferView":7,
			"componentType":5126,
			"count":1984,
			"type":"VEC2"
		},
		{
			"bufferView":8,
			"componentType":5126,
			"count":1984,
			"type":"VEC3"
		},
		{
			"bufferView":9,
			"componentType":5123,
			"count":2880,
			"type":"SCALAR"
		},
		{
			"bufferView":10,
			"componentType":5123,
			"count":192,
			"normalized":true,
			"type":"VEC4"
		},
		{
			"bufferView":11,
			"componentType":5126,
			"count":192,
			"max":[
				1,
				1,
				1
			],
			"min":[
				-1,
				-1,
				-1
			],
			"type":"VEC3"
		},
		{
			"bufferView":12,
			"componentType":5126,
			"count":192,
			"type":"VEC2"
		},
		{
			"bufferView":13,
			"componentType":5126,
			"count":192,
			"type":"VEC3"
		},
		{
			"bufferView":14,
			"componentType":5123,
			"count":372,
			"type":"SCALAR"
		},
		{
			"bufferView":15,
			"componentType":5123,
			"count":24,
			"normalized":true,
			"type":"VEC4"
		},
		{
			"bufferView":16,
			"componentType":5126,
			"count":24,
			"max":[
				0.5,
				0.5,
				0.5
			],
			"min":[
				-0.5,
				-0.5,
				-0.5
			],
			"type":"VEC3"
		},
		{
			"bufferView":17,
			"componentType":5126,
			"count":24,
			"type":"VEC2"
		},
		{
			"bufferView":18,
			"componentType":5126,
			"count":24,
			"type":"VEC3"
		},
		{
			"bufferView":19,
			"componentType":5123,
			"count":36,
			"type":"SCALAR"
		},
		{
			"bufferView":20,
			"componentType":5123,
			"count":1708,
			"normalized":true,
			"type":"VEC4"
		},
		{
			"bufferView":21,
			"componentType":5126,
			"count":1708,
			"max":[
				26,
				1.4234769344329834,
				8
			],
			"min":[
				0,
				-1,
				-8
			],
			"type":"VEC3"
		},
		{
			"bufferView":22,
			"componentType":5126,
			"count":1708,
			"type":"VEC2"
		},
		{
			"bufferView":23,
			"componentType":5126,
			"count":1708,
			"type":"VEC3"
		},
		{
			"bufferView":24,
			"componentType":5123,
			"count":3552,
			"type":"SCALAR"
		},
		{
			"bufferView":25,
			"componentType":5123,
			"count":328,
			"normalized":true,
			"type":"VEC4"
		},
		{
			"bufferView":26,
			"componentType":5126,
			"count":328,
			"max":[
				50,
				3,
				50
			],
			"min":[
				-50,
				-1,
				-50
			],
			"type":"VEC3"
		},
		{
			"bufferView":27,
			"componentType":5126,
			"count":328,
			"type":"VEC2"
		},
		{
			"bufferView":28,
			"componentType":5126,
			"count":328,
			"type":"VEC3"
		},
		{
			"bufferView":29,
			"componentType":5123,
			"count":1572,
			"type":"SCALAR"
		},
		{
			"bufferView":30,
			"componentType":5123,
			"count":2176,
			"normalized":true,
			"type":"VEC4"
		},
		{
			"bufferView":31,
			"componentType":5126,
			"count":2176,
			"max":[
				0.5,
				2,
				0.5
			],
			"min":[
				-0.49999988079071045,
				-2,
				-0.4999990463256836
			],
			"type":"VEC3"
		},
		{
			"bufferView":32,
			"componentType":5126,
			"count":2176,
			"type":"VEC2"
		},
		{
			"bufferView":33,
			"componentType":5126,
			"count":2176,
			"type":"VEC3"
		},
		{
			"bufferView":34,
			"componentType":5123,
			"count":3252,
			"type":"SCALAR"
		},
		{
			"bufferView":35,
			"componentType":5123,
			"count":2176,
			"normalized":true,
			"type":"VEC4"
		},
		{
			"bufferView":36,
			"componentType":5126,
			"count":2176,
			"max":[
				0.9999999403953552,
				4.5499982833862305,
				0.9999997615814209
			],
			"min":[
				-0.9999998211860657,
				-4.550001621246338,
				-0.9999983310699463
			],
			"type":"VEC3"
		},
		{
			"bufferView":37,
			"componentType":5126,
			"count":2176,
			"type":"VEC2"
		},
		{
			"bufferView":38,
			"componentType":5126,
			"count":2176,
			"type":"VEC3"
		},
		{
			"bufferView":39,
			"componentType":5123,
			"count":3252,
			"type":"SCALAR"
		}
	],
	"bufferViews":[
		{
			"buffer":0,
			"byteLength":720,
			"byteOffset":0,
			"target":34962
		},
		{
			"buffer":0,
			"byteLength":1080,
			"byteOffset":720,
			"target":34962
		},
		{
			"buffer":0,
			"byteLength":720,
			"byteOffset":1800,
			"target":34962
		},
		{
			"buffer":0,
			"byteLength":1080,
			"byteOffset":2520,
			"target":34962
		},
		{
			"buffer":0,
			"byteLength":576,
			"byteOffset":3600,
			"target":34963
		},
		{
			"buffer":0,
			"byteLength":15872,
			"byteOffset":4176,
			"target":34962
		},
		{
			"buffer":0,
			"byteLength":23808,
			"byteOffset":20048,
			"target":34962
		},
		{
			"buffer":0,
			"byteLength":15872,
			"byteOffset":43856,
			"target":34962
		},
		{
			"buffer":0,
			"byteLength":23808,
			"byteOffset":59728,
			"target":34962
		},
		{
			"buffer":0,
			"byteLength":5760,
			"byteOffset":83536,
			"target":34963
		},
		{
			"buffer":0,
			"byteLength":1536,
			"byteOffset":89296,
			"target":34962
		},
		{
			"buffer":0,
			"byteLength":2304,
			"byteOffset":90832,
			"target":34962
		},
		{
			"buffer":0,
			"byteLength":1536,
			"byteOffset":93136,
			"target":34962
		},
		{
			"buffer":0,
			"byteLength":2304,
			"byteOffset":94672,
			"target":34962
		},
		{
			"buffer":0,
			"byteLength":744,
			"byteOffset":96976,
			"target":34963
		},
		{
			"buffer":0,
			"byteLength":192,
			"byteOffset":97720,
			"target":34962
		},
		{
			"buffer":0,
			"byteLength":288,
			"byteOffset":97912,
			"target":34962
		},
		{
			"buffer":0,
			"byteLength":192,
			"byteOffset":98200,
			"target":34962
		},
		{
			"buffer":0,
			"byteLength":288,
			"byteOffset":98392,
			"target":34962
		},
		{
			"buffer":0,
			"byteLength":72,
			"byteOffset":98680,
			"target":34963
		},
		{
			"buffer":0,
			"byteLength":13664,
			"byteOffset":98752,
			"target":34962
		},
		{
			"buffer":0,
			"byteLength":20496,
			"byteOffset":112416,
			"target":34962
		},
		{
			"buffer":0,
			"byteLength":13664,
			"byteOffset":132912,
			"target":34962
		},
		{
			"buffer":0,
			"byteLength":20496,
			"byteOffset":146576,
			"target":34962
		},
		{
			"buffer":0,
			"byteLength":7104,
			"byteOffset":167072,
			"target":34963
		},
		{
			"buffer":0,
			"byteLength":2624,
			"byteOffset":174176,
			"target":34962
		},
		{
			"buffer":0,
			"byteLength":3936,
			"byteOffset":176800,
			"target":34962
		},
		{
			"buffer":0,
			"byteLength":2624,
			"byteOffset":180736,
			"target":34962
		},
		{
			"buffer":0,
			"byteLength":3936,
			"byteOffset":183360,
			"target":34962
		},
		{
			"buffer":0,
			"byteLength":3144,
			"byteOffset":187296,
			"target":34963
		},
		{
			"buffer":0,
			"byteLength":17408,
			"byteOffset":190440,
			"target":34962
		},
		{
			"buffer":0,
			"byteLength":26112,
			"byteOffset":207848,
			"target":34962
		},
		{
			"buffer":0,
			"byteLength":17408,
			"byteOffset":233960,
			"target":34962
		},
		{
			"buffer":0,
			"byteLength":26112,
			"byteOffset":251368,
			"target":34962
		},
		{
			"buffer":0,
			"byteLength":6504,
			"byteOffset":277480,
			"target":34963
		},
		{
			"buffer":0,
			"byteLength":17408,
			"byteOffset":283984,
			"target":34962
		},
		{
			"buffer":0,
			"byteLength":26112,
			"byteOffset":301392,
			"target":34962
		},
		{
			"buffer":0,
			"byteLength":17408,
			"byteOffset":327504,
			"target":34962
		},
		{
			"buffer":0,
			"byteLength":26112,
			"byteOffset":344912,
			"target":34962
		},
		{
			"buffer":0,
			"byteLength":6504,
			"byteOffset":371024,
			"target":34963
		}
	],
	"buffers":[
		{
			"byteLength":377528,
			"uri":"data:application/octet-stream;base64,"
		}
	]
}
