{
    "asset" : {
        "generator" : "Khronos glTF Blender I/O v1.7.33",
        "version" : "2.0"
    },
    "extensionsUsed" : [
        "KHR_materials_unlit"
    ],
    "scene" : 0,
    "scenes" : [
        {
            "extras" : {
                "t3dExportOnSave__" : 1,
                "t3dExportFormat__" : 2,
                "t3dPackTextures__" : 1,
                "t3dCollections__" : {
                    "Collection" : {
                        "objects" : [
                            "Cube",
                            "Plane",
                            "Cube.001",
                            "Cube.002",
                            "Cube.003",
                            "Cube.004",
                            "Cube.005",
                            "Cube.006",
                            "Cube.007",
                            "Cube.008",
                            "Cube.009",
                            "CameraHandle",
                            "Cube.010",
                            "Cube.011",
                            "Cube.012",
                            "Cube.013",
                            "Cube.014",
                            "Cube.015",
                            "Cube.016",
                            "Cube.017",
                            "Cube.018",
                            "Cube.019",
                            "Cube.020",
                            "Cube.021",
                            "Cube.022",
                            "Cube.023",
                            "Cube.024",
                            "Cube.025",
                            "Cube.026",
                            "Cube.027",
                            "Cube.028",
                            "Cube.029",
                            "Cube.030",
                            "Cube.031",
                            "Cube.032",
                            "Cube.033",
                            "Cube.034",
                            "Cube.035",
                            "Cube.036",
                            "Cube.037",
                            "Cube.038",
                            "Cube.039",
                            "Cube.040",
                            "Cube.041",
                            "Cube.042",
                            "Cube.043",
                            "Cube.044",
                            "Cube.045",
                            "Cube.046",
                            "Cube.047",
                            "Cube.048",
                            "Cube.049",
                            "Cube.050",
                            "Cube.051",
                            "Cube.052",
                            "Cube.053"
                        ],
                        "offset" : [
                            0.0,
                            0.0,
                            0.0
                        ]
                    }
                }
            },
            "name" : "Scene",
            "nodes" : [
                0,
                1,
                2,
                3,
                4,
                5,
                6,
                7,
                8,
                9,
                10,
                13,
                14,
                15,
                16,
                17,
                18,
                19,
                20,
                21,
                22,
                23,
                24,
                25,
                26,
                27,
                28,
                29,
                30,
                31,
                32,
                33,
                34,
                35,
                36,
                37,
                38,
                39,
                40,
                41,
                42,
                43,
                44,
                45,
                46,
                47,
                48,
                49,
                50,
                51,
                52,
                53,
                54,
                55,
                56,
                57
            ]
        }
    ],
    "nodes" : [
        {
            "mesh" : 0,
            "name" : "Cube",
            "translation" : [
                0,
                3,
                0
            ]
        },
        {
            "mesh" : 1,
            "name" : "Plane"
        },
        {
            "mesh" : 0,
            "name" : "Cube.001",
            "translation" : [
                -2,
                3,
                -4
            ]
        },
        {
            "mesh" : 0,
            "name" : "Cube.002",
            "translation" : [
                4,
                3,
                -7
            ]
        },
        {
            "mesh" : 0,
            "name" : "Cube.003",
            "translation" : [
                2,
                3,
                -4
            ]
        },
        {
            "mesh" : 0,
            "name" : "Cube.004",
            "translation" : [
                5,
                3,
                2
            ]
        },
        {
            "mesh" : 0,
            "name" : "Cube.005",
            "translation" : [
                -1,
                3,
                5
            ]
        },
        {
            "mesh" : 0,
            "name" : "Cube.006",
            "translation" : [
                -6,
                3,
                1
            ]
        },
        {
            "mesh" : 0,
            "name" : "Cube.007",
            "translation" : [
                -7,
                3,
                -5
            ]
        },
        {
            "mesh" : 0,
            "name" : "Cube.008",
            "translation" : [
                -0.15543651580810547,
                3,
                -0.9048517346382141
            ]
        },
        {
            "mesh" : 0,
            "name" : "Cube.009",
            "translation" : [
                -1.959215521812439,
                3,
                -1.6558959484100342
            ]
        },
        {
            "camera" : 0,
            "name" : "CameraPlaceholder_Orientation",
            "rotation" : [
                -0.7071067690849304,
                0,
                0,
                0.7071067690849304
            ]
        },
        {
            "children" : [
                11
            ],
            "name" : "CameraPlaceholder",
            "rotation" : [
                0.3535534143447876,
                0.3535534143447876,
                -0.1464466005563736,
                0.8535534143447876
            ],
            "translation" : [
                12.24513053894043,
                17.087017059326172,
                12.254621505737305
            ]
        },
        {
            "children" : [
                12
            ],
            "name" : "CameraHandle"
        },
        {
            "mesh" : 0,
            "name" : "Cube.010",
            "translation" : [
                4.416183948516846,
                3,
                6.5643815994262695
            ]
        },
        {
            "mesh" : 0,
            "name" : "Cube.011",
            "translation" : [
                8.821342468261719,
                3,
                -1.6621198654174805
            ]
        },
        {
            "mesh" : 0,
            "name" : "Cube.012",
            "translation" : [
                8.184452056884766,
                3,
                -8.031023979187012
            ]
        },
        {
            "mesh" : 0,
            "name" : "Cube.013",
            "translation" : [
                2.080918788909912,
                3,
                -13.019998550415039
            ]
        },
        {
            "mesh" : 0,
            "name" : "Cube.014",
            "translation" : [
                -2.483462333679199,
                3,
                -9.570175170898438
            ]
        },
        {
            "mesh" : 0,
            "name" : "Cube.015",
            "translation" : [
                -4.606430530548096,
                3,
                -13.922259330749512
            ]
        },
        {
            "mesh" : 0,
            "name" : "Cube.016",
            "translation" : [
                -8.374698638916016,
                3,
                -10.313213348388672
            ]
        },
        {
            "mesh" : 0,
            "name" : "Cube.017",
            "translation" : [
                -13.045228958129883,
                3,
                -6.120351791381836
            ]
        },
        {
            "mesh" : 0,
            "name" : "Cube.018",
            "translation" : [
                -12.832932472229004,
                3,
                -1.4498224258422852
            ]
        },
        {
            "mesh" : 0,
            "name" : "Cube.019",
            "translation" : [
                -12.036819458007812,
                3,
                3.910672187805176
            ]
        },
        {
            "mesh" : 0,
            "name" : "Cube.020",
            "translation" : [
                -8.53392219543457,
                3,
                0.9385168552398682
            ]
        },
        {
            "mesh" : 0,
            "name" : "Cube.021",
            "translation" : [
                -8.852367401123047,
                3,
                8.740424156188965
            ]
        },
        {
            "mesh" : 0,
            "name" : "Cube.022",
            "translation" : [
                -1.1035337448120117,
                3,
                7.519717216491699
            ]
        },
        {
            "mesh" : 0,
            "name" : "Cube.023",
            "translation" : [
                -2.5365371704101562,
                3,
                11.765653610229492
            ]
        },
        {
            "mesh" : 0,
            "name" : "Cube.024",
            "translation" : [
                3.3016247749328613,
                3,
                11.128763198852539
            ]
        },
        {
            "mesh" : 0,
            "name" : "Cube.025",
            "translation" : [
                10.732011795043945,
                3,
                7.6789398193359375
            ]
        },
        {
            "mesh" : 0,
            "name" : "Cube.026",
            "translation" : [
                11.20967960357666,
                3,
                0.08932924270629883
            ]
        },
        {
            "mesh" : 0,
            "name" : "Cube.027",
            "translation" : [
                12.11194133758545,
                3,
                -7.50028133392334
            ]
        },
        {
            "mesh" : 0,
            "name" : "Cube.028",
            "translation" : [
                9.352083206176758,
                3,
                -11.16240119934082
            ]
        },
        {
            "mesh" : 0,
            "name" : "Cube.029",
            "translation" : [
                7.069892883300781,
                3,
                -6.54494571685791
            ]
        },
        {
            "mesh" : 0,
            "name" : "Cube.030",
            "translation" : [
                6.8045220375061035,
                3,
                -8.349468231201172
            ]
        },
        {
            "mesh" : 0,
            "name" : "Cube.031",
            "translation" : [
                7.97215461730957,
                3,
                -9.4109525680542
            ]
        },
        {
            "mesh" : 0,
            "name" : "Cube.032",
            "translation" : [
                5.5307416915893555,
                3,
                -12.966923713684082
            ]
        },
        {
            "mesh" : 0,
            "name" : "Cube.033",
            "translation" : [
                4.734628677368164,
                3,
                -17.00056266784668
            ]
        },
        {
            "mesh" : 0,
            "name" : "Cube.034",
            "translation" : [
                -0.3074207305908203,
                3,
                -18.592788696289062
            ]
        },
        {
            "mesh" : 0,
            "name" : "Cube.035",
            "translation" : [
                -5.561766624450684,
                3,
                -16.8944149017334
            ]
        },
        {
            "mesh" : 0,
            "name" : "Cube.036",
            "translation" : [
                -8.215476989746094,
                3,
                -17.00056266784668
            ]
        },
        {
            "mesh" : 0,
            "name" : "Cube.037",
            "translation" : [
                -14.265935897827148,
                3,
                -11.42777156829834
            ]
        },
        {
            "mesh" : 0,
            "name" : "Cube.038",
            "translation" : [
                -16.654273986816406,
                3,
                -5.271164417266846
            ]
        },
        {
            "mesh" : 0,
            "name" : "Cube.039",
            "translation" : [
                -16.44197654724121,
                3,
                2.9022631645202637
            ]
        },
        {
            "mesh" : 0,
            "name" : "Cube.040",
            "translation" : [
                -15.115121841430664,
                3,
                8.20968246459961
            ]
        },
        {
            "mesh" : 0,
            "name" : "Cube.041",
            "translation" : [
                -10.179221153259277,
                3,
                13.835548400878906
            ]
        },
        {
            "mesh" : 0,
            "name" : "Cube.042",
            "translation" : [
                -3.863391399383545,
                3,
                16.064664840698242
            ]
        },
        {
            "mesh" : 0,
            "name" : "Cube.043",
            "translation" : [
                2.133993625640869,
                3,
                15.905442237854004
            ]
        },
        {
            "mesh" : 0,
            "name" : "Cube.044",
            "translation" : [
                1.709399938583374,
                3,
                14.26014232635498
            ]
        },
        {
            "mesh" : 0,
            "name" : "Cube.045",
            "translation" : [
                6.910671234130859,
                3,
                15.427774429321289
            ]
        },
        {
            "mesh" : 0,
            "name" : "Cube.046",
            "translation" : [
                9.723604202270508,
                3,
                11.234912872314453
            ]
        },
        {
            "mesh" : 0,
            "name" : "Cube.047",
            "translation" : [
                15.402544021606445,
                3,
                14.26014232635498
            ]
        },
        {
            "mesh" : 0,
            "name" : "Cube.048",
            "translation" : [
                16.517101287841797,
                3,
                6.245937347412109
            ]
        },
        {
            "mesh" : 0,
            "name" : "Cube.049",
            "translation" : [
                16.3048038482666,
                3,
                0.4608492851257324
            ]
        },
        {
            "mesh" : 0,
            "name" : "Cube.050",
            "translation" : [
                15.827136039733887,
                3,
                -5.165016174316406
            ]
        },
        {
            "mesh" : 0,
            "name" : "Cube.051",
            "translation" : [
                14.234910011291504,
                3,
                -8.720987319946289
            ]
        },
        {
            "mesh" : 0,
            "name" : "Cube.052",
            "translation" : [
                13.226500511169434,
                3,
                -9.941694259643555
            ]
        },
        {
            "mesh" : 0,
            "name" : "Cube.053",
            "translation" : [
                11.793497085571289,
                3,
                -15.196040153503418
            ]
        }
    ],
    "cameras" : [
        {
            "name" : "Camera",
            "perspective" : {
                "aspectRatio" : 1.7777777777777777,
                "yfov" : 0.6280287869355033,
                "zfar" : 100,
                "znear" : 0.10000000149011612
            },
            "type" : "perspective"
        }
    ],
    "materials" : [
        {
            "extensions" : {
                "KHR_materials_unlit" : {}
            },
            "extras" : {
                "t3dMaterialShadeless__" : 1
            },
            "name" : "TestImage",
            "pbrMetallicRoughness" : {
                "baseColorTexture" : {
                    "index" : 0
                },
                "metallicFactor" : 0,
                "roughnessFactor" : 0.9
            }
        },
        {
            "extensions" : {
                "KHR_materials_unlit" : {}
            },
            "extras" : {
                "t3dMaterialShadeless__" : 1
            },
            "name" : "Plane",
            "pbrMetallicRoughness" : {
                "metallicFactor" : 0,
                "roughnessFactor" : 0.9
            }
        }
    ],
    "meshes" : [
        {
            "extras" : {
                "t3dVertexColorNames__" : []
            },
            "name" : "Cube",
            "primitives" : [
                {
                    "attributes" : {
                        "POSITION" : 0,
                        "NORMAL" : 1,
                        "TEXCOORD_0" : 2
                    },
                    "indices" : 3,
                    "material" : 0
                }
            ]
        },
        {
            "extras" : {
                "t3dVertexColorNames__" : [
                    "Col"
                ]
            },
            "name" : "Plane",
            "primitives" : [
                {
                    "attributes" : {
                        "POSITION" : 4,
                        "NORMAL" : 5,
                        "TEXCOORD_0" : 6,
                        "COLOR_0" : 7
                    },
                    "indices" : 8,
                    "material" : 1
                }
            ]
        }
    ],
    "textures" : [
        {
            "sampler" : 0,
            "source" : 0
        }
    ],
    "images" : [
        {
            "bufferView" : 4,
            "mimeType" : "image/png",
            "name" : "testimage"
        }
    ],
    "accessors" : [
        {
            "bufferView" : 0,
            "componentType" : 5126,
            "count" : 64,
            "max" : [
                0.5,
                0,
                0.5
            ],
            "min" : [
                -0.5,
                -3,
                -0.5
            ],
            "type" : "VEC3"
        },
        {
            "bufferView" : 1,
            "componentType" : 5126,
            "count" : 64,
            "type" : "VEC3"
        },
        {
            "bufferView" : 2,
            "componentType" : 5126,
            "count" : 64,
            "type" : "VEC2"
        },
        {
            "bufferView" : 3,
            "componentType" : 5123,
            "count" : 96,
            "type" : "SCALAR"
        },
        {
            "bufferView" : 5,
            "componentType" : 5126,
            "count" : 25,
            "max" : [
                20,
                0,
                20
            ],
            "min" : [
                -20,
                0,
                -20
            ],
            "type" : "VEC3"
        },
        {
            "bufferView" : 6,
            "componentType" : 5126,
            "count" : 25,
            "type" : "VEC3"
        },
        {
            "bufferView" : 7,
            "componentType" : 5126,
            "count" : 25,
            "type" : "VEC2"
        },
        {
            "bufferView" : 8,
            "componentType" : 5123,
            "count" : 25,
            "normalized" : true,
            "type" : "VEC4"
        },
        {
            "bufferView" : 9,
            "componentType" : 5123,
            "count" : 96,
            "type" : "SCALAR"
        }
    ],
    "bufferViews" : [
        {
            "buffer" : 0,
            "byteLength" : 768,
            "byteOffset" : 0
        },
        {
            "buffer" : 0,
            "byteLength" : 768,
            "byteOffset" : 768
        },
        {
            "buffer" : 0,
            "byteLength" : 512,
            "byteOffset" : 1536
        },
        {
            "buffer" : 0,
            "byteLength" : 192,
            "byteOffset" : 2048
        },
        {
            "buffer" : 0,
            "byteLength" : 195,
            "byteOffset" : 2240
        },
        {
            "buffer" : 0,
            "byteLength" : 300,
            "byteOffset" : 2436
        },
        {
            "buffer" : 0,
            "byteLength" : 300,
            "byteOffset" : 2736
        },
        {
            "buffer" : 0,
            "byteLength" : 200,
            "byteOffset" : 3036
        },
        {
            "buffer" : 0,
            "byteLength" : 200,
            "byteOffset" : 3236
        },
        {
            "buffer" : 0,
            "byteLength" : 192,
            "byteOffset" : 3436
        }
    ],
    "samplers" : [
        {
            "magFilter" : 9728,
            "minFilter" : 9984
        }
    ],
    "buffers" : [
        {
            "byteLength" : 3628,
            "uri" : "data:application/octet-stream;base64,"
        }
    ]
}
