{
    "asset" : {
        "generator" : "Khronos glTF Blender I/O v1.7.33",
        "version" : "2.0"
    },
    "extensionsUsed" : [
        "KHR_materials_unlit"
    ],
    "scene" : 0,
    "scenes" : [
        {
            "extras" : {
                "t3dExportOnSave__" : 1,
                "t3dExportFormat__" : 2,
                "t3dPackTextures__" : 1,
                "t3dExportLights__" : 0,
                "t3dCollections__" : {
                    "Collection" : {
                        "objects" : [
                            "Table"
                        ],
                        "offset" : [
                            0.0,
                            0.0,
                            0.0
                        ]
                    },
                    "Skinned" : {
                        "objects" : [
                            "Armature",
                            "SkinnedMesh"
                        ],
                        "offset" : [
                            0.0,
                            0.0,
                            0.0
                        ]
                    }
                }
            },
            "name" : "Scene",
            "nodes" : [
                6,
                7,
                9
            ]
        }
    ],
    "nodes" : [
        {
            "name" : "5",
            "translation" : [
                0,
                0.5,
                0
            ]
        },
        {
            "children" : [
                0
            ],
            "name" : "4",
            "translation" : [
                0,
                0.5,
                0
            ]
        },
        {
            "children" : [
                1
            ],
            "name" : "3",
            "translation" : [
                0,
                0.5,
                0
            ]
        },
        {
            "children" : [
                2
            ],
            "name" : "2",
            "translation" : [
                0,
                0.5,
                0
            ]
        },
        {
            "children" : [
                3
            ],
            "name" : "1",
            "translation" : [
                0,
                0.5,
                0
            ]
        },
        {
            "children" : [
                4
            ],
            "name" : "Root"
        },
        {
            "children" : [
                5
            ],
            "name" : "Armature"
        },
        {
            "mesh" : 0,
            "name" : "SkinnedMesh",
            "skin" : 0
        },
        {
            "mesh" : 1,
            "name" : "Sphere",
            "translation" : [
                0,
                1.0098087787628174,
                0
            ]
        },
        {
            "children" : [
                8
            ],
            "mesh" : 2,
            "name" : "Table",
            "translation" : [
                10,
                0,
                0
            ]
        }
    ],
    "animations" : [
        {
            "channels" : [
                {
                    "sampler" : 0,
                    "target" : {
                        "node" : 5,
                        "path" : "rotation"
                    }
                },
                {
                    "sampler" : 1,
                    "target" : {
                        "node" : 4,
                        "path" : "rotation"
                    }
                },
                {
                    "sampler" : 2,
                    "target" : {
                        "node" : 3,
                        "path" : "rotation"
                    }
                },
                {
                    "sampler" : 3,
                    "target" : {
                        "node" : 2,
                        "path" : "rotation"
                    }
                },
                {
                    "sampler" : 4,
                    "target" : {
                        "node" : 1,
                        "path" : "rotation"
                    }
                },
                {
                    "sampler" : 5,
                    "target" : {
                        "node" : 0,
                        "path" : "rotation"
                    }
                }
            ],
            "name" : "ArmatureAction",
            "samplers" : [
                {
                    "input" : 17,
                    "interpolation" : "LINEAR",
                    "output" : 18
                },
                {
                    "input" : 19,
                    "interpolation" : "LINEAR",
                    "output" : 20
                },
                {
                    "input" : 19,
                    "interpolation" : "LINEAR",
                    "output" : 21
                },
                {
                    "input" : 19,
                    "interpolation" : "LINEAR",
                    "output" : 22
                },
                {
                    "input" : 19,
                    "interpolation" : "LINEAR",
                    "output" : 23
                },
                {
                    "input" : 19,
                    "interpolation" : "LINEAR",
                    "output" : 24
                }
            ]
        },
        {
            "channels" : [
                {
                    "sampler" : 0,
                    "target" : {
                        "node" : 9,
                        "path" : "rotation"
                    }
                }
            ],
            "name" : "SmoothRoll",
            "samplers" : [
                {
                    "input" : 25,
                    "interpolation" : "LINEAR",
                    "output" : 26
                }
            ]
        },
        {
            "channels" : [
                {
                    "sampler" : 0,
                    "target" : {
                        "node" : 9,
                        "path" : "rotation"
                    }
                }
            ],
            "name" : "StepRoll",
            "samplers" : [
                {
                    "input" : 25,
                    "interpolation" : "STEP",
                    "output" : 27
                }
            ]
        }
    ],
    "materials" : [
        {
            "doubleSided" : true,
            "extensions" : {
                "KHR_materials_unlit" : {}
            },
            "name" : "TestImage",
            "pbrMetallicRoughness" : {
                "baseColorTexture" : {
                    "index" : 0
                },
                "metallicFactor" : 0,
                "roughnessFactor" : 0.9
            }
        },
        {
            "extensions" : {
                "KHR_materials_unlit" : {}
            },
            "extras" : {
                "t3dMaterialShadeless__" : 1
            },
            "name" : "Material",
            "pbrMetallicRoughness" : {
                "metallicFactor" : 0,
                "roughnessFactor" : 0.9
            }
        }
    ],
    "meshes" : [
        {
            "extras" : {
                "t3dVertexColorNames__" : []
            },
            "name" : "SkinnedMesh",
            "primitives" : [
                {
                    "attributes" : {
                        "POSITION" : 0,
                        "NORMAL" : 1,
                        "TEXCOORD_0" : 2,
                        "JOINTS_0" : 3,
                        "WEIGHTS_0" : 4
                    },
                    "indices" : 5,
                    "material" : 0
                }
            ]
        },
        {
            "extras" : {
                "t3dVertexColorNames__" : [
                    "Col"
                ]
            },
            "name" : "Sphere",
            "primitives" : [
                {
                    "attributes" : {
                        "POSITION" : 7,
                        "NORMAL" : 8,
                        "TEXCOORD_0" : 9,
                        "COLOR_0" : 10
                    },
                    "indices" : 11,
                    "material" : 1
                }
            ]
        },
        {
            "extras" : {
                "t3dVertexColorNames__" : [
                    "Col"
                ]
            },
            "name" : "Table",
            "primitives" : [
                {
                    "attributes" : {
                        "POSITION" : 12,
                        "NORMAL" : 13,
                        "TEXCOORD_0" : 14,
                        "COLOR_0" : 15
                    },
                    "indices" : 16,
                    "material" : 1
                }
            ]
        }
    ],
    "textures" : [
        {
            "sampler" : 0,
            "source" : 0
        }
    ],
    "images" : [
        {
            "bufferView" : 6,
            "mimeType" : "image/png",
            "name" : "testimage"
        }
    ],
    "skins" : [
        {
            "inverseBindMatrices" : 6,
            "joints" : [
                5,
                4,
                3,
                2,
                1,
                0
            ],
            "name" : "Armature"
        }
    ],
    "accessors" : [
        {
            "bufferView" : 0,
            "componentType" : 5126,
            "count" : 596,
            "max" : [
                1,
                3,
                1
            ],
            "min" : [
                -1,
                -1,
                -1
            ],
            "type" : "VEC3"
        },
        {
            "bufferView" : 1,
            "componentType" : 5126,
            "count" : 596,
            "type" : "VEC3"
        },
        {
            "bufferView" : 2,
            "componentType" : 5126,
            "count" : 596,
            "type" : "VEC2"
        },
        {
            "bufferView" : 3,
            "componentType" : 5121,
            "count" : 596,
            "type" : "VEC4"
        },
        {
            "bufferView" : 4,
            "componentType" : 5126,
            "count" : 596,
            "type" : "VEC4"
        },
        {
            "bufferView" : 5,
            "componentType" : 5123,
            "count" : 960,
            "type" : "SCALAR"
        },
        {
            "bufferView" : 7,
            "componentType" : 5126,
            "count" : 6,
            "type" : "MAT4"
        },
        {
            "bufferView" : 8,
            "componentType" : 5126,
            "count" : 1984,
            "max" : [
                0.9999997019767761,
                1,
                0.9999994039535522
            ],
            "min" : [
                -0.9999990463256836,
                -1,
                -0.9999987483024597
            ],
            "type" : "VEC3"
        },
        {
            "bufferView" : 9,
            "componentType" : 5126,
            "count" : 1984,
            "type" : "VEC3"
        },
        {
            "bufferView" : 10,
            "componentType" : 5126,
            "count" : 1984,
            "type" : "VEC2"
        },
        {
            "bufferView" : 11,
            "componentType" : 5123,
            "count" : 1984,
            "normalized" : true,
            "type" : "VEC4"
        },
        {
            "bufferView" : 12,
            "componentType" : 5123,
            "count" : 2880,
            "type" : "SCALAR"
        },
        {
            "bufferView" : 13,
            "componentType" : 5126,
            "count" : 104,
            "max" : [
                1,
                0,
                1
            ],
            "min" : [
                -1.000000238418579,
                -1.9999998807907104,
                -1
            ],
            "type" : "VEC3"
        },
        {
            "bufferView" : 14,
            "componentType" : 5126,
            "count" : 104,
            "type" : "VEC3"
        },
        {
            "bufferView" : 15,
            "componentType" : 5126,
            "count" : 104,
            "type" : "VEC2"
        },
        {
            "bufferView" : 16,
            "componentType" : 5123,
            "count" : 104,
            "normalized" : true,
            "type" : "VEC4"
        },
        {
            "bufferView" : 17,
            "componentType" : 5123,
            "count" : 156,
            "type" : "SCALAR"
        },
        {
            "bufferView" : 18,
            "componentType" : 5126,
            "count" : 2,
            "max" : [
                1.3333333333333333
            ],
            "min" : [
                0.016666666666666666
            ],
            "type" : "SCALAR"
        },
        {
            "bufferView" : 19,
            "componentType" : 5126,
            "count" : 2,
            "type" : "VEC4"
        },
        {
            "bufferView" : 20,
            "componentType" : 5126,
            "count" : 80,
            "max" : [
                1.3333333333333333
            ],
            "min" : [
                0.016666666666666666
            ],
            "type" : "SCALAR"
        },
        {
            "bufferView" : 21,
            "componentType" : 5126,
            "count" : 80,
            "type" : "VEC4"
        },
        {
            "bufferView" : 22,
            "componentType" : 5126,
            "count" : 80,
            "type" : "VEC4"
        },
        {
            "bufferView" : 23,
            "componentType" : 5126,
            "count" : 80,
            "type" : "VEC4"
        },
        {
            "bufferView" : 24,
            "componentType" : 5126,
            "count" : 80,
            "type" : "VEC4"
        },
        {
            "bufferView" : 25,
            "componentType" : 5126,
            "count" : 80,
            "type" : "VEC4"
        },
        {
            "bufferView" : 26,
            "componentType" : 5126,
            "count" : 40,
            "max" : [
                0.6666666666666666
            ],
            "min" : [
                0.016666666666666666
            ],
            "type" : "SCALAR"
        },
        {
            "bufferView" : 27,
            "componentType" : 5126,
            "count" : 40,
            "type" : "VEC4"
        },
        {
            "bufferView" : 28,
            "componentType" : 5126,
            "count" : 40,
            "type" : "VEC4"
        }
    ],
    "bufferViews" : [
        {
            "buffer" : 0,
            "byteLength" : 7152,
            "byteOffset" : 0
        },
        {
            "buffer" : 0,
            "byteLength" : 7152,
            "byteOffset" : 7152
        },
        {
            "buffer" : 0,
            "byteLength" : 4768,
            "byteOffset" : 14304
        },
        {
            "buffer" : 0,
            "byteLength" : 2384,
            "byteOffset" : 19072
        },
        {
            "buffer" : 0,
            "byteLength" : 9536,
            "byteOffset" : 21456
        },
        {
            "buffer" : 0,
            "byteLength" : 1920,
            "byteOffset" : 30992
        },
        {
            "buffer" : 0,
            "byteLength" : 195,
            "byteOffset" : 32912
        },
        {
            "buffer" : 0,
            "byteLength" : 384,
            "byteOffset" : 33108
        },
        {
            "buffer" : 0,
            "byteLength" : 23808,
            "byteOffset" : 33492
        },
        {
            "buffer" : 0,
            "byteLength" : 23808,
            "byteOffset" : 57300
        },
        {
            "buffer" : 0,
            "byteLength" : 15872,
            "byteOffset" : 81108
        },
        {
            "buffer" : 0,
            "byteLength" : 15872,
            "byteOffset" : 96980
        },
        {
            "buffer" : 0,
            "byteLength" : 5760,
            "byteOffset" : 112852
        },
        {
            "buffer" : 0,
            "byteLength" : 1248,
            "byteOffset" : 118612
        },
        {
            "buffer" : 0,
            "byteLength" : 1248,
            "byteOffset" : 119860
        },
        {
            "buffer" : 0,
            "byteLength" : 832,
            "byteOffset" : 121108
        },
        {
            "buffer" : 0,
            "byteLength" : 832,
            "byteOffset" : 121940
        },
        {
            "buffer" : 0,
            "byteLength" : 312,
            "byteOffset" : 122772
        },
        {
            "buffer" : 0,
            "byteLength" : 8,
            "byteOffset" : 123084
        },
        {
            "buffer" : 0,
            "byteLength" : 32,
            "byteOffset" : 123092
        },
        {
            "buffer" : 0,
            "byteLength" : 320,
            "byteOffset" : 123124
        },
        {
            "buffer" : 0,
            "byteLength" : 1280,
            "byteOffset" : 123444
        },
        {
            "buffer" : 0,
            "byteLength" : 1280,
            "byteOffset" : 124724
        },
        {
            "buffer" : 0,
            "byteLength" : 1280,
            "byteOffset" : 126004
        },
        {
            "buffer" : 0,
            "byteLength" : 1280,
            "byteOffset" : 127284
        },
        {
            "buffer" : 0,
            "byteLength" : 1280,
            "byteOffset" : 128564
        },
        {
            "buffer" : 0,
            "byteLength" : 160,
            "byteOffset" : 129844
        },
        {
            "buffer" : 0,
            "byteLength" : 640,
            "byteOffset" : 130004
        },
        {
            "buffer" : 0,
            "byteLength" : 640,
            "byteOffset" : 130644
        }
    ],
    "samplers" : [
        {
            "magFilter" : 9728,
            "minFilter" : 9984
        }
    ],
    "buffers" : [
        {
            "byteLength" : 131284,
            "uri" : "data:application/octet-stream;base64,"
        }
    ]
}
