{
	"asset":{
		"generator":"Khronos glTF Blender I/O v3.5.30",
		"version":"2.0"
	},
	"extensionsUsed":[
		"KHR_lights_punctual",
		"KHR_materials_unlit"
	],
	"extensionsRequired":[
		"KHR_lights_punctual"
	],
	"extensions":{
		"KHR_lights_punctual":{
			"lights":[
				{
					"color":[
						1,
						1,
						1
					],
					"intensity":79.57747154594767,
					"type":"point",
					"name":"Point.002"
				}
			]
		}
	},
	"scene":0,
	"scenes":[
		{
			"extras":{
				"t3dExportOnSave__":true,
				"t3dExportFormat__":2,
				"t3dPackTextures__":true,
				"t3dExportLights__":1,
				"t3dCameraResolution__":[
					1920,
					1080
				],
				"t3dExportFilepath__":"",
				"t3dExportCameras__":true,
				"t3dRenderResolutionW__":640,
				"t3dRenderResolutionH__":360,
				"t3dSectorRendering__":false,
				"t3dSectorRenderDepth__":0,
				"t3dPlaybackFPS__":60,
				"t3dAnimationSampling__":true,
				"t3dAnimationInterpolation__":true,
				"t3dCollections__":{
					"Collection":{
						"objects":[
							"Table",
							"Armature"
						],
						"offset":[
							0.0,
							0.0,
							0.0
						]
					},
					"Skinned":{
						"objects":[
							"Armature",
							"Point"
						],
						"offset":[
							0.0,
							0.0,
							0.0
						]
					}
				},
				"t3dWorlds__":{
					"World":{
						"ambient color":[
							0.06372086703777313,
							0.06372086703777313,
							0.06372086703777313,
							1.0
						],
						"ambient energy":1.0
					}
				},
				"t3dCurrentWorld__":"World"
			},
			"name":"Scene",
			"nodes":[
				7,
				8,
				10
			]
		}
	],
	"nodes":[
		{
			"name":"5",
			"translation":[
				0,
				0.5,
				0
			]
		},
		{
			"children":[
				0
			],
			"name":"4",
			"translation":[
				0,
				0.5,
				0
			]
		},
		{
			"children":[
				1
			],
			"name":"3",
			"translation":[
				0,
				0.5,
				0
			]
		},
		{
			"children":[
				2
			],
			"name":"2",
			"translation":[
				0,
				0.5,
				0
			]
		},
		{
			"children":[
				3
			],
			"name":"1",
			"translation":[
				0,
				0.5,
				0
			]
		},
		{
			"children":[
				4
			],
			"name":"Root"
		},
		{
			"extras":{
				"t3dOriginalLocalPosition__":[
					0.0,
					0.0,
					0.0
				]
			},
			"mesh":0,
			"name":"SkinnedMesh",
			"skin":0
		},
		{
			"children":[
				6,
				5
			],
			"extras":{
				"t3dOriginalLocalPosition__":[
					0.0,
					0.0,
					0.0
				]
			},
			"name":"Armature"
		},
		{
			"extensions":{
				"KHR_lights_punctual":{
					"light":0
				}
			},
			"extras":{
				"t3dOriginalLocalPosition__":[
					4.0,
					0.0,
					1.0
				]
			},
			"name":"Point",
			"rotation":[
				-0.7071068286895752,
				0,
				0,
				0.7071068286895752
			],
			"translation":[
				4,
				1,
				0
			]
		},
		{
			"extras":{
				"t3dOriginalLocalPosition__":[
					0.0,
					0.0,
					1.0098087787628174
				]
			},
			"mesh":1,
			"name":"Sphere",
			"translation":[
				0,
				1.0098087787628174,
				0
			]
		},
		{
			"children":[
				9
			],
			"extras":{
				"t3dOriginalLocalPosition__":[
					10.0,
					0.0,
					0.0
				]
			},
			"mesh":2,
			"name":"Table",
			"translation":[
				10,
				0,
				0
			]
		}
	],
	"animations":[
		{
			"channels":[
				{
					"sampler":0,
					"target":{
						"node":5,
						"path":"translation"
					}
				},
				{
					"sampler":1,
					"target":{
						"node":5,
						"path":"rotation"
					}
				},
				{
					"sampler":2,
					"target":{
						"node":5,
						"path":"scale"
					}
				},
				{
					"sampler":3,
					"target":{
						"node":4,
						"path":"translation"
					}
				},
				{
					"sampler":4,
					"target":{
						"node":4,
						"path":"rotation"
					}
				},
				{
					"sampler":5,
					"target":{
						"node":4,
						"path":"scale"
					}
				},
				{
					"sampler":6,
					"target":{
						"node":3,
						"path":"translation"
					}
				},
				{
					"sampler":7,
					"target":{
						"node":3,
						"path":"rotation"
					}
				},
				{
					"sampler":8,
					"target":{
						"node":3,
						"path":"scale"
					}
				},
				{
					"sampler":9,
					"target":{
						"node":2,
						"path":"translation"
					}
				},
				{
					"sampler":10,
					"target":{
						"node":2,
						"path":"rotation"
					}
				},
				{
					"sampler":11,
					"target":{
						"node":2,
						"path":"scale"
					}
				},
				{
					"sampler":12,
					"target":{
						"node":1,
						"path":"translation"
					}
				},
				{
					"sampler":13,
					"target":{
						"node":1,
						"path":"rotation"
					}
				},
				{
					"sampler":14,
					"target":{
						"node":1,
						"path":"scale"
					}
				},
				{
					"sampler":15,
					"target":{
						"node":0,
						"path":"translation"
					}
				},
				{
					"sampler":16,
					"target":{
						"node":0,
						"path":"rotation"
					}
				},
				{
					"sampler":17,
					"target":{
						"node":0,
						"path":"scale"
					}
				}
			],
			"name":"ArmatureAction",
			"samplers":[
				{
					"input":17,
					"interpolation":"LINEAR",
					"output":18
				},
				{
					"input":17,
					"interpolation":"LINEAR",
					"output":19
				},
				{
					"input":17,
					"interpolation":"LINEAR",
					"output":20
				},
				{
					"input":17,
					"interpolation":"LINEAR",
					"output":21
				},
				{
					"input":17,
					"interpolation":"LINEAR",
					"output":22
				},
				{
					"input":17,
					"interpolation":"LINEAR",
					"output":23
				},
				{
					"input":17,
					"interpolation":"LINEAR",
					"output":24
				},
				{
					"input":17,
					"interpolation":"LINEAR",
					"output":25
				},
				{
					"input":17,
					"interpolation":"LINEAR",
					"output":26
				},
				{
					"input":17,
					"interpolation":"LINEAR",
					"output":27
				},
				{
					"input":17,
					"interpolation":"LINEAR",
					"output":28
				},
				{
					"input":17,
					"interpolation":"LINEAR",
					"output":29
				},
				{
					"input":17,
					"interpolation":"LINEAR",
					"output":30
				},
				{
					"input":17,
					"interpolation":"LINEAR",
					"output":31
				},
				{
					"input":17,
					"interpolation":"LINEAR",
					"output":32
				},
				{
					"input":17,
					"interpolation":"LINEAR",
					"output":33
				},
				{
					"input":17,
					"interpolation":"LINEAR",
					"output":34
				},
				{
					"input":17,
					"interpolation":"LINEAR",
					"output":35
				}
			]
		},
		{
			"channels":[
				{
					"sampler":0,
					"target":{
						"node":10,
						"path":"rotation"
					}
				}
			],
			"name":"SmoothRoll",
			"samplers":[
				{
					"input":36,
					"interpolation":"LINEAR",
					"output":37
				}
			]
		},
		{
			"channels":[
				{
					"sampler":0,
					"target":{
						"node":10,
						"path":"rotation"
					}
				}
			],
			"name":"StepRoll",
			"samplers":[
				{
					"input":36,
					"interpolation":"STEP",
					"output":38
				}
			]
		}
	],
	"materials":[
		{
			"extras":{
				"t3dMaterialShadeless__":0
			},
			"name":"TestImage",
			"pbrMetallicRoughness":{
				"baseColorTexture":{
					"index":0
				},
				"metallicFactor":0,
				"roughnessFactor":0
			}
		},
		{
			"extensions":{
				"KHR_materials_unlit":{}
			},
			"extras":{
				"t3dMaterialShadeless__":1
			},
			"name":"Material",
			"pbrMetallicRoughness":{
				"metallicFactor":0,
				"roughnessFactor":0.9
			}
		}
	],
	"meshes":[
		{
			"name":"SkinnedMesh",
			"primitives":[
				{
					"attributes":{
						"POSITION":0,
						"TEXCOORD_0":1,
						"NORMAL":2,
						"JOINTS_0":3,
						"WEIGHTS_0":4
					},
					"indices":5,
					"material":0
				}
			]
		},
		{
			"extras":{
				"t3dVertexColorNames__":[
					"Col"
				],
				"t3dActiveVertexColorIndex__":0
			},
			"name":"Sphere",
			"primitives":[
				{
					"attributes":{
						"COLOR_0":7,
						"POSITION":8,
						"TEXCOORD_0":9,
						"NORMAL":10
					},
					"indices":11,
					"material":1
				}
			]
		},
		{
			"extras":{
				"t3dVertexColorNames__":[
					"Col"
				],
				"t3dActiveVertexColorIndex__":0
			},
			"name":"Table",
			"primitives":[
				{
					"attributes":{
						"COLOR_0":12,
						"POSITION":13,
						"TEXCOORD_0":14,
						"NORMAL":15
					},
					"indices":16,
					"material":1
				}
			]
		}
	],
	"textures":[
		{
			"sampler":0,
			"source":0
		}
	],
	"images":[
		{
			"bufferView":6,
			"mimeType":"image/png",
			"name":"testimage"
		}
	],
	"skins":[
		{
			"inverseBindMatrices":6,
			"joints":[
				5,
				4,
				3,
				2,
				1,
				0
			],
			"name":"Armature"
		}
	],
	"accessors":[
		{
			"bufferView":0,
			"componentType":5126,
			"count":596,
			"max":[
				1,
				3,
				1
			],
			"min":[
				-1,
				-1,
				-1
			],
			"type":"VEC3"
		},
		{
			"bufferView":1,
			"componentType":5126,
			"count":596,
			"type":"VEC2"
		},
		{
			"bufferView":2,
			"componentType":5126,
			"count":596,
			"type":"VEC3"
		},
		{
			"bufferView":3,
			"componentType":5121,
			"count":596,
			"type":"VEC4"
		},
		{
			"bufferView":4,
			"componentType":5126,
			"count":596,
			"type":"VEC4"
		},
		{
			"bufferView":5,
			"componentType":5123,
			"count":960,
			"type":"SCALAR"
		},
		{
			"bufferView":7,
			"componentType":5126,
			"count":6,
			"type":"MAT4"
		},
		{
			"bufferView":8,
			"componentType":5123,
			"count":1984,
			"normalized":true,
			"type":"VEC4"
		},
		{
			"bufferView":9,
			"componentType":5126,
			"count":1984,
			"max":[
				0.9999997019767761,
				1,
				0.9999994039535522
			],
			"min":[
				-0.9999990463256836,
				-1,
				-0.9999987483024597
			],
			"type":"VEC3"
		},
		{
			"bufferView":10,
			"componentType":5126,
			"count":1984,
			"type":"VEC2"
		},
		{
			"bufferView":11,
			"componentType":5126,
			"count":1984,
			"type":"VEC3"
		},
		{
			"bufferView":12,
			"componentType":5123,
			"count":2880,
			"type":"SCALAR"
		},
		{
			"bufferView":13,
			"componentType":5123,
			"count":104,
			"normalized":true,
			"type":"VEC4"
		},
		{
			"bufferView":14,
			"componentType":5126,
			"count":104,
			"max":[
				1,
				0,
				1
			],
			"min":[
				-1.000000238418579,
				-1.9999998807907104,
				-1
			],
			"type":"VEC3"
		},
		{
			"bufferView":15,
			"componentType":5126,
			"count":104,
			"type":"VEC2"
		},
		{
			"bufferView":16,
			"componentType":5126,
			"count":104,
			"type":"VEC3"
		},
		{
			"bufferView":17,
			"componentType":5123,
			"count":156,
			"type":"SCALAR"
		},
		{
			"bufferView":18,
			"componentType":5126,
			"count":80,
			"max":[
				1.3333333333333333
			],
			"min":[
				0.016666666666666666
			],
			"type":"SCALAR"
		},
		{
			"bufferView":19,
			"componentType":5126,
			"count":80,
			"type":"VEC3"
		},
		{
			"bufferView":20,
			"componentType":5126,
			"count":80,
			"type":"VEC4"
		},
		{
			"bufferView":21,
			"componentType":5126,
			"count":80,
			"type":"VEC3"
		},
		{
			"bufferView":22,
			"componentType":5126,
			"count":80,
			"type":"VEC3"
		},
		{
			"bufferView":23,
			"componentType":5126,
			"count":80,
			"type":"VEC4"
		},
		{
			"bufferView":24,
			"componentType":5126,
			"count":80,
			"type":"VEC3"
		},
		{
			"bufferView":25,
			"componentType":5126,
			"count":80,
			"type":"VEC3"
		},
		{
			"bufferView":26,
			"componentType":5126,
			"count":80,
			"type":"VEC4"
		},
		{
			"bufferView":27,
			"componentType":5126,
			"count":80,
			"type":"VEC3"
		},
		{
			"bufferView":28,
			"componentType":5126,
			"count":80,
			"type":"VEC3"
		},
		{
			"bufferView":29,
			"componentType":5126,
			"count":80,
			"type":"VEC4"
		},
		{
			"bufferView":30,
			"componentType":5126,
			"count":80,
			"type":"VEC3"
		},
		{
			"bufferView":31,
			"componentType":5126,
			"count":80,
			"type":"VEC3"
		},
		{
			"bufferView":32,
			"componentType":5126,
			"count":80,
			"type":"VEC4"
		},
		{
			"bufferView":33,
			"componentType":5126,
			"count":80,
			"type":"VEC3"
		},
		{
			"bufferView":34,
			"componentType":5126,
			"count":80,
			"type":"VEC3"
		},
		{
			"bufferView":35,
			"componentType":5126,
			"count":80,
			"type":"VEC4"
		},
		{
			"bufferView":36,
			"componentType":5126,
			"count":80,
			"type":"VEC3"
		},
		{
			"bufferView":37,
			"componentType":5126,
			"count":40,
			"max":[
				0.6666666666666666
			],
			"min":[
				0.016666666666666666
			],
			"type":"SCALAR"
		},
		{
			"bufferView":38,
			"componentType":5126,
			"count":40,
			"type":"VEC4"
		},
		{
			"bufferView":39,
			"componentType":5126,
			"count":40,
			"type":"VEC4"
		}
	],
	"bufferViews":[
		{
			"buffer":0,
			"byteLength":7152,
			"byteOffset":0,
			"target":34962
		},
		{
			"buffer":0,
			"byteLength":4768,
			"byteOffset":7152,
			"target":34962
		},
		{
			"buffer":0,
			"byteLength":7152,
			"byteOffset":11920,
			"target":34962
		},
		{
			"buffer":0,
			"byteLength":2384,
			"byteOffset":19072,
			"target":34962
		},
		{
			"buffer":0,
			"byteLength":9536,
			"byteOffset":21456,
			"target":34962
		},
		{
			"buffer":0,
			"byteLength":1920,
			"byteOffset":30992,
			"target":34963
		},
		{
			"buffer":0,
			"byteLength":195,
			"byteOffset":32912
		},
		{
			"buffer":0,
			"byteLength":384,
			"byteOffset":33108
		},
		{
			"buffer":0,
			"byteLength":15872,
			"byteOffset":33492,
			"target":34962
		},
		{
			"buffer":0,
			"byteLength":23808,
			"byteOffset":49364,
			"target":34962
		},
		{
			"buffer":0,
			"byteLength":15872,
			"byteOffset":73172,
			"target":34962
		},
		{
			"buffer":0,
			"byteLength":23808,
			"byteOffset":89044,
			"target":34962
		},
		{
			"buffer":0,
			"byteLength":5760,
			"byteOffset":112852,
			"target":34963
		},
		{
			"buffer":0,
			"byteLength":832,
			"byteOffset":118612,
			"target":34962
		},
		{
			"buffer":0,
			"byteLength":1248,
			"byteOffset":119444,
			"target":34962
		},
		{
			"buffer":0,
			"byteLength":832,
			"byteOffset":120692,
			"target":34962
		},
		{
			"buffer":0,
			"byteLength":1248,
			"byteOffset":121524,
			"target":34962
		},
		{
			"buffer":0,
			"byteLength":312,
			"byteOffset":122772,
			"target":34963
		},
		{
			"buffer":0,
			"byteLength":320,
			"byteOffset":123084
		},
		{
			"buffer":0,
			"byteLength":960,
			"byteOffset":123404
		},
		{
			"buffer":0,
			"byteLength":1280,
			"byteOffset":124364
		},
		{
			"buffer":0,
			"byteLength":960,
			"byteOffset":125644
		},
		{
			"buffer":0,
			"byteLength":960,
			"byteOffset":126604
		},
		{
			"buffer":0,
			"byteLength":1280,
			"byteOffset":127564
		},
		{
			"buffer":0,
			"byteLength":960,
			"byteOffset":128844
		},
		{
			"buffer":0,
			"byteLength":960,
			"byteOffset":129804
		},
		{
			"buffer":0,
			"byteLength":1280,
			"byteOffset":130764
		},
		{
			"buffer":0,
			"byteLength":960,
			"byteOffset":132044
		},
		{
			"buffer":0,
			"byteLength":960,
			"byteOffset":133004
		},
		{
			"buffer":0,
			"byteLength":1280,
			"byteOffset":133964
		},
		{
			"buffer":0,
			"byteLength":960,
			"byteOffset":135244
		},
		{
			"buffer":0,
			"byteLength":960,
			"byteOffset":136204
		},
		{
			"buffer":0,
			"byteLength":1280,
			"byteOffset":137164
		},
		{
			"buffer":0,
			"byteLength":960,
			"byteOffset":138444
		},
		{
			"buffer":0,
			"byteLength":960,
			"byteOffset":139404
		},
		{
			"buffer":0,
			"byteLength":1280,
			"byteOffset":140364
		},
		{
			"buffer":0,
			"byteLength":960,
			"byteOffset":141644
		},
		{
			"buffer":0,
			"byteLength":160,
			"byteOffset":142604
		},
		{
			"buffer":0,
			"byteLength":640,
			"byteOffset":142764
		},
		{
			"buffer":0,
			"byteLength":640,
			"byteOffset":143404
		}
	],
	"samplers":[
		{
			"magFilter":9729,
			"minFilter":9987
		}
	],
	"buffers":[
		{
			"byteLength":144044,
			"uri":"data:application/octet-stream;base64,"
		}
	]
}
