{
	"asset":{
		"generator":"Khronos glTF Blender I/O v3.5.30",
		"version":"2.0"
	},
	"extensionsUsed":[
		"KHR_lights_punctual"
	],
	"extensionsRequired":[
		"KHR_lights_punctual"
	],
	"extensions":{
		"KHR_lights_punctual":{
			"lights":[
				{
					"color":[
						1,
						1,
						1
					],
					"intensity":159.15494309189535,
					"type":"point",
					"name":"PointLight"
				},
				{
					"color":[
						0,
						0.30293846130371094,
						1
					],
					"intensity":4,
					"type":"directional",
					"range":8.430002212524414,
					"name":"PointLight.001"
				},
				{
					"color":[
						0.11031848192214966,
						1,
						0
					],
					"intensity":318.3098861837907,
					"type":"point",
					"name":"PointLight.002"
				},
				{
					"color":[
						1,
						0.07914038747549057,
						0
					],
					"intensity":636.6197723675814,
					"type":"point",
					"name":"PointLight.003"
				}
			]
		}
	},
	"scene":0,
	"scenes":[
		{
			"extras":{
				"t3dExportOnSave__":true,
				"t3dExportFormat__":2,
				"t3dPackTextures__":true,
				"t3dCameraResolution__":[
					1920,
					1080
				],
				"t3dExportFilepath__":"",
				"t3dExportCameras__":true,
				"t3dExportLights__":true,
				"t3dRenderResolutionW__":640,
				"t3dRenderResolutionH__":360,
				"t3dSectorRendering__":false,
				"t3dSectorRenderDepth__":0,
				"t3dPlaybackFPS__":60,
				"t3dAnimationSampling__":true,
				"t3dAnimationInterpolation__":true,
				"t3dCollections__":{
					"Collection":{
						"objects":[
							"Point light",
							"Camera",
							"Plane",
							"Cube",
							"Cube.001",
							"Cube.002",
							"Cube.003",
							"Cube.004",
							"Cube.005",
							"Cube.006",
							"Cube.007",
							"Light.001",
							"Point light.001",
							"Point light.002",
							"Sphere",
							"Plane.001",
							"Spin",
							"Armature",
							"Cube.008"
						],
						"offset":[
							0.0,
							0.0,
							0.0
						]
					}
				},
				"t3dWorlds__":{
					"World":{
						"ambient color":[
							0.05087608844041824,
							0.05087608844041824,
							0.05087608844041824,
							1.0
						],
						"ambient energy":1.0
					}
				},
				"t3dCurrentWorld__":"World"
			},
			"name":"Scene",
			"nodes":[
				1,
				2,
				3,
				4,
				5,
				6,
				7,
				8,
				9,
				10,
				11,
				12,
				13,
				14,
				15,
				16,
				17,
				21,
				22
			]
		}
	],
	"nodes":[
		{
			"extras":{
				"t3dOriginalLocalPosition__":[
					4.076244831085205,
					1.0054539442062378,
					5.903861999511719
				]
			},
			"mesh":0,
			"name":"PointlightVisibility",
			"rotation":[
				0.28416627645492554,
				-0.7269423007965088,
				-0.34203392267227173,
				0.5232755541801453
			]
		},
		{
			"children":[
				0
			],
			"extensions":{
				"KHR_lights_punctual":{
					"light":0
				}
			},
			"extras":{
				"t3dOriginalLocalPosition__":[
					2.2237706184387207,
					3.7026400566101074,
					5.903861999511719
				]
			},
			"name":"Point light",
			"rotation":[
				-0.28416627645492554,
				0.7269423007965088,
				0.34203392267227173,
				0.5232754945755005
			],
			"translation":[
				4.076245307922363,
				5.903861999511719,
				-1.0054539442062378
			]
		},
		{
			"camera":0,
			"extras":{
				"t3dFovY__":0.6911112070083618,
				"t3dOriginalLocalPosition__":[
					7.358891487121582,
					-6.925790786743164,
					4.958309173583984
				]
			},
			"name":"Camera",
			"rotation":[
				-0.20997299253940582,
				0.3857799470424652,
				0.09062844514846802,
				0.8937962055206299
			],
			"translation":[
				7.358891487121582,
				4.958309173583984,
				6.925790786743164
			]
		},
		{
			"extras":{
				"t3dOriginalLocalPosition__":[
					0.0,
					0.0,
					0.0
				]
			},
			"mesh":1,
			"name":"Plane"
		},
		{
			"extras":{
				"t3dOriginalLocalPosition__":[
					4.0,
					6.0,
					1.0
				]
			},
			"mesh":2,
			"name":"Cube",
			"translation":[
				4,
				1,
				-6
			]
		},
		{
			"extras":{
				"t3dOriginalLocalPosition__":[
					-4.0,
					6.0,
					1.0
				]
			},
			"mesh":2,
			"name":"Cube.001",
			"translation":[
				-4,
				1,
				-6
			]
		},
		{
			"extras":{
				"t3dOriginalLocalPosition__":[
					-4.0,
					-6.0,
					1.0
				]
			},
			"mesh":2,
			"name":"Cube.002",
			"translation":[
				-4,
				1,
				6
			]
		},
		{
			"extras":{
				"t3dOriginalLocalPosition__":[
					4.0,
					-6.0,
					1.0
				]
			},
			"mesh":2,
			"name":"Cube.003",
			"translation":[
				4,
				1,
				6
			]
		},
		{
			"extras":{
				"t3dOriginalLocalPosition__":[
					6.0,
					-4.0,
					1.0
				]
			},
			"mesh":2,
			"name":"Cube.004",
			"translation":[
				6,
				1,
				4
			]
		},
		{
			"extras":{
				"t3dOriginalLocalPosition__":[
					6.0,
					4.0,
					1.0
				]
			},
			"mesh":2,
			"name":"Cube.005",
			"translation":[
				6,
				1,
				-4
			]
		},
		{
			"extras":{
				"t3dOriginalLocalPosition__":[
					-6.0,
					4.0,
					1.0
				]
			},
			"mesh":2,
			"name":"Cube.006",
			"translation":[
				-6,
				1,
				-4
			]
		},
		{
			"extras":{
				"t3dOriginalLocalPosition__":[
					-6.0,
					-4.0,
					1.0
				]
			},
			"mesh":2,
			"name":"Cube.007",
			"translation":[
				-6,
				1,
				4
			]
		},
		{
			"extensions":{
				"KHR_lights_punctual":{
					"light":1
				}
			},
			"extras":{
				"t3dOriginalLocalPosition__":[
					1.0762453079223633,
					3.0054540634155273,
					7.903861999511719
				]
			},
			"name":"Light.001",
			"rotation":[
				-0.677208662033081,
				0.10684666037559509,
				-0.2671349048614502,
				0.6772083640098572
			],
			"translation":[
				1.0762453079223633,
				7.903861999511719,
				-3.0054540634155273
			]
		},
		{
			"extensions":{
				"KHR_lights_punctual":{
					"light":2
				}
			},
			"extras":{
				"t3dOriginalLocalPosition__":[
					-8.915050506591797,
					8.789344787597656,
					1.2601757049560547
				]
			},
			"name":"Point light.001",
			"rotation":[
				-0.28416627645492554,
				0.7269423007965088,
				0.34203392267227173,
				0.5232754945755005
			],
			"translation":[
				-8.915050506591797,
				1.2601757049560547,
				-8.789344787597656
			]
		},
		{
			"extensions":{
				"KHR_lights_punctual":{
					"light":3
				}
			},
			"extras":{
				"t3dOriginalLocalPosition__":[
					16.084949493408203,
					-1.2106552124023438,
					1.2601757049560547
				]
			},
			"name":"Point light.002",
			"rotation":[
				-0.28416627645492554,
				0.7269423007965088,
				0.34203392267227173,
				0.5232754945755005
			],
			"translation":[
				16.084949493408203,
				1.2601757049560547,
				1.2106552124023438
			]
		},
		{
			"extras":{
				"t3dOriginalLocalPosition__":[
					4.076245307922363,
					1.0054539442062378,
					5.903861999511719
				]
			},
			"mesh":3,
			"name":"Sphere",
			"translation":[
				4.076245307922363,
				5.903861999511719,
				-1.0054539442062378
			]
		},
		{
			"extras":{
				"t3dOriginalLocalPosition__":[
					13.076245307922363,
					8.005454063415527,
					3.9038619995117188
				]
			},
			"mesh":4,
			"name":"Plane.001",
			"translation":[
				13.076245307922363,
				3.9038619995117188,
				-8.005454063415527
			]
		},
		{
			"extras":{
				"t3dOriginalLocalPosition__":[
					0.0,
					0.0,
					6.0
				]
			},
			"mesh":2,
			"name":"Spin",
			"translation":[
				0,
				6,
				0
			]
		},
		{
			"name":"Tip",
			"rotation":[
				-1.8263089929249077e-09,
				-3.843926066338099e-08,
				-0.047458019107580185,
				0.998873233795166
			],
			"scale":[
				1,
				0.9999999403953552,
				1
			],
			"translation":[
				0,
				2,
				0
			]
		},
		{
			"children":[
				18
			],
			"name":"Root",
			"translation":[
				0,
				-2,
				0
			]
		},
		{
			"extras":{
				"t3dOriginalLocalPosition__":[
					-12.923754692077637,
					1.0054539442062378,
					3.9038619995117188
				]
			},
			"mesh":5,
			"name":"SkinnedCube",
			"skin":0
		},
		{
			"children":[
				20,
				19
			],
			"extras":{
				"t3dOriginalLocalPosition__":[
					12.076245307922363,
					1.0054539442062378,
					1.9038619995117188
				]
			},
			"name":"Armature",
			"translation":[
				12.076245307922363,
				1.9038619995117188,
				-1.0054539442062378
			]
		},
		{
			"extras":{
				"t3dOriginalLocalPosition__":[
					12.076245307922363,
					-4.994545936584473,
					0.9038619995117188
				]
			},
			"mesh":6,
			"name":"Cube.008",
			"translation":[
				12.076245307922363,
				0.9038619995117188,
				4.994545936584473
			]
		}
	],
	"cameras":[
		{
			"name":"Camera",
			"perspective":{
				"aspectRatio":1.7777777777777777,
				"yfov":0.39959652046304894,
				"zfar":100,
				"znear":0.10000000149011612
			},
			"type":"perspective"
		}
	],
	"animations":[
		{
			"channels":[
				{
					"sampler":0,
					"target":{
						"node":1,
						"path":"translation"
					}
				}
			],
			"name":"LightAction",
			"samplers":[
				{
					"input":30,
					"interpolation":"LINEAR",
					"output":31
				}
			]
		},
		{
			"channels":[
				{
					"sampler":0,
					"target":{
						"node":19,
						"path":"translation"
					}
				},
				{
					"sampler":1,
					"target":{
						"node":19,
						"path":"rotation"
					}
				},
				{
					"sampler":2,
					"target":{
						"node":19,
						"path":"scale"
					}
				},
				{
					"sampler":3,
					"target":{
						"node":18,
						"path":"translation"
					}
				},
				{
					"sampler":4,
					"target":{
						"node":18,
						"path":"rotation"
					}
				},
				{
					"sampler":5,
					"target":{
						"node":18,
						"path":"scale"
					}
				}
			],
			"name":"ArmatureAction",
			"samplers":[
				{
					"input":32,
					"interpolation":"LINEAR",
					"output":33
				},
				{
					"input":32,
					"interpolation":"LINEAR",
					"output":34
				},
				{
					"input":32,
					"interpolation":"LINEAR",
					"output":35
				},
				{
					"input":32,
					"interpolation":"LINEAR",
					"output":36
				},
				{
					"input":32,
					"interpolation":"LINEAR",
					"output":37
				},
				{
					"input":32,
					"interpolation":"LINEAR",
					"output":38
				}
			]
		}
	],
	"materials":[
		{
			"doubleSided":true,
			"extras":{
				"t3dMaterialShadeless__":1
			},
			"name":"White",
			"pbrMetallicRoughness":{
				"baseColorFactor":[
					0.800000011920929,
					0.800000011920929,
					0.800000011920929,
					1
				],
				"metallicFactor":0,
				"roughnessFactor":0.4000000059604645
			}
		},
		{
			"name":"GroundTile",
			"pbrMetallicRoughness":{
				"baseColorTexture":{
					"index":0
				},
				"metallicFactor":0,
				"roughnessFactor":0.5
			}
		},
		{
			"name":"Cube",
			"pbrMetallicRoughness":{
				"baseColorTexture":{
					"index":1
				},
				"metallicFactor":0,
				"roughnessFactor":0.5
			}
		},
		{
			"doubleSided":true,
			"name":"Double-sided",
			"pbrMetallicRoughness":{
				"baseColorTexture":{
					"index":2
				},
				"metallicFactor":0,
				"roughnessFactor":0.5
			}
		},
		{
			"name":"Material.001",
			"pbrMetallicRoughness":{
				"baseColorFactor":[
					0.800000011920929,
					0.800000011920929,
					0.800000011920929,
					1
				],
				"metallicFactor":0,
				"roughnessFactor":0.5
			}
		}
	],
	"meshes":[
		{
			"name":"Cube.001",
			"primitives":[
				{
					"attributes":{
						"POSITION":0,
						"TEXCOORD_0":1,
						"NORMAL":2
					},
					"indices":3,
					"material":0
				}
			]
		},
		{
			"name":"Plane",
			"primitives":[
				{
					"attributes":{
						"POSITION":4,
						"TEXCOORD_0":5,
						"NORMAL":6
					},
					"indices":7,
					"material":1
				}
			]
		},
		{
			"name":"Spin",
			"primitives":[
				{
					"attributes":{
						"POSITION":8,
						"TEXCOORD_0":9,
						"NORMAL":10
					},
					"indices":11,
					"material":2
				}
			]
		},
		{
			"name":"Sphere",
			"primitives":[
				{
					"attributes":{
						"POSITION":12,
						"TEXCOORD_0":13,
						"NORMAL":14
					},
					"indices":15,
					"material":2
				}
			]
		},
		{
			"name":"Plane.001",
			"primitives":[
				{
					"attributes":{
						"POSITION":16,
						"TEXCOORD_0":17,
						"NORMAL":18
					},
					"indices":19,
					"material":3
				}
			]
		},
		{
			"name":"Cube",
			"primitives":[
				{
					"attributes":{
						"POSITION":20,
						"TEXCOORD_0":21,
						"NORMAL":22,
						"JOINTS_0":23,
						"WEIGHTS_0":24
					},
					"indices":25,
					"material":4
				}
			]
		},
		{
			"name":"Cube.003",
			"primitives":[
				{
					"attributes":{
						"POSITION":27,
						"TEXCOORD_0":28,
						"NORMAL":29
					},
					"indices":3
				}
			]
		}
	],
	"textures":[
		{
			"sampler":0,
			"source":0
		},
		{
			"sampler":0,
			"source":1
		},
		{
			"sampler":0,
			"source":1
		}
	],
	"images":[
		{
			"bufferView":8,
			"mimeType":"image/png",
			"name":"groundtile"
		},
		{
			"bufferView":13,
			"mimeType":"image/png",
			"name":"cubetile"
		}
	],
	"skins":[
		{
			"inverseBindMatrices":26,
			"joints":[
				19,
				18
			],
			"name":"Armature"
		}
	],
	"accessors":[
		{
			"bufferView":0,
			"componentType":5126,
			"count":24,
			"max":[
				0.25,
				0.25,
				0.25
			],
			"min":[
				-0.25,
				-0.25,
				-0.25
			],
			"type":"VEC3"
		},
		{
			"bufferView":1,
			"componentType":5126,
			"count":24,
			"type":"VEC2"
		},
		{
			"bufferView":2,
			"componentType":5126,
			"count":24,
			"type":"VEC3"
		},
		{
			"bufferView":3,
			"componentType":5123,
			"count":36,
			"type":"SCALAR"
		},
		{
			"bufferView":4,
			"componentType":5126,
			"count":2916,
			"max":[
				27,
				0,
				27
			],
			"min":[
				-27,
				0,
				-27
			],
			"type":"VEC3"
		},
		{
			"bufferView":5,
			"componentType":5126,
			"count":2916,
			"type":"VEC2"
		},
		{
			"bufferView":6,
			"componentType":5126,
			"count":2916,
			"type":"VEC3"
		},
		{
			"bufferView":7,
			"componentType":5123,
			"count":4374,
			"type":"SCALAR"
		},
		{
			"bufferView":9,
			"componentType":5126,
			"count":24,
			"max":[
				1,
				1,
				1
			],
			"min":[
				-1,
				-1,
				-1
			],
			"type":"VEC3"
		},
		{
			"bufferView":10,
			"componentType":5126,
			"count":24,
			"type":"VEC2"
		},
		{
			"bufferView":11,
			"componentType":5126,
			"count":24,
			"type":"VEC3"
		},
		{
			"bufferView":12,
			"componentType":5123,
			"count":36,
			"type":"SCALAR"
		},
		{
			"bufferView":14,
			"componentType":5126,
			"count":1890,
			"max":[
				0.9999997019767761,
				1,
				0.9999994039535522
			],
			"min":[
				-0.9999990463256836,
				-1,
				-0.9999987483024597
			],
			"type":"VEC3"
		},
		{
			"bufferView":15,
			"componentType":5126,
			"count":1890,
			"type":"VEC2"
		},
		{
			"bufferView":16,
			"componentType":5126,
			"count":1890,
			"type":"VEC3"
		},
		{
			"bufferView":17,
			"componentType":5123,
			"count":2880,
			"type":"SCALAR"
		},
		{
			"bufferView":18,
			"componentType":5126,
			"count":4,
			"max":[
				2.384185791015625e-07,
				3.9999992847442627,
				3.999999523162842
			],
			"min":[
				-2.384185791015625e-07,
				-4,
				-3.999999523162842
			],
			"type":"VEC3"
		},
		{
			"bufferView":19,
			"componentType":5126,
			"count":4,
			"type":"VEC2"
		},
		{
			"bufferView":20,
			"componentType":5126,
			"count":4,
			"type":"VEC3"
		},
		{
			"bufferView":21,
			"componentType":5123,
			"count":6,
			"type":"SCALAR"
		},
		{
			"bufferView":22,
			"componentType":5126,
			"count":123,
			"max":[
				13.300176620483398,
				4.116634368896484,
				-0.005453944206237793
			],
			"min":[
				11.076245307922363,
				-0.09613800048828125,
				-2.0054540634155273
			],
			"type":"VEC3"
		},
		{
			"bufferView":23,
			"componentType":5126,
			"count":123,
			"type":"VEC2"
		},
		{
			"bufferView":24,
			"componentType":5126,
			"count":123,
			"type":"VEC3"
		},
		{
			"bufferView":25,
			"componentType":5121,
			"count":123,
			"type":"VEC4"
		},
		{
			"bufferView":26,
			"componentType":5126,
			"count":123,
			"type":"VEC4"
		},
		{
			"bufferView":27,
			"componentType":5123,
			"count":384,
			"type":"SCALAR"
		},
		{
			"bufferView":28,
			"componentType":5126,
			"count":2,
			"type":"MAT4"
		},
		{
			"bufferView":29,
			"componentType":5126,
			"count":24,
			"max":[
				1,
				1,
				1
			],
			"min":[
				-1,
				-1,
				-1
			],
			"type":"VEC3"
		},
		{
			"bufferView":30,
			"componentType":5126,
			"count":24,
			"type":"VEC2"
		},
		{
			"bufferView":31,
			"componentType":5126,
			"count":24,
			"type":"VEC3"
		},
		{
			"bufferView":32,
			"componentType":5126,
			"count":121,
			"max":[
				2.0166666666666666
			],
			"min":[
				0.016666666666666666
			],
			"type":"SCALAR"
		},
		{
			"bufferView":33,
			"componentType":5126,
			"count":121,
			"type":"VEC3"
		},
		{
			"bufferView":34,
			"componentType":5126,
			"count":200,
			"max":[
				3.3333333333333335
			],
			"min":[
				0.016666666666666666
			],
			"type":"SCALAR"
		},
		{
			"bufferView":35,
			"componentType":5126,
			"count":200,
			"type":"VEC3"
		},
		{
			"bufferView":36,
			"componentType":5126,
			"count":200,
			"type":"VEC4"
		},
		{
			"bufferView":37,
			"componentType":5126,
			"count":200,
			"type":"VEC3"
		},
		{
			"bufferView":38,
			"componentType":5126,
			"count":200,
			"type":"VEC3"
		},
		{
			"bufferView":39,
			"componentType":5126,
			"count":200,
			"type":"VEC4"
		},
		{
			"bufferView":40,
			"componentType":5126,
			"count":200,
			"type":"VEC3"
		}
	],
	"bufferViews":[
		{
			"buffer":0,
			"byteLength":288,
			"byteOffset":0,
			"target":34962
		},
		{
			"buffer":0,
			"byteLength":192,
			"byteOffset":288,
			"target":34962
		},
		{
			"buffer":0,
			"byteLength":288,
			"byteOffset":480,
			"target":34962
		},
		{
			"buffer":0,
			"byteLength":72,
			"byteOffset":768,
			"target":34963
		},
		{
			"buffer":0,
			"byteLength":34992,
			"byteOffset":840,
			"target":34962
		},
		{
			"buffer":0,
			"byteLength":23328,
			"byteOffset":35832,
			"target":34962
		},
		{
			"buffer":0,
			"byteLength":34992,
			"byteOffset":59160,
			"target":34962
		},
		{
			"buffer":0,
			"byteLength":8748,
			"byteOffset":94152,
			"target":34963
		},
		{
			"buffer":0,
			"byteLength":350,
			"byteOffset":102900
		},
		{
			"buffer":0,
			"byteLength":288,
			"byteOffset":103252,
			"target":34962
		},
		{
			"buffer":0,
			"byteLength":192,
			"byteOffset":103540,
			"target":34962
		},
		{
			"buffer":0,
			"byteLength":288,
			"byteOffset":103732,
			"target":34962
		},
		{
			"buffer":0,
			"byteLength":72,
			"byteOffset":104020,
			"target":34963
		},
		{
			"buffer":0,
			"byteLength":670,
			"byteOffset":104092
		},
		{
			"buffer":0,
			"byteLength":22680,
			"byteOffset":104764,
			"target":34962
		},
		{
			"buffer":0,
			"byteLength":15120,
			"byteOffset":127444,
			"target":34962
		},
		{
			"buffer":0,
			"byteLength":22680,
			"byteOffset":142564,
			"target":34962
		},
		{
			"buffer":0,
			"byteLength":5760,
			"byteOffset":165244,
			"target":34963
		},
		{
			"buffer":0,
			"byteLength":48,
			"byteOffset":171004,
			"target":34962
		},
		{
			"buffer":0,
			"byteLength":32,
			"byteOffset":171052,
			"target":34962
		},
		{
			"buffer":0,
			"byteLength":48,
			"byteOffset":171084,
			"target":34962
		},
		{
			"buffer":0,
			"byteLength":12,
			"byteOffset":171132,
			"target":34963
		},
		{
			"buffer":0,
			"byteLength":1476,
			"byteOffset":171144,
			"target":34962
		},
		{
			"buffer":0,
			"byteLength":984,
			"byteOffset":172620,
			"target":34962
		},
		{
			"buffer":0,
			"byteLength":1476,
			"byteOffset":173604,
			"target":34962
		},
		{
			"buffer":0,
			"byteLength":492,
			"byteOffset":175080,
			"target":34962
		},
		{
			"buffer":0,
			"byteLength":1968,
			"byteOffset":175572,
			"target":34962
		},
		{
			"buffer":0,
			"byteLength":768,
			"byteOffset":177540,
			"target":34963
		},
		{
			"buffer":0,
			"byteLength":128,
			"byteOffset":178308
		},
		{
			"buffer":0,
			"byteLength":288,
			"byteOffset":178436,
			"target":34962
		},
		{
			"buffer":0,
			"byteLength":192,
			"byteOffset":178724,
			"target":34962
		},
		{
			"buffer":0,
			"byteLength":288,
			"byteOffset":178916,
			"target":34962
		},
		{
			"buffer":0,
			"byteLength":484,
			"byteOffset":179204
		},
		{
			"buffer":0,
			"byteLength":1452,
			"byteOffset":179688
		},
		{
			"buffer":0,
			"byteLength":800,
			"byteOffset":181140
		},
		{
			"buffer":0,
			"byteLength":2400,
			"byteOffset":181940
		},
		{
			"buffer":0,
			"byteLength":3200,
			"byteOffset":184340
		},
		{
			"buffer":0,
			"byteLength":2400,
			"byteOffset":187540
		},
		{
			"buffer":0,
			"byteLength":2400,
			"byteOffset":189940
		},
		{
			"buffer":0,
			"byteLength":3200,
			"byteOffset":192340
		},
		{
			"buffer":0,
			"byteLength":2400,
			"byteOffset":195540
		}
	],
	"samplers":[
		{
			"magFilter":9728,
			"minFilter":9984
		}
	],
	"buffers":[
		{
			"byteLength":197940,
			"uri":"data:application/octet-stream;base64,"
		}
	]
}
