{
	"asset":{
		"generator":"Khronos glTF Blender I/O v3.5.30",
		"version":"2.0"
	},
	"extensionsUsed":[
		"KHR_lights_punctual"
	],
	"extensionsRequired":[
		"KHR_lights_punctual"
	],
	"extensions":{
		"KHR_lights_punctual":{
			"lights":[
				{
					"color":[
						1,
						1,
						1
					],
					"intensity":8,
					"type":"directional",
					"name":"SunLight"
				}
			]
		}
	},
	"scene":0,
	"scenes":[
		{
			"extras":{
				"t3dExportOnSave__":true,
				"t3dExportFormat__":2,
				"t3dPackTextures__":true,
				"t3dCameraResolution__":[
					1920,
					1080
				],
				"t3dExportFilepath__":"",
				"t3dExportCameras__":true,
				"t3dExportLights__":true,
				"t3dRenderResolutionW__":640,
				"t3dRenderResolutionH__":360,
				"t3dSectorRendering__":false,
				"t3dSectorRenderDepth__":0,
				"t3dPlaybackFPS__":60,
				"t3dAnimationSampling__":true,
				"t3dAnimationInterpolation__":true,
				"t3dCollections__":{
					"Collection":{
						"objects":[
							"Plane",
							"Cube.005",
							"Cube.001",
							"Cube.002",
							"Cube.003",
							"CubeLightVolume",
							"Icosphere",
							"Cube.014",
							"Cube.016",
							"Cube.017",
							"SunLight",
							"Cube.018",
							"Cube.019",
							"Cube.004",
							"Cube.006",
							"Cube.007"
						],
						"offset":[
							0.0,
							0.0,
							0.0
						]
					}
				},
				"t3dWorlds__":{
					"World":{
						"ambient color":[
							0.0,
							0.0,
							0.0,
							1.0
						],
						"ambient energy":1.0
					}
				},
				"t3dCurrentWorld__":"World"
			},
			"name":"Scene",
			"nodes":[
				0,
				1,
				2,
				3,
				4,
				5,
				6,
				7,
				8,
				9,
				10,
				11,
				12,
				13,
				14,
				15
			]
		}
	],
	"nodes":[
		{
			"extras":{
				"t3dOriginalLocalPosition__":[
					-0.09375,
					0.984375,
					-0.34375
				]
			},
			"mesh":0,
			"name":"Plane",
			"scale":[
				0.0625,
				0.0625,
				0.0625
			],
			"translation":[
				-0.09375,
				-0.34375,
				-0.984375
			]
		},
		{
			"extras":{
				"t3dOriginalLocalPosition__":[
					-0.09375,
					0.984375,
					1.65625
				]
			},
			"mesh":1,
			"name":"Cube.005",
			"scale":[
				0.25,
				0.25,
				0.25
			],
			"translation":[
				-0.09375,
				1.65625,
				-0.984375
			]
		},
		{
			"extras":{
				"t3dOriginalLocalPosition__":[
					2.90625,
					-2.515625,
					1.65625
				]
			},
			"mesh":1,
			"name":"Cube.001",
			"scale":[
				0.25,
				0.25,
				0.25
			],
			"translation":[
				2.90625,
				1.65625,
				2.515625
			]
		},
		{
			"extras":{
				"t3dOriginalLocalPosition__":[
					3.15625,
					0.984375,
					1.65625
				]
			},
			"mesh":1,
			"name":"Cube.002",
			"scale":[
				0.25,
				0.25,
				0.25
			],
			"translation":[
				3.15625,
				1.65625,
				-0.984375
			]
		},
		{
			"extras":{
				"t3dOriginalLocalPosition__":[
					3.15625,
					2.984375,
					1.65625
				]
			},
			"mesh":1,
			"name":"Cube.003",
			"scale":[
				0.25,
				0.25,
				0.25
			],
			"translation":[
				3.15625,
				1.65625,
				-2.984375
			]
		},
		{
			"extras":{
				"t3dVisible__":0,
				"t3dGameProperties__":[
					{
						"name":"cubelight"
					}
				],
				"t3dOriginalLocalPosition__":[
					-0.09375,
					0.984375,
					1.40625
				]
			},
			"mesh":2,
			"name":"CubeLightVolume",
			"scale":[
				0.25,
				1,
				0.2500000298023224
			],
			"translation":[
				-0.09375,
				1.40625,
				-0.984375
			]
		},
		{
			"extras":{
				"t3dOriginalLocalPosition__":[
					-2.84375,
					1.484375,
					2.90625
				]
			},
			"mesh":3,
			"name":"Icosphere",
			"scale":[
				0.25,
				0.25,
				0.25
			],
			"translation":[
				-2.84375,
				2.90625,
				-1.484375
			]
		},
		{
			"extras":{
				"t3dOriginalLocalPosition__":[
					-5.84375,
					0.984375,
					1.65625
				]
			},
			"mesh":1,
			"name":"Cube.014",
			"scale":[
				0.25,
				0.25,
				0.25
			],
			"translation":[
				-5.84375,
				1.65625,
				-0.984375
			]
		},
		{
			"extras":{
				"t3dOriginalLocalPosition__":[
					0.40625,
					4.484375,
					1.65625
				]
			},
			"mesh":1,
			"name":"Cube.016",
			"scale":[
				0.25,
				0.25,
				0.25
			],
			"translation":[
				0.40625,
				1.65625,
				-4.484375
			]
		},
		{
			"extras":{
				"t3dOriginalLocalPosition__":[
					-2.59375,
					4.484375,
					1.65625
				]
			},
			"mesh":1,
			"name":"Cube.017",
			"scale":[
				0.25,
				0.25,
				0.25
			],
			"translation":[
				-2.59375,
				1.65625,
				-4.484375
			]
		},
		{
			"extensions":{
				"KHR_lights_punctual":{
					"light":0
				}
			},
			"extras":{
				"t3dOriginalLocalPosition__":[
					0.65625,
					0.984375,
					6.15625
				]
			},
			"name":"SunLight",
			"rotation":[
				-0.6982700228691101,
				0.11144089698791504,
				-0.11144089698791504,
				0.6982699632644653
			],
			"scale":[
				0.25,
				0.2499999850988388,
				0.2499999850988388
			],
			"translation":[
				0.65625,
				6.15625,
				-0.984375
			]
		},
		{
			"extras":{
				"t3dOriginalLocalPosition__":[
					-2.59375,
					-2.015625,
					1.65625
				]
			},
			"mesh":1,
			"name":"Cube.018",
			"scale":[
				0.25,
				0.25,
				0.25
			],
			"translation":[
				-2.59375,
				1.65625,
				2.015625
			]
		},
		{
			"extras":{
				"t3dOriginalLocalPosition__":[
					-3.59375,
					2.984375,
					1.65625
				]
			},
			"mesh":1,
			"name":"Cube.019",
			"scale":[
				0.25,
				0.25,
				0.25
			],
			"translation":[
				-3.59375,
				1.65625,
				-2.984375
			]
		},
		{
			"extras":{
				"t3dOriginalLocalPosition__":[
					0.40625,
					6.484375,
					1.65625
				]
			},
			"mesh":1,
			"name":"Cube.004",
			"scale":[
				0.25,
				0.25,
				0.25
			],
			"translation":[
				0.40625,
				1.65625,
				-6.484375
			]
		},
		{
			"extras":{
				"t3dOriginalLocalPosition__":[
					5.40625,
					0.984375,
					1.65625
				]
			},
			"mesh":1,
			"name":"Cube.006",
			"scale":[
				0.25,
				0.25,
				0.25
			],
			"translation":[
				5.40625,
				1.65625,
				-0.984375
			]
		},
		{
			"extras":{
				"t3dOriginalLocalPosition__":[
					-0.34375,
					-4.265625,
					1.65625
				]
			},
			"mesh":1,
			"name":"Cube.007",
			"scale":[
				0.25,
				0.25,
				0.25
			],
			"translation":[
				-0.34375,
				1.65625,
				4.265625
			]
		}
	],
	"materials":[
		{
			"name":"Brick",
			"pbrMetallicRoughness":{
				"baseColorTexture":{
					"index":0
				},
				"metallicFactor":0,
				"roughnessFactor":0.5
			}
		},
		{
			"name":"GroundTile",
			"pbrMetallicRoughness":{
				"baseColorTexture":{
					"index":1
				},
				"metallicFactor":0,
				"roughnessFactor":0.5
			}
		}
	],
	"meshes":[
		{
			"name":"Plane",
			"primitives":[
				{
					"attributes":{
						"POSITION":0,
						"TEXCOORD_0":1,
						"NORMAL":2
					},
					"indices":3,
					"material":0
				}
			]
		},
		{
			"name":"Cube.002",
			"primitives":[
				{
					"attributes":{
						"POSITION":4,
						"TEXCOORD_0":5,
						"NORMAL":6
					},
					"indices":7,
					"material":1
				}
			]
		},
		{
			"name":"Cube.001",
			"primitives":[
				{
					"attributes":{
						"POSITION":8,
						"TEXCOORD_0":9,
						"NORMAL":10
					},
					"indices":11
				}
			]
		},
		{
			"name":"Icosphere",
			"primitives":[
				{
					"attributes":{
						"POSITION":12,
						"TEXCOORD_0":13,
						"NORMAL":14
					},
					"indices":15,
					"material":1
				}
			]
		}
	],
	"textures":[
		{
			"sampler":0,
			"source":0
		},
		{
			"sampler":0,
			"source":1
		}
	],
	"images":[
		{
			"bufferView":4,
			"mimeType":"image/png",
			"name":"bricktile"
		},
		{
			"bufferView":9,
			"mimeType":"image/png",
			"name":"groundtile"
		}
	],
	"accessors":[
		{
			"bufferView":0,
			"componentType":5126,
			"count":324,
			"max":[
				128,
				0,
				128
			],
			"min":[
				-128,
				0,
				-128
			],
			"type":"VEC3"
		},
		{
			"bufferView":1,
			"componentType":5126,
			"count":324,
			"type":"VEC2"
		},
		{
			"bufferView":2,
			"componentType":5126,
			"count":324,
			"type":"VEC3"
		},
		{
			"bufferView":3,
			"componentType":5123,
			"count":1536,
			"type":"SCALAR"
		},
		{
			"bufferView":5,
			"componentType":5126,
			"count":56,
			"max":[
				1,
				8,
				1
			],
			"min":[
				-1,
				-8,
				-1
			],
			"type":"VEC3"
		},
		{
			"bufferView":6,
			"componentType":5126,
			"count":56,
			"type":"VEC2"
		},
		{
			"bufferView":7,
			"componentType":5126,
			"count":56,
			"type":"VEC3"
		},
		{
			"bufferView":8,
			"componentType":5123,
			"count":132,
			"type":"SCALAR"
		},
		{
			"bufferView":10,
			"componentType":5126,
			"count":24,
			"max":[
				16,
				4,
				16
			],
			"min":[
				-16,
				-4,
				-16
			],
			"type":"VEC3"
		},
		{
			"bufferView":11,
			"componentType":5126,
			"count":24,
			"type":"VEC2"
		},
		{
			"bufferView":12,
			"componentType":5126,
			"count":24,
			"type":"VEC3"
		},
		{
			"bufferView":13,
			"componentType":5123,
			"count":36,
			"type":"SCALAR"
		},
		{
			"bufferView":14,
			"componentType":5126,
			"count":240,
			"max":[
				3.804231882095337,
				4.000001907348633,
				3.999999761581421
			],
			"min":[
				-3.8042309284210205,
				-3.999998092651367,
				-3.999999523162842
			],
			"type":"VEC3"
		},
		{
			"bufferView":15,
			"componentType":5126,
			"count":240,
			"type":"VEC2"
		},
		{
			"bufferView":16,
			"componentType":5126,
			"count":240,
			"type":"VEC3"
		},
		{
			"bufferView":17,
			"componentType":5123,
			"count":240,
			"type":"SCALAR"
		}
	],
	"bufferViews":[
		{
			"buffer":0,
			"byteLength":3888,
			"byteOffset":0,
			"target":34962
		},
		{
			"buffer":0,
			"byteLength":2592,
			"byteOffset":3888,
			"target":34962
		},
		{
			"buffer":0,
			"byteLength":3888,
			"byteOffset":6480,
			"target":34962
		},
		{
			"buffer":0,
			"byteLength":3072,
			"byteOffset":10368,
			"target":34963
		},
		{
			"buffer":0,
			"byteLength":459,
			"byteOffset":13440
		},
		{
			"buffer":0,
			"byteLength":672,
			"byteOffset":13900,
			"target":34962
		},
		{
			"buffer":0,
			"byteLength":448,
			"byteOffset":14572,
			"target":34962
		},
		{
			"buffer":0,
			"byteLength":672,
			"byteOffset":15020,
			"target":34962
		},
		{
			"buffer":0,
			"byteLength":264,
			"byteOffset":15692,
			"target":34963
		},
		{
			"buffer":0,
			"byteLength":350,
			"byteOffset":15956
		},
		{
			"buffer":0,
			"byteLength":288,
			"byteOffset":16308,
			"target":34962
		},
		{
			"buffer":0,
			"byteLength":192,
			"byteOffset":16596,
			"target":34962
		},
		{
			"buffer":0,
			"byteLength":288,
			"byteOffset":16788,
			"target":34962
		},
		{
			"buffer":0,
			"byteLength":72,
			"byteOffset":17076,
			"target":34963
		},
		{
			"buffer":0,
			"byteLength":2880,
			"byteOffset":17148,
			"target":34962
		},
		{
			"buffer":0,
			"byteLength":1920,
			"byteOffset":20028,
			"target":34962
		},
		{
			"buffer":0,
			"byteLength":2880,
			"byteOffset":21948,
			"target":34962
		},
		{
			"buffer":0,
			"byteLength":480,
			"byteOffset":24828,
			"target":34963
		}
	],
	"samplers":[
		{
			"magFilter":9728,
			"minFilter":9984
		}
	],
	"buffers":[
		{
			"byteLength":25308,
			"uri":"data:application/octet-stream;base64,"
		}
	]
}
