{
    "asset" : {
        "generator" : "Khronos glTF Blender I/O v3.5.13",
        "version" : "2.0"
    },
    "extensionsUsed" : [
        "KHR_lights_punctual"
    ],
    "extensionsRequired" : [
        "KHR_lights_punctual"
    ],
    "extensions" : {
        "KHR_lights_punctual" : {
            "lights" : [
                {
                    "color" : [
                        1,
                        1,
                        1
                    ],
                    "intensity" : 8,
                    "type" : "directional",
                    "name" : "SunLight"
                }
            ]
        }
    },
    "scene" : 0,
    "scenes" : [
        {
            "extras" : {
                "t3dExportOnSave__" : 1,
                "t3dExportFormat__" : 2,
                "t3dPackTextures__" : 1,
                "t3dCameraResolution__" : [
                    1920,
                    1080
                ],
                "t3dCollections__" : {
                    "Collection" : {
                        "objects" : [
                            "Plane",
                            "Cube.005",
                            "Cube.001",
                            "Cube.002",
                            "Cube.003",
                            "Cube.004",
                            "CubeLightVolume",
                            "Cube",
                            "Icosphere",
                            "Cube.006",
                            "Cube.007",
                            "Cube.008",
                            "Cube.009",
                            "Cube.010",
                            "Cube.011",
                            "Cube.012",
                            "Cube.013",
                            "Cube.014",
                            "Cube.015",
                            "Cube.016",
                            "Cube.017",
                            "SunLight",
                            "CubeLightVolume.001",
                            "CubeLightVolume.002"
                        ],
                        "offset" : [
                            0.0,
                            0.0,
                            0.0
                        ]
                    }
                },
                "t3dWorlds__" : {
                    "World" : {
                        "ambient color" : [
                            0.0,
                            0.0,
                            0.0,
                            1.0
                        ],
                        "ambient energy" : 1.0
                    }
                },
                "t3dCurrentWorld__" : "World"
            },
            "name" : "Scene",
            "nodes" : [
                0,
                1,
                2,
                3,
                4,
                5,
                6,
                7,
                8,
                9,
                10,
                11,
                12,
                13,
                14,
                15,
                16,
                17,
                18,
                19,
                20,
                21,
                22,
                23
            ]
        }
    ],
    "nodes" : [
        {
            "extras" : {
                "t3dOriginalLocalPosition__" : [
                    0.0,
                    0.0,
                    0.0
                ]
            },
            "mesh" : 0,
            "name" : "Plane"
        },
        {
            "extras" : {
                "t3dOriginalLocalPosition__" : [
                    0.0,
                    0.0,
                    8.0
                ]
            },
            "mesh" : 1,
            "name" : "Cube.005",
            "translation" : [
                0,
                8,
                0
            ]
        },
        {
            "extras" : {
                "t3dOriginalLocalPosition__" : [
                    12.0,
                    -14.0,
                    8.0
                ]
            },
            "mesh" : 1,
            "name" : "Cube.001",
            "translation" : [
                12,
                8,
                14
            ]
        },
        {
            "extras" : {
                "t3dOriginalLocalPosition__" : [
                    13.0,
                    0.0,
                    8.0
                ]
            },
            "mesh" : 1,
            "name" : "Cube.002",
            "translation" : [
                13,
                8,
                0
            ]
        },
        {
            "extras" : {
                "t3dOriginalLocalPosition__" : [
                    13.0,
                    8.0,
                    8.0
                ]
            },
            "mesh" : 1,
            "name" : "Cube.003",
            "translation" : [
                13,
                8,
                -8
            ]
        },
        {
            "extras" : {
                "t3dOriginalLocalPosition__" : [
                    18.0,
                    8.0,
                    8.0
                ]
            },
            "mesh" : 1,
            "name" : "Cube.004",
            "translation" : [
                18,
                8,
                -8
            ]
        },
        {
            "extras" : {
                "t3dVisible__" : 0,
                "t3dGameProperties__" : [
                    {
                        "name" : "cubelight"
                    }
                ],
                "t3dOriginalLocalPosition__" : [
                    0.0,
                    0.0,
                    15.0
                ]
            },
            "mesh" : 2,
            "name" : "CubeLightVolume",
            "scale" : [
                1,
                4,
                1
            ],
            "translation" : [
                0,
                15,
                0
            ]
        },
        {
            "extras" : {
                "t3dGameProperties__" : [],
                "t3dOriginalLocalPosition__" : [
                    -4.0,
                    2.0,
                    1.0
                ]
            },
            "mesh" : 3,
            "name" : "Cube",
            "translation" : [
                -4,
                1,
                -2
            ]
        },
        {
            "extras" : {
                "t3dOriginalLocalPosition__" : [
                    -11.0,
                    2.0,
                    13.0
                ]
            },
            "mesh" : 4,
            "name" : "Icosphere",
            "translation" : [
                -11,
                13,
                -2
            ]
        },
        {
            "extras" : {
                "t3dOriginalLocalPosition__" : [
                    18.0,
                    -3.0,
                    8.0
                ]
            },
            "mesh" : 1,
            "name" : "Cube.006",
            "translation" : [
                18,
                8,
                3
            ]
        },
        {
            "extras" : {
                "t3dOriginalLocalPosition__" : [
                    22.0,
                    -3.0,
                    8.0
                ]
            },
            "mesh" : 1,
            "name" : "Cube.007",
            "translation" : [
                22,
                8,
                3
            ]
        },
        {
            "extras" : {
                "t3dOriginalLocalPosition__" : [
                    22.0,
                    -18.0,
                    8.0
                ]
            },
            "mesh" : 1,
            "name" : "Cube.008",
            "translation" : [
                22,
                8,
                18
            ]
        },
        {
            "extras" : {
                "t3dOriginalLocalPosition__" : [
                    7.0,
                    -28.0,
                    8.0
                ]
            },
            "mesh" : 1,
            "name" : "Cube.009",
            "translation" : [
                7,
                8,
                28
            ]
        },
        {
            "extras" : {
                "t3dOriginalLocalPosition__" : [
                    -9.0,
                    -24.0,
                    8.0
                ]
            },
            "mesh" : 1,
            "name" : "Cube.010",
            "translation" : [
                -9,
                8,
                24
            ]
        },
        {
            "extras" : {
                "t3dOriginalLocalPosition__" : [
                    -18.0,
                    -27.0,
                    8.0
                ]
            },
            "mesh" : 1,
            "name" : "Cube.011",
            "translation" : [
                -18,
                8,
                27
            ]
        },
        {
            "extras" : {
                "t3dOriginalLocalPosition__" : [
                    -22.0,
                    -16.0,
                    8.0
                ]
            },
            "mesh" : 1,
            "name" : "Cube.012",
            "translation" : [
                -22,
                8,
                16
            ]
        },
        {
            "extras" : {
                "t3dOriginalLocalPosition__" : [
                    -24.0,
                    -21.0,
                    8.0
                ]
            },
            "mesh" : 1,
            "name" : "Cube.013",
            "translation" : [
                -24,
                8,
                21
            ]
        },
        {
            "extras" : {
                "t3dOriginalLocalPosition__" : [
                    -23.0,
                    0.0,
                    8.0
                ]
            },
            "mesh" : 1,
            "name" : "Cube.014",
            "translation" : [
                -23,
                8,
                0
            ]
        },
        {
            "extras" : {
                "t3dOriginalLocalPosition__" : [
                    -18.0,
                    -13.0,
                    8.0
                ]
            },
            "mesh" : 1,
            "name" : "Cube.015",
            "translation" : [
                -18,
                8,
                13
            ]
        },
        {
            "extras" : {
                "t3dOriginalLocalPosition__" : [
                    2.0,
                    14.0,
                    8.0
                ]
            },
            "mesh" : 1,
            "name" : "Cube.016",
            "translation" : [
                2,
                8,
                -14
            ]
        },
        {
            "extras" : {
                "t3dOriginalLocalPosition__" : [
                    -10.0,
                    14.0,
                    8.0
                ]
            },
            "mesh" : 1,
            "name" : "Cube.017",
            "translation" : [
                -10,
                8,
                -14
            ]
        },
        {
            "extensions" : {
                "KHR_lights_punctual" : {
                    "light" : 0
                }
            },
            "extras" : {
                "t3dOriginalLocalPosition__" : [
                    3.0,
                    0.0,
                    26.0
                ]
            },
            "name" : "SunLight",
            "rotation" : [
                -0.6982700228691101,
                0.11144089698791504,
                -0.11144089698791504,
                0.6982699632644653
            ],
            "translation" : [
                3,
                26,
                0
            ]
        },
        {
            "extras" : {
                "t3dVisible__" : 0,
                "t3dGameProperties__" : [
                    {
                        "name" : "cubelight"
                    }
                ],
                "t3dOriginalLocalPosition__" : [
                    108.0,
                    0.0,
                    15.0
                ]
            },
            "mesh" : 2,
            "name" : "CubeLightVolume.001",
            "scale" : [
                1,
                4,
                1
            ],
            "translation" : [
                108,
                15,
                0
            ]
        },
        {
            "extras" : {
                "t3dVisible__" : 0,
                "t3dGameProperties__" : [
                    {
                        "name" : "cubelight"
                    }
                ],
                "t3dOriginalLocalPosition__" : [
                    108.0,
                    106.0,
                    15.0
                ]
            },
            "mesh" : 2,
            "name" : "CubeLightVolume.002",
            "scale" : [
                1,
                4,
                1
            ],
            "translation" : [
                108,
                15,
                -106
            ]
        }
    ],
    "materials" : [
        {
            "name" : "Brick",
            "pbrMetallicRoughness" : {
                "baseColorTexture" : {
                    "index" : 0
                },
                "metallicFactor" : 0,
                "roughnessFactor" : 0.5
            }
        },
        {
            "name" : "GroundTile",
            "pbrMetallicRoughness" : {
                "baseColorTexture" : {
                    "index" : 1
                },
                "metallicFactor" : 0,
                "roughnessFactor" : 0.5
            }
        },
        {
            "name" : "Material",
            "pbrMetallicRoughness" : {
                "baseColorFactor" : [
                    0.800000011920929,
                    0.800000011920929,
                    0.800000011920929,
                    1
                ],
                "metallicFactor" : 0,
                "roughnessFactor" : 0.5
            }
        }
    ],
    "meshes" : [
        {
            "name" : "Plane",
            "primitives" : [
                {
                    "attributes" : {
                        "POSITION" : 0,
                        "TEXCOORD_0" : 1,
                        "NORMAL" : 2
                    },
                    "indices" : 3,
                    "material" : 0
                }
            ]
        },
        {
            "name" : "Cube.002",
            "primitives" : [
                {
                    "attributes" : {
                        "POSITION" : 4,
                        "TEXCOORD_0" : 5,
                        "NORMAL" : 6
                    },
                    "indices" : 7,
                    "material" : 1
                }
            ]
        },
        {
            "name" : "Cube.001",
            "primitives" : [
                {
                    "attributes" : {
                        "POSITION" : 8,
                        "TEXCOORD_0" : 9,
                        "NORMAL" : 10
                    },
                    "indices" : 11
                }
            ]
        },
        {
            "name" : "Cube",
            "primitives" : [
                {
                    "attributes" : {
                        "POSITION" : 12,
                        "TEXCOORD_0" : 13,
                        "NORMAL" : 14
                    },
                    "indices" : 15,
                    "material" : 2
                }
            ]
        },
        {
            "name" : "Icosphere",
            "primitives" : [
                {
                    "attributes" : {
                        "POSITION" : 16,
                        "TEXCOORD_0" : 17,
                        "NORMAL" : 18
                    },
                    "indices" : 19,
                    "material" : 1
                }
            ]
        }
    ],
    "textures" : [
        {
            "sampler" : 0,
            "source" : 0
        },
        {
            "sampler" : 0,
            "source" : 1
        }
    ],
    "images" : [
        {
            "bufferView" : 4,
            "mimeType" : "image/png",
            "name" : "bricktile"
        },
        {
            "bufferView" : 9,
            "mimeType" : "image/png",
            "name" : "groundtile"
        }
    ],
    "accessors" : [
        {
            "bufferView" : 0,
            "componentType" : 5126,
            "count" : 324,
            "max" : [
                128,
                0,
                128
            ],
            "min" : [
                -128,
                0,
                -128
            ],
            "type" : "VEC3"
        },
        {
            "bufferView" : 1,
            "componentType" : 5126,
            "count" : 324,
            "type" : "VEC2"
        },
        {
            "bufferView" : 2,
            "componentType" : 5126,
            "count" : 324,
            "type" : "VEC3"
        },
        {
            "bufferView" : 3,
            "componentType" : 5123,
            "count" : 1536,
            "type" : "SCALAR"
        },
        {
            "bufferView" : 5,
            "componentType" : 5126,
            "count" : 56,
            "max" : [
                1,
                8,
                1
            ],
            "min" : [
                -1,
                -8,
                -1
            ],
            "type" : "VEC3"
        },
        {
            "bufferView" : 6,
            "componentType" : 5126,
            "count" : 56,
            "type" : "VEC2"
        },
        {
            "bufferView" : 7,
            "componentType" : 5126,
            "count" : 56,
            "type" : "VEC3"
        },
        {
            "bufferView" : 8,
            "componentType" : 5123,
            "count" : 132,
            "type" : "SCALAR"
        },
        {
            "bufferView" : 10,
            "componentType" : 5126,
            "count" : 24,
            "max" : [
                16,
                4,
                16
            ],
            "min" : [
                -16,
                -4,
                -16
            ],
            "type" : "VEC3"
        },
        {
            "bufferView" : 11,
            "componentType" : 5126,
            "count" : 24,
            "type" : "VEC2"
        },
        {
            "bufferView" : 12,
            "componentType" : 5126,
            "count" : 24,
            "type" : "VEC3"
        },
        {
            "bufferView" : 13,
            "componentType" : 5123,
            "count" : 36,
            "type" : "SCALAR"
        },
        {
            "bufferView" : 14,
            "componentType" : 5126,
            "count" : 54,
            "max" : [
                1,
                1,
                1
            ],
            "min" : [
                -1,
                -1,
                -1
            ],
            "type" : "VEC3"
        },
        {
            "bufferView" : 15,
            "componentType" : 5126,
            "count" : 54,
            "type" : "VEC2"
        },
        {
            "bufferView" : 16,
            "componentType" : 5126,
            "count" : 54,
            "type" : "VEC3"
        },
        {
            "bufferView" : 17,
            "componentType" : 5123,
            "count" : 144,
            "type" : "SCALAR"
        },
        {
            "bufferView" : 18,
            "componentType" : 5126,
            "count" : 240,
            "max" : [
                3.804231882095337,
                4.000001907348633,
                3.999999761581421
            ],
            "min" : [
                -3.8042309284210205,
                -3.999998092651367,
                -3.999999523162842
            ],
            "type" : "VEC3"
        },
        {
            "bufferView" : 19,
            "componentType" : 5126,
            "count" : 240,
            "type" : "VEC2"
        },
        {
            "bufferView" : 20,
            "componentType" : 5126,
            "count" : 240,
            "type" : "VEC3"
        },
        {
            "bufferView" : 21,
            "componentType" : 5123,
            "count" : 240,
            "type" : "SCALAR"
        }
    ],
    "bufferViews" : [
        {
            "buffer" : 0,
            "byteLength" : 3888,
            "byteOffset" : 0,
            "target" : 34962
        },
        {
            "buffer" : 0,
            "byteLength" : 2592,
            "byteOffset" : 3888,
            "target" : 34962
        },
        {
            "buffer" : 0,
            "byteLength" : 3888,
            "byteOffset" : 6480,
            "target" : 34962
        },
        {
            "buffer" : 0,
            "byteLength" : 3072,
            "byteOffset" : 10368,
            "target" : 34963
        },
        {
            "buffer" : 0,
            "byteLength" : 459,
            "byteOffset" : 13440
        },
        {
            "buffer" : 0,
            "byteLength" : 672,
            "byteOffset" : 13900,
            "target" : 34962
        },
        {
            "buffer" : 0,
            "byteLength" : 448,
            "byteOffset" : 14572,
            "target" : 34962
        },
        {
            "buffer" : 0,
            "byteLength" : 672,
            "byteOffset" : 15020,
            "target" : 34962
        },
        {
            "buffer" : 0,
            "byteLength" : 264,
            "byteOffset" : 15692,
            "target" : 34963
        },
        {
            "buffer" : 0,
            "byteLength" : 350,
            "byteOffset" : 15956
        },
        {
            "buffer" : 0,
            "byteLength" : 288,
            "byteOffset" : 16308,
            "target" : 34962
        },
        {
            "buffer" : 0,
            "byteLength" : 192,
            "byteOffset" : 16596,
            "target" : 34962
        },
        {
            "buffer" : 0,
            "byteLength" : 288,
            "byteOffset" : 16788,
            "target" : 34962
        },
        {
            "buffer" : 0,
            "byteLength" : 72,
            "byteOffset" : 17076,
            "target" : 34963
        },
        {
            "buffer" : 0,
            "byteLength" : 648,
            "byteOffset" : 17148,
            "target" : 34962
        },
        {
            "buffer" : 0,
            "byteLength" : 432,
            "byteOffset" : 17796,
            "target" : 34962
        },
        {
            "buffer" : 0,
            "byteLength" : 648,
            "byteOffset" : 18228,
            "target" : 34962
        },
        {
            "buffer" : 0,
            "byteLength" : 288,
            "byteOffset" : 18876,
            "target" : 34963
        },
        {
            "buffer" : 0,
            "byteLength" : 2880,
            "byteOffset" : 19164,
            "target" : 34962
        },
        {
            "buffer" : 0,
            "byteLength" : 1920,
            "byteOffset" : 22044,
            "target" : 34962
        },
        {
            "buffer" : 0,
            "byteLength" : 2880,
            "byteOffset" : 23964,
            "target" : 34962
        },
        {
            "buffer" : 0,
            "byteLength" : 480,
            "byteOffset" : 26844,
            "target" : 34963
        }
    ],
    "samplers" : [
        {
            "magFilter" : 9728,
            "minFilter" : 9984
        }
    ],
    "buffers" : [
        {
            "byteLength" : 27324,
            "uri" : "data:application/octet-stream;base64,"
        }
    ]
}
