{
	"asset":{
		"generator":"Khronos glTF Blender I/O v4.0.43",
		"version":"2.0"
	},
	"scene":0,
	"scenes":[
		{
			"extras":{
				"t3dExportOnSave__":true,
				"t3dExportFormat__":1,
				"t3dPackTextures__":true,
				"t3dCameraResolution__":[
					1920,
					1080
				],
				"t3dExportFilepath__":"",
				"t3dExportCameras__":true,
				"t3dExportLights__":true,
				"t3dRenderResolutionW__":640,
				"t3dRenderResolutionH__":360,
				"t3dSectorRendering__":false,
				"t3dSectorRenderDepth__":0,
				"t3dPlaybackFPS__":60,
				"t3dAnimationSampling__":true,
				"t3dAnimationInterpolation__":true,
				"t3dPerspectiveCorrectedTextureMapping__":false,
				"t3dMaxLightCount__":0,
				"t3dSectorDetection__":0,
				"t3dCollections__":{
					"Collection":{
						"objects":[
							"Plane",
							"Cube.005",
							"Cube.001",
							"Cube.002",
							"Cube.003",
							"Icosphere",
							"Cube.014",
							"Cube.016",
							"Cube.017",
							"Cube.018",
							"Cube.019",
							"Cube.004",
							"Cube.006",
							"Cube.007",
							"Area"
						],
						"offset":[
							0.0,
							0.0,
							0.0
						]
					}
				},
				"t3dWorlds__":{
					"World":{
						"ambient color":[
							0.0,
							0.0,
							0.0,
							1.0
						],
						"ambient energy":1.0,
						"clear color":[
							0.007000000216066837,
							0.00800000037997961,
							0.009999999776482582,
							1.0
						],
						"fog mode":"OFF",
						"dithered transparency":0.0,
						"fog curve":"LINEAR",
						"fog color":[
							0.0,
							0.0,
							0.0,
							1.0
						],
						"fog range start":0.0,
						"fog range end":1.0
					}
				},
				"t3dCurrentWorld__":"World",
				"t3dView3DCameraData__":[
					{
						"clip_start":0.009999999776482582,
						"clip_end":1000.0,
						"location":[
							38.50631332397461,
							17.110822677612305,
							14.908988952636719
						],
						"rotation":[
							[
								0.34567171335220337,
								-0.3155646324157715,
								0.8837025165557861
							],
							[
								7.959340564411832e-07,
								0.9417567253112793,
								0.3362950384616852
							],
							[
								-0.938355565071106,
								-0.11624693125486374,
								0.3255389928817749
							]
						],
						"fovY":39.597752709049864,
						"perspective":true
					}
				]
			},
			"name":"Scene",
			"nodes":[
				0,
				1,
				2,
				3,
				4,
				5,
				6,
				7,
				8,
				9,
				10,
				11,
				12,
				13,
				14
			]
		}
	],
	"nodes":[
		{
			"extras":{
				"t3dOriginalLocalPosition__":[
					-0.09375,
					0.984375,
					-0.34375
				]
			},
			"mesh":0,
			"name":"Plane",
			"scale":[
				0.0625,
				0.0625,
				0.0625
			],
			"translation":[
				-0.09375,
				-0.34375,
				-0.984375
			]
		},
		{
			"extras":{
				"t3dOriginalLocalPosition__":[
					-0.09375,
					0.984375,
					1.65625
				]
			},
			"mesh":1,
			"name":"Cube.005",
			"scale":[
				0.25,
				0.25,
				0.25
			],
			"translation":[
				-0.09375,
				1.65625,
				-0.984375
			]
		},
		{
			"extras":{
				"t3dOriginalLocalPosition__":[
					2.90625,
					-2.515625,
					1.65625
				]
			},
			"mesh":1,
			"name":"Cube.001",
			"scale":[
				0.25,
				0.25,
				0.25
			],
			"translation":[
				2.90625,
				1.65625,
				2.515625
			]
		},
		{
			"extras":{
				"t3dOriginalLocalPosition__":[
					3.15625,
					0.984375,
					1.65625
				]
			},
			"mesh":1,
			"name":"Cube.002",
			"scale":[
				0.25,
				0.25,
				0.25
			],
			"translation":[
				3.15625,
				1.65625,
				-0.984375
			]
		},
		{
			"extras":{
				"t3dOriginalLocalPosition__":[
					3.15625,
					2.984375,
					1.65625
				]
			},
			"mesh":1,
			"name":"Cube.003",
			"scale":[
				0.25,
				0.25,
				0.25
			],
			"translation":[
				3.15625,
				1.65625,
				-2.984375
			]
		},
		{
			"extras":{
				"t3dOriginalLocalPosition__":[
					-2.84375,
					1.484375,
					2.90625
				]
			},
			"mesh":2,
			"name":"Icosphere",
			"scale":[
				0.25,
				0.25,
				0.25
			],
			"translation":[
				-2.84375,
				2.90625,
				-1.484375
			]
		},
		{
			"extras":{
				"t3dOriginalLocalPosition__":[
					-5.84375,
					0.984375,
					1.65625
				]
			},
			"mesh":1,
			"name":"Cube.014",
			"scale":[
				0.25,
				0.25,
				0.25
			],
			"translation":[
				-5.84375,
				1.65625,
				-0.984375
			]
		},
		{
			"extras":{
				"t3dOriginalLocalPosition__":[
					0.40625,
					4.484375,
					1.65625
				]
			},
			"mesh":1,
			"name":"Cube.016",
			"scale":[
				0.25,
				0.25,
				0.25
			],
			"translation":[
				0.40625,
				1.65625,
				-4.484375
			]
		},
		{
			"extras":{
				"t3dOriginalLocalPosition__":[
					-2.59375,
					4.484375,
					1.65625
				]
			},
			"mesh":1,
			"name":"Cube.017",
			"scale":[
				0.25,
				0.25,
				0.25
			],
			"translation":[
				-2.59375,
				1.65625,
				-4.484375
			]
		},
		{
			"extras":{
				"t3dOriginalLocalPosition__":[
					-2.59375,
					-2.015625,
					1.65625
				]
			},
			"mesh":1,
			"name":"Cube.018",
			"scale":[
				0.25,
				0.25,
				0.25
			],
			"translation":[
				-2.59375,
				1.65625,
				2.015625
			]
		},
		{
			"extras":{
				"t3dOriginalLocalPosition__":[
					-3.59375,
					2.984375,
					1.65625
				]
			},
			"mesh":1,
			"name":"Cube.019",
			"scale":[
				0.25,
				0.25,
				0.25
			],
			"translation":[
				-3.59375,
				1.65625,
				-2.984375
			]
		},
		{
			"extras":{
				"t3dOriginalLocalPosition__":[
					0.40625,
					6.484375,
					1.65625
				]
			},
			"mesh":1,
			"name":"Cube.004",
			"scale":[
				0.25,
				0.25,
				0.25
			],
			"translation":[
				0.40625,
				1.65625,
				-6.484375
			]
		},
		{
			"extras":{
				"t3dOriginalLocalPosition__":[
					5.40625,
					0.984375,
					1.65625
				]
			},
			"mesh":1,
			"name":"Cube.006",
			"scale":[
				0.25,
				0.25,
				0.25
			],
			"translation":[
				5.40625,
				1.65625,
				-0.984375
			]
		},
		{
			"extras":{
				"t3dOriginalLocalPosition__":[
					-0.34375,
					-4.265625,
					1.65625
				]
			},
			"mesh":1,
			"name":"Cube.007",
			"scale":[
				0.25,
				0.25,
				0.25
			],
			"translation":[
				-0.34375,
				1.65625,
				4.265625
			]
		},
		{
			"extras":{
				"t3dOriginalLocalPosition__":[
					0.0,
					0.0,
					6.0
				]
			},
			"name":"Area",
			"rotation":[
				-0.7071068286895752,
				0,
				0,
				0.7071068286895752
			],
			"scale":[
				17.133548736572266,
				1,
				1
			],
			"translation":[
				0,
				6,
				0
			]
		}
	],
	"materials":[
		{
			"name":"Brick",
			"pbrMetallicRoughness":{
				"baseColorTexture":{
					"index":0
				},
				"metallicFactor":0,
				"roughnessFactor":0.5
			}
		},
		{
			"name":"GroundTile",
			"pbrMetallicRoughness":{
				"baseColorTexture":{
					"index":1
				},
				"metallicFactor":0,
				"roughnessFactor":0.5
			}
		}
	],
	"meshes":[
		{
			"name":"Plane",
			"primitives":[
				{
					"attributes":{
						"POSITION":0,
						"NORMAL":1,
						"TEXCOORD_0":2
					},
					"indices":3,
					"material":0
				}
			]
		},
		{
			"name":"Cube.002",
			"primitives":[
				{
					"attributes":{
						"POSITION":4,
						"NORMAL":5,
						"TEXCOORD_0":6
					},
					"indices":7,
					"material":1
				}
			]
		},
		{
			"name":"Icosphere",
			"primitives":[
				{
					"attributes":{
						"POSITION":8,
						"NORMAL":9,
						"TEXCOORD_0":10
					},
					"indices":11,
					"material":1
				}
			]
		}
	],
	"textures":[
		{
			"sampler":0,
			"source":0
		},
		{
			"sampler":0,
			"source":1
		}
	],
	"images":[
		{
			"mimeType":"image/png",
			"name":"bricktile",
			"uri":"bricktile.png"
		},
		{
			"mimeType":"image/png",
			"name":"groundtile",
			"uri":"groundtile.png"
		}
	],
	"accessors":[
		{
			"bufferView":0,
			"componentType":5126,
			"count":324,
			"max":[
				128,
				0,
				128
			],
			"min":[
				-128,
				0,
				-128
			],
			"type":"VEC3"
		},
		{
			"bufferView":1,
			"componentType":5126,
			"count":324,
			"type":"VEC3"
		},
		{
			"bufferView":2,
			"componentType":5126,
			"count":324,
			"type":"VEC2"
		},
		{
			"bufferView":3,
			"componentType":5123,
			"count":1536,
			"type":"SCALAR"
		},
		{
			"bufferView":4,
			"componentType":5126,
			"count":56,
			"max":[
				1,
				8,
				1
			],
			"min":[
				-1,
				-8,
				-1
			],
			"type":"VEC3"
		},
		{
			"bufferView":5,
			"componentType":5126,
			"count":56,
			"type":"VEC3"
		},
		{
			"bufferView":6,
			"componentType":5126,
			"count":56,
			"type":"VEC2"
		},
		{
			"bufferView":7,
			"componentType":5123,
			"count":132,
			"type":"SCALAR"
		},
		{
			"bufferView":8,
			"componentType":5126,
			"count":240,
			"max":[
				3.804231882095337,
				4.000001907348633,
				3.999999761581421
			],
			"min":[
				-3.8042309284210205,
				-3.999998092651367,
				-3.999999523162842
			],
			"type":"VEC3"
		},
		{
			"bufferView":9,
			"componentType":5126,
			"count":240,
			"type":"VEC3"
		},
		{
			"bufferView":10,
			"componentType":5126,
			"count":240,
			"type":"VEC2"
		},
		{
			"bufferView":11,
			"componentType":5123,
			"count":240,
			"type":"SCALAR"
		}
	],
	"bufferViews":[
		{
			"buffer":0,
			"byteLength":3888,
			"byteOffset":0,
			"target":34962
		},
		{
			"buffer":0,
			"byteLength":3888,
			"byteOffset":3888,
			"target":34962
		},
		{
			"buffer":0,
			"byteLength":2592,
			"byteOffset":7776,
			"target":34962
		},
		{
			"buffer":0,
			"byteLength":3072,
			"byteOffset":10368,
			"target":34963
		},
		{
			"buffer":0,
			"byteLength":672,
			"byteOffset":13440,
			"target":34962
		},
		{
			"buffer":0,
			"byteLength":672,
			"byteOffset":14112,
			"target":34962
		},
		{
			"buffer":0,
			"byteLength":448,
			"byteOffset":14784,
			"target":34962
		},
		{
			"buffer":0,
			"byteLength":264,
			"byteOffset":15232,
			"target":34963
		},
		{
			"buffer":0,
			"byteLength":2880,
			"byteOffset":15496,
			"target":34962
		},
		{
			"buffer":0,
			"byteLength":2880,
			"byteOffset":18376,
			"target":34962
		},
		{
			"buffer":0,
			"byteLength":1920,
			"byteOffset":21256,
			"target":34962
		},
		{
			"buffer":0,
			"byteLength":480,
			"byteOffset":23176,
			"target":34963
		}
	],
	"samplers":[
		{
			"magFilter":9728,
			"minFilter":9984
		}
	],
	"buffers":[
		{
			"byteLength":23656,
			"uri":"cubeLighting.bin"
		}
	]
}
