{
	"asset":{
		"generator":"Khronos glTF Blender I/O v3.6.27",
		"version":"2.0"
	},
	"extensionsUsed":[
		"KHR_lights_punctual"
	],
	"extensionsRequired":[
		"KHR_lights_punctual"
	],
	"extensions":{
		"KHR_lights_punctual":{
			"lights":[
				{
					"color":[
						1,
						1,
						1
					],
					"intensity":79.57747154594767,
					"type":"point",
					"name":"Light"
				},
				{
					"color":[
						1,
						1,
						1
					],
					"intensity":79.57747154594767,
					"type":"point",
					"range":27.880001068115234,
					"name":"Light.001"
				}
			]
		}
	},
	"scene":0,
	"scenes":[
		{
			"extras":{
				"t3dCameraResolution__":[
					640,
					360
				],
				"t3dExportFormat__":2,
				"t3dExportOnSave__":true,
				"t3dSectorRendering__":true,
				"t3dExportFilepath__":"",
				"t3dPackTextures__":false,
				"t3dExportCameras__":true,
				"t3dExportLights__":true,
				"t3dRenderResolutionW__":640,
				"t3dRenderResolutionH__":360,
				"t3dSectorRenderDepth__":0,
				"t3dPlaybackFPS__":60,
				"t3dAnimationSampling__":true,
				"t3dAnimationInterpolation__":true,
				"t3dSectorDetection__":"VERTICES",
				"t3dCollections__":{
					"Collection":{
						"objects":[
							"Light",
							"WhiteRoom",
							"BlueRoom",
							"GreenRoom",
							"Light.001",
							"Prism",
							"Light.002",
							"Plane",
							"BlackRoom",
							"TanRoom"
						],
						"offset":[
							0.0,
							0.0,
							0.0
						]
					}
				},
				"t3dWorlds__":{
					"World":{
						"ambient color":[
							0.05087608844041824,
							0.05087608844041824,
							0.05087608844041824,
							1.0
						],
						"ambient energy":1.0,
						"clear color":[
							0.007000000216066837,
							0.00800000037997961,
							0.009999999776482582,
							1.0
						],
						"fog mode":"OFF",
						"dithered transparency":0.0,
						"fog curve":"LINEAR",
						"fog color":[
							0.0,
							0.0,
							0.0,
							1.0
						],
						"fog range start":0.0,
						"fog range end":1.0
					}
				},
				"t3dCurrentWorld__":"World"
			},
			"name":"Scene",
			"nodes":[
				0,
				1,
				4,
				5,
				6,
				7,
				8,
				9,
				10,
				11
			]
		}
	],
	"nodes":[
		{
			"extensions":{
				"KHR_lights_punctual":{
					"light":0
				}
			},
			"extras":{
				"t3dOriginalLocalPosition__":[
					0.0,
					0.0,
					3.0
				]
			},
			"name":"Light",
			"rotation":[
				-0.28416627645492554,
				0.7269423007965088,
				0.34203392267227173,
				0.5232754945755005
			],
			"translation":[
				0,
				3,
				0
			]
		},
		{
			"extras":{
				"t3dSector__":1,
				"t3dOriginalLocalPosition__":[
					0.0,
					0.0,
					0.0
				]
			},
			"mesh":0,
			"name":"WhiteRoom"
		},
		{
			"extras":{
				"t3dOriginalLocalPosition__":[
					2.0,
					14.0,
					0.0
				]
			},
			"mesh":1,
			"name":"Pillar",
			"translation":[
				2,
				0,
				-2
			]
		},
		{
			"extras":{
				"t3dOriginalLocalPosition__":[
					-2.0,
					14.0,
					0.0
				]
			},
			"mesh":1,
			"name":"Pillar.001",
			"translation":[
				-2,
				0,
				-2
			]
		},
		{
			"children":[
				2,
				3
			],
			"extras":{
				"t3dSector__":1,
				"t3dOriginalLocalPosition__":[
					0.0,
					12.0,
					0.0
				]
			},
			"mesh":2,
			"name":"BlueRoom",
			"translation":[
				0,
				0,
				-12
			]
		},
		{
			"extras":{
				"t3dSector__":1,
				"t3dOriginalLocalPosition__":[
					0.0,
					25.0,
					0.0
				]
			},
			"mesh":3,
			"name":"GreenRoom",
			"translation":[
				0,
				0,
				-25
			]
		},
		{
			"extensions":{
				"KHR_lights_punctual":{
					"light":0
				}
			},
			"extras":{
				"t3dOriginalLocalPosition__":[
					0.0,
					24.0,
					3.0
				]
			},
			"name":"Light.001",
			"rotation":[
				-0.28416627645492554,
				0.7269423007965088,
				0.34203392267227173,
				0.5232754945755005
			],
			"translation":[
				0,
				3,
				-24
			]
		},
		{
			"extras":{
				"t3dOriginalLocalPosition__":[
					0.0,
					65.0,
					0.0
				]
			},
			"mesh":4,
			"name":"Prism",
			"translation":[
				0,
				0,
				-65
			]
		},
		{
			"extensions":{
				"KHR_lights_punctual":{
					"light":1
				}
			},
			"extras":{
				"t3dOriginalLocalPosition__":[
					10.662875175476074,
					46.47743225097656,
					27.95777702331543
				]
			},
			"name":"Light.002",
			"rotation":[
				-0.28416627645492554,
				0.7269423007965088,
				0.34203392267227173,
				0.5232754945755005
			],
			"translation":[
				10.662875175476074,
				27.95777702331543,
				-46.47743225097656
			]
		},
		{
			"extras":{
				"t3dOriginalLocalPosition__":[
					0.0,
					12.0,
					-4.0
				]
			},
			"mesh":5,
			"name":"Plane",
			"translation":[
				0,
				-4,
				-12
			]
		},
		{
			"extras":{
				"t3dSector__":1,
				"t3dOriginalLocalPosition__":[
					12.0,
					25.0,
					0.0
				]
			},
			"mesh":6,
			"name":"BlackRoom",
			"translation":[
				12,
				0,
				-25
			]
		},
		{
			"extras":{
				"t3dSector__":1,
				"t3dOriginalLocalPosition__":[
					-12.0,
					25.0,
					0.0
				]
			},
			"mesh":7,
			"name":"TanRoom",
			"translation":[
				-12,
				0,
				-25
			]
		}
	],
	"materials":[
		{
			"name":"White",
			"pbrMetallicRoughness":{
				"metallicFactor":0,
				"roughnessFactor":0.5
			}
		}
	],
	"meshes":[
		{
			"extras":{
				"t3dVertexColorNames__":[
					"Col"
				],
				"t3dActiveVertexColorIndex__":0
			},
			"name":"Cube.001",
			"primitives":[
				{
					"attributes":{
						"COLOR_0":0,
						"POSITION":1,
						"NORMAL":2,
						"TEXCOORD_0":3
					},
					"indices":4,
					"material":0
				}
			]
		},
		{
			"extras":{
				"t3dVertexColorNames__":[
					"___Col"
				],
				"t3dActiveVertexColorIndex__":0
			},
			"name":"Cube.009",
			"primitives":[
				{
					"attributes":{
						"COLOR_0":5,
						"POSITION":6,
						"NORMAL":7,
						"TEXCOORD_0":8
					},
					"indices":9,
					"material":0
				}
			]
		},
		{
			"extras":{
				"t3dVertexColorNames__":[
					"Col"
				],
				"t3dActiveVertexColorIndex__":0
			},
			"name":"Cube.002",
			"primitives":[
				{
					"attributes":{
						"COLOR_0":10,
						"POSITION":11,
						"NORMAL":12,
						"TEXCOORD_0":13
					},
					"indices":14,
					"material":0
				}
			]
		},
		{
			"extras":{
				"t3dVertexColorNames__":[
					"Col"
				],
				"t3dActiveVertexColorIndex__":0
			},
			"name":"Cube.004",
			"primitives":[
				{
					"attributes":{
						"COLOR_0":15,
						"POSITION":16,
						"NORMAL":17,
						"TEXCOORD_0":18
					},
					"indices":19,
					"material":0
				}
			]
		},
		{
			"extras":{
				"t3dVertexColorNames__":[
					"Col"
				],
				"t3dActiveVertexColorIndex__":0
			},
			"name":"Cube",
			"primitives":[
				{
					"attributes":{
						"COLOR_0":20,
						"POSITION":21,
						"NORMAL":22,
						"TEXCOORD_0":23
					},
					"indices":24,
					"material":0
				}
			]
		},
		{
			"extras":{
				"t3dVertexColorNames__":[
					"Col"
				],
				"t3dActiveVertexColorIndex__":0
			},
			"name":"Plane",
			"primitives":[
				{
					"attributes":{
						"COLOR_0":25,
						"POSITION":26,
						"NORMAL":27,
						"TEXCOORD_0":28
					},
					"indices":29,
					"material":0
				}
			]
		},
		{
			"extras":{
				"t3dVertexColorNames__":[
					"Col"
				],
				"t3dActiveVertexColorIndex__":0
			},
			"name":"Cube.007",
			"primitives":[
				{
					"attributes":{
						"COLOR_0":30,
						"POSITION":31,
						"NORMAL":32,
						"TEXCOORD_0":33
					},
					"indices":34,
					"material":0
				}
			]
		},
		{
			"extras":{
				"t3dVertexColorNames__":[
					"Col"
				],
				"t3dActiveVertexColorIndex__":0
			},
			"name":"Cube.008",
			"primitives":[
				{
					"attributes":{
						"COLOR_0":35,
						"POSITION":36,
						"NORMAL":37,
						"TEXCOORD_0":38
					},
					"indices":39,
					"material":0
				}
			]
		}
	],
	"accessors":[
		{
			"bufferView":0,
			"componentType":5123,
			"count":179,
			"normalized":true,
			"type":"VEC4"
		},
		{
			"bufferView":1,
			"componentType":5126,
			"count":179,
			"max":[
				4,
				4,
				4
			],
			"min":[
				-4,
				-4,
				-6
			],
			"type":"VEC3"
		},
		{
			"bufferView":2,
			"componentType":5126,
			"count":179,
			"type":"VEC3"
		},
		{
			"bufferView":3,
			"componentType":5126,
			"count":179,
			"type":"VEC2"
		},
		{
			"bufferView":4,
			"componentType":5123,
			"count":636,
			"type":"SCALAR"
		},
		{
			"bufferView":5,
			"componentType":5123,
			"count":56,
			"normalized":true,
			"type":"VEC4"
		},
		{
			"bufferView":6,
			"componentType":5126,
			"count":56,
			"max":[
				0.5,
				4,
				0.5
			],
			"min":[
				-0.5,
				-4,
				-0.5
			],
			"type":"VEC3"
		},
		{
			"bufferView":7,
			"componentType":5126,
			"count":56,
			"type":"VEC3"
		},
		{
			"bufferView":8,
			"componentType":5126,
			"count":56,
			"type":"VEC2"
		},
		{
			"bufferView":9,
			"componentType":5123,
			"count":132,
			"type":"SCALAR"
		},
		{
			"bufferView":10,
			"componentType":5123,
			"count":204,
			"normalized":true,
			"type":"VEC4"
		},
		{
			"bufferView":11,
			"componentType":5126,
			"count":204,
			"max":[
				4,
				4,
				6
			],
			"min":[
				-4,
				-4,
				-7
			],
			"type":"VEC3"
		},
		{
			"bufferView":12,
			"componentType":5126,
			"count":204,
			"type":"VEC3"
		},
		{
			"bufferView":13,
			"componentType":5126,
			"count":204,
			"type":"VEC2"
		},
		{
			"bufferView":14,
			"componentType":5123,
			"count":696,
			"type":"SCALAR"
		},
		{
			"bufferView":15,
			"componentType":5123,
			"count":224,
			"normalized":true,
			"type":"VEC4"
		},
		{
			"bufferView":16,
			"componentType":5126,
			"count":224,
			"max":[
				6,
				4,
				6
			],
			"min":[
				-6,
				-4,
				-4
			],
			"type":"VEC3"
		},
		{
			"bufferView":17,
			"componentType":5126,
			"count":224,
			"type":"VEC3"
		},
		{
			"bufferView":18,
			"componentType":5126,
			"count":224,
			"type":"VEC2"
		},
		{
			"bufferView":19,
			"componentType":5123,
			"count":756,
			"type":"SCALAR"
		},
		{
			"bufferView":20,
			"componentType":5123,
			"count":120,
			"normalized":true,
			"type":"VEC4"
		},
		{
			"bufferView":21,
			"componentType":5126,
			"count":120,
			"max":[
				16,
				32,
				16
			],
			"min":[
				-16,
				-32,
				-16
			],
			"type":"VEC3"
		},
		{
			"bufferView":22,
			"componentType":5126,
			"count":120,
			"type":"VEC3"
		},
		{
			"bufferView":23,
			"componentType":5126,
			"count":120,
			"type":"VEC2"
		},
		{
			"bufferView":24,
			"componentType":5123,
			"count":384,
			"type":"SCALAR"
		},
		{
			"bufferView":25,
			"componentType":5123,
			"count":310,
			"normalized":true,
			"type":"VEC4"
		},
		{
			"bufferView":26,
			"componentType":5126,
			"count":310,
			"max":[
				8,
				-1.3004673719406128,
				16
			],
			"min":[
				-8,
				-2.658970355987549,
				-19
			],
			"type":"VEC3"
		},
		{
			"bufferView":27,
			"componentType":5126,
			"count":310,
			"type":"VEC3"
		},
		{
			"bufferView":28,
			"componentType":5126,
			"count":310,
			"type":"VEC2"
		},
		{
			"bufferView":29,
			"componentType":5123,
			"count":1344,
			"type":"SCALAR"
		},
		{
			"bufferView":30,
			"componentType":5123,
			"count":170,
			"normalized":true,
			"type":"VEC4"
		},
		{
			"bufferView":31,
			"componentType":5126,
			"count":170,
			"max":[
				4,
				3.999999761581421,
				4
			],
			"min":[
				-6,
				-3.999999761581421,
				-4
			],
			"type":"VEC3"
		},
		{
			"bufferView":32,
			"componentType":5126,
			"count":170,
			"type":"VEC3"
		},
		{
			"bufferView":33,
			"componentType":5126,
			"count":170,
			"type":"VEC2"
		},
		{
			"bufferView":34,
			"componentType":5123,
			"count":612,
			"type":"SCALAR"
		},
		{
			"bufferView":35,
			"componentType":5123,
			"count":179,
			"normalized":true,
			"type":"VEC4"
		},
		{
			"bufferView":36,
			"componentType":5126,
			"count":179,
			"max":[
				6,
				3.999999761581421,
				4
			],
			"min":[
				-4,
				-3.999999761581421,
				-4
			],
			"type":"VEC3"
		},
		{
			"bufferView":37,
			"componentType":5126,
			"count":179,
			"type":"VEC3"
		},
		{
			"bufferView":38,
			"componentType":5126,
			"count":179,
			"type":"VEC2"
		},
		{
			"bufferView":39,
			"componentType":5123,
			"count":636,
			"type":"SCALAR"
		}
	],
	"bufferViews":[
		{
			"buffer":0,
			"byteLength":1432,
			"byteOffset":0,
			"target":34962
		},
		{
			"buffer":0,
			"byteLength":2148,
			"byteOffset":1432,
			"target":34962
		},
		{
			"buffer":0,
			"byteLength":2148,
			"byteOffset":3580,
			"target":34962
		},
		{
			"buffer":0,
			"byteLength":1432,
			"byteOffset":5728,
			"target":34962
		},
		{
			"buffer":0,
			"byteLength":1272,
			"byteOffset":7160,
			"target":34963
		},
		{
			"buffer":0,
			"byteLength":448,
			"byteOffset":8432,
			"target":34962
		},
		{
			"buffer":0,
			"byteLength":672,
			"byteOffset":8880,
			"target":34962
		},
		{
			"buffer":0,
			"byteLength":672,
			"byteOffset":9552,
			"target":34962
		},
		{
			"buffer":0,
			"byteLength":448,
			"byteOffset":10224,
			"target":34962
		},
		{
			"buffer":0,
			"byteLength":264,
			"byteOffset":10672,
			"target":34963
		},
		{
			"buffer":0,
			"byteLength":1632,
			"byteOffset":10936,
			"target":34962
		},
		{
			"buffer":0,
			"byteLength":2448,
			"byteOffset":12568,
			"target":34962
		},
		{
			"buffer":0,
			"byteLength":2448,
			"byteOffset":15016,
			"target":34962
		},
		{
			"buffer":0,
			"byteLength":1632,
			"byteOffset":17464,
			"target":34962
		},
		{
			"buffer":0,
			"byteLength":1392,
			"byteOffset":19096,
			"target":34963
		},
		{
			"buffer":0,
			"byteLength":1792,
			"byteOffset":20488,
			"target":34962
		},
		{
			"buffer":0,
			"byteLength":2688,
			"byteOffset":22280,
			"target":34962
		},
		{
			"buffer":0,
			"byteLength":2688,
			"byteOffset":24968,
			"target":34962
		},
		{
			"buffer":0,
			"byteLength":1792,
			"byteOffset":27656,
			"target":34962
		},
		{
			"buffer":0,
			"byteLength":1512,
			"byteOffset":29448,
			"target":34963
		},
		{
			"buffer":0,
			"byteLength":960,
			"byteOffset":30960,
			"target":34962
		},
		{
			"buffer":0,
			"byteLength":1440,
			"byteOffset":31920,
			"target":34962
		},
		{
			"buffer":0,
			"byteLength":1440,
			"byteOffset":33360,
			"target":34962
		},
		{
			"buffer":0,
			"byteLength":960,
			"byteOffset":34800,
			"target":34962
		},
		{
			"buffer":0,
			"byteLength":768,
			"byteOffset":35760,
			"target":34963
		},
		{
			"buffer":0,
			"byteLength":2480,
			"byteOffset":36528,
			"target":34962
		},
		{
			"buffer":0,
			"byteLength":3720,
			"byteOffset":39008,
			"target":34962
		},
		{
			"buffer":0,
			"byteLength":3720,
			"byteOffset":42728,
			"target":34962
		},
		{
			"buffer":0,
			"byteLength":2480,
			"byteOffset":46448,
			"target":34962
		},
		{
			"buffer":0,
			"byteLength":2688,
			"byteOffset":48928,
			"target":34963
		},
		{
			"buffer":0,
			"byteLength":1360,
			"byteOffset":51616,
			"target":34962
		},
		{
			"buffer":0,
			"byteLength":2040,
			"byteOffset":52976,
			"target":34962
		},
		{
			"buffer":0,
			"byteLength":2040,
			"byteOffset":55016,
			"target":34962
		},
		{
			"buffer":0,
			"byteLength":1360,
			"byteOffset":57056,
			"target":34962
		},
		{
			"buffer":0,
			"byteLength":1224,
			"byteOffset":58416,
			"target":34963
		},
		{
			"buffer":0,
			"byteLength":1432,
			"byteOffset":59640,
			"target":34962
		},
		{
			"buffer":0,
			"byteLength":2148,
			"byteOffset":61072,
			"target":34962
		},
		{
			"buffer":0,
			"byteLength":2148,
			"byteOffset":63220,
			"target":34962
		},
		{
			"buffer":0,
			"byteLength":1432,
			"byteOffset":65368,
			"target":34962
		},
		{
			"buffer":0,
			"byteLength":1272,
			"byteOffset":66800,
			"target":34963
		}
	],
	"buffers":[
		{
			"byteLength":68072,
			"uri":"data:application/octet-stream;base64,"
		}
	]
}
