{
	"asset":{
		"generator":"Khronos glTF Blender I/O v3.5.30",
		"version":"2.0"
	},
	"extensionsUsed":[
		"KHR_lights_punctual"
	],
	"extensionsRequired":[
		"KHR_lights_punctual"
	],
	"extensions":{
		"KHR_lights_punctual":{
			"lights":[
				{
					"color":[
						1,
						1,
						1
					],
					"intensity":159.15494309189535,
					"type":"point",
					"range":9.600000381469727,
					"name":"PointLight"
				},
				{
					"color":[
						1,
						0.07914038747549057,
						0
					],
					"intensity":636.6197723675814,
					"type":"point",
					"range":8.479999542236328,
					"name":"PointLight.003"
				},
				{
					"color":[
						0.14307016134262085,
						1,
						0.7572646737098694
					],
					"intensity":318.3098861837907,
					"type":"point",
					"range":14.380000114440918,
					"name":"PointLight.004"
				}
			]
		}
	},
	"scene":0,
	"scenes":[
		{
			"extras":{
				"t3dExportOnSave__":true,
				"t3dExportFormat__":2,
				"t3dPackTextures__":true,
				"map_precision":3,
				"map_subdivide":1.0,
				"map_min_subdivide":4.0,
				"map_post_subdivide":1,
				"map_min_subdivide_on":1,
				"map_triangulate":1,
				"t3dCameraResolution__":[
					1920,
					1080
				],
				"t3dExportFilepath__":"",
				"t3dExportCameras__":true,
				"t3dExportLights__":true,
				"t3dRenderResolutionW__":640,
				"t3dRenderResolutionH__":360,
				"t3dSectorRendering__":false,
				"t3dSectorRenderDepth__":0,
				"t3dPlaybackFPS__":60,
				"t3dAnimationSampling__":true,
				"t3dAnimationInterpolation__":true,
				"t3dCollections__":{
					"Collection":{
						"objects":[
							"Point Light",
							"Cube.006",
							"Point light.002",
							"Cube.002",
							"Cube.003",
							"Cube.004",
							"Cube.005",
							"Cube.007",
							"Cube.008",
							"Cube.009",
							"Point light.003"
						],
						"offset":[
							0.0,
							0.0,
							0.0
						]
					}
				},
				"t3dWorlds__":{
					"World":{
						"ambient color":[
							0.01599491573870182,
							0.01599491573870182,
							0.01599491573870182,
							1.0
						],
						"ambient energy":1.0
					}
				},
				"t3dCurrentWorld__":"World"
			},
			"name":"Scene",
			"nodes":[
				0,
				1,
				2,
				3,
				4,
				5,
				6,
				7,
				8,
				9,
				10,
				11
			]
		}
	],
	"nodes":[
		{
			"extras":{
				"lb_map_using_index":0,
				"t3dGameProperties__":[
					{
						"name":"ao",
						"valueType":0,
						"valueBool":1,
						"valueInt":0,
						"valueFloat":0.0,
						"valueString":"",
						"valueReference":null,
						"valueReferenceScene":null,
						"valueColor":[
							1.0,
							1.0,
							1.0,
							1.0
						],
						"valueVector3D":[
							0.0,
							0.0,
							0.0
						]
					}
				],
				"t3dOriginalLocalPosition__":[
					0.0,
					0.0,
					0.0
				]
			},
			"mesh":0,
			"name":"LevelGeometry0"
		},
		{
			"extensions":{
				"KHR_lights_punctual":{
					"light":0
				}
			},
			"extras":{
				"t3dGameProperties__":[],
				"t3dOriginalLocalPosition__":[
					4.076245307922363,
					5.0,
					6.0
				]
			},
			"name":"Point Light",
			"rotation":[
				-0.28416627645492554,
				0.7269423007965088,
				0.34203392267227173,
				0.5232754945755005
			],
			"translation":[
				4.076245307922363,
				6,
				-5
			]
		},
		{
			"extras":{
				"t3dGameProperties__":[
					{
						"name":"ao",
						"valueType":0,
						"valueBool":1,
						"valueInt":0,
						"valueFloat":0.0,
						"valueString":"",
						"valueReference":null,
						"valueReferenceScene":null,
						"valueColor":[
							1.0,
							1.0,
							1.0,
							1.0
						],
						"valueVector3D":[
							0.0,
							0.0,
							0.0
						]
					}
				],
				"t3dOriginalLocalPosition__":[
					-8.0,
					15.0,
					1.0
				]
			},
			"mesh":1,
			"name":"Cube.006",
			"translation":[
				-8,
				1,
				-15
			]
		},
		{
			"extensions":{
				"KHR_lights_punctual":{
					"light":1
				}
			},
			"extras":{
				"t3dGameProperties__":[],
				"t3dOriginalLocalPosition__":[
					14.0,
					1.0,
					5.0
				]
			},
			"name":"Point light.002",
			"rotation":[
				-0.28416627645492554,
				0.7269423007965088,
				0.34203392267227173,
				0.5232754945755005
			],
			"translation":[
				14,
				5,
				-1
			]
		},
		{
			"extras":{
				"t3dGameProperties__":[
					{
						"name":"ao",
						"valueBool":1,
						"valueReference":{},
						"valueReferenceScene":{}
					}
				],
				"t3dOriginalLocalPosition__":[
					-8.0,
					3.0,
					0.5
				]
			},
			"mesh":2,
			"name":"Cube.002",
			"translation":[
				-8,
				0.5,
				-3
			]
		},
		{
			"extras":{
				"t3dGameProperties__":[
					{
						"name":"ao",
						"valueType":0,
						"valueBool":1,
						"valueInt":0,
						"valueFloat":0.0,
						"valueString":"",
						"valueReference":null,
						"valueReferenceScene":null,
						"valueColor":[
							1.0,
							1.0,
							1.0,
							1.0
						],
						"valueVector3D":[
							0.0,
							0.0,
							0.0
						]
					}
				],
				"t3dOriginalLocalPosition__":[
					1.0,
					7.0,
					1.0
				]
			},
			"mesh":3,
			"name":"Cube.003",
			"translation":[
				1,
				1,
				-7
			]
		},
		{
			"extras":{
				"t3dGameProperties__":[
					{
						"name":"ao",
						"valueType":0,
						"valueBool":1,
						"valueInt":0,
						"valueFloat":0.0,
						"valueString":"",
						"valueReference":null,
						"valueReferenceScene":null,
						"valueColor":[
							1.0,
							1.0,
							1.0,
							1.0
						],
						"valueVector3D":[
							0.0,
							0.0,
							0.0
						]
					}
				],
				"t3dOriginalLocalPosition__":[
					7.0,
					7.0,
					1.0
				]
			},
			"mesh":4,
			"name":"Cube.004",
			"translation":[
				7,
				1,
				-7
			]
		},
		{
			"extras":{
				"t3dGameProperties__":[
					{
						"name":"ao",
						"valueType":0,
						"valueBool":1,
						"valueInt":0,
						"valueFloat":0.0,
						"valueString":"",
						"valueReference":null,
						"valueReferenceScene":null,
						"valueColor":[
							1.0,
							1.0,
							1.0,
							1.0
						],
						"valueVector3D":[
							0.0,
							0.0,
							0.0
						]
					}
				],
				"t3dOriginalLocalPosition__":[
					1.0,
					7.0,
					5.0
				]
			},
			"mesh":5,
			"name":"Cube.005",
			"translation":[
				1,
				5,
				-7
			]
		},
		{
			"extras":{
				"t3dGameProperties__":[
					{
						"name":"ao",
						"valueType":0,
						"valueBool":1,
						"valueInt":0,
						"valueFloat":0.0,
						"valueString":"",
						"valueReference":null,
						"valueReferenceScene":null,
						"valueColor":[
							1.0,
							1.0,
							1.0,
							1.0
						],
						"valueVector3D":[
							0.0,
							0.0,
							0.0
						]
					}
				],
				"t3dOriginalLocalPosition__":[
					8.699999809265137,
					7.0,
					5.0
				]
			},
			"mesh":6,
			"name":"Cube.007",
			"translation":[
				8.699999809265137,
				5,
				-7
			]
		},
		{
			"extras":{
				"t3dGameProperties__":[
					{
						"name":"ao",
						"valueType":0,
						"valueBool":1,
						"valueInt":0,
						"valueFloat":0.0,
						"valueString":"",
						"valueReference":null,
						"valueReferenceScene":null,
						"valueColor":[
							1.0,
							1.0,
							1.0,
							1.0
						],
						"valueVector3D":[
							0.0,
							0.0,
							0.0
						]
					}
				],
				"t3dOriginalLocalPosition__":[
					1.0,
					7.0,
					9.0
				]
			},
			"mesh":7,
			"name":"Cube.008",
			"translation":[
				1,
				9,
				-7
			]
		},
		{
			"extras":{
				"t3dGameProperties__":[
					{
						"name":"ao",
						"valueType":0,
						"valueBool":1,
						"valueInt":0,
						"valueFloat":0.0,
						"valueString":"",
						"valueReference":null,
						"valueReferenceScene":null,
						"valueColor":[
							1.0,
							1.0,
							1.0,
							1.0
						],
						"valueVector3D":[
							0.0,
							0.0,
							0.0
						]
					}
				],
				"t3dOriginalLocalPosition__":[
					7.0,
					7.0,
					9.0
				]
			},
			"mesh":8,
			"name":"Cube.009",
			"translation":[
				7,
				9,
				-7
			]
		},
		{
			"extensions":{
				"KHR_lights_punctual":{
					"light":2
				}
			},
			"extras":{
				"t3dGameProperties__":[],
				"t3dOriginalLocalPosition__":[
					-24.915050506591797,
					15.789344787597656,
					2.2601757049560547
				]
			},
			"name":"Point light.003",
			"rotation":[
				-0.28416627645492554,
				0.7269423007965088,
				0.34203392267227173,
				0.5232754945755005
			],
			"translation":[
				-24.915050506591797,
				2.2601757049560547,
				-15.789344787597656
			]
		}
	],
	"materials":[
		{
			"name":"BrickTile",
			"pbrMetallicRoughness":{
				"baseColorTexture":{
					"index":0
				},
				"metallicFactor":0,
				"roughnessFactor":0.5
			}
		},
		{
			"name":"GroundTile",
			"pbrMetallicRoughness":{
				"baseColorTexture":{
					"index":1
				},
				"metallicFactor":0,
				"roughnessFactor":0.5
			}
		},
		{
			"name":"Cube",
			"pbrMetallicRoughness":{
				"baseColorTexture":{
					"index":2
				},
				"metallicFactor":0,
				"roughnessFactor":0.5
			}
		}
	],
	"meshes":[
		{
			"name":"LevelGeometryMesh0.001",
			"primitives":[
				{
					"attributes":{
						"POSITION":0,
						"TEXCOORD_0":1,
						"NORMAL":2
					},
					"indices":3,
					"material":0
				},
				{
					"attributes":{
						"POSITION":4,
						"TEXCOORD_0":5,
						"NORMAL":6
					},
					"indices":7,
					"material":1
				}
			]
		},
		{
			"name":"Cube",
			"primitives":[
				{
					"attributes":{
						"POSITION":8,
						"TEXCOORD_0":9,
						"NORMAL":10
					},
					"indices":11,
					"material":2
				}
			]
		},
		{
			"name":"Cube.007",
			"primitives":[
				{
					"attributes":{
						"POSITION":12,
						"TEXCOORD_0":13,
						"NORMAL":14
					},
					"indices":11,
					"material":2
				}
			]
		},
		{
			"name":"Cube.006",
			"primitives":[
				{
					"attributes":{
						"POSITION":15,
						"TEXCOORD_0":16,
						"NORMAL":17
					},
					"indices":11,
					"material":2
				}
			]
		},
		{
			"name":"Cube.005",
			"primitives":[
				{
					"attributes":{
						"POSITION":18,
						"TEXCOORD_0":19,
						"NORMAL":20
					},
					"indices":11,
					"material":2
				}
			]
		},
		{
			"name":"Cube.004",
			"primitives":[
				{
					"attributes":{
						"POSITION":21,
						"TEXCOORD_0":22,
						"NORMAL":23
					},
					"indices":11,
					"material":2
				}
			]
		},
		{
			"name":"Cube.003",
			"primitives":[
				{
					"attributes":{
						"POSITION":24,
						"TEXCOORD_0":25,
						"NORMAL":26
					},
					"indices":11,
					"material":2
				}
			]
		},
		{
			"name":"Cube.002",
			"primitives":[
				{
					"attributes":{
						"POSITION":27,
						"TEXCOORD_0":28,
						"NORMAL":29
					},
					"indices":11,
					"material":2
				}
			]
		},
		{
			"name":"Cube.001",
			"primitives":[
				{
					"attributes":{
						"POSITION":30,
						"TEXCOORD_0":31,
						"NORMAL":32
					},
					"indices":11,
					"material":2
				}
			]
		}
	],
	"textures":[
		{
			"sampler":0,
			"source":0
		},
		{
			"sampler":0,
			"source":1
		},
		{
			"sampler":0,
			"source":2
		}
	],
	"images":[
		{
			"bufferView":4,
			"mimeType":"image/png",
			"name":"bricktile"
		},
		{
			"bufferView":9,
			"mimeType":"image/png",
			"name":"groundtile"
		},
		{
			"bufferView":14,
			"mimeType":"image/png",
			"name":"cubetile"
		}
	],
	"accessors":[
		{
			"bufferView":0,
			"componentType":5126,
			"count":1191,
			"max":[
				18,
				12,
				2
			],
			"min":[
				-17,
				0,
				-20
			],
			"type":"VEC3"
		},
		{
			"bufferView":1,
			"componentType":5126,
			"count":1191,
			"type":"VEC2"
		},
		{
			"bufferView":2,
			"componentType":5126,
			"count":1191,
			"type":"VEC3"
		},
		{
			"bufferView":3,
			"componentType":5123,
			"count":5076,
			"type":"SCALAR"
		},
		{
			"bufferView":5,
			"componentType":5126,
			"count":685,
			"max":[
				18,
				12,
				2
			],
			"min":[
				-30,
				-4,
				-22
			],
			"type":"VEC3"
		},
		{
			"bufferView":6,
			"componentType":5126,
			"count":685,
			"type":"VEC2"
		},
		{
			"bufferView":7,
			"componentType":5126,
			"count":685,
			"type":"VEC3"
		},
		{
			"bufferView":8,
			"componentType":5123,
			"count":2892,
			"type":"SCALAR"
		},
		{
			"bufferView":10,
			"componentType":5126,
			"count":54,
			"max":[
				1,
				1,
				1
			],
			"min":[
				-1,
				-1,
				-1
			],
			"type":"VEC3"
		},
		{
			"bufferView":11,
			"componentType":5126,
			"count":54,
			"type":"VEC2"
		},
		{
			"bufferView":12,
			"componentType":5126,
			"count":54,
			"type":"VEC3"
		},
		{
			"bufferView":13,
			"componentType":5123,
			"count":144,
			"type":"SCALAR"
		},
		{
			"bufferView":15,
			"componentType":5126,
			"count":54,
			"max":[
				0.5,
				0.5,
				0.5
			],
			"min":[
				-0.5,
				-0.5,
				-0.5
			],
			"type":"VEC3"
		},
		{
			"bufferView":16,
			"componentType":5126,
			"count":54,
			"type":"VEC2"
		},
		{
			"bufferView":17,
			"componentType":5126,
			"count":54,
			"type":"VEC3"
		},
		{
			"bufferView":18,
			"componentType":5126,
			"count":54,
			"max":[
				1,
				1,
				1
			],
			"min":[
				-1,
				-1,
				-1
			],
			"type":"VEC3"
		},
		{
			"bufferView":19,
			"componentType":5126,
			"count":54,
			"type":"VEC2"
		},
		{
			"bufferView":20,
			"componentType":5126,
			"count":54,
			"type":"VEC3"
		},
		{
			"bufferView":21,
			"componentType":5126,
			"count":54,
			"max":[
				1,
				1,
				1
			],
			"min":[
				-1,
				-1,
				-1
			],
			"type":"VEC3"
		},
		{
			"bufferView":22,
			"componentType":5126,
			"count":54,
			"type":"VEC2"
		},
		{
			"bufferView":23,
			"componentType":5126,
			"count":54,
			"type":"VEC3"
		},
		{
			"bufferView":24,
			"componentType":5126,
			"count":54,
			"max":[
				1,
				1,
				1
			],
			"min":[
				-1,
				-1,
				-1
			],
			"type":"VEC3"
		},
		{
			"bufferView":25,
			"componentType":5126,
			"count":54,
			"type":"VEC2"
		},
		{
			"bufferView":26,
			"componentType":5126,
			"count":54,
			"type":"VEC3"
		},
		{
			"bufferView":27,
			"componentType":5126,
			"count":54,
			"max":[
				1,
				1,
				1
			],
			"min":[
				-1,
				-1,
				-1
			],
			"type":"VEC3"
		},
		{
			"bufferView":28,
			"componentType":5126,
			"count":54,
			"type":"VEC2"
		},
		{
			"bufferView":29,
			"componentType":5126,
			"count":54,
			"type":"VEC3"
		},
		{
			"bufferView":30,
			"componentType":5126,
			"count":54,
			"max":[
				1,
				1,
				1
			],
			"min":[
				-1,
				-1,
				-1
			],
			"type":"VEC3"
		},
		{
			"bufferView":31,
			"componentType":5126,
			"count":54,
			"type":"VEC2"
		},
		{
			"bufferView":32,
			"componentType":5126,
			"count":54,
			"type":"VEC3"
		},
		{
			"bufferView":33,
			"componentType":5126,
			"count":54,
			"max":[
				1,
				1,
				1
			],
			"min":[
				-1,
				-1,
				-1
			],
			"type":"VEC3"
		},
		{
			"bufferView":34,
			"componentType":5126,
			"count":54,
			"type":"VEC2"
		},
		{
			"bufferView":35,
			"componentType":5126,
			"count":54,
			"type":"VEC3"
		}
	],
	"bufferViews":[
		{
			"buffer":0,
			"byteLength":14292,
			"byteOffset":0,
			"target":34962
		},
		{
			"buffer":0,
			"byteLength":9528,
			"byteOffset":14292,
			"target":34962
		},
		{
			"buffer":0,
			"byteLength":14292,
			"byteOffset":23820,
			"target":34962
		},
		{
			"buffer":0,
			"byteLength":10152,
			"byteOffset":38112,
			"target":34963
		},
		{
			"buffer":0,
			"byteLength":459,
			"byteOffset":48264
		},
		{
			"buffer":0,
			"byteLength":8220,
			"byteOffset":48724,
			"target":34962
		},
		{
			"buffer":0,
			"byteLength":5480,
			"byteOffset":56944,
			"target":34962
		},
		{
			"buffer":0,
			"byteLength":8220,
			"byteOffset":62424,
			"target":34962
		},
		{
			"buffer":0,
			"byteLength":5784,
			"byteOffset":70644,
			"target":34963
		},
		{
			"buffer":0,
			"byteLength":350,
			"byteOffset":76428
		},
		{
			"buffer":0,
			"byteLength":648,
			"byteOffset":76780,
			"target":34962
		},
		{
			"buffer":0,
			"byteLength":432,
			"byteOffset":77428,
			"target":34962
		},
		{
			"buffer":0,
			"byteLength":648,
			"byteOffset":77860,
			"target":34962
		},
		{
			"buffer":0,
			"byteLength":288,
			"byteOffset":78508,
			"target":34963
		},
		{
			"buffer":0,
			"byteLength":670,
			"byteOffset":78796
		},
		{
			"buffer":0,
			"byteLength":648,
			"byteOffset":79468,
			"target":34962
		},
		{
			"buffer":0,
			"byteLength":432,
			"byteOffset":80116,
			"target":34962
		},
		{
			"buffer":0,
			"byteLength":648,
			"byteOffset":80548,
			"target":34962
		},
		{
			"buffer":0,
			"byteLength":648,
			"byteOffset":81196,
			"target":34962
		},
		{
			"buffer":0,
			"byteLength":432,
			"byteOffset":81844,
			"target":34962
		},
		{
			"buffer":0,
			"byteLength":648,
			"byteOffset":82276,
			"target":34962
		},
		{
			"buffer":0,
			"byteLength":648,
			"byteOffset":82924,
			"target":34962
		},
		{
			"buffer":0,
			"byteLength":432,
			"byteOffset":83572,
			"target":34962
		},
		{
			"buffer":0,
			"byteLength":648,
			"byteOffset":84004,
			"target":34962
		},
		{
			"buffer":0,
			"byteLength":648,
			"byteOffset":84652,
			"target":34962
		},
		{
			"buffer":0,
			"byteLength":432,
			"byteOffset":85300,
			"target":34962
		},
		{
			"buffer":0,
			"byteLength":648,
			"byteOffset":85732,
			"target":34962
		},
		{
			"buffer":0,
			"byteLength":648,
			"byteOffset":86380,
			"target":34962
		},
		{
			"buffer":0,
			"byteLength":432,
			"byteOffset":87028,
			"target":34962
		},
		{
			"buffer":0,
			"byteLength":648,
			"byteOffset":87460,
			"target":34962
		},
		{
			"buffer":0,
			"byteLength":648,
			"byteOffset":88108,
			"target":34962
		},
		{
			"buffer":0,
			"byteLength":432,
			"byteOffset":88756,
			"target":34962
		},
		{
			"buffer":0,
			"byteLength":648,
			"byteOffset":89188,
			"target":34962
		},
		{
			"buffer":0,
			"byteLength":648,
			"byteOffset":89836,
			"target":34962
		},
		{
			"buffer":0,
			"byteLength":432,
			"byteOffset":90484,
			"target":34962
		},
		{
			"buffer":0,
			"byteLength":648,
			"byteOffset":90916,
			"target":34962
		}
	],
	"samplers":[
		{
			"magFilter":9728,
			"minFilter":9984
		}
	],
	"buffers":[
		{
			"byteLength":91564,
			"uri":"data:application/octet-stream;base64,"
		}
	]
}
