{
    "asset" : {
        "generator" : "Khronos glTF Blender I/O v1.7.33",
        "version" : "2.0"
    },
    "extensionsUsed" : [
        "KHR_materials_unlit"
    ],
    "scene" : 0,
    "scenes" : [
        {
            "extras" : {
                "t3dExportOnSave__" : 1,
                "t3dExportFormat__" : 2,
                "t3dExportLights__" : 0,
                "t3dExportCameras__" : 0,
                "t3dCollections__" : {
                    "Collection" : {
                        "objects" : [
                            "Cube",
                            "Plane",
                            "Path"
                        ],
                        "offset" : [
                            0.0,
                            0.0,
                            0.0
                        ]
                    }
                }
            },
            "name" : "Scene",
            "nodes" : [
                0,
                1,
                2
            ]
        }
    ],
    "nodes" : [
        {
            "mesh" : 0,
            "name" : "Cube",
            "translation" : [
                -11,
                1,
                0
            ]
        },
        {
            "mesh" : 1,
            "name" : "Plane"
        },
        {
            "extras" : {
                "t3dPathPoints__" : [
                    [
                        -10.0,
                        0.0,
                        0.0,
                        1.0
                    ],
                    [
                        -3.0,
                        4.0,
                        0.0,
                        1.0
                    ],
                    [
                        8.0,
                        -4.0,
                        0.0,
                        1.0
                    ],
                    [
                        -4.600000381469727,
                        -5.0,
                        0.0,
                        1.0
                    ]
                ],
                "t3dPathCyclic__" : 1
            },
            "name" : "Path",
            "translation" : [
                -1,
                1,
                0
            ]
        }
    ],
    "materials" : [
        {
            "extensions" : {
                "KHR_materials_unlit" : {}
            },
            "extras" : {
                "t3dMaterialShadeless__" : 1
            },
            "name" : "Material",
            "pbrMetallicRoughness" : {
                "metallicFactor" : 0,
                "roughnessFactor" : 0.9
            }
        }
    ],
    "meshes" : [
        {
            "extras" : {
                "t3dVertexColorNames__" : [
                    "Col"
                ]
            },
            "name" : "Cube.003",
            "primitives" : [
                {
                    "attributes" : {
                        "POSITION" : 0,
                        "NORMAL" : 1,
                        "TEXCOORD_0" : 2,
                        "COLOR_0" : 3
                    },
                    "indices" : 4,
                    "material" : 0
                }
            ]
        },
        {
            "extras" : {
                "t3dVertexColorNames__" : [
                    "Col"
                ]
            },
            "name" : "Plane.001",
            "primitives" : [
                {
                    "attributes" : {
                        "POSITION" : 5,
                        "NORMAL" : 6,
                        "TEXCOORD_0" : 7,
                        "COLOR_0" : 8
                    },
                    "indices" : 9,
                    "material" : 0
                }
            ]
        }
    ],
    "accessors" : [
        {
            "bufferView" : 0,
            "componentType" : 5126,
            "count" : 24,
            "max" : [
                1,
                1,
                1
            ],
            "min" : [
                -1,
                -1,
                -1
            ],
            "type" : "VEC3"
        },
        {
            "bufferView" : 1,
            "componentType" : 5126,
            "count" : 24,
            "type" : "VEC3"
        },
        {
            "bufferView" : 2,
            "componentType" : 5126,
            "count" : 24,
            "type" : "VEC2"
        },
        {
            "bufferView" : 3,
            "componentType" : 5123,
            "count" : 24,
            "normalized" : true,
            "type" : "VEC4"
        },
        {
            "bufferView" : 4,
            "componentType" : 5123,
            "count" : 36,
            "type" : "SCALAR"
        },
        {
            "bufferView" : 5,
            "componentType" : 5126,
            "count" : 4,
            "max" : [
                20,
                0,
                20
            ],
            "min" : [
                -20,
                0,
                -20
            ],
            "type" : "VEC3"
        },
        {
            "bufferView" : 6,
            "componentType" : 5126,
            "count" : 4,
            "type" : "VEC3"
        },
        {
            "bufferView" : 7,
            "componentType" : 5126,
            "count" : 4,
            "type" : "VEC2"
        },
        {
            "bufferView" : 8,
            "componentType" : 5123,
            "count" : 4,
            "normalized" : true,
            "type" : "VEC4"
        },
        {
            "bufferView" : 9,
            "componentType" : 5123,
            "count" : 6,
            "type" : "SCALAR"
        }
    ],
    "bufferViews" : [
        {
            "buffer" : 0,
            "byteLength" : 288,
            "byteOffset" : 0
        },
        {
            "buffer" : 0,
            "byteLength" : 288,
            "byteOffset" : 288
        },
        {
            "buffer" : 0,
            "byteLength" : 192,
            "byteOffset" : 576
        },
        {
            "buffer" : 0,
            "byteLength" : 192,
            "byteOffset" : 768
        },
        {
            "buffer" : 0,
            "byteLength" : 72,
            "byteOffset" : 960
        },
        {
            "buffer" : 0,
            "byteLength" : 48,
            "byteOffset" : 1032
        },
        {
            "buffer" : 0,
            "byteLength" : 48,
            "byteOffset" : 1080
        },
        {
            "buffer" : 0,
            "byteLength" : 32,
            "byteOffset" : 1128
        },
        {
            "buffer" : 0,
            "byteLength" : 32,
            "byteOffset" : 1160
        },
        {
            "buffer" : 0,
            "byteLength" : 12,
            "byteOffset" : 1192
        }
    ],
    "buffers" : [
        {
            "byteLength" : 1204,
            "uri" : "data:application/octet-stream;base64,"
        }
    ]
}
