{
	"asset":{
		"generator":"Khronos glTF Blender I/O v3.6.27",
		"version":"2.0"
	},
	"extensionsUsed":[
		"KHR_materials_unlit"
	],
	"scene":0,
	"scenes":[
		{
			"extras":{
				"t3dExportOnSave__":1,
				"t3dExportFormat__":2,
				"t3dExportLights__":0,
				"t3dExportCameras__":0,
				"t3dExportFilepath__":"",
				"t3dPackTextures__":false,
				"t3dRenderResolutionW__":640,
				"t3dRenderResolutionH__":360,
				"t3dSectorRendering__":false,
				"t3dSectorRenderDepth__":0,
				"t3dPlaybackFPS__":60,
				"t3dAnimationSampling__":true,
				"t3dAnimationInterpolation__":true,
				"t3dCollections__":{
					"Collection":{
						"objects":[
							"Cube",
							"Plane",
							"Path",
							"PointMarker"
						],
						"offset":[
							0.0,
							0.0,
							0.0
						]
					}
				},
				"t3dWorlds__":{
					"World":{
						"ambient color":[
							0.04445478320121765,
							0.04445478320121765,
							0.04445478320121765,
							1.0
						],
						"ambient energy":1.0
					}
				},
				"t3dCurrentWorld__":"World"
			},
			"name":"Scene",
			"nodes":[
				0,
				1,
				2,
				3
			]
		}
	],
	"nodes":[
		{
			"extras":{
				"t3dOriginalLocalPosition__":[
					-5.0,
					2.0,
					1.0
				]
			},
			"mesh":0,
			"name":"Cube",
			"translation":[
				-5,
				1,
				-2
			]
		},
		{
			"extras":{
				"t3dOriginalLocalPosition__":[
					0.0,
					0.0,
					0.0
				]
			},
			"mesh":1,
			"name":"Plane"
		},
		{
			"extras":{
				"t3dOriginalLocalPosition__":[
					-1.0,
					0.0,
					1.0
				],
				"t3dPathPoints__":[
					[
						-3.6000003814697266,
						1.6875,
						0.0,
						1.0
					],
					[
						-0.10000014305114746,
						3.6875,
						0.0,
						1.0
					],
					[
						-0.10000014305114746,
						7.6875,
						0.0,
						1.0
					],
					[
						5.399999618530273,
						7.6875,
						0.0,
						1.0
					],
					[
						10.90000057220459,
						3.6875,
						0.0,
						1.0
					],
					[
						5.399999618530273,
						3.6875,
						0.0,
						1.0
					],
					[
						5.399999618530273,
						-0.3125,
						0.0,
						1.0
					],
					[
						-0.9000003337860107,
						-0.8125,
						0.0,
						1.0
					]
				],
				"t3dPathCyclic__":true
			},
			"name":"Path",
			"translation":[
				-1,
				1,
				0
			]
		},
		{
			"extras":{
				"t3dOriginalLocalPosition__":[
					2.0,
					6.0,
					1.0
				]
			},
			"mesh":2,
			"name":"PointMarker",
			"translation":[
				2,
				1,
				-6
			]
		}
	],
	"materials":[
		{
			"extensions":{
				"KHR_materials_unlit":{}
			},
			"extras":{
				"t3dMaterialShadeless__":1
			},
			"name":"Material",
			"pbrMetallicRoughness":{
				"metallicFactor":0,
				"roughnessFactor":0.9
			}
		}
	],
	"meshes":[
		{
			"extras":{
				"t3dVertexColorNames__":[
					"_Col"
				],
				"t3dActiveVertexColorIndex__":0
			},
			"name":"Cube.003",
			"primitives":[
				{
					"attributes":{
						"COLOR_0":0,
						"POSITION":1,
						"NORMAL":2,
						"TEXCOORD_0":3
					},
					"indices":4,
					"material":0
				}
			]
		},
		{
			"extras":{
				"t3dVertexColorNames__":[
					"_Col"
				],
				"t3dActiveVertexColorIndex__":0
			},
			"name":"Plane.001",
			"primitives":[
				{
					"attributes":{
						"COLOR_0":5,
						"POSITION":6,
						"NORMAL":7,
						"TEXCOORD_0":8
					},
					"indices":9,
					"material":0
				}
			]
		},
		{
			"extras":{
				"t3dVertexColorNames__":[
					"_Attribute"
				],
				"t3dActiveVertexColorIndex__":0
			},
			"name":"Cube",
			"primitives":[
				{
					"attributes":{
						"COLOR_0":10,
						"POSITION":11,
						"NORMAL":12,
						"TEXCOORD_0":13
					},
					"indices":14,
					"material":0
				}
			]
		}
	],
	"accessors":[
		{
			"bufferView":0,
			"componentType":5123,
			"count":24,
			"normalized":true,
			"type":"VEC4"
		},
		{
			"bufferView":1,
			"componentType":5126,
			"count":24,
			"max":[
				0.5,
				0.5,
				0.5
			],
			"min":[
				-0.5,
				-0.5,
				-0.5
			],
			"type":"VEC3"
		},
		{
			"bufferView":2,
			"componentType":5126,
			"count":24,
			"type":"VEC3"
		},
		{
			"bufferView":3,
			"componentType":5126,
			"count":24,
			"type":"VEC2"
		},
		{
			"bufferView":4,
			"componentType":5123,
			"count":36,
			"type":"SCALAR"
		},
		{
			"bufferView":5,
			"componentType":5123,
			"count":4,
			"normalized":true,
			"type":"VEC4"
		},
		{
			"bufferView":6,
			"componentType":5126,
			"count":4,
			"max":[
				10,
				0,
				10
			],
			"min":[
				-10,
				0,
				-10
			],
			"type":"VEC3"
		},
		{
			"bufferView":7,
			"componentType":5126,
			"count":4,
			"type":"VEC3"
		},
		{
			"bufferView":8,
			"componentType":5126,
			"count":4,
			"type":"VEC2"
		},
		{
			"bufferView":9,
			"componentType":5123,
			"count":6,
			"type":"SCALAR"
		},
		{
			"bufferView":10,
			"componentType":5123,
			"count":16,
			"normalized":true,
			"type":"VEC4"
		},
		{
			"bufferView":11,
			"componentType":5126,
			"count":16,
			"max":[
				0.25,
				0.9000000357627869,
				0.25
			],
			"min":[
				-0.25,
				0.40000003576278687,
				-0.25
			],
			"type":"VEC3"
		},
		{
			"bufferView":12,
			"componentType":5126,
			"count":16,
			"type":"VEC3"
		},
		{
			"bufferView":13,
			"componentType":5126,
			"count":16,
			"type":"VEC2"
		},
		{
			"bufferView":14,
			"componentType":5123,
			"count":18,
			"type":"SCALAR"
		}
	],
	"bufferViews":[
		{
			"buffer":0,
			"byteLength":192,
			"byteOffset":0,
			"target":34962
		},
		{
			"buffer":0,
			"byteLength":288,
			"byteOffset":192,
			"target":34962
		},
		{
			"buffer":0,
			"byteLength":288,
			"byteOffset":480,
			"target":34962
		},
		{
			"buffer":0,
			"byteLength":192,
			"byteOffset":768,
			"target":34962
		},
		{
			"buffer":0,
			"byteLength":72,
			"byteOffset":960,
			"target":34963
		},
		{
			"buffer":0,
			"byteLength":32,
			"byteOffset":1032,
			"target":34962
		},
		{
			"buffer":0,
			"byteLength":48,
			"byteOffset":1064,
			"target":34962
		},
		{
			"buffer":0,
			"byteLength":48,
			"byteOffset":1112,
			"target":34962
		},
		{
			"buffer":0,
			"byteLength":32,
			"byteOffset":1160,
			"target":34962
		},
		{
			"buffer":0,
			"byteLength":12,
			"byteOffset":1192,
			"target":34963
		},
		{
			"buffer":0,
			"byteLength":128,
			"byteOffset":1204,
			"target":34962
		},
		{
			"buffer":0,
			"byteLength":192,
			"byteOffset":1332,
			"target":34962
		},
		{
			"buffer":0,
			"byteLength":192,
			"byteOffset":1524,
			"target":34962
		},
		{
			"buffer":0,
			"byteLength":128,
			"byteOffset":1716,
			"target":34962
		},
		{
			"buffer":0,
			"byteLength":36,
			"byteOffset":1844,
			"target":34963
		}
	],
	"buffers":[
		{
			"byteLength":1880,
			"uri":"data:application/octet-stream;base64,"
		}
	]
}
