{
	"asset":{
		"generator":"Khronos glTF Blender I/O v3.5.30",
		"version":"2.0"
	},
	"extensionsUsed":[
		"KHR_materials_unlit",
		"KHR_lights_punctual"
	],
	"extensionsRequired":[
		"KHR_lights_punctual"
	],
	"extensions":{
		"KHR_lights_punctual":{
			"lights":[
				{
					"color":[
						1,
						1,
						1
					],
					"intensity":79.57747154594767,
					"type":"point",
					"name":"Point"
				}
			]
		}
	},
	"scene":1,
	"scenes":[
		{
			"extras":{
				"t3dExportOnSave__":true,
				"t3dExportFormat__":2,
				"t3dPackTextures__":true,
				"t3dExportLights__":true,
				"t3dCameraResolution__":[
					1920,
					1080
				],
				"t3dExportFilepath__":"",
				"t3dExportCameras__":true,
				"t3dRenderResolutionW__":640,
				"t3dRenderResolutionH__":360,
				"t3dSectorRendering__":false,
				"t3dSectorRenderDepth__":0,
				"t3dPlaybackFPS__":60,
				"t3dAnimationSampling__":true,
				"t3dAnimationInterpolation__":true,
				"t3dCollections__":{
					"Collection":{
						"objects":[
							"Cube",
							"Point",
							"Point.001",
							"Cube.006",
							"Cube.007",
							"Marker",
							"Cube.008",
							"Cube.009",
							"Cube.010",
							"Cube.011",
							"Cube.012",
							"Cube.013",
							"Cube.014",
							"Cube.015",
							"Cube.016",
							"Cube.017",
							"Cube.018",
							"Cube.019",
							"Cube.020",
							"Cube.021",
							"Cube.022",
							"Sphere"
						],
						"offset":[
							0.0,
							0.0,
							0.0
						]
					},
					"Collection 1":{
						"objects":[
							"Cube.002",
							"Cube.003",
							"Cube.004",
							"Cube.005"
						],
						"offset":[
							0.0,
							0.0,
							0.0
						]
					}
				},
				"t3dWorlds__":{
					"World":{
						"ambient color":[
							0.05087608844041824,
							0.05087608844041824,
							0.05087608844041824,
							1.0
						],
						"ambient energy":1.0
					}
				},
				"t3dCurrentWorld__":"World"
			},
			"name":"Another",
			"nodes":[
				0,
				1,
				2,
				3,
				4
			]
		},
		{
			"extras":{
				"t3dCurrentWorld__":"World"
			},
			"name":"Scene",
			"nodes":[
				5,
				6,
				7,
				8,
				9,
				10,
				11,
				12,
				13,
				14,
				15,
				16,
				17,
				18,
				19,
				20,
				21,
				22,
				23,
				24,
				25,
				26
			]
		}
	],
	"nodes":[
		{
			"extras":{
				"t3dOriginalLocalPosition__":[
					0.0,
					0.0,
					0.0
				]
			},
			"mesh":0,
			"name":"Cube.001"
		},
		{
			"extras":{
				"t3dOriginalLocalPosition__":[
					6.0,
					0.0,
					0.0
				]
			},
			"mesh":0,
			"name":"Cube.002",
			"rotation":[
				0,
				0.3826834559440613,
				0,
				0.9238795638084412
			],
			"translation":[
				6,
				0,
				0
			]
		},
		{
			"extras":{
				"t3dOriginalLocalPosition__":[
					11.0,
					0.0,
					0.0
				]
			},
			"mesh":0,
			"name":"Cube.003",
			"rotation":[
				0,
				0.7071068286895752,
				0,
				0.7071068286895752
			],
			"translation":[
				11,
				0,
				0
			]
		},
		{
			"extras":{
				"t3dOriginalLocalPosition__":[
					16.0,
					0.0,
					0.0
				]
			},
			"mesh":0,
			"name":"Cube.004",
			"rotation":[
				0,
				0.9238795638084412,
				0,
				0.3826834559440613
			],
			"translation":[
				16,
				0,
				0
			]
		},
		{
			"extras":{
				"t3dOriginalLocalPosition__":[
					22.0,
					0.0,
					0.0
				]
			},
			"mesh":0,
			"name":"Cube.005",
			"rotation":[
				0,
				1,
				0,
				1.6292068494294654e-07
			],
			"translation":[
				22,
				0,
				0
			]
		},
		{
			"extras":{
				"t3dBoundsType__":4,
				"t3dTrianglesCustomBroadphaseEnabled__":0,
				"t3dTrianglesCustomBroadphaseGridSize__":20,
				"t3dOriginalLocalPosition__":[
					0.0,
					0.0,
					0.0
				]
			},
			"mesh":1,
			"name":"Cube"
		},
		{
			"extensions":{
				"KHR_lights_punctual":{
					"light":0
				}
			},
			"extras":{
				"t3dOriginalLocalPosition__":[
					-12.0,
					0.0,
					1.0
				]
			},
			"name":"Point",
			"rotation":[
				-0.7071068286895752,
				0,
				0,
				0.7071068286895752
			],
			"translation":[
				-12,
				1,
				0
			]
		},
		{
			"extensions":{
				"KHR_lights_punctual":{
					"light":0
				}
			},
			"extras":{
				"t3dOriginalLocalPosition__":[
					11.0,
					0.0,
					1.0
				]
			},
			"name":"Point.001",
			"rotation":[
				-0.7071068286895752,
				0,
				0,
				0.7071068286895752
			],
			"translation":[
				11,
				1,
				0
			]
		},
		{
			"extras":{
				"t3dBoundsType__":1,
				"t3dOriginalLocalPosition__":[
					-4.0,
					3.0,
					-2.0
				]
			},
			"mesh":2,
			"name":"Cube.006",
			"translation":[
				-4,
				-2,
				-3
			]
		},
		{
			"extras":{
				"t3dBoundsType__":1,
				"t3dOriginalLocalPosition__":[
					7.0,
					2.0,
					-2.0
				]
			},
			"mesh":2,
			"name":"Cube.007",
			"translation":[
				7,
				-2,
				-2
			]
		},
		{
			"extras":{
				"t3dBoundsType__":0,
				"t3dOriginalLocalPosition__":[
					0.0,
					0.0,
					14.0
				]
			},
			"mesh":3,
			"name":"Marker",
			"translation":[
				0,
				14,
				0
			]
		},
		{
			"extras":{
				"t3dBoundsType__":1,
				"t3dOriginalLocalPosition__":[
					-6.0,
					1.0,
					0.0
				]
			},
			"mesh":2,
			"name":"Cube.008",
			"translation":[
				-6,
				0,
				-1
			]
		},
		{
			"extras":{
				"t3dBoundsType__":1,
				"t3dOriginalLocalPosition__":[
					-4.0,
					-2.0,
					-2.0
				]
			},
			"mesh":2,
			"name":"Cube.009",
			"translation":[
				-4,
				-2,
				2
			]
		},
		{
			"extras":{
				"t3dBoundsType__":1,
				"t3dOriginalLocalPosition__":[
					-11.0,
					-2.0,
					-2.0
				]
			},
			"mesh":2,
			"name":"Cube.010",
			"translation":[
				-11,
				-2,
				2
			]
		},
		{
			"extras":{
				"t3dBoundsType__":1,
				"t3dOriginalLocalPosition__":[
					-10.0,
					0.0,
					2.0
				]
			},
			"mesh":2,
			"name":"Cube.011",
			"translation":[
				-10,
				2,
				0
			]
		},
		{
			"extras":{
				"t3dBoundsType__":1,
				"t3dOriginalLocalPosition__":[
					-13.0,
					3.0,
					0.0
				]
			},
			"mesh":2,
			"name":"Cube.012",
			"translation":[
				-13,
				0,
				-3
			]
		},
		{
			"extras":{
				"t3dBoundsType__":1,
				"t3dOriginalLocalPosition__":[
					-14.0,
					0.0,
					0.0
				]
			},
			"mesh":2,
			"name":"Cube.013",
			"translation":[
				-14,
				0,
				0
			]
		},
		{
			"extras":{
				"t3dBoundsType__":1,
				"t3dOriginalLocalPosition__":[
					4.0,
					-2.0,
					2.0
				]
			},
			"mesh":2,
			"name":"Cube.014",
			"translation":[
				4,
				2,
				2
			]
		},
		{
			"extras":{
				"t3dBoundsType__":1,
				"t3dOriginalLocalPosition__":[
					1.0,
					2.0,
					0.0
				]
			},
			"mesh":2,
			"name":"Cube.015",
			"translation":[
				1,
				0,
				-2
			]
		},
		{
			"extras":{
				"t3dBoundsType__":1,
				"t3dOriginalLocalPosition__":[
					0.0,
					0.0,
					2.0
				]
			},
			"mesh":2,
			"name":"Cube.016",
			"translation":[
				0,
				2,
				0
			]
		},
		{
			"extras":{
				"t3dBoundsType__":1,
				"t3dOriginalLocalPosition__":[
					6.0,
					0.0,
					-3.0
				]
			},
			"mesh":2,
			"name":"Cube.017",
			"translation":[
				6,
				-3,
				0
			]
		},
		{
			"extras":{
				"t3dBoundsType__":1,
				"t3dOriginalLocalPosition__":[
					11.0,
					-1.0,
					0.0
				]
			},
			"mesh":2,
			"name":"Cube.018",
			"translation":[
				11,
				0,
				1
			]
		},
		{
			"extras":{
				"t3dBoundsType__":1,
				"t3dOriginalLocalPosition__":[
					13.0,
					2.0,
					0.0
				]
			},
			"mesh":2,
			"name":"Cube.019",
			"translation":[
				13,
				0,
				-2
			]
		},
		{
			"extras":{
				"t3dBoundsType__":1,
				"t3dOriginalLocalPosition__":[
					14.0,
					0.0,
					0.0
				]
			},
			"mesh":2,
			"name":"Cube.020",
			"translation":[
				14,
				0,
				0
			]
		},
		{
			"extras":{
				"t3dBoundsType__":1,
				"t3dOriginalLocalPosition__":[
					13.0,
					-3.0,
					0.0
				]
			},
			"mesh":2,
			"name":"Cube.021",
			"translation":[
				13,
				0,
				3
			]
		},
		{
			"extras":{
				"t3dBoundsType__":4,
				"t3dOriginalLocalPosition__":[
					15.0,
					3.0,
					-4.0
				]
			},
			"mesh":4,
			"name":"Cube.022",
			"translation":[
				15,
				-4,
				-3
			]
		},
		{
			"extras":{
				"t3dBoundsType__":3,
				"t3dOriginalLocalPosition__":[
					-1.0,
					3.0,
					2.0
				]
			},
			"mesh":5,
			"name":"Sphere",
			"translation":[
				-1,
				2,
				-3
			]
		}
	],
	"materials":[
		{
			"extensions":{
				"KHR_materials_unlit":{}
			},
			"extras":{
				"t3dMaterialShadeless__":1
			},
			"name":"VertexPainting",
			"pbrMetallicRoughness":{
				"metallicFactor":0,
				"roughnessFactor":0.9
			}
		},
		{
			"extras":{
				"t3dMaterialShadeless__":0,
				"t3dMaterialColor__":[
					1.0,
					1.0,
					1.0,
					1.0
				]
			},
			"name":"White",
			"pbrMetallicRoughness":{
				"baseColorFactor":[
					0.800000011920929,
					0.800000011920929,
					0.800000011920929,
					1
				],
				"metallicFactor":0,
				"roughnessFactor":0
			}
		},
		{
			"extras":{
				"t3dMaterialShadeless__":0,
				"t3dMaterialColor__":[
					0.2422812283039093,
					0.799102783203125,
					0.0,
					1.0
				]
			},
			"name":"Green",
			"pbrMetallicRoughness":{
				"baseColorFactor":[
					0.2422812283039093,
					0.799102783203125,
					0,
					1
				],
				"metallicFactor":0,
				"roughnessFactor":0.5
			}
		},
		{
			"extensions":{
				"KHR_materials_unlit":{}
			},
			"extras":{
				"t3dMaterialShadeless__":1,
				"t3dMaterialColor__":[
					1.0,
					1.0,
					1.0,
					1.0
				]
			},
			"name":"VertexColor",
			"pbrMetallicRoughness":{
				"metallicFactor":0,
				"roughnessFactor":0.9
			}
		},
		{
			"extras":{
				"t3dMaterialShadeless__":0,
				"t3dMaterialColor__":[
					0.0,
					0.20383618772029877,
					0.799102783203125,
					1.0
				]
			},
			"name":"Blue",
			"pbrMetallicRoughness":{
				"baseColorFactor":[
					0,
					0.20507875084877014,
					0.799102783203125,
					1
				],
				"metallicFactor":0,
				"roughnessFactor":0.5
			}
		},
		{
			"extras":{
				"t3dMaterialColor__":[
					1.0,
					0.03605146333575249,
					0.0,
					1.0
				]
			},
			"name":"Red",
			"pbrMetallicRoughness":{
				"baseColorFactor":[
					1,
					0.03560131788253784,
					0,
					1
				],
				"metallicFactor":0,
				"roughnessFactor":0.5
			}
		}
	],
	"meshes":[
		{
			"extras":{
				"t3dVertexColorNames__":[
					"Col"
				],
				"t3dActiveVertexColorIndex__":0
			},
			"name":"Cube.001",
			"primitives":[
				{
					"attributes":{
						"COLOR_0":0,
						"POSITION":1,
						"TEXCOORD_0":2,
						"NORMAL":3
					},
					"indices":4,
					"material":0
				}
			]
		},
		{
			"name":"Cube.003",
			"primitives":[
				{
					"attributes":{
						"POSITION":5,
						"TEXCOORD_0":6,
						"NORMAL":7
					},
					"indices":8,
					"material":1
				}
			]
		},
		{
			"name":"Cube.004",
			"primitives":[
				{
					"attributes":{
						"POSITION":9,
						"TEXCOORD_0":10,
						"NORMAL":11
					},
					"indices":12,
					"material":2
				}
			]
		},
		{
			"extras":{
				"t3dVertexColorNames__":[
					"Col"
				],
				"t3dActiveVertexColorIndex__":0
			},
			"name":"Cube.006",
			"primitives":[
				{
					"attributes":{
						"COLOR_0":13,
						"POSITION":14,
						"TEXCOORD_0":15,
						"NORMAL":16
					},
					"indices":17,
					"material":3
				}
			]
		},
		{
			"name":"Cube",
			"primitives":[
				{
					"attributes":{
						"POSITION":18,
						"TEXCOORD_0":19,
						"NORMAL":20
					},
					"indices":21,
					"material":4
				}
			]
		},
		{
			"name":"Sphere",
			"primitives":[
				{
					"attributes":{
						"POSITION":22,
						"TEXCOORD_0":23,
						"NORMAL":24
					},
					"indices":25,
					"material":5
				}
			]
		}
	],
	"accessors":[
		{
			"bufferView":0,
			"componentType":5123,
			"count":32,
			"normalized":true,
			"type":"VEC4"
		},
		{
			"bufferView":1,
			"componentType":5126,
			"count":32,
			"max":[
				3,
				1,
				1
			],
			"min":[
				-1,
				-1,
				-1
			],
			"type":"VEC3"
		},
		{
			"bufferView":2,
			"componentType":5126,
			"count":32,
			"type":"VEC2"
		},
		{
			"bufferView":3,
			"componentType":5126,
			"count":32,
			"type":"VEC3"
		},
		{
			"bufferView":4,
			"componentType":5123,
			"count":42,
			"type":"SCALAR"
		},
		{
			"bufferView":5,
			"componentType":5126,
			"count":530,
			"max":[
				16,
				4,
				4
			],
			"min":[
				-16,
				-4,
				-16
			],
			"type":"VEC3"
		},
		{
			"bufferView":6,
			"componentType":5126,
			"count":530,
			"type":"VEC2"
		},
		{
			"bufferView":7,
			"componentType":5126,
			"count":530,
			"type":"VEC3"
		},
		{
			"bufferView":8,
			"componentType":5123,
			"count":2304,
			"type":"SCALAR"
		},
		{
			"bufferView":9,
			"componentType":5126,
			"count":24,
			"max":[
				0.5,
				0.5,
				0.5
			],
			"min":[
				-0.5,
				-0.5,
				-0.5
			],
			"type":"VEC3"
		},
		{
			"bufferView":10,
			"componentType":5126,
			"count":24,
			"type":"VEC2"
		},
		{
			"bufferView":11,
			"componentType":5126,
			"count":24,
			"type":"VEC3"
		},
		{
			"bufferView":12,
			"componentType":5123,
			"count":36,
			"type":"SCALAR"
		},
		{
			"bufferView":13,
			"componentType":5123,
			"count":208,
			"normalized":true,
			"type":"VEC4"
		},
		{
			"bufferView":14,
			"componentType":5126,
			"count":208,
			"max":[
				0.5509828329086304,
				0.5509828329086304,
				0.40141761302948
			],
			"min":[
				-0.5509828329086304,
				-0.5509828329086304,
				-0.8728352189064026
			],
			"type":"VEC3"
		},
		{
			"bufferView":15,
			"componentType":5126,
			"count":208,
			"type":"VEC2"
		},
		{
			"bufferView":16,
			"componentType":5126,
			"count":208,
			"type":"VEC3"
		},
		{
			"bufferView":17,
			"componentType":5123,
			"count":324,
			"type":"SCALAR"
		},
		{
			"bufferView":18,
			"componentType":5126,
			"count":150,
			"max":[
				3.4178528785705566,
				3.163830280303955,
				3.3223135471343994
			],
			"min":[
				-3.4178526401519775,
				-3.163830280303955,
				-3.3223140239715576
			],
			"type":"VEC3"
		},
		{
			"bufferView":19,
			"componentType":5126,
			"count":150,
			"type":"VEC2"
		},
		{
			"bufferView":20,
			"componentType":5126,
			"count":150,
			"type":"VEC3"
		},
		{
			"bufferView":21,
			"componentType":5123,
			"count":576,
			"type":"SCALAR"
		},
		{
			"bufferView":22,
			"componentType":5126,
			"count":1984,
			"max":[
				1.9999996423721313,
				2,
				2.0000009536743164
			],
			"min":[
				-1.999997854232788,
				-2,
				-1.999997615814209
			],
			"type":"VEC3"
		},
		{
			"bufferView":23,
			"componentType":5126,
			"count":1984,
			"type":"VEC2"
		},
		{
			"bufferView":24,
			"componentType":5126,
			"count":1984,
			"type":"VEC3"
		},
		{
			"bufferView":25,
			"componentType":5123,
			"count":2880,
			"type":"SCALAR"
		}
	],
	"bufferViews":[
		{
			"buffer":0,
			"byteLength":256,
			"byteOffset":0,
			"target":34962
		},
		{
			"buffer":0,
			"byteLength":384,
			"byteOffset":256,
			"target":34962
		},
		{
			"buffer":0,
			"byteLength":256,
			"byteOffset":640,
			"target":34962
		},
		{
			"buffer":0,
			"byteLength":384,
			"byteOffset":896,
			"target":34962
		},
		{
			"buffer":0,
			"byteLength":84,
			"byteOffset":1280,
			"target":34963
		},
		{
			"buffer":0,
			"byteLength":6360,
			"byteOffset":1364,
			"target":34962
		},
		{
			"buffer":0,
			"byteLength":4240,
			"byteOffset":7724,
			"target":34962
		},
		{
			"buffer":0,
			"byteLength":6360,
			"byteOffset":11964,
			"target":34962
		},
		{
			"buffer":0,
			"byteLength":4608,
			"byteOffset":18324,
			"target":34963
		},
		{
			"buffer":0,
			"byteLength":288,
			"byteOffset":22932,
			"target":34962
		},
		{
			"buffer":0,
			"byteLength":192,
			"byteOffset":23220,
			"target":34962
		},
		{
			"buffer":0,
			"byteLength":288,
			"byteOffset":23412,
			"target":34962
		},
		{
			"buffer":0,
			"byteLength":72,
			"byteOffset":23700,
			"target":34963
		},
		{
			"buffer":0,
			"byteLength":1664,
			"byteOffset":23772,
			"target":34962
		},
		{
			"buffer":0,
			"byteLength":2496,
			"byteOffset":25436,
			"target":34962
		},
		{
			"buffer":0,
			"byteLength":1664,
			"byteOffset":27932,
			"target":34962
		},
		{
			"buffer":0,
			"byteLength":2496,
			"byteOffset":29596,
			"target":34962
		},
		{
			"buffer":0,
			"byteLength":648,
			"byteOffset":32092,
			"target":34963
		},
		{
			"buffer":0,
			"byteLength":1800,
			"byteOffset":32740,
			"target":34962
		},
		{
			"buffer":0,
			"byteLength":1200,
			"byteOffset":34540,
			"target":34962
		},
		{
			"buffer":0,
			"byteLength":1800,
			"byteOffset":35740,
			"target":34962
		},
		{
			"buffer":0,
			"byteLength":1152,
			"byteOffset":37540,
			"target":34963
		},
		{
			"buffer":0,
			"byteLength":23808,
			"byteOffset":38692,
			"target":34962
		},
		{
			"buffer":0,
			"byteLength":15872,
			"byteOffset":62500,
			"target":34962
		},
		{
			"buffer":0,
			"byteLength":23808,
			"byteOffset":78372,
			"target":34962
		},
		{
			"buffer":0,
			"byteLength":5760,
			"byteOffset":102180,
			"target":34963
		}
	],
	"buffers":[
		{
			"byteLength":107940,
			"uri":"data:application/octet-stream;base64,"
		}
	]
}
