{
    "asset" : {
        "generator" : "Khronos glTF Blender I/O v3.2.40",
        "version" : "2.0"
    },
    "extensionsUsed" : [
        "KHR_lights_punctual",
        "KHR_materials_unlit"
    ],
    "extensionsRequired" : [
        "KHR_lights_punctual"
    ],
    "extensions" : {
        "KHR_lights_punctual" : {
            "lights" : [
                {
                    "color" : [
                        1,
                        1,
                        1
                    ],
                    "intensity" : 1000,
                    "type" : "point",
                    "name" : "Light"
                }
            ]
        }
    },
    "scene" : 0,
    "scenes" : [
        {
            "extras" : {
                "t3dPackTextures__" : 1,
                "t3dExportFormat__" : 2,
                "t3dExportOnSave__" : 1,
                "t3dExportVertexGroups__" : 1,
                "t3dExport__" : 1,
                "t3dCollections__" : {
                    "Collection" : {
                        "objects" : [
                            "Light",
                            "Camera",
                            "Cube"
                        ],
                        "offset" : [
                            0.0,
                            0.0,
                            0.0
                        ]
                    }
                },
                "t3dWorldColor__" : [
                    0.05087608844041824,
                    0.05087608844041824,
                    0.05087608844041824,
                    1.0
                ],
                "t3dWorldEnergy__" : 1.0
            },
            "name" : "Scene",
            "nodes" : [
                0,
                1,
                2
            ]
        }
    ],
    "nodes" : [
        {
            "extensions" : {
                "KHR_lights_punctual" : {
                    "light" : 0
                }
            },
            "extras" : {
                "t3dOriginalLocalPosition__" : [
                    4.076245307922363,
                    1.0054539442062378,
                    5.903861999511719
                ]
            },
            "name" : "Light",
            "rotation" : [
                -0.2841663062572479,
                0.7269423604011536,
                0.34203392267227173,
                0.5232754349708557
            ],
            "translation" : [
                4.076245307922363,
                5.903861999511719,
                -1.0054539442062378
            ]
        },
        {
            "camera" : 0,
            "extras" : {
                "t3dOriginalLocalPosition__" : [
                    7.358891487121582,
                    -6.925790786743164,
                    4.958309173583984
                ]
            },
            "name" : "Camera",
            "rotation" : [
                -0.20997299253940582,
                0.3857799470424652,
                0.09062844514846802,
                0.8937962055206299
            ],
            "translation" : [
                7.358891487121582,
                4.958309173583984,
                6.925790786743164
            ]
        },
        {
            "extras" : {
                "t3dOriginalLocalPosition__" : [
                    0.0,
                    0.0,
                    0.0
                ]
            },
            "mesh" : 0,
            "name" : "Cube"
        }
    ],
    "cameras" : [
        {
            "name" : "Camera",
            "perspective" : {
                "aspectRatio" : 1.7777777777777777,
                "yfov" : 0.39959652046304894,
                "zfar" : 100,
                "znear" : 0.10000000149011612
            },
            "type" : "perspective"
        }
    ],
    "materials" : [
        {
            "extensions" : {
                "KHR_materials_unlit" : {}
            },
            "extras" : {
                "t3dMaterialShadeless__" : 1,
                "t3dMaterialColor__" : [
                    1.0,
                    1.0,
                    1.0,
                    1.0
                ]
            },
            "name" : "Cube",
            "pbrMetallicRoughness" : {
                "metallicFactor" : 0,
                "roughnessFactor" : 0.9
            }
        }
    ],
    "meshes" : [
        {
            "extras" : {
                "t3dVertexColorNames__" : [
                    "Color",
                    "Flash"
                ]
            },
            "name" : "Cube",
            "primitives" : [
                {
                    "attributes" : {
                        "POSITION" : 0,
                        "NORMAL" : 1,
                        "TEXCOORD_0" : 2,
                        "COLOR_0" : 3,
                        "COLOR_1" : 4
                    },
                    "indices" : 5,
                    "material" : 0
                }
            ]
        }
    ],
    "accessors" : [
        {
            "bufferView" : 0,
            "componentType" : 5126,
            "count" : 216,
            "max" : [
                1,
                1,
                1
            ],
            "min" : [
                -1,
                -1,
                -1
            ],
            "type" : "VEC3"
        },
        {
            "bufferView" : 1,
            "componentType" : 5126,
            "count" : 216,
            "type" : "VEC3"
        },
        {
            "bufferView" : 2,
            "componentType" : 5126,
            "count" : 216,
            "type" : "VEC2"
        },
        {
            "bufferView" : 3,
            "componentType" : 5123,
            "count" : 216,
            "normalized" : true,
            "type" : "VEC4"
        },
        {
            "bufferView" : 4,
            "componentType" : 5123,
            "count" : 216,
            "normalized" : true,
            "type" : "VEC4"
        },
        {
            "bufferView" : 5,
            "componentType" : 5123,
            "count" : 324,
            "type" : "SCALAR"
        }
    ],
    "bufferViews" : [
        {
            "buffer" : 0,
            "byteLength" : 2592,
            "byteOffset" : 0
        },
        {
            "buffer" : 0,
            "byteLength" : 2592,
            "byteOffset" : 2592
        },
        {
            "buffer" : 0,
            "byteLength" : 1728,
            "byteOffset" : 5184
        },
        {
            "buffer" : 0,
            "byteLength" : 1728,
            "byteOffset" : 6912
        },
        {
            "buffer" : 0,
            "byteLength" : 1728,
            "byteOffset" : 8640
        },
        {
            "buffer" : 0,
            "byteLength" : 648,
            "byteOffset" : 10368
        }
    ],
    "buffers" : [
        {
            "byteLength" : 11016,
            "uri" : "data:application/octet-stream;base64,"
        }
    ]
}
