{
    "asset" : {
        "generator" : "Khronos glTF Blender I/O v1.7.33",
        "version" : "2.0"
    },
    "extensionsUsed" : [
        "KHR_lights_punctual"
    ],
    "extensionsRequired" : [
        "KHR_lights_punctual"
    ],
    "extensions" : {
        "KHR_lights_punctual" : {
            "lights" : [
                {
                    "color" : [
                        1,
                        1,
                        1
                    ],
                    "intensity" : 1,
                    "type" : "directional",
                    "name" : "Light"
                }
            ]
        }
    },
    "scene" : 0,
    "scenes" : [
        {
            "name" : "Scene",
            "nodes" : [
                1,
                2,
                3,
                4,
                5,
                6
            ]
        }
    ],
    "nodes" : [
        {
            "extensions" : {
                "KHR_lights_punctual" : {
                    "light" : 0
                }
            },
            "name" : "Light_Orientation",
            "rotation" : [
                -0.7071067690849304,
                0,
                0,
                0.7071067690849304
            ]
        },
        {
            "children" : [
                0
            ],
            "name" : "Light",
            "rotation" : [
                0.16907575726509094,
                0.7558803558349609,
                -0.27217137813568115,
                0.570947527885437
            ],
            "translation" : [
                4.076245307922363,
                5.903861999511719,
                -1.0054539442062378
            ]
        },
        {
            "mesh" : 0,
            "name" : "Water"
        },
        {
            "mesh" : 1,
            "name" : "Plane.001",
            "translation" : [
                -7,
                2.5999999046325684,
                -5
            ]
        },
        {
            "mesh" : 2,
            "name" : "Cube.001",
            "translation" : [
                -7,
                -1,
                -5
            ]
        },
        {
            "mesh" : 3,
            "name" : "Guy.001",
            "translation" : [
                0,
                0.733123779296875,
                0
            ]
        },
        {
            "mesh" : 4,
            "name" : "Tube.001"
        }
    ],
    "materials" : [
        {
            "alphaMode" : "BLEND",
            "name" : "Water",
            "pbrMetallicRoughness" : {
                "baseColorTexture" : {
                    "index" : 0
                },
                "metallicFactor" : 0,
                "roughnessFactor" : 0.5
            }
        },
        {
            "doubleSided" : true,
            "name" : "TransparentSquare",
            "pbrMetallicRoughness" : {
                "baseColorTexture" : {
                    "index" : 1
                },
                "metallicFactor" : 0,
                "roughnessFactor" : 0.4000000059604645
            }
        },
        {
            "name" : "Vertex Color",
            "pbrMetallicRoughness" : {
                "metallicFactor" : 0,
                "roughnessFactor" : 0.5
            }
        }
    ],
    "meshes" : [
        {
            "name" : "Plane",
            "primitives" : [
                {
                    "attributes" : {
                        "POSITION" : 0,
                        "NORMAL" : 1,
                        "TEXCOORD_0" : 2
                    },
                    "indices" : 3,
                    "material" : 0
                }
            ]
        },
        {
            "name" : "Plane.002",
            "primitives" : [
                {
                    "attributes" : {
                        "POSITION" : 4,
                        "NORMAL" : 5,
                        "TEXCOORD_0" : 6
                    },
                    "indices" : 7,
                    "material" : 1
                }
            ]
        },
        {
            "name" : "Cube.002",
            "primitives" : [
                {
                    "attributes" : {
                        "POSITION" : 8,
                        "NORMAL" : 9,
                        "TEXCOORD_0" : 10,
                        "COLOR_0" : 11
                    },
                    "indices" : 12,
                    "material" : 2
                }
            ]
        },
        {
            "name" : "Cube.003",
            "primitives" : [
                {
                    "attributes" : {
                        "POSITION" : 13,
                        "NORMAL" : 14,
                        "TEXCOORD_0" : 15,
                        "COLOR_0" : 16
                    },
                    "indices" : 17,
                    "material" : 2
                }
            ]
        },
        {
            "name" : "Torus.002",
            "primitives" : [
                {
                    "attributes" : {
                        "POSITION" : 18,
                        "NORMAL" : 19,
                        "TEXCOORD_0" : 20,
                        "COLOR_0" : 21
                    },
                    "indices" : 22,
                    "material" : 2
                }
            ]
        }
    ],
    "textures" : [
        {
            "sampler" : 0,
            "source" : 0
        },
        {
            "sampler" : 0,
            "source" : 1
        }
    ],
    "images" : [
        {
            "bufferView" : 4,
            "mimeType" : "image/png",
            "name" : "water"
        },
        {
            "bufferView" : 9,
            "mimeType" : "image/png",
            "name" : "shadow"
        }
    ],
    "accessors" : [
        {
            "bufferView" : 0,
            "componentType" : 5126,
            "count" : 144,
            "max" : [
                8,
                0,
                8
            ],
            "min" : [
                -8,
                0,
                -8
            ],
            "type" : "VEC3"
        },
        {
            "bufferView" : 1,
            "componentType" : 5126,
            "count" : 144,
            "type" : "VEC3"
        },
        {
            "bufferView" : 2,
            "componentType" : 5126,
            "count" : 144,
            "type" : "VEC2"
        },
        {
            "bufferView" : 3,
            "componentType" : 5123,
            "count" : 384,
            "type" : "SCALAR"
        },
        {
            "bufferView" : 5,
            "componentType" : 5126,
            "count" : 4,
            "max" : [
                4,
                0,
                4
            ],
            "min" : [
                -4,
                0,
                -4
            ],
            "type" : "VEC3"
        },
        {
            "bufferView" : 6,
            "componentType" : 5126,
            "count" : 4,
            "type" : "VEC3"
        },
        {
            "bufferView" : 7,
            "componentType" : 5126,
            "count" : 4,
            "type" : "VEC2"
        },
        {
            "bufferView" : 8,
            "componentType" : 5123,
            "count" : 6,
            "type" : "SCALAR"
        },
        {
            "bufferView" : 10,
            "componentType" : 5126,
            "count" : 24,
            "max" : [
                1,
                4,
                1
            ],
            "min" : [
                -1,
                -4,
                -1
            ],
            "type" : "VEC3"
        },
        {
            "bufferView" : 11,
            "componentType" : 5126,
            "count" : 24,
            "type" : "VEC3"
        },
        {
            "bufferView" : 12,
            "componentType" : 5126,
            "count" : 24,
            "type" : "VEC2"
        },
        {
            "bufferView" : 13,
            "componentType" : 5123,
            "count" : 24,
            "normalized" : true,
            "type" : "VEC4"
        },
        {
            "bufferView" : 14,
            "componentType" : 5123,
            "count" : 36,
            "type" : "SCALAR"
        },
        {
            "bufferView" : 15,
            "componentType" : 5126,
            "count" : 160,
            "max" : [
                1,
                -3,
                0.5
            ],
            "min" : [
                -1,
                -5.51494026184082,
                -0.5
            ],
            "type" : "VEC3"
        },
        {
            "bufferView" : 16,
            "componentType" : 5126,
            "count" : 160,
            "type" : "VEC3"
        },
        {
            "bufferView" : 17,
            "componentType" : 5126,
            "count" : 160,
            "type" : "VEC2"
        },
        {
            "bufferView" : 18,
            "componentType" : 5123,
            "count" : 160,
            "normalized" : true,
            "type" : "VEC4"
        },
        {
            "bufferView" : 19,
            "componentType" : 5123,
            "count" : 264,
            "type" : "SCALAR"
        },
        {
            "bufferView" : 20,
            "componentType" : 5126,
            "count" : 576,
            "max" : [
                1.399999976158142,
                0.4000000059604645,
                1.399999976158142
            ],
            "min" : [
                -1.399999976158142,
                -0.4000000059604645,
                -1.399999976158142
            ],
            "type" : "VEC3"
        },
        {
            "bufferView" : 21,
            "componentType" : 5126,
            "count" : 576,
            "type" : "VEC3"
        },
        {
            "bufferView" : 22,
            "componentType" : 5126,
            "count" : 576,
            "type" : "VEC2"
        },
        {
            "bufferView" : 23,
            "componentType" : 5123,
            "count" : 576,
            "normalized" : true,
            "type" : "VEC4"
        },
        {
            "bufferView" : 24,
            "componentType" : 5123,
            "count" : 864,
            "type" : "SCALAR"
        }
    ],
    "bufferViews" : [
        {
            "buffer" : 0,
            "byteLength" : 1728,
            "byteOffset" : 0
        },
        {
            "buffer" : 0,
            "byteLength" : 1728,
            "byteOffset" : 1728
        },
        {
            "buffer" : 0,
            "byteLength" : 1152,
            "byteOffset" : 3456
        },
        {
            "buffer" : 0,
            "byteLength" : 768,
            "byteOffset" : 4608
        },
        {
            "buffer" : 0,
            "byteLength" : 613,
            "byteOffset" : 5376
        },
        {
            "buffer" : 0,
            "byteLength" : 48,
            "byteOffset" : 5992
        },
        {
            "buffer" : 0,
            "byteLength" : 48,
            "byteOffset" : 6040
        },
        {
            "buffer" : 0,
            "byteLength" : 32,
            "byteOffset" : 6088
        },
        {
            "buffer" : 0,
            "byteLength" : 12,
            "byteOffset" : 6120
        },
        {
            "buffer" : 0,
            "byteLength" : 515,
            "byteOffset" : 6132
        },
        {
            "buffer" : 0,
            "byteLength" : 288,
            "byteOffset" : 6648
        },
        {
            "buffer" : 0,
            "byteLength" : 288,
            "byteOffset" : 6936
        },
        {
            "buffer" : 0,
            "byteLength" : 192,
            "byteOffset" : 7224
        },
        {
            "buffer" : 0,
            "byteLength" : 192,
            "byteOffset" : 7416
        },
        {
            "buffer" : 0,
            "byteLength" : 72,
            "byteOffset" : 7608
        },
        {
            "buffer" : 0,
            "byteLength" : 1920,
            "byteOffset" : 7680
        },
        {
            "buffer" : 0,
            "byteLength" : 1920,
            "byteOffset" : 9600
        },
        {
            "buffer" : 0,
            "byteLength" : 1280,
            "byteOffset" : 11520
        },
        {
            "buffer" : 0,
            "byteLength" : 1280,
            "byteOffset" : 12800
        },
        {
            "buffer" : 0,
            "byteLength" : 528,
            "byteOffset" : 14080
        },
        {
            "buffer" : 0,
            "byteLength" : 6912,
            "byteOffset" : 14608
        },
        {
            "buffer" : 0,
            "byteLength" : 6912,
            "byteOffset" : 21520
        },
        {
            "buffer" : 0,
            "byteLength" : 4608,
            "byteOffset" : 28432
        },
        {
            "buffer" : 0,
            "byteLength" : 4608,
            "byteOffset" : 33040
        },
        {
            "buffer" : 0,
            "byteLength" : 1728,
            "byteOffset" : 37648
        }
    ],
    "samplers" : [
        {
            "magFilter" : 9728,
            "minFilter" : 9984
        }
    ],
    "buffers" : [
        {
            "byteLength" : 39376,
            "uri" : "data:application/octet-stream;base64,"
        }
    ]
}
