{
	"asset":{
		"generator":"Khronos glTF Blender I/O v3.6.27",
		"version":"2.0"
	},
	"extensionsUsed":[
		"KHR_lights_punctual"
	],
	"extensionsRequired":[
		"KHR_lights_punctual"
	],
	"extensions":{
		"KHR_lights_punctual":{
			"lights":[
				{
					"color":[
						1,
						1,
						1
					],
					"intensity":79.57747154594767,
					"type":"point",
					"name":"Point"
				}
			]
		}
	},
	"scene":0,
	"scenes":[
		{
			"extras":{
				"t3dExportFormat__":2,
				"t3dExportLights__":true,
				"t3dExportCameras__":true,
				"t3dExportOnSave__":1,
				"t3dExportFilepath__":"",
				"t3dRenderResolutionH__":360,
				"t3dPackTextures__":false,
				"t3dAnimationSampling__":true,
				"t3dRenderResolutionW__":640,
				"t3dSectorRendering__":false,
				"t3dSectorRenderDepth__":0,
				"t3dSectorDetection__":0,
				"t3dPlaybackFPS__":60,
				"t3dAnimationInterpolation__":true,
				"t3dCollections__":{},
				"t3dWorlds__":{
					"World":{
						"ambient color":[
							0.12488676607608795,
							0.1729603260755539,
							0.23301774263381958,
							1.0
						],
						"ambient energy":1.0,
						"clear color":[
							0.011612245813012123,
							0.01599629782140255,
							0.027320899069309235,
							1.0
						],
						"fog mode":"OFF",
						"dithered transparency":0.0,
						"fog curve":"LINEAR",
						"fog color":[
							0.0,
							0.0,
							0.0,
							1.0
						],
						"fog range start":0.0,
						"fog range end":1.0
					}
				},
				"t3dCurrentWorld__":"World",
				"t3dView3DCameraData__":[
					{
						"clip_start":0.009999999776482582,
						"clip_end":1000.0,
						"location":[
							11.006458282470703,
							0.2543654143810272,
							-19.328166961669922
						],
						"rotation":[
							[
								0.9998388886451721,
								0.014801382087171078,
								-0.010156678035855293
							],
							[
								2.1577287157015235e-07,
								0.5657896995544434,
								0.8245496153831482
							],
							[
								0.01795101724565029,
								-0.8244167566299438,
								0.565698504447937
							]
						],
						"fovY":39.597752709049864,
						"perspective":true
					}
				]
			},
			"name":"Scene",
			"nodes":[
				0,
				1,
				2,
				4,
				5,
				6,
				7,
				8
			]
		}
	],
	"nodes":[
		{
			"camera":0,
			"extras":{
				"t3dOriginalLocalPosition__":[
					-0.07939758896827698,
					-8.328761100769043,
					7.551191806793213
				]
			},
			"name":"Camera",
			"rotation":[
				-0.3826834261417389,
				0,
				0,
				0.9238795638084412
			],
			"translation":[
				-0.07939758896827698,
				7.551191806793213,
				8.328761100769043
			]
		},
		{
			"extras":{
				"t3dObjectType__":1,
				"t3dOriginalLocalPosition__":[
					0.0,
					0.0,
					0.0
				],
				"t3dGridConnections__":{
					"0":[
						"1",
						"16"
					],
					"1":[
						"0",
						"2",
						"19"
					],
					"2":[
						"1",
						"3",
						"18"
					],
					"3":[
						"2",
						"4",
						"10"
					],
					"4":[
						"3",
						"5",
						"11"
					],
					"5":[
						"4",
						"12"
					],
					"6":[
						"7",
						"34",
						"35"
					],
					"7":[
						"6",
						"8",
						"37",
						"39",
						"36",
						"38",
						"35"
					],
					"8":[
						"7",
						"33",
						"14",
						"39"
					],
					"9":[
						"10",
						"18",
						"37",
						"57"
					],
					"10":[
						"9",
						"11",
						"3",
						"29"
					],
					"11":[
						"10",
						"4",
						"29"
					],
					"12":[
						"13",
						"5",
						"20"
					],
					"13":[
						"12",
						"29"
					],
					"14":[
						"15",
						"33",
						"8",
						"39"
					],
					"15":[
						"14",
						"17",
						"38",
						"37",
						"39",
						"57"
					],
					"16":[
						"0",
						"19",
						"38"
					],
					"17":[
						"15",
						"32"
					],
					"18":[
						"9",
						"2",
						"19"
					],
					"19":[
						"1",
						"18",
						"16",
						"37"
					],
					"20":[
						"12",
						"21"
					],
					"21":[
						"20",
						"22"
					],
					"22":[
						"21",
						"23",
						"41"
					],
					"23":[
						"22",
						"24",
						"68",
						"45"
					],
					"24":[
						"23",
						"25",
						"45"
					],
					"25":[
						"24",
						"55",
						"45",
						"70"
					],
					"26":[
						"27",
						"73",
						"76",
						"78"
					],
					"27":[
						"26",
						"28",
						"31",
						"79"
					],
					"28":[
						"27",
						"73",
						"71"
					],
					"29":[
						"10",
						"13",
						"11",
						"57"
					],
					"30":[
						"31",
						"42",
						"43",
						"79"
					],
					"31":[
						"30",
						"40",
						"27",
						"71"
					],
					"32":[
						"17",
						"33",
						"64",
						"65"
					],
					"33":[
						"32",
						"34",
						"8",
						"14"
					],
					"34":[
						"33",
						"35",
						"6"
					],
					"35":[
						"34",
						"36",
						"6",
						"7"
					],
					"36":[
						"35",
						"7",
						"38"
					],
					"37":[
						"7",
						"38",
						"9",
						"19",
						"15"
					],
					"38":[
						"37",
						"16",
						"36",
						"7",
						"15"
					],
					"39":[
						"7",
						"8",
						"14",
						"15"
					],
					"40":[
						"31",
						"42",
						"62"
					],
					"41":[
						"22",
						"68"
					],
					"42":[
						"40",
						"30",
						"44"
					],
					"43":[
						"30",
						"44"
					],
					"44":[
						"43",
						"42"
					],
					"45":[
						"46",
						"23",
						"48",
						"25",
						"24",
						"47"
					],
					"46":[
						"45",
						"47",
						"68",
						"66"
					],
					"47":[
						"46",
						"48",
						"45"
					],
					"48":[
						"47",
						"45",
						"70",
						"71"
					],
					"49":[
						"50",
						"51",
						"52",
						"54"
					],
					"50":[
						"49",
						"66",
						"73"
					],
					"51":[
						"49",
						"63",
						"76",
						"73"
					],
					"52":[
						"49",
						"53",
						"66"
					],
					"53":[
						"52",
						"54",
						"59"
					],
					"54":[
						"53",
						"58",
						"63",
						"49"
					],
					"55":[
						"56",
						"25",
						"67",
						"60"
					],
					"56":[
						"55",
						"57",
						"65"
					],
					"57":[
						"56",
						"67",
						"29",
						"9",
						"15"
					],
					"58":[
						"54",
						"59"
					],
					"59":[
						"53",
						"58"
					],
					"60":[
						"61",
						"70",
						"55",
						"65"
					],
					"61":[
						"60",
						"62",
						"65",
						"72"
					],
					"62":[
						"61",
						"71",
						"70",
						"72",
						"40"
					],
					"63":[
						"51",
						"54"
					],
					"64":[
						"65",
						"32",
						"72"
					],
					"65":[
						"64",
						"56",
						"60",
						"61",
						"72",
						"32"
					],
					"66":[
						"50",
						"52",
						"69",
						"46"
					],
					"67":[
						"55",
						"57"
					],
					"68":[
						"41",
						"69",
						"46",
						"23"
					],
					"69":[
						"68",
						"66"
					],
					"70":[
						"25",
						"48",
						"62",
						"60"
					],
					"71":[
						"48",
						"62",
						"28",
						"31"
					],
					"72":[
						"62",
						"64",
						"61",
						"65"
					],
					"73":[
						"28",
						"26",
						"51",
						"50"
					],
					"74":[
						"75",
						"83"
					],
					"75":[
						"74",
						"76",
						"84",
						"78"
					],
					"76":[
						"75",
						"83",
						"26",
						"51"
					],
					"77":[
						"78",
						"80",
						"81",
						"84"
					],
					"78":[
						"77",
						"79",
						"75",
						"26"
					],
					"79":[
						"78",
						"80",
						"30",
						"27"
					],
					"80":[
						"79",
						"77",
						"82"
					],
					"81":[
						"77",
						"82"
					],
					"82":[
						"81",
						"80"
					],
					"83":[
						"76",
						"74"
					],
					"84":[
						"77",
						"75"
					]
				},
				"t3dGridEntries__":[
					"(3.5, -2.5, 0.0)",
					"(2.5, -2.5, 0.0)",
					"(1.5, -2.5, 0.0)",
					"(0.5, -2.5, 0.0)",
					"(-0.5, -2.5, 0.0)",
					"(-1.5, -2.5, 0.0)",
					"(3.1, 1.85, 0.0)",
					"(3.0, 1.0, 0.0)",
					"(2.45, 1.6, 0.0)",
					"(1.5, -0.5, 0.0)",
					"(0.5, -0.5, 0.0)",
					"(-0.5, -1.5, 0.0)",
					"(-1.5, -1.5, 0.0)",
					"(-1.5, -0.5, 0.0)",
					"(1.65, 1.4, 0.0)",
					"(1.4, 0.6, 0.0)",
					"(3.5, -1.5, 0.0)",
					"(-0.0, 1.8, 0.0)",
					"(1.5, -1.5, 0.0)",
					"(2.5, -1.5, 0.0)",
					"(-2.5, -1.5, 0.0)",
					"(-2.5, -0.5, 0.0)",
					"(-3.5, -0.5, 0.0)",
					"(-3.5, 0.5, 0.0)",
					"(-2.5, 0.5, 0.0)",
					"(-2.5, 1.5, 0.0)",
					"(-5.5, 4.5, 0.0)",
					"(-4.5, 4.5, 0.0)",
					"(-4.5, 3.5, 0.0)",
					"(-0.5, -0.5, 0.0)",
					"(-3.5, 5.5, 0.0)",
					"(-3.5, 4.5, 0.0)",
					"(0.7, 2.5, 0.0)",
					"(1.9, 2.2, 0.0)",
					"(3.2, 2.7, 0.0)",
					"(4.1, 1.3, 0.0)",
					"(3.7, 0.5, 0.0)",
					"(2.5, -0.5, 0.0)",
					"(3.5, -0.5, 0.0)",
					"(2.2, 0.8, 0.0)",
					"(-2.5, 4.5, 0.0)",
					"(-4.5, -0.5, 0.0)",
					"(-2.5, 5.5, 0.0)",
					"(-3.5, 6.5, 0.0)",
					"(-2.5, 6.5, 0.0)",
					"(-3.5, 1.5, 0.0)",
					"(-4.5, 1.5, 0.0)",
					"(-4.5, 2.5, 0.0)",
					"(-3.5, 2.5, 0.0)",
					"(-6.5, 2.5, 0.0)",
					"(-5.5, 2.5, 0.0)",
					"(-6.5, 3.5, 0.0)",
					"(-6.5, 1.5, 0.0)",
					"(-7.5, 1.5, 0.0)",
					"(-7.5, 2.5, 0.0)",
					"(-1.5, 1.5, 0.0)",
					"(-0.5, 1.5, 0.0)",
					"(-0.5, 0.5, 0.0)",
					"(-8.5, 2.5, 0.0)",
					"(-8.5, 1.5, 0.0)",
					"(-1.5, 2.5, 0.0)",
					"(-1.5, 3.5, 0.0)",
					"(-2.5, 3.5, 0.0)",
					"(-7.5, 3.5, 0.0)",
					"(0.5, 3.5, 0.0)",
					"(-0.5, 2.5, 0.0)",
					"(-5.5, 1.5, 0.0)",
					"(-1.5, 0.5, 0.0)",
					"(-4.5, 0.5, 0.0)",
					"(-5.5, 0.5, 0.0)",
					"(-2.5, 2.5, 0.0)",
					"(-3.5, 3.5, 0.0)",
					"(-1.5, 5.5, 0.0)",
					"(-5.5, 3.5, 0.0)",
					"(-7.5, 5.5, 0.0)",
					"(-6.5, 5.5, 0.0)",
					"(-6.5, 4.5, 0.0)",
					"(-5.5, 6.5, 0.0)",
					"(-5.5, 5.5, 0.0)",
					"(-4.5, 5.5, 0.0)",
					"(-4.5, 6.5, 0.0)",
					"(-5.5, 7.5, 0.0)",
					"(-4.5, 7.5, 0.0)",
					"(-7.5, 4.5, 0.0)",
					"(-6.5, 6.5, 0.0)"
				]
			},
			"mesh":0,
			"name":"Network"
		},
		{
			"extras":{
				"t3dVisible__":0,
				"t3dOriginalLocalPosition__":[
					6.0,
					0.0,
					0.0
				]
			},
			"mesh":1,
			"name":"Cursor",
			"translation":[
				6,
				0,
				0
			]
		},
		{
			"extensions":{
				"KHR_lights_punctual":{
					"light":0
				}
			},
			"extras":{
				"t3dOriginalLocalPosition__":[
					0.5,
					-0.5,
					2.0
				]
			},
			"name":"Point",
			"rotation":[
				-0.7071068286895752,
				0,
				0,
				0.7071068286895752
			],
			"translation":[
				0,
				2,
				0
			]
		},
		{
			"children":[
				3
			],
			"extras":{
				"t3dOriginalLocalPosition__":[
					0.5,
					-0.5,
					0.0
				]
			},
			"mesh":2,
			"name":"Cube",
			"translation":[
				0.5,
				0,
				0.5
			]
		},
		{
			"extras":{
				"t3dAutoBatch__":1,
				"t3dBoundsType__":3,
				"t3dGameProperties__":[
					{
						"name":"gridPoint",
						"valueBool":1
					}
				],
				"t3dAABBCustomEnabled__":1,
				"t3dSphereCustomEnabled__":1,
				"t3dSphereCustomRadius__":0.5,
				"t3dOriginalLocalPosition__":[
					9.0,
					20.0,
					0.0
				]
			},
			"mesh":3,
			"name":"GridPointMarker",
			"translation":[
				9,
				0,
				-20
			]
		},
		{
			"extras":{
				"t3dVisible__":1,
				"t3dAutoBatch__":1,
				"t3dOriginalLocalPosition__":[
					10.0,
					20.0,
					0.0
				]
			},
			"mesh":4,
			"name":"Line",
			"translation":[
				10,
				0,
				-20
			]
		},
		{
			"extras":{
				"t3dVisible__":1,
				"t3dAutoBatch__":1,
				"t3dOriginalLocalPosition__":[
					11.0,
					20.0,
					0.0
				]
			},
			"mesh":5,
			"name":"BrokenLine",
			"translation":[
				11,
				0,
				-20
			]
		},
		{
			"extras":{
				"t3dOriginalLocalPosition__":[
					-2.0,
					2.0,
					-0.5
				]
			},
			"mesh":6,
			"name":"Plane",
			"translation":[
				-2,
				-0.5,
				-2
			]
		}
	],
	"cameras":[
		{
			"name":"Camera",
			"perspective":{
				"aspectRatio":1.7777777777777777,
				"yfov":0.39959652046304894,
				"zfar":1000,
				"znear":0.10000000149011612
			},
			"type":"perspective"
		}
	],
	"materials":[
		{
			"extras":{
				"t3dMaterialColor__":[
					1.0,
					1.0,
					1.0,
					1.0
				],
				"t3dMaterialShadeless__":0
			},
			"name":"Vertex Painting",
			"pbrMetallicRoughness":{
				"baseColorFactor":[
					0.800000011920929,
					0.800000011920929,
					0.800000011920929,
					1
				],
				"metallicFactor":0,
				"roughnessFactor":0.5
			}
		}
	],
	"meshes":[
		{
			"extras":{
				"t3dGrid__":true
			},
			"name":"Plane.004",
			"primitives":[
				{
					"attributes":{
						"POSITION":0,
						"NORMAL":1,
						"TEXCOORD_0":2
					},
					"indices":3
				}
			]
		},
		{
			"extras":{
				"t3dVertexColorNames__":[
					"Attribute"
				],
				"t3dActiveVertexColorIndex__":0
			},
			"name":"Cube",
			"primitives":[
				{
					"attributes":{
						"COLOR_0":4,
						"POSITION":5,
						"NORMAL":6,
						"TEXCOORD_0":7
					},
					"indices":8
				}
			]
		},
		{
			"extras":{
				"t3dVertexColorNames__":[
					"Attribute"
				],
				"t3dActiveVertexColorIndex__":0
			},
			"name":"Cube.001",
			"primitives":[
				{
					"attributes":{
						"COLOR_0":9,
						"POSITION":10,
						"NORMAL":11,
						"TEXCOORD_0":12
					},
					"indices":13,
					"material":0
				}
			]
		},
		{
			"extras":{
				"t3dVertexColorNames__":[
					"Attribute"
				],
				"t3dActiveVertexColorIndex__":0
			},
			"name":"Cube.002",
			"primitives":[
				{
					"attributes":{
						"COLOR_0":14,
						"POSITION":15,
						"NORMAL":16,
						"TEXCOORD_0":17
					},
					"indices":18,
					"material":0
				}
			]
		},
		{
			"extras":{
				"t3dVertexColorNames__":[
					"Attribute"
				],
				"t3dActiveVertexColorIndex__":0
			},
			"name":"Line",
			"primitives":[
				{
					"attributes":{
						"COLOR_0":19,
						"POSITION":20,
						"NORMAL":21,
						"TEXCOORD_0":22
					},
					"indices":23,
					"material":0
				}
			]
		},
		{
			"extras":{
				"t3dVertexColorNames__":[
					"Attribute"
				],
				"t3dActiveVertexColorIndex__":0
			},
			"name":"BrokenLine",
			"primitives":[
				{
					"attributes":{
						"COLOR_0":24,
						"POSITION":25,
						"NORMAL":26,
						"TEXCOORD_0":27
					},
					"indices":28,
					"material":0
				}
			]
		},
		{
			"extras":{
				"t3dVertexColorNames__":[
					"Attribute"
				],
				"t3dActiveVertexColorIndex__":0
			},
			"name":"Plane",
			"primitives":[
				{
					"attributes":{
						"COLOR_0":29,
						"POSITION":30,
						"NORMAL":31,
						"TEXCOORD_0":32
					},
					"indices":33,
					"material":0
				}
			]
		}
	],
	"accessors":[
		{
			"bufferView":0,
			"componentType":5126,
			"count":9,
			"max":[
				3.5,
				0,
				2.5
			],
			"min":[
				1.5,
				0,
				0.5
			],
			"type":"VEC3"
		},
		{
			"bufferView":1,
			"componentType":5126,
			"count":9,
			"type":"VEC3"
		},
		{
			"bufferView":2,
			"componentType":5126,
			"count":9,
			"type":"VEC2"
		},
		{
			"bufferView":3,
			"componentType":5123,
			"count":24,
			"type":"SCALAR"
		},
		{
			"bufferView":4,
			"componentType":5123,
			"count":16,
			"normalized":true,
			"type":"VEC4"
		},
		{
			"bufferView":5,
			"componentType":5126,
			"count":16,
			"max":[
				0.10000002384185791,
				0.6899999976158142,
				0.10000002384185791
			],
			"min":[
				-0.10000002384185791,
				0.4900001883506775,
				-0.10000002384185791
			],
			"type":"VEC3"
		},
		{
			"bufferView":6,
			"componentType":5126,
			"count":16,
			"type":"VEC3"
		},
		{
			"bufferView":7,
			"componentType":5126,
			"count":16,
			"type":"VEC2"
		},
		{
			"bufferView":8,
			"componentType":5123,
			"count":18,
			"type":"SCALAR"
		},
		{
			"bufferView":9,
			"componentType":5123,
			"count":24,
			"normalized":true,
			"type":"VEC4"
		},
		{
			"bufferView":10,
			"componentType":5126,
			"count":24,
			"max":[
				0.25,
				0.25,
				0.25
			],
			"min":[
				-0.25,
				-0.25,
				-0.25
			],
			"type":"VEC3"
		},
		{
			"bufferView":11,
			"componentType":5126,
			"count":24,
			"type":"VEC3"
		},
		{
			"bufferView":12,
			"componentType":5126,
			"count":24,
			"type":"VEC2"
		},
		{
			"bufferView":13,
			"componentType":5123,
			"count":36,
			"type":"SCALAR"
		},
		{
			"bufferView":14,
			"componentType":5123,
			"count":24,
			"normalized":true,
			"type":"VEC4"
		},
		{
			"bufferView":15,
			"componentType":5126,
			"count":24,
			"max":[
				0.125,
				0.25,
				0.125
			],
			"min":[
				-0.125,
				-0.25,
				-0.125
			],
			"type":"VEC3"
		},
		{
			"bufferView":16,
			"componentType":5126,
			"count":24,
			"type":"VEC3"
		},
		{
			"bufferView":17,
			"componentType":5126,
			"count":24,
			"type":"VEC2"
		},
		{
			"bufferView":18,
			"componentType":5123,
			"count":24,
			"type":"SCALAR"
		},
		{
			"bufferView":19,
			"componentType":5123,
			"count":31,
			"normalized":true,
			"type":"VEC4"
		},
		{
			"bufferView":20,
			"componentType":5126,
			"count":31,
			"max":[
				0.13300037384033203,
				0.019999999552965164,
				0.75
			],
			"min":[
				0.053000450134277344,
				-0.009999987669289112,
				0.25
			],
			"type":"VEC3"
		},
		{
			"bufferView":21,
			"componentType":5126,
			"count":31,
			"type":"VEC3"
		},
		{
			"bufferView":22,
			"componentType":5126,
			"count":31,
			"type":"VEC2"
		},
		{
			"bufferView":23,
			"componentType":5123,
			"count":51,
			"type":"SCALAR"
		},
		{
			"bufferView":24,
			"componentType":5123,
			"count":40,
			"normalized":true,
			"type":"VEC4"
		},
		{
			"bufferView":25,
			"componentType":5126,
			"count":40,
			"max":[
				0.052718475461006165,
				0.019999999552965164,
				0.75
			],
			"min":[
				-0.04671841114759445,
				-0.009999987669289112,
				0.25
			],
			"type":"VEC3"
		},
		{
			"bufferView":26,
			"componentType":5126,
			"count":40,
			"type":"VEC3"
		},
		{
			"bufferView":27,
			"componentType":5126,
			"count":40,
			"type":"VEC2"
		},
		{
			"bufferView":28,
			"componentType":5123,
			"count":60,
			"type":"SCALAR"
		},
		{
			"bufferView":29,
			"componentType":5123,
			"count":289,
			"normalized":true,
			"type":"VEC4"
		},
		{
			"bufferView":30,
			"componentType":5126,
			"count":289,
			"max":[
				8,
				0,
				8
			],
			"min":[
				-8,
				0,
				-8
			],
			"type":"VEC3"
		},
		{
			"bufferView":31,
			"componentType":5126,
			"count":289,
			"type":"VEC3"
		},
		{
			"bufferView":32,
			"componentType":5126,
			"count":289,
			"type":"VEC2"
		},
		{
			"bufferView":33,
			"componentType":5123,
			"count":1536,
			"type":"SCALAR"
		}
	],
	"bufferViews":[
		{
			"buffer":0,
			"byteLength":108,
			"byteOffset":0,
			"target":34962
		},
		{
			"buffer":0,
			"byteLength":108,
			"byteOffset":108,
			"target":34962
		},
		{
			"buffer":0,
			"byteLength":72,
			"byteOffset":216,
			"target":34962
		},
		{
			"buffer":0,
			"byteLength":48,
			"byteOffset":288,
			"target":34963
		},
		{
			"buffer":0,
			"byteLength":128,
			"byteOffset":336,
			"target":34962
		},
		{
			"buffer":0,
			"byteLength":192,
			"byteOffset":464,
			"target":34962
		},
		{
			"buffer":0,
			"byteLength":192,
			"byteOffset":656,
			"target":34962
		},
		{
			"buffer":0,
			"byteLength":128,
			"byteOffset":848,
			"target":34962
		},
		{
			"buffer":0,
			"byteLength":36,
			"byteOffset":976,
			"target":34963
		},
		{
			"buffer":0,
			"byteLength":192,
			"byteOffset":1012,
			"target":34962
		},
		{
			"buffer":0,
			"byteLength":288,
			"byteOffset":1204,
			"target":34962
		},
		{
			"buffer":0,
			"byteLength":288,
			"byteOffset":1492,
			"target":34962
		},
		{
			"buffer":0,
			"byteLength":192,
			"byteOffset":1780,
			"target":34962
		},
		{
			"buffer":0,
			"byteLength":72,
			"byteOffset":1972,
			"target":34963
		},
		{
			"buffer":0,
			"byteLength":192,
			"byteOffset":2044,
			"target":34962
		},
		{
			"buffer":0,
			"byteLength":288,
			"byteOffset":2236,
			"target":34962
		},
		{
			"buffer":0,
			"byteLength":288,
			"byteOffset":2524,
			"target":34962
		},
		{
			"buffer":0,
			"byteLength":192,
			"byteOffset":2812,
			"target":34962
		},
		{
			"buffer":0,
			"byteLength":48,
			"byteOffset":3004,
			"target":34963
		},
		{
			"buffer":0,
			"byteLength":248,
			"byteOffset":3052,
			"target":34962
		},
		{
			"buffer":0,
			"byteLength":372,
			"byteOffset":3300,
			"target":34962
		},
		{
			"buffer":0,
			"byteLength":372,
			"byteOffset":3672,
			"target":34962
		},
		{
			"buffer":0,
			"byteLength":248,
			"byteOffset":4044,
			"target":34962
		},
		{
			"buffer":0,
			"byteLength":102,
			"byteOffset":4292,
			"target":34963
		},
		{
			"buffer":0,
			"byteLength":320,
			"byteOffset":4396,
			"target":34962
		},
		{
			"buffer":0,
			"byteLength":480,
			"byteOffset":4716,
			"target":34962
		},
		{
			"buffer":0,
			"byteLength":480,
			"byteOffset":5196,
			"target":34962
		},
		{
			"buffer":0,
			"byteLength":320,
			"byteOffset":5676,
			"target":34962
		},
		{
			"buffer":0,
			"byteLength":120,
			"byteOffset":5996,
			"target":34963
		},
		{
			"buffer":0,
			"byteLength":2312,
			"byteOffset":6116,
			"target":34962
		},
		{
			"buffer":0,
			"byteLength":3468,
			"byteOffset":8428,
			"target":34962
		},
		{
			"buffer":0,
			"byteLength":3468,
			"byteOffset":11896,
			"target":34962
		},
		{
			"buffer":0,
			"byteLength":2312,
			"byteOffset":15364,
			"target":34962
		},
		{
			"buffer":0,
			"byteLength":3072,
			"byteOffset":17676,
			"target":34963
		}
	],
	"buffers":[
		{
			"byteLength":20748,
			"uri":"data:application/octet-stream;base64,"
		}
	]
}
