{
	"asset":{
		"generator":"Khronos glTF Blender I/O v3.5.30",
		"version":"2.0"
	},
	"extensionsUsed":[
		"KHR_lights_punctual"
	],
	"extensionsRequired":[
		"KHR_lights_punctual"
	],
	"extensions":{
		"KHR_lights_punctual":{
			"lights":[
				{
					"color":[
						0.11031848192214966,
						1,
						0
					],
					"intensity":1591.5494309189535,
					"type":"point",
					"name":"PointLight.002"
				},
				{
					"color":[
						1,
						0.07914038747549057,
						0
					],
					"intensity":1591.5494309189535,
					"type":"point",
					"name":"PointLight.003"
				}
			]
		}
	},
	"scene":0,
	"scenes":[
		{
			"extras":{
				"t3dExportOnSave__":true,
				"t3dExportFormat__":2,
				"t3dPackTextures__":true,
				"t3dCameraResolution__":[
					1920,
					1080
				],
				"t3dExportFilepath__":"",
				"t3dExportCameras__":true,
				"t3dExportLights__":true,
				"t3dRenderResolutionW__":640,
				"t3dRenderResolutionH__":360,
				"t3dSectorRendering__":false,
				"t3dSectorRenderDepth__":0,
				"t3dPlaybackFPS__":60,
				"t3dAnimationSampling__":true,
				"t3dAnimationInterpolation__":true,
				"t3dCollections__":{
					"Collection":{
						"objects":[
							"Plane",
							"OnlyGreen",
							"GreenLight",
							"RedLight",
							"OnlyRed",
							"Both"
						],
						"offset":[
							0.0,
							0.0,
							0.0
						]
					}
				},
				"t3dWorlds__":{
					"World":{
						"ambient color":[
							0.05087608844041824,
							0.05087608844041824,
							0.05087608844041824,
							1.0
						],
						"ambient energy":0.0
					}
				},
				"t3dCurrentWorld__":"World"
			},
			"name":"Scene",
			"nodes":[
				0,
				1,
				2,
				3,
				4,
				5
			]
		}
	],
	"nodes":[
		{
			"extras":{
				"t3dOriginalLocalPosition__":[
					0.0,
					0.0,
					0.0
				]
			},
			"mesh":0,
			"name":"Plane"
		},
		{
			"extras":{
				"t3dOriginalLocalPosition__":[
					-6.0,
					0.0,
					2.0
				]
			},
			"mesh":1,
			"name":"OnlyGreen",
			"translation":[
				-6,
				2,
				0
			]
		},
		{
			"extensions":{
				"KHR_lights_punctual":{
					"light":0
				}
			},
			"extras":{
				"t3dOriginalLocalPosition__":[
					-0.9150505065917969,
					-0.2106553018093109,
					7.260175704956055
				]
			},
			"name":"GreenLight",
			"rotation":[
				-0.28416627645492554,
				0.7269423007965088,
				0.34203392267227173,
				0.5232754945755005
			],
			"translation":[
				-0.9150505065917969,
				7.260175704956055,
				0.2106553018093109
			]
		},
		{
			"extensions":{
				"KHR_lights_punctual":{
					"light":1
				}
			},
			"extras":{
				"t3dOriginalLocalPosition__":[
					3.084949493408203,
					-0.2106551229953766,
					7.260175704956055
				]
			},
			"name":"RedLight",
			"rotation":[
				-0.28416627645492554,
				0.7269423007965088,
				0.34203392267227173,
				0.5232754945755005
			],
			"translation":[
				3.084949493408203,
				7.260175704956055,
				0.2106551229953766
			]
		},
		{
			"extras":{
				"t3dOriginalLocalPosition__":[
					8.0,
					0.0,
					2.0
				]
			},
			"mesh":1,
			"name":"OnlyRed",
			"translation":[
				8,
				2,
				0
			]
		},
		{
			"extras":{
				"t3dOriginalLocalPosition__":[
					1.0,
					8.0,
					2.0
				]
			},
			"mesh":1,
			"name":"Both",
			"translation":[
				1,
				2,
				-8
			]
		}
	],
	"materials":[
		{
			"name":"GroundTile",
			"pbrMetallicRoughness":{
				"baseColorTexture":{
					"index":0
				},
				"metallicFactor":0,
				"roughnessFactor":0.5
			}
		},
		{
			"name":"Cube",
			"pbrMetallicRoughness":{
				"baseColorTexture":{
					"index":1
				},
				"metallicFactor":0,
				"roughnessFactor":0.5
			}
		}
	],
	"meshes":[
		{
			"name":"Plane",
			"primitives":[
				{
					"attributes":{
						"POSITION":0,
						"TEXCOORD_0":1,
						"NORMAL":2
					},
					"indices":3,
					"material":0
				}
			]
		},
		{
			"name":"CubeTorus",
			"primitives":[
				{
					"attributes":{
						"POSITION":4,
						"TEXCOORD_0":5,
						"NORMAL":6
					},
					"indices":7,
					"material":1
				}
			]
		}
	],
	"textures":[
		{
			"sampler":0,
			"source":0
		},
		{
			"sampler":0,
			"source":1
		}
	],
	"images":[
		{
			"bufferView":4,
			"mimeType":"image/png",
			"name":"groundtile"
		},
		{
			"bufferView":9,
			"mimeType":"image/png",
			"name":"bricktile"
		}
	],
	"accessors":[
		{
			"bufferView":0,
			"componentType":5126,
			"count":2916,
			"max":[
				27,
				0,
				27
			],
			"min":[
				-27,
				0,
				-27
			],
			"type":"VEC3"
		},
		{
			"bufferView":1,
			"componentType":5126,
			"count":2916,
			"type":"VEC2"
		},
		{
			"bufferView":2,
			"componentType":5126,
			"count":2916,
			"type":"VEC3"
		},
		{
			"bufferView":3,
			"componentType":5123,
			"count":4374,
			"type":"SCALAR"
		},
		{
			"bufferView":5,
			"componentType":5126,
			"count":24,
			"max":[
				2,
				2,
				2
			],
			"min":[
				-2,
				-2,
				-2
			],
			"type":"VEC3"
		},
		{
			"bufferView":6,
			"componentType":5126,
			"count":24,
			"type":"VEC2"
		},
		{
			"bufferView":7,
			"componentType":5126,
			"count":24,
			"type":"VEC3"
		},
		{
			"bufferView":8,
			"componentType":5123,
			"count":36,
			"type":"SCALAR"
		}
	],
	"bufferViews":[
		{
			"buffer":0,
			"byteLength":34992,
			"byteOffset":0,
			"target":34962
		},
		{
			"buffer":0,
			"byteLength":23328,
			"byteOffset":34992,
			"target":34962
		},
		{
			"buffer":0,
			"byteLength":34992,
			"byteOffset":58320,
			"target":34962
		},
		{
			"buffer":0,
			"byteLength":8748,
			"byteOffset":93312,
			"target":34963
		},
		{
			"buffer":0,
			"byteLength":350,
			"byteOffset":102060
		},
		{
			"buffer":0,
			"byteLength":288,
			"byteOffset":102412,
			"target":34962
		},
		{
			"buffer":0,
			"byteLength":192,
			"byteOffset":102700,
			"target":34962
		},
		{
			"buffer":0,
			"byteLength":288,
			"byteOffset":102892,
			"target":34962
		},
		{
			"buffer":0,
			"byteLength":72,
			"byteOffset":103180,
			"target":34963
		},
		{
			"buffer":0,
			"byteLength":459,
			"byteOffset":103252
		}
	],
	"samplers":[
		{
			"magFilter":9728,
			"minFilter":9984
		}
	],
	"buffers":[
		{
			"byteLength":103712,
			"uri":"data:application/octet-stream;base64,"
		}
	]
}
