{
    "asset" : {
        "generator" : "Khronos glTF Blender I/O v3.5.13",
        "version" : "2.0"
    },
    "scene" : 0,
    "scenes" : [
        {
            "extras" : {
                "t3dExportFormat__" : 2,
                "t3dExportLights__" : 0,
                "t3dExportCameras__" : 0,
                "t3dExportOnSave__" : 1,
                "t3dCollections__" : {
                    "Collection" : {
                        "objects" : [
                            "Network",
                            "Visualization"
                        ],
                        "offset" : [
                            0.0,
                            0.0,
                            0.0
                        ]
                    }
                },
                "t3dCameraResolution__" : [
                    1920,
                    1080
                ],
                "t3dWorlds__" : {
                    "World" : {
                        "ambient color" : [
                            0.05087608844041824,
                            0.05087608844041824,
                            0.05087608844041824,
                            1.0
                        ],
                        "ambient energy" : 1.0
                    }
                },
                "t3dCurrentWorld__" : "World"
            },
            "name" : "Scene",
            "nodes" : [
                0,
                1
            ]
        }
    ],
    "nodes" : [
        {
            "extras" : {
                "t3dObjectType__" : 1,
                "t3dOriginalLocalPosition__" : [
                    0.0,
                    0.0,
                    0.0
                ],
                "t3dGridConnections__" : {
                    "0" : [
                        "1"
                    ],
                    "1" : [
                        "0",
                        "4",
                        "2"
                    ],
                    "2" : [
                        "3",
                        "1"
                    ],
                    "3" : [
                        "2"
                    ],
                    "4" : [
                        "1",
                        "5",
                        "18"
                    ],
                    "5" : [
                        "4",
                        "6",
                        "30"
                    ],
                    "6" : [
                        "5",
                        "7",
                        "31"
                    ],
                    "7" : [
                        "6",
                        "8"
                    ],
                    "8" : [
                        "7",
                        "9"
                    ],
                    "9" : [
                        "8",
                        "10",
                        "36"
                    ],
                    "10" : [
                        "9",
                        "11",
                        "12"
                    ],
                    "11" : [
                        "10",
                        "13"
                    ],
                    "12" : [
                        "10"
                    ],
                    "13" : [
                        "11",
                        "14"
                    ],
                    "14" : [
                        "13",
                        "15"
                    ],
                    "15" : [
                        "14",
                        "19"
                    ],
                    "16" : [
                        "17",
                        "18",
                        "19"
                    ],
                    "17" : [
                        "16",
                        "20"
                    ],
                    "18" : [
                        "4",
                        "16"
                    ],
                    "19" : [
                        "16",
                        "15"
                    ],
                    "20" : [
                        "17",
                        "21"
                    ],
                    "21" : [
                        "20",
                        "22",
                        "23"
                    ],
                    "22" : [
                        "21",
                        "29"
                    ],
                    "23" : [
                        "24",
                        "29",
                        "21"
                    ],
                    "24" : [
                        "23",
                        "25"
                    ],
                    "25" : [
                        "24",
                        "26"
                    ],
                    "26" : [
                        "25",
                        "27"
                    ],
                    "27" : [
                        "26",
                        "28"
                    ],
                    "28" : [
                        "27",
                        "29"
                    ],
                    "29" : [
                        "28",
                        "22",
                        "23",
                        "39"
                    ],
                    "30" : [
                        "5",
                        "31"
                    ],
                    "31" : [
                        "30",
                        "32",
                        "6"
                    ],
                    "32" : [
                        "31",
                        "33"
                    ],
                    "33" : [
                        "32",
                        "34"
                    ],
                    "34" : [
                        "33",
                        "35"
                    ],
                    "35" : [
                        "34",
                        "36"
                    ],
                    "36" : [
                        "35",
                        "9",
                        "37"
                    ],
                    "37" : [
                        "38",
                        "36"
                    ],
                    "38" : [
                        "37",
                        "39"
                    ],
                    "39" : [
                        "38",
                        "29"
                    ]
                },
                "t3dGridEntries__" : [
                    "(-1.0, 0.0, 0.0)",
                    "(0.0, 1.0, 0.0)",
                    "(0.02, 0.99, 0.0)",
                    "(1.0, 0.0, 0.0)",
                    "(0.0855, 0.048, 0.0194)",
                    "(1.0, -1.0, 0.0)",
                    "(2.0, 0.0, 0.0)",
                    "(2.0, 1.0, 0.0)",
                    "(1.0, 1.0, 0.0)",
                    "(0.0, 2.0, 0.0)",
                    "(-1.0, 2.0, 0.0)",
                    "(-1.0, 1.0, 0.0)",
                    "(-2.0, 2.0, 0.0)",
                    "(-2.0, 1.0, 0.0)",
                    "(-2.0, 0.0, 0.0)",
                    "(-1.0, -1.0, 0.0)",
                    "(-2.0, -2.0, 0.0)",
                    "(-3.0, -2.0, 0.0)",
                    "(0.0, -2.0, 0.0)",
                    "(-2.0, -1.0, 0.0)",
                    "(-3.0, -1.0, 0.0)",
                    "(-4.0, -1.0, 0.0)",
                    "(-3.0, 0.0, 0.0)",
                    "(-5.0, 1.0, 0.0)",
                    "(-5.0, 2.0, 0.0)",
                    "(-4.0, 2.0, 0.0)",
                    "(-4.0, 3.0, 0.0)",
                    "(-2.0, 3.0, 0.0)",
                    "(-3.0, 2.0, 0.0)",
                    "(-3.0, 1.0, 0.0)",
                    "(2.0, -2.0, 0.0)",
                    "(3.0, -1.0, 0.0)",
                    "(4.0, -0.1, 0.0)",
                    "(3.0, 0.0, 0.0)",
                    "(4.0, 1.0, 0.0)",
                    "(4.0, 2.0, 0.0)",
                    "(2.0, 2.0, 0.0)",
                    "(3.0, 1.0, 0.0)",
                    "(3.0, 1.0, 1.0)",
                    "(-3.0, 1.0, 1.0)"
                ]
            },
            "name" : "Network"
        },
        {
            "extras" : {
                "t3dObjectType__" : 0,
                "t3dOriginalLocalPosition__" : [
                    0.0,
                    0.0,
                    -0.10000000149011612
                ]
            },
            "mesh" : 0,
            "name" : "Visualization",
            "translation" : [
                0,
                -0.10000000149011612,
                0
            ]
        }
    ],
    "materials" : [
        {
            "name" : "Material",
            "pbrMetallicRoughness" : {
                "baseColorFactor" : [
                    0.800000011920929,
                    0.800000011920929,
                    0.800000011920929,
                    1
                ],
                "metallicFactor" : 0,
                "roughnessFactor" : 0.5
            }
        }
    ],
    "meshes" : [
        {
            "name" : "Plane.002",
            "primitives" : [
                {
                    "attributes" : {
                        "POSITION" : 0,
                        "NORMAL" : 1
                    },
                    "indices" : 2,
                    "material" : 0
                }
            ]
        }
    ],
    "accessors" : [
        {
            "bufferView" : 0,
            "componentType" : 5126,
            "count" : 5989,
            "max" : [
                4.063269138336182,
                1.089476466178894,
                2.0638411045074463
            ],
            "min" : [
                -5.063269138336182,
                -0.0638410672545433,
                -3.0632693767547607
            ],
            "type" : "VEC3"
        },
        {
            "bufferView" : 1,
            "componentType" : 5126,
            "count" : 5989,
            "type" : "VEC3"
        },
        {
            "bufferView" : 2,
            "componentType" : 5123,
            "count" : 11730,
            "type" : "SCALAR"
        }
    ],
    "bufferViews" : [
        {
            "buffer" : 0,
            "byteLength" : 71868,
            "byteOffset" : 0,
            "target" : 34962
        },
        {
            "buffer" : 0,
            "byteLength" : 71868,
            "byteOffset" : 71868,
            "target" : 34962
        },
        {
            "buffer" : 0,
            "byteLength" : 23460,
            "byteOffset" : 143736,
            "target" : 34963
        }
    ],
    "buffers" : [
        {
            "byteLength" : 167196,
            "uri" : "data:application/octet-stream;base64,"
        }
    ]
}
