{
	"asset":{
		"generator":"Khronos glTF Blender I/O v3.6.28",
		"version":"2.0"
	},
	"extensionsUsed":[
		"KHR_lights_punctual"
	],
	"extensionsRequired":[
		"KHR_lights_punctual"
	],
	"extensions":{
		"KHR_lights_punctual":{
			"lights":[
				{
					"color":[
						1,
						1,
						1
					],
					"intensity":318.3098861837907,
					"type":"point",
					"name":"Light"
				}
			]
		}
	},
	"scene":0,
	"scenes":[
		{
			"extras":{
				"t3dExportFormat__":2,
				"t3dExportOnSave__":true,
				"t3dPackTextures__":true,
				"t3dCameraResolution__":[
					1920,
					1080
				],
				"t3dExportFilepath__":"",
				"t3dExportCameras__":true,
				"t3dExportLights__":true,
				"t3dRenderResolutionW__":640,
				"t3dRenderResolutionH__":360,
				"t3dSectorRendering__":false,
				"t3dSectorRenderDepth__":0,
				"t3dPlaybackFPS__":60,
				"t3dAnimationSampling__":true,
				"t3dAnimationInterpolation__":true,
				"t3dPerspectiveCorrectedTextureMapping__":false,
				"t3dMaxLightCount__":0,
				"t3dSectorDetection__":0,
				"t3dCollections__":{
					"Collection":{
						"objects":[
							"Light",
							"Red",
							"Blue",
							"White",
							"Blue.001",
							"Blue.002"
						],
						"offset":[
							0.0,
							0.0,
							0.0
						]
					}
				},
				"t3dWorlds__":{
					"World":{
						"ambient color":[
							0.05087608844041824,
							0.05087608844041824,
							0.05087608844041824,
							1.0
						],
						"ambient energy":1.0,
						"clear color":[
							0.007000000216066837,
							0.00800000037997961,
							0.009999999776482582,
							1.0
						],
						"fog mode":"OFF",
						"dithered transparency":0.0,
						"fog curve":"LINEAR",
						"fog color":[
							0.0,
							0.0,
							0.0,
							1.0
						],
						"fog range start":0.0,
						"fog range end":1.0
					}
				},
				"t3dCurrentWorld__":"World",
				"t3dView3DCameraData__":[
					{
						"clip_start":0.009999999776482582,
						"clip_end":1000.0,
						"location":[
							0.2771048843860626,
							49.469356536865234,
							59.288333892822266
						],
						"rotation":[
							[
								0.9999025464057922,
								-0.008929410949349403,
								0.010732571594417095
							],
							[
								5.239807876478153e-08,
								0.7687307000160217,
								0.6395726203918457
							],
							[
								-0.01396146323531866,
								-0.6395103335380554,
								0.7686557769775391
							]
						],
						"fovY":39.597752709049864,
						"perspective":true
					}
				]
			},
			"name":"Scene",
			"nodes":[
				0,
				1,
				2,
				3,
				4,
				5
			]
		}
	],
	"nodes":[
		{
			"extensions":{
				"KHR_lights_punctual":{
					"light":0
				}
			},
			"extras":{
				"t3dOriginalLocalPosition__":[
					4.076245307922363,
					1.0054539442062378,
					0.9038619995117188
				]
			},
			"name":"Light",
			"rotation":[
				-0.28416627645492554,
				0.7269423007965088,
				0.34203392267227173,
				0.5232754945755005
			],
			"translation":[
				4.076245307922363,
				0.9038619995117188,
				-1.0054539442062378
			]
		},
		{
			"extras":{
				"t3dOriginalLocalPosition__":[
					-1.0,
					2.0,
					0.0
				]
			},
			"mesh":0,
			"name":"Red",
			"translation":[
				-1,
				0,
				-2
			]
		},
		{
			"extras":{
				"t3dOriginalLocalPosition__":[
					0.8593042492866516,
					5.187963485717773,
					0.0
				]
			},
			"mesh":1,
			"name":"Blue",
			"translation":[
				0.8593042492866516,
				0,
				-5.187963485717773
			]
		},
		{
			"extras":{
				"t3dOriginalLocalPosition__":[
					0.8593042492866516,
					11.187963485717773,
					0.0
				]
			},
			"mesh":2,
			"name":"White",
			"translation":[
				0.8593042492866516,
				0,
				-11.187963485717773
			]
		},
		{
			"extras":{
				"t3dOriginalLocalPosition__":[
					-0.1406957507133484,
					-0.8120365142822266,
					0.0
				]
			},
			"mesh":3,
			"name":"Blue.001",
			"translation":[
				-0.1406957507133484,
				0,
				0.8120365142822266
			]
		},
		{
			"extras":{
				"t3dOriginalLocalPosition__":[
					-2.140695810317993,
					-3.8120365142822266,
					0.0
				]
			},
			"mesh":4,
			"name":"Blue.002",
			"translation":[
				-2.140695810317993,
				0,
				3.8120365142822266
			]
		}
	],
	"materials":[
		{
			"doubleSided":true,
			"extras":{
				"t3dMaterialColor__":[
					1.0,
					0.022791922092437744,
					0.0,
					1.0
				],
				"t3dMaterialShadeless__":1,
				"t3dCompositeMode__":1,
				"t3dBlendMode__":1
			},
			"name":"Red",
			"pbrMetallicRoughness":{
				"baseColorFactor":[
					1,
					0,
					0.006616944447159767,
					1
				],
				"metallicFactor":0,
				"roughnessFactor":0.5
			}
		},
		{
			"doubleSided":true,
			"extras":{
				"t3dMaterialColor__":[
					0.0,
					0.07302236557006836,
					1.0,
					1.0
				],
				"t3dMaterialShadeless__":1,
				"t3dCompositeMode__":0
			},
			"name":"Blue",
			"pbrMetallicRoughness":{
				"baseColorFactor":[
					0,
					0.1637270450592041,
					1,
					1
				],
				"metallicFactor":0,
				"roughnessFactor":0.5
			}
		},
		{
			"extras":{
				"t3dMaterialColor__":[
					0.08021973818540573,
					0.07227177917957306,
					0.10224170237779617,
					1.0
				],
				"t3dMaterialShadeless__":0
			},
			"name":"Gray.001",
			"pbrMetallicRoughness":{
				"baseColorFactor":[
					0.08021973818540573,
					0.07227177917957306,
					0.10224170237779617,
					1
				],
				"metallicFactor":0,
				"roughnessFactor":0.5
			}
		},
		{
			"alphaMode":"BLEND",
			"doubleSided":true,
			"extras":{
				"t3dMaterialColor__":[
					0.0601605623960495,
					1.0,
					0.0,
					0.5285705924034119
				],
				"t3dMaterialShadeless__":1,
				"t3dCompositeMode__":0
			},
			"name":"Green",
			"pbrMetallicRoughness":{
				"baseColorFactor":[
					0.04908229783177376,
					1,
					0,
					1
				],
				"metallicFactor":0,
				"roughnessFactor":0.5
			}
		},
		{
			"doubleSided":true,
			"extras":{
				"t3dMaterialColor__":[
					0.0,
					0.0,
					0.0,
					1.0
				],
				"t3dMaterialShadeless__":1,
				"t3dCompositeMode__":3,
				"t3dBlendMode__":3
			},
			"name":"Clear",
			"pbrMetallicRoughness":{
				"baseColorFactor":[
					0,
					0,
					0,
					1
				],
				"metallicFactor":0,
				"roughnessFactor":0.5
			}
		},
		{
			"doubleSided":true,
			"extras":{
				"t3dMaterialShadeless__":1
			},
			"name":"White",
			"pbrMetallicRoughness":{
				"baseColorFactor":[
					0.800000011920929,
					0.800000011920929,
					0.800000011920929,
					1
				],
				"metallicFactor":0,
				"roughnessFactor":0.5
			}
		}
	],
	"meshes":[
		{
			"name":"Red",
			"primitives":[
				{
					"attributes":{
						"POSITION":0,
						"NORMAL":1,
						"TEXCOORD_0":2
					},
					"indices":3,
					"material":0
				}
			]
		},
		{
			"name":"Blue",
			"primitives":[
				{
					"attributes":{
						"POSITION":4,
						"NORMAL":5,
						"TEXCOORD_0":6
					},
					"indices":3,
					"material":1
				}
			]
		},
		{
			"name":"White",
			"primitives":[
				{
					"attributes":{
						"POSITION":7,
						"NORMAL":8,
						"TEXCOORD_0":9
					},
					"indices":10,
					"material":2
				}
			]
		},
		{
			"name":"Blue.001",
			"primitives":[
				{
					"attributes":{
						"POSITION":11,
						"NORMAL":12,
						"TEXCOORD_0":13
					},
					"indices":3,
					"material":3
				}
			]
		},
		{
			"name":"Blue.002",
			"primitives":[
				{
					"attributes":{
						"POSITION":14,
						"NORMAL":15,
						"TEXCOORD_0":16
					},
					"indices":17,
					"material":4
				},
				{
					"attributes":{
						"POSITION":18,
						"NORMAL":19,
						"TEXCOORD_0":20
					},
					"indices":21,
					"material":5
				}
			]
		}
	],
	"accessors":[
		{
			"bufferView":0,
			"componentType":5126,
			"count":4,
			"max":[
				1,
				1,
				0
			],
			"min":[
				-1,
				-1,
				0
			],
			"type":"VEC3"
		},
		{
			"bufferView":1,
			"componentType":5126,
			"count":4,
			"type":"VEC3"
		},
		{
			"bufferView":2,
			"componentType":5126,
			"count":4,
			"type":"VEC2"
		},
		{
			"bufferView":3,
			"componentType":5123,
			"count":6,
			"type":"SCALAR"
		},
		{
			"bufferView":4,
			"componentType":5126,
			"count":4,
			"max":[
				0.9999999403953552,
				1,
				0
			],
			"min":[
				-0.9999999403953552,
				-1,
				0
			],
			"type":"VEC3"
		},
		{
			"bufferView":5,
			"componentType":5126,
			"count":4,
			"type":"VEC3"
		},
		{
			"bufferView":6,
			"componentType":5126,
			"count":4,
			"type":"VEC2"
		},
		{
			"bufferView":7,
			"componentType":5126,
			"count":742,
			"max":[
				15.999999046325684,
				4,
				22
			],
			"min":[
				-15.999999046325684,
				-4,
				0
			],
			"type":"VEC3"
		},
		{
			"bufferView":8,
			"componentType":5126,
			"count":742,
			"type":"VEC3"
		},
		{
			"bufferView":9,
			"componentType":5126,
			"count":742,
			"type":"VEC2"
		},
		{
			"bufferView":10,
			"componentType":5123,
			"count":3648,
			"type":"SCALAR"
		},
		{
			"bufferView":11,
			"componentType":5126,
			"count":4,
			"max":[
				0.9999999403953552,
				1,
				0
			],
			"min":[
				-0.9999999403953552,
				-1,
				0
			],
			"type":"VEC3"
		},
		{
			"bufferView":12,
			"componentType":5126,
			"count":4,
			"type":"VEC3"
		},
		{
			"bufferView":13,
			"componentType":5126,
			"count":4,
			"type":"VEC2"
		},
		{
			"bufferView":14,
			"componentType":5126,
			"count":4,
			"max":[
				0.9119459390640259,
				0.9119460582733154,
				0
			],
			"min":[
				-0.9119459390640259,
				-0.9119460582733154,
				0
			],
			"type":"VEC3"
		},
		{
			"bufferView":15,
			"componentType":5126,
			"count":4,
			"type":"VEC3"
		},
		{
			"bufferView":16,
			"componentType":5126,
			"count":4,
			"type":"VEC2"
		},
		{
			"bufferView":17,
			"componentType":5123,
			"count":6,
			"type":"SCALAR"
		},
		{
			"bufferView":18,
			"componentType":5126,
			"count":8,
			"max":[
				0.9999999403953552,
				1,
				0
			],
			"min":[
				-0.9999999403953552,
				-1,
				0
			],
			"type":"VEC3"
		},
		{
			"bufferView":19,
			"componentType":5126,
			"count":8,
			"type":"VEC3"
		},
		{
			"bufferView":20,
			"componentType":5126,
			"count":8,
			"type":"VEC2"
		},
		{
			"bufferView":21,
			"componentType":5123,
			"count":24,
			"type":"SCALAR"
		}
	],
	"bufferViews":[
		{
			"buffer":0,
			"byteLength":48,
			"byteOffset":0,
			"target":34962
		},
		{
			"buffer":0,
			"byteLength":48,
			"byteOffset":48,
			"target":34962
		},
		{
			"buffer":0,
			"byteLength":32,
			"byteOffset":96,
			"target":34962
		},
		{
			"buffer":0,
			"byteLength":12,
			"byteOffset":128,
			"target":34963
		},
		{
			"buffer":0,
			"byteLength":48,
			"byteOffset":140,
			"target":34962
		},
		{
			"buffer":0,
			"byteLength":48,
			"byteOffset":188,
			"target":34962
		},
		{
			"buffer":0,
			"byteLength":32,
			"byteOffset":236,
			"target":34962
		},
		{
			"buffer":0,
			"byteLength":8904,
			"byteOffset":268,
			"target":34962
		},
		{
			"buffer":0,
			"byteLength":8904,
			"byteOffset":9172,
			"target":34962
		},
		{
			"buffer":0,
			"byteLength":5936,
			"byteOffset":18076,
			"target":34962
		},
		{
			"buffer":0,
			"byteLength":7296,
			"byteOffset":24012,
			"target":34963
		},
		{
			"buffer":0,
			"byteLength":48,
			"byteOffset":31308,
			"target":34962
		},
		{
			"buffer":0,
			"byteLength":48,
			"byteOffset":31356,
			"target":34962
		},
		{
			"buffer":0,
			"byteLength":32,
			"byteOffset":31404,
			"target":34962
		},
		{
			"buffer":0,
			"byteLength":48,
			"byteOffset":31436,
			"target":34962
		},
		{
			"buffer":0,
			"byteLength":48,
			"byteOffset":31484,
			"target":34962
		},
		{
			"buffer":0,
			"byteLength":32,
			"byteOffset":31532,
			"target":34962
		},
		{
			"buffer":0,
			"byteLength":12,
			"byteOffset":31564,
			"target":34963
		},
		{
			"buffer":0,
			"byteLength":96,
			"byteOffset":31576,
			"target":34962
		},
		{
			"buffer":0,
			"byteLength":96,
			"byteOffset":31672,
			"target":34962
		},
		{
			"buffer":0,
			"byteLength":64,
			"byteOffset":31768,
			"target":34962
		},
		{
			"buffer":0,
			"byteLength":48,
			"byteOffset":31832,
			"target":34963
		}
	],
	"buffers":[
		{
			"byteLength":31880,
			"uri":"data:application/octet-stream;base64,"
		}
	]
}
