{
    "asset" : {
        "generator" : "Khronos glTF Blender I/O v1.7.33",
        "version" : "2.0"
    },
    "extensionsUsed" : [
        "KHR_materials_unlit"
    ],
    "scene" : 0,
    "scenes" : [
        {
            "extras" : {
                "t3dExportOnSave__" : 1,
                "t3dExportFormat__" : 2,
                "t3dExportLights__" : 0,
                "t3dCollections__" : {
                    "Collection" : {
                        "objects" : [
                            "Cube",
                            "Cube.001",
                            "Cube.002",
                            "Cube.003",
                            "Cube.004",
                            "Cube.005",
                            "Cube.006",
                            "Cube.007",
                            "Cube.008",
                            "Cube.009",
                            "Parent"
                        ],
                        "offset" : [
                            0.0,
                            0.0,
                            0.0
                        ]
                    }
                }
            },
            "name" : "Scene",
            "nodes" : [
                0,
                1,
                2,
                3,
                4,
                5,
                6,
                7,
                8,
                9,
                10
            ]
        }
    ],
    "nodes" : [
        {
            "extras" : {
                "t3dGameProperties__" : [
                    {
                        "name" : "turn",
                        "valueBool" : 1,
                        "valueReference" : {},
                        "valueType" : 2,
                        "valueInt" : 2,
                        "valueFloat" : 2.0
                    },
                    {
                        "name" : "wave",
                        "valueType" : 0,
                        "valueBool" : 1,
                        "valueInt" : 0,
                        "valueFloat" : 0.0,
                        "valueString" : "",
                        "valueReference" : null,
                        "valueReferenceScene" : null
                    }
                ]
            },
            "mesh" : 0,
            "name" : "Cube"
        },
        {
            "extras" : {
                "t3dGameProperties__" : []
            },
            "mesh" : 0,
            "name" : "Cube.001",
            "translation" : [
                0,
                0,
                -10
            ]
        },
        {
            "extras" : {
                "t3dGameProperties__" : [
                    {
                        "name" : "turn",
                        "valueType" : 2,
                        "valueBool" : 1,
                        "valueInt" : 2,
                        "valueFloat" : 1.0,
                        "valueString" : "",
                        "valueReference" : null
                    }
                ]
            },
            "mesh" : 0,
            "name" : "Cube.002",
            "translation" : [
                -10,
                0,
                -10
            ]
        },
        {
            "extras" : {
                "t3dGameProperties__" : [
                    {
                        "name" : "wave",
                        "valueType" : 0,
                        "valueBool" : 1,
                        "valueInt" : 0,
                        "valueFloat" : 0.0,
                        "valueString" : "",
                        "valueReference" : null
                    }
                ]
            },
            "mesh" : 0,
            "name" : "Cube.003",
            "translation" : [
                -10,
                0,
                0
            ]
        },
        {
            "extras" : {
                "t3dGameProperties__" : [
                    {
                        "name" : "wave",
                        "valueType" : 0,
                        "valueBool" : 1,
                        "valueInt" : 0,
                        "valueFloat" : 0.0,
                        "valueString" : "",
                        "valueReference" : null,
                        "valueReferenceScene" : {}
                    }
                ]
            },
            "mesh" : 0,
            "name" : "Cube.004",
            "translation" : [
                10,
                0,
                0
            ]
        },
        {
            "extras" : {
                "t3dGameProperties__" : [
                    {
                        "name" : "turn",
                        "valueType" : 2,
                        "valueBool" : 1,
                        "valueInt" : 2,
                        "valueFloat" : 1.0,
                        "valueString" : "",
                        "valueReference" : null
                    },
                    {
                        "name" : "wave",
                        "valueType" : 0,
                        "valueBool" : 1,
                        "valueInt" : 0,
                        "valueFloat" : 0.0,
                        "valueString" : "",
                        "valueReference" : null,
                        "valueReferenceScene" : null
                    }
                ]
            },
            "mesh" : 0,
            "name" : "Cube.005",
            "translation" : [
                10,
                0,
                -10
            ]
        },
        {
            "extras" : {
                "t3dGameProperties__" : [
                    {
                        "name" : "wave",
                        "valueBool" : 1,
                        "valueReference" : {}
                    }
                ]
            },
            "mesh" : 0,
            "name" : "Cube.006",
            "translation" : [
                10,
                0,
                -20
            ]
        },
        {
            "extras" : {
                "t3dGameProperties__" : [
                    {
                        "name" : "turn",
                        "valueType" : 2,
                        "valueBool" : 1,
                        "valueInt" : 2,
                        "valueFloat" : 4.0,
                        "valueString" : "",
                        "valueReference" : null
                    }
                ]
            },
            "mesh" : 0,
            "name" : "Cube.007",
            "translation" : [
                0,
                0,
                -20
            ]
        },
        {
            "extras" : {
                "t3dGameProperties__" : [
                    {
                        "name" : "wave",
                        "valueType" : 0,
                        "valueBool" : 1,
                        "valueInt" : 0,
                        "valueFloat" : 0.0,
                        "valueString" : "",
                        "valueReference" : null
                    }
                ]
            },
            "mesh" : 0,
            "name" : "Cube.008",
            "translation" : [
                -10,
                0,
                -20
            ]
        },
        {
            "extras" : {
                "t3dGameProperties__" : [
                    {
                        "valueType" : 4,
                        "valueReferenceScene" : null,
                        "valueReference" : {
                            "name" : "Parent",
                            "type" : "Object"
                        },
                        "name" : "parented to"
                    }
                ]
            },
            "mesh" : 0,
            "name" : "Cube.009",
            "translation" : [
                30,
                0,
                -10
            ]
        },
        {
            "extras" : {
                "t3dGameProperties__" : [
                    {
                        "name" : "turn",
                        "valueType" : 2,
                        "valueBool" : 1,
                        "valueInt" : 2,
                        "valueFloat" : 1.0,
                        "valueString" : "",
                        "valueReference" : null
                    },
                    {
                        "name" : "wave",
                        "valueType" : 0,
                        "valueBool" : 1,
                        "valueInt" : 0,
                        "valueFloat" : 0.0,
                        "valueString" : "",
                        "valueReference" : null,
                        "valueReferenceScene" : null
                    }
                ]
            },
            "mesh" : 0,
            "name" : "Parent",
            "translation" : [
                25,
                0,
                -10
            ]
        }
    ],
    "materials" : [
        {
            "extensions" : {
                "KHR_materials_unlit" : {}
            },
            "extras" : {
                "t3dMaterialShadeless__" : 1
            },
            "name" : "Material",
            "pbrMetallicRoughness" : {
                "metallicFactor" : 0,
                "roughnessFactor" : 0.9
            }
        }
    ],
    "meshes" : [
        {
            "extras" : {
                "t3dVertexColorNames__" : [
                    "Col"
                ]
            },
            "name" : "Cube",
            "primitives" : [
                {
                    "attributes" : {
                        "POSITION" : 0,
                        "NORMAL" : 1,
                        "TEXCOORD_0" : 2,
                        "COLOR_0" : 3
                    },
                    "indices" : 4,
                    "material" : 0
                }
            ]
        }
    ],
    "accessors" : [
        {
            "bufferView" : 0,
            "componentType" : 5126,
            "count" : 24,
            "max" : [
                1,
                1,
                1
            ],
            "min" : [
                -1,
                -1,
                -1
            ],
            "type" : "VEC3"
        },
        {
            "bufferView" : 1,
            "componentType" : 5126,
            "count" : 24,
            "type" : "VEC3"
        },
        {
            "bufferView" : 2,
            "componentType" : 5126,
            "count" : 24,
            "type" : "VEC2"
        },
        {
            "bufferView" : 3,
            "componentType" : 5123,
            "count" : 24,
            "normalized" : true,
            "type" : "VEC4"
        },
        {
            "bufferView" : 4,
            "componentType" : 5123,
            "count" : 36,
            "type" : "SCALAR"
        }
    ],
    "bufferViews" : [
        {
            "buffer" : 0,
            "byteLength" : 288,
            "byteOffset" : 0
        },
        {
            "buffer" : 0,
            "byteLength" : 288,
            "byteOffset" : 288
        },
        {
            "buffer" : 0,
            "byteLength" : 192,
            "byteOffset" : 576
        },
        {
            "buffer" : 0,
            "byteLength" : 192,
            "byteOffset" : 768
        },
        {
            "buffer" : 0,
            "byteLength" : 72,
            "byteOffset" : 960
        }
    ],
    "buffers" : [
        {
            "byteLength" : 1032,
            "uri" : "data:application/octet-stream;base64,"
        }
    ]
}
