{
    "asset" : {
        "generator" : "Khronos glTF Blender I/O v3.5.13",
        "version" : "2.0"
    },
    "extensionsUsed" : [
        "KHR_materials_unlit"
    ],
    "scene" : 1,
    "scenes" : [
        {
            "extras" : {
                "t3dExportFormat__" : 2,
                "t3dExportOnSave__" : 1,
                "t3dCameraResolution__" : [
                    1920,
                    1080
                ],
                "t3dCollections__" : {
                    "Collection" : {
                        "objects" : [
                            "Cube.009",
                            "Parent",
                            "Cube.002",
                            "Cube.003",
                            "Cube.004",
                            "Cube.005",
                            "Cube.006",
                            "Cube.007",
                            "Cube.008",
                            "Cube.010",
                            "Cube.011"
                        ],
                        "offset" : [
                            0.0,
                            0.0,
                            0.0
                        ]
                    },
                    "Cube" : {
                        "objects" : [
                            "Cube"
                        ],
                        "offset" : [
                            0.0,
                            0.0,
                            0.0
                        ]
                    }
                },
                "t3dWorlds__" : {
                    "World" : {
                        "ambient color" : [
                            0.04445478320121765,
                            0.04445478320121765,
                            0.04445478320121765,
                            1.0
                        ],
                        "ambient energy" : 1.0
                    }
                },
                "t3dCurrentWorld__" : "World"
            },
            "name" : "Group",
            "nodes" : [
                1
            ]
        },
        {
            "extras" : {
                "t3dExportOnSave__" : 1,
                "t3dExportFormat__" : 2,
                "t3dExportLights__" : 0,
                "t3dExpandOverrideProps__" : 1,
                "t3dExpandGameProps__" : 1,
                "t3dCurrentWorld__" : "World"
            },
            "name" : "Scene",
            "nodes" : [
                2,
                3,
                4,
                5,
                6,
                7,
                8,
                9,
                10,
                11,
                12
            ]
        }
    ],
    "nodes" : [
        {
            "extras" : {
                "t3dGameProperties__" : [
                    {
                        "name" : "Test"
                    }
                ],
                "t3dOriginalLocalPosition__" : [
                    0.0,
                    0.0,
                    4.0
                ]
            },
            "mesh" : 0,
            "name" : "Cube.001",
            "translation" : [
                0,
                4,
                0
            ]
        },
        {
            "children" : [
                0
            ],
            "extras" : {
                "t3dGameProperties__" : [
                    {
                        "name" : "wave",
                        "valueType" : 0,
                        "valueFloat" : 1.0,
                        "valueBool" : 1,
                        "valueReference" : {},
                        "valueReferenceScene" : {}
                    },
                    {
                        "name" : "turn",
                        "valueBool" : 1,
                        "valueType" : 2,
                        "valueFloat" : 1.0,
                        "valueReference" : {},
                        "valueReferenceScene" : {}
                    }
                ],
                "t3dOriginalLocalPosition__" : [
                    0.0,
                    0.0,
                    0.0
                ]
            },
            "mesh" : 1,
            "name" : "Cube"
        },
        {
            "extras" : {
                "t3dGameProperties__" : [
                    {
                        "valueType" : 4,
                        "valueReferenceScene" : null,
                        "valueReference" : {
                            "name" : "Parent",
                            "type" : "Object"
                        },
                        "name" : "parented to"
                    }
                ],
                "t3dOriginalLocalPosition__" : [
                    30.0,
                    10.0,
                    0.0
                ]
            },
            "mesh" : 2,
            "name" : "Cube.009",
            "translation" : [
                30,
                0,
                -10
            ]
        },
        {
            "extras" : {
                "t3dGameProperties__" : [
                    {
                        "name" : "turn",
                        "valueType" : 2,
                        "valueBool" : 1,
                        "valueInt" : 2,
                        "valueFloat" : 1.0,
                        "valueString" : "",
                        "valueReference" : null
                    },
                    {
                        "name" : "wave",
                        "valueType" : 0,
                        "valueBool" : 1,
                        "valueInt" : 0,
                        "valueFloat" : 0.0,
                        "valueString" : "",
                        "valueReference" : null,
                        "valueReferenceScene" : null
                    }
                ],
                "t3dOriginalLocalPosition__" : [
                    25.0,
                    10.0,
                    0.0
                ]
            },
            "mesh" : 2,
            "name" : "Parent",
            "translation" : [
                25,
                0,
                -10
            ]
        },
        {
            "extras" : {
                "t3dOriginalLocalPosition__" : [
                    0.0,
                    0.0,
                    0.0
                ],
                "t3dInstanceCollection__" : "Cube"
            },
            "name" : "Cube.002",
            "rotation" : [
                -0.02722805179655552,
                0.2111053168773651,
                0.4056556522846222,
                0.8888963460922241
            ]
        },
        {
            "extras" : {
                "t3dGameProperties__" : [
                    {
                        "name" : "turn",
                        "valueType" : 2,
                        "valueBool" : 1,
                        "valueInt" : 0,
                        "valueFloat" : 8.0,
                        "valueString" : "",
                        "valueReference" : null,
                        "valueReferenceScene" : null,
                        "valueColor" : [
                            1.0,
                            1.0,
                            1.0,
                            1.0
                        ],
                        "valueVector3D" : [
                            0.0,
                            0.0,
                            0.0
                        ]
                    }
                ],
                "t3dOriginalLocalPosition__" : [
                    10.0,
                    0.0,
                    0.0
                ],
                "t3dInstanceCollection__" : "Cube"
            },
            "name" : "Cube.003",
            "translation" : [
                10,
                0,
                0
            ]
        },
        {
            "extras" : {
                "t3dOriginalLocalPosition__" : [
                    10.0,
                    10.0,
                    0.0
                ],
                "t3dInstanceCollection__" : "Cube"
            },
            "name" : "Cube.004",
            "translation" : [
                10,
                0,
                -10
            ]
        },
        {
            "extras" : {
                "t3dOriginalLocalPosition__" : [
                    0.0,
                    10.0,
                    0.0
                ],
                "t3dInstanceCollection__" : "Cube"
            },
            "name" : "Cube.005",
            "rotation" : [
                0.021459734067320824,
                -0.16638220846652985,
                -0.3197166919708252,
                0.9325436949729919
            ],
            "translation" : [
                0,
                0,
                -10
            ]
        },
        {
            "extras" : {
                "t3dOriginalLocalPosition__" : [
                    -10.0,
                    10.0,
                    0.0
                ],
                "t3dInstanceCollection__" : "Cube"
            },
            "name" : "Cube.006",
            "translation" : [
                -10,
                0,
                -10
            ]
        },
        {
            "extras" : {
                "t3dOriginalLocalPosition__" : [
                    -10.0,
                    0.0,
                    0.0
                ],
                "t3dInstanceCollection__" : "Cube"
            },
            "name" : "Cube.007",
            "rotation" : [
                0.018247919157147408,
                -0.1414802521467209,
                -0.27186551690101624,
                0.9517034888267517
            ],
            "translation" : [
                -10,
                0,
                0
            ]
        },
        {
            "extras" : {
                "t3dGameProperties__" : [
                    {
                        "name" : "wave",
                        "valueType" : 0,
                        "valueBool" : 0,
                        "valueInt" : 0,
                        "valueFloat" : 1.0,
                        "valueString" : "",
                        "valueReference" : null,
                        "valueReferenceScene" : null,
                        "valueColor" : [
                            1.0,
                            1.0,
                            1.0,
                            1.0
                        ],
                        "valueVector3D" : [
                            0.0,
                            0.0,
                            0.0
                        ]
                    },
                    {
                        "name" : "turn",
                        "valueType" : 2,
                        "valueBool" : 1,
                        "valueInt" : 0,
                        "valueFloat" : 0.10000000149011612,
                        "valueString" : "",
                        "valueReference" : null,
                        "valueReferenceScene" : null,
                        "valueColor" : [
                            1.0,
                            1.0,
                            1.0,
                            1.0
                        ],
                        "valueVector3D" : [
                            0.0,
                            0.0,
                            0.0
                        ]
                    }
                ],
                "t3dOriginalLocalPosition__" : [
                    10.0,
                    -10.0,
                    0.0
                ],
                "t3dInstanceCollection__" : "Cube"
            },
            "name" : "Cube.008",
            "translation" : [
                10,
                0,
                10
            ]
        },
        {
            "extras" : {
                "t3dOriginalLocalPosition__" : [
                    0.0,
                    -10.0,
                    0.0
                ],
                "t3dInstanceCollection__" : "Cube"
            },
            "name" : "Cube.010",
            "rotation" : [
                0.015566161833703518,
                -0.12068801373243332,
                -0.23191164433956146,
                0.9650954008102417
            ],
            "translation" : [
                0,
                0,
                10
            ]
        },
        {
            "extras" : {
                "t3dOriginalLocalPosition__" : [
                    -10.0,
                    -10.0,
                    0.0
                ],
                "t3dInstanceCollection__" : "Cube"
            },
            "name" : "Cube.011",
            "translation" : [
                -10,
                0,
                10
            ]
        }
    ],
    "materials" : [
        {
            "extensions" : {
                "KHR_materials_unlit" : {}
            },
            "extras" : {
                "t3dMaterialShadeless__" : 1
            },
            "name" : "Material",
            "pbrMetallicRoughness" : {
                "metallicFactor" : 0,
                "roughnessFactor" : 0.9
            }
        }
    ],
    "meshes" : [
        {
            "extras" : {
                "t3dVertexColorNames__" : [
                    "Col"
                ],
                "t3dActiveVertexColorIndex__" : 0
            },
            "name" : "Cube.001",
            "primitives" : [
                {
                    "attributes" : {
                        "_.SCULPT_FACE_SET" : 0,
                        "COLOR_0" : 1,
                        "POSITION" : 2,
                        "TEXCOORD_0" : 3,
                        "NORMAL" : 4
                    },
                    "indices" : 5,
                    "material" : 0
                }
            ]
        },
        {
            "extras" : {
                "t3dVertexColorNames__" : [
                    "Col"
                ],
                "t3dActiveVertexColorIndex__" : 0
            },
            "name" : "Cube",
            "primitives" : [
                {
                    "attributes" : {
                        "_.SCULPT_FACE_SET" : 6,
                        "COLOR_0" : 7,
                        "POSITION" : 8,
                        "TEXCOORD_0" : 9,
                        "NORMAL" : 10
                    },
                    "indices" : 5,
                    "material" : 0
                }
            ]
        },
        {
            "extras" : {
                "t3dVertexColorNames__" : [
                    "Col"
                ],
                "t3dActiveVertexColorIndex__" : 0
            },
            "name" : "Diamond",
            "primitives" : [
                {
                    "attributes" : {
                        "_.SCULPT_FACE_SET" : 11,
                        "COLOR_0" : 12,
                        "POSITION" : 13,
                        "TEXCOORD_0" : 14,
                        "NORMAL" : 15
                    },
                    "indices" : 16,
                    "material" : 0
                }
            ]
        }
    ],
    "accessors" : [
        {
            "bufferView" : 0,
            "componentType" : 5126,
            "count" : 24,
            "type" : "SCALAR"
        },
        {
            "bufferView" : 1,
            "componentType" : 5123,
            "count" : 24,
            "normalized" : true,
            "type" : "VEC4"
        },
        {
            "bufferView" : 2,
            "componentType" : 5126,
            "count" : 24,
            "max" : [
                0.5,
                0.5,
                0.5
            ],
            "min" : [
                -0.5,
                -0.5,
                -0.5
            ],
            "type" : "VEC3"
        },
        {
            "bufferView" : 3,
            "componentType" : 5126,
            "count" : 24,
            "type" : "VEC2"
        },
        {
            "bufferView" : 4,
            "componentType" : 5126,
            "count" : 24,
            "type" : "VEC3"
        },
        {
            "bufferView" : 5,
            "componentType" : 5123,
            "count" : 36,
            "type" : "SCALAR"
        },
        {
            "bufferView" : 6,
            "componentType" : 5126,
            "count" : 24,
            "type" : "SCALAR"
        },
        {
            "bufferView" : 7,
            "componentType" : 5123,
            "count" : 24,
            "normalized" : true,
            "type" : "VEC4"
        },
        {
            "bufferView" : 8,
            "componentType" : 5126,
            "count" : 24,
            "max" : [
                1,
                1,
                1
            ],
            "min" : [
                -1,
                -1,
                -1
            ],
            "type" : "VEC3"
        },
        {
            "bufferView" : 9,
            "componentType" : 5126,
            "count" : 24,
            "type" : "VEC2"
        },
        {
            "bufferView" : 10,
            "componentType" : 5126,
            "count" : 24,
            "type" : "VEC3"
        },
        {
            "bufferView" : 11,
            "componentType" : 5126,
            "count" : 24,
            "type" : "SCALAR"
        },
        {
            "bufferView" : 12,
            "componentType" : 5123,
            "count" : 24,
            "normalized" : true,
            "type" : "VEC4"
        },
        {
            "bufferView" : 13,
            "componentType" : 5126,
            "count" : 24,
            "max" : [
                1,
                1,
                1
            ],
            "min" : [
                -1,
                -1,
                -1
            ],
            "type" : "VEC3"
        },
        {
            "bufferView" : 14,
            "componentType" : 5126,
            "count" : 24,
            "type" : "VEC2"
        },
        {
            "bufferView" : 15,
            "componentType" : 5126,
            "count" : 24,
            "type" : "VEC3"
        },
        {
            "bufferView" : 16,
            "componentType" : 5123,
            "count" : 24,
            "type" : "SCALAR"
        }
    ],
    "bufferViews" : [
        {
            "buffer" : 0,
            "byteLength" : 96,
            "byteOffset" : 0,
            "target" : 34962
        },
        {
            "buffer" : 0,
            "byteLength" : 192,
            "byteOffset" : 96,
            "target" : 34962
        },
        {
            "buffer" : 0,
            "byteLength" : 288,
            "byteOffset" : 288,
            "target" : 34962
        },
        {
            "buffer" : 0,
            "byteLength" : 192,
            "byteOffset" : 576,
            "target" : 34962
        },
        {
            "buffer" : 0,
            "byteLength" : 288,
            "byteOffset" : 768,
            "target" : 34962
        },
        {
            "buffer" : 0,
            "byteLength" : 72,
            "byteOffset" : 1056,
            "target" : 34963
        },
        {
            "buffer" : 0,
            "byteLength" : 96,
            "byteOffset" : 1128,
            "target" : 34962
        },
        {
            "buffer" : 0,
            "byteLength" : 192,
            "byteOffset" : 1224,
            "target" : 34962
        },
        {
            "buffer" : 0,
            "byteLength" : 288,
            "byteOffset" : 1416,
            "target" : 34962
        },
        {
            "buffer" : 0,
            "byteLength" : 192,
            "byteOffset" : 1704,
            "target" : 34962
        },
        {
            "buffer" : 0,
            "byteLength" : 288,
            "byteOffset" : 1896,
            "target" : 34962
        },
        {
            "buffer" : 0,
            "byteLength" : 96,
            "byteOffset" : 2184,
            "target" : 34962
        },
        {
            "buffer" : 0,
            "byteLength" : 192,
            "byteOffset" : 2280,
            "target" : 34962
        },
        {
            "buffer" : 0,
            "byteLength" : 288,
            "byteOffset" : 2472,
            "target" : 34962
        },
        {
            "buffer" : 0,
            "byteLength" : 192,
            "byteOffset" : 2760,
            "target" : 34962
        },
        {
            "buffer" : 0,
            "byteLength" : 288,
            "byteOffset" : 2952,
            "target" : 34962
        },
        {
            "buffer" : 0,
            "byteLength" : 48,
            "byteOffset" : 3240,
            "target" : 34963
        }
    ],
    "buffers" : [
        {
            "byteLength" : 3288,
            "uri" : "data:application/octet-stream;base64,"
        }
    ]
}
