{
	"asset":{
		"generator":"Khronos glTF Blender I/O v3.5.21",
		"version":"2.0"
	},
	"scene":0,
	"scenes":[
		{
			"extras":{
				"t3dExportOnSave__":1,
				"t3dExportFormat__":2,
				"t3dCollections__":{
					"Collection":{
						"objects":[
							"Cone"
						],
						"offset":[
							0.0,
							0.0,
							0.0
						]
					},
					"Cone":{
						"objects":[
							"Cone"
						],
						"offset":[
							0.0,
							0.0,
							1.0
						]
					}
				},
				"t3dWorlds__":{
					"World":{
						"ambient color":[
							0.05087608844041824,
							0.05087608844041824,
							0.05087608844041824,
							1.0
						],
						"ambient energy":1.0
					}
				},
				"t3dCurrentWorld__":"World"
			},
			"name":"Scene",
			"nodes":[
				0
			]
		}
	],
	"nodes":[
		{
			"extras":{
				"t3dOriginalLocalPosition__":[
					0.0,
					0.0,
					1.0
				]
			},
			"mesh":0,
			"name":"Cone",
			"translation":[
				0,
				1,
				0
			]
		}
	],
	"materials":[
		{
			"extras":{
				"t3dMaterialColor__":[
					0.0,
					0.2756783962249756,
					1.0,
					1.0
				],
				"t3dMaterialShadeless__":0
			},
			"name":"Cone",
			"pbrMetallicRoughness":{
				"baseColorFactor":[
					0.800000011920929,
					0.800000011920929,
					0.800000011920929,
					1
				],
				"metallicFactor":0,
				"roughnessFactor":0.5
			}
		}
	],
	"meshes":[
		{
			"name":"Cylinder",
			"primitives":[
				{
					"attributes":{
						"POSITION":0,
						"TEXCOORD_0":1,
						"NORMAL":2
					},
					"indices":3,
					"material":0
				}
			]
		}
	],
	"accessors":[
		{
			"bufferView":0,
			"componentType":5126,
			"count":128,
			"max":[
				1,
				1,
				1
			],
			"min":[
				-1,
				-1,
				-1
			],
			"type":"VEC3"
		},
		{
			"bufferView":1,
			"componentType":5126,
			"count":128,
			"type":"VEC2"
		},
		{
			"bufferView":2,
			"componentType":5126,
			"count":128,
			"type":"VEC3"
		},
		{
			"bufferView":3,
			"componentType":5123,
			"count":186,
			"type":"SCALAR"
		}
	],
	"bufferViews":[
		{
			"buffer":0,
			"byteLength":1536,
			"byteOffset":0,
			"target":34962
		},
		{
			"buffer":0,
			"byteLength":1024,
			"byteOffset":1536,
			"target":34962
		},
		{
			"buffer":0,
			"byteLength":1536,
			"byteOffset":2560,
			"target":34962
		},
		{
			"buffer":0,
			"byteLength":372,
			"byteOffset":4096,
			"target":34963
		}
	],
	"buffers":[
		{
			"byteLength":4468,
			"uri":"data:application/octet-stream;base64,"
		}
	]
}
