{
    "asset" : {
        "generator" : "Khronos glTF Blender I/O v3.2.43",
        "version" : "2.0"
    },
    "extensionsUsed" : [
        "KHR_lights_punctual"
    ],
    "extensionsRequired" : [
        "KHR_lights_punctual"
    ],
    "extensions" : {
        "KHR_lights_punctual" : {
            "lights" : [
                {
                    "color" : [
                        1,
                        1,
                        1
                    ],
                    "intensity" : 1000,
                    "type" : "point",
                    "name" : "Point"
                }
            ]
        }
    },
    "scene" : 0,
    "scenes" : [
        {
            "extras" : {
                "t3dExportFormat__" : 2,
                "t3dExportLights__" : 1,
                "t3dExportCameras__" : 1,
                "t3dExportOnSave__" : 1,
                "t3dCollections__" : {
                    "Collection" : {
                        "objects" : [
                            "White",
                            "Point",
                            "Red",
                            "Blue",
                            "Green"
                        ],
                        "offset" : [
                            0.0,
                            0.0,
                            0.0
                        ]
                    }
                },
                "t3dWorlds__" : {
                    "Blue" : {
                        "ambient color" : [
                            0.05968013405799866,
                            0.38171160221099854,
                            0.9404063820838928,
                            1.0
                        ],
                        "ambient energy" : 1.0,
                        "clear color" : [
                            0.29989093542099,
                            0.24716000258922577,
                            1.0,
                            1.0
                        ],
                        "fog mode" : "OVERWRITE",
                        "fog color" : [
                            0.02673307992517948,
                            0.2489050030708313,
                            0.7742730975151062,
                            1.0
                        ],
                        "fog range start" : 0.11363636702299118,
                        "fog range end" : 0.5038167834281921
                    },
                    "Bright" : {
                        "ambient color" : [
                            0.9403939843177795,
                            0.9403939843177795,
                            0.9403939843177795,
                            1.0
                        ],
                        "ambient energy" : 1.0,
                        "clear color" : [
                            0.09534817188978195,
                            1.0,
                            0.13745999336242676,
                            1.0
                        ],
                        "fog range end" : 0.5038167834281921
                    },
                    "Dark" : {
                        "ambient color" : [
                            0.0,
                            0.0,
                            0.0,
                            1.0
                        ],
                        "ambient energy" : 1.0,
                        "clear color" : [
                            0.0,
                            0.0,
                            0.0,
                            1.0
                        ],
                        "fog mode" : "MULTIPLY",
                        "fog range start" : 0.3712121248245239,
                        "fog range end" : 1.0
                    },
                    "Red" : {
                        "ambient color" : [
                            0.9404014945030212,
                            0.08838905394077301,
                            0.027002613991498947,
                            1.0
                        ],
                        "ambient energy" : 0.5,
                        "clear color" : [
                            0.0,
                            0.0,
                            0.0,
                            1.0
                        ],
                        "fog mode" : "OFF",
                        "fog color" : [
                            1.0,
                            0.0010483220685273409,
                            0.0,
                            1.0
                        ],
                        "fog range end" : 0.5038167834281921
                    }
                },
                "t3dCurrentWorld__" : "Red"
            },
            "name" : "Scene",
            "nodes" : [
                0,
                1,
                2,
                3,
                4,
                5
            ]
        }
    ],
    "nodes" : [
        {
            "extras" : {
                "t3dOriginalLocalPosition__" : [
                    0.0,
                    0.0,
                    0.0
                ]
            },
            "mesh" : 0,
            "name" : "Plane"
        },
        {
            "extras" : {
                "t3dOriginalLocalPosition__" : [
                    -3.535533905029297,
                    -3.535533905029297,
                    1.0
                ]
            },
            "mesh" : 1,
            "name" : "White",
            "rotation" : [
                0,
                0.3826834559440613,
                0,
                0.9238795638084412
            ],
            "translation" : [
                -3.535533905029297,
                1,
                3.535533905029297
            ]
        },
        {
            "extensions" : {
                "KHR_lights_punctual" : {
                    "light" : 0
                }
            },
            "extras" : {
                "t3dOriginalLocalPosition__" : [
                    -0.12517011165618896,
                    1.5716638565063477,
                    4.354697227478027
                ]
            },
            "name" : "Point",
            "rotation" : [
                -0.7071068286895752,
                0,
                0,
                0.7071068286895752
            ],
            "translation" : [
                -0.12517011165618896,
                4.354697227478027,
                -1.5716638565063477
            ]
        },
        {
            "extras" : {
                "t3dOriginalLocalPosition__" : [
                    -3.535533905029297,
                    3.535533905029297,
                    1.0
                ]
            },
            "mesh" : 2,
            "name" : "Red",
            "rotation" : [
                0,
                0.3826834559440613,
                0,
                0.9238795638084412
            ],
            "translation" : [
                -3.535533905029297,
                1,
                -3.535533905029297
            ]
        },
        {
            "extras" : {
                "t3dOriginalLocalPosition__" : [
                    3.535533905029297,
                    3.535533905029297,
                    1.0
                ]
            },
            "mesh" : 3,
            "name" : "Blue",
            "rotation" : [
                0,
                0.3826834559440613,
                0,
                0.9238795638084412
            ],
            "translation" : [
                3.535533905029297,
                1,
                -3.535533905029297
            ]
        },
        {
            "extras" : {
                "t3dOriginalLocalPosition__" : [
                    3.535533905029297,
                    -3.535533905029297,
                    1.0
                ]
            },
            "mesh" : 4,
            "name" : "Green",
            "rotation" : [
                0,
                0.3826834559440613,
                0,
                0.9238795638084412
            ],
            "translation" : [
                3.535533905029297,
                1,
                3.535533905029297
            ]
        }
    ],
    "materials" : [
        {
            "extras" : {
                "t3dMaterialShadeless__" : 0
            },
            "name" : "Vertex Coloring",
            "pbrMetallicRoughness" : {
                "metallicFactor" : 0,
                "roughnessFactor" : 0
            }
        }
    ],
    "meshes" : [
        {
            "extras" : {
                "t3dVertexColorNames__" : []
            },
            "name" : "Plane",
            "primitives" : [
                {
                    "attributes" : {
                        "POSITION" : 0,
                        "NORMAL" : 1,
                        "TEXCOORD_0" : 2
                    },
                    "indices" : 3
                }
            ]
        },
        {
            "extras" : {
                "t3dVertexColorNames__" : [
                    "Col"
                ]
            },
            "name" : "Cube",
            "primitives" : [
                {
                    "attributes" : {
                        "POSITION" : 4,
                        "NORMAL" : 5,
                        "TEXCOORD_0" : 6,
                        "COLOR_0" : 7
                    },
                    "indices" : 8,
                    "material" : 0
                }
            ]
        },
        {
            "extras" : {
                "t3dVertexColorNames__" : [
                    "Col"
                ]
            },
            "name" : "Cube.002",
            "primitives" : [
                {
                    "attributes" : {
                        "POSITION" : 9,
                        "NORMAL" : 10,
                        "TEXCOORD_0" : 11,
                        "COLOR_0" : 12
                    },
                    "indices" : 8,
                    "material" : 0
                }
            ]
        },
        {
            "extras" : {
                "t3dVertexColorNames__" : [
                    "Col"
                ]
            },
            "name" : "Cube.003",
            "primitives" : [
                {
                    "attributes" : {
                        "POSITION" : 13,
                        "NORMAL" : 14,
                        "TEXCOORD_0" : 15,
                        "COLOR_0" : 16
                    },
                    "indices" : 8,
                    "material" : 0
                }
            ]
        },
        {
            "extras" : {
                "t3dVertexColorNames__" : [
                    "Col"
                ]
            },
            "name" : "Cube.004",
            "primitives" : [
                {
                    "attributes" : {
                        "POSITION" : 17,
                        "NORMAL" : 18,
                        "TEXCOORD_0" : 19,
                        "COLOR_0" : 20
                    },
                    "indices" : 8,
                    "material" : 0
                }
            ]
        }
    ],
    "accessors" : [
        {
            "bufferView" : 0,
            "componentType" : 5126,
            "count" : 219,
            "max" : [
                16,
                0,
                16
            ],
            "min" : [
                -16,
                0,
                -16
            ],
            "type" : "VEC3"
        },
        {
            "bufferView" : 1,
            "componentType" : 5126,
            "count" : 219,
            "type" : "VEC3"
        },
        {
            "bufferView" : 2,
            "componentType" : 5126,
            "count" : 219,
            "type" : "VEC2"
        },
        {
            "bufferView" : 3,
            "componentType" : 5123,
            "count" : 864,
            "type" : "SCALAR"
        },
        {
            "bufferView" : 4,
            "componentType" : 5126,
            "count" : 24,
            "max" : [
                1,
                1,
                1
            ],
            "min" : [
                -1,
                -1,
                -1
            ],
            "type" : "VEC3"
        },
        {
            "bufferView" : 5,
            "componentType" : 5126,
            "count" : 24,
            "type" : "VEC3"
        },
        {
            "bufferView" : 6,
            "componentType" : 5126,
            "count" : 24,
            "type" : "VEC2"
        },
        {
            "bufferView" : 7,
            "componentType" : 5123,
            "count" : 24,
            "normalized" : true,
            "type" : "VEC4"
        },
        {
            "bufferView" : 8,
            "componentType" : 5123,
            "count" : 36,
            "type" : "SCALAR"
        },
        {
            "bufferView" : 9,
            "componentType" : 5126,
            "count" : 24,
            "max" : [
                1,
                1,
                1
            ],
            "min" : [
                -1,
                -1,
                -1
            ],
            "type" : "VEC3"
        },
        {
            "bufferView" : 10,
            "componentType" : 5126,
            "count" : 24,
            "type" : "VEC3"
        },
        {
            "bufferView" : 11,
            "componentType" : 5126,
            "count" : 24,
            "type" : "VEC2"
        },
        {
            "bufferView" : 12,
            "componentType" : 5123,
            "count" : 24,
            "normalized" : true,
            "type" : "VEC4"
        },
        {
            "bufferView" : 13,
            "componentType" : 5126,
            "count" : 24,
            "max" : [
                1,
                1,
                1
            ],
            "min" : [
                -1,
                -1,
                -1
            ],
            "type" : "VEC3"
        },
        {
            "bufferView" : 14,
            "componentType" : 5126,
            "count" : 24,
            "type" : "VEC3"
        },
        {
            "bufferView" : 15,
            "componentType" : 5126,
            "count" : 24,
            "type" : "VEC2"
        },
        {
            "bufferView" : 16,
            "componentType" : 5123,
            "count" : 24,
            "normalized" : true,
            "type" : "VEC4"
        },
        {
            "bufferView" : 17,
            "componentType" : 5126,
            "count" : 24,
            "max" : [
                1,
                1,
                1
            ],
            "min" : [
                -1,
                -1,
                -1
            ],
            "type" : "VEC3"
        },
        {
            "bufferView" : 18,
            "componentType" : 5126,
            "count" : 24,
            "type" : "VEC3"
        },
        {
            "bufferView" : 19,
            "componentType" : 5126,
            "count" : 24,
            "type" : "VEC2"
        },
        {
            "bufferView" : 20,
            "componentType" : 5123,
            "count" : 24,
            "normalized" : true,
            "type" : "VEC4"
        }
    ],
    "bufferViews" : [
        {
            "buffer" : 0,
            "byteLength" : 2628,
            "byteOffset" : 0
        },
        {
            "buffer" : 0,
            "byteLength" : 2628,
            "byteOffset" : 2628
        },
        {
            "buffer" : 0,
            "byteLength" : 1752,
            "byteOffset" : 5256
        },
        {
            "buffer" : 0,
            "byteLength" : 1728,
            "byteOffset" : 7008
        },
        {
            "buffer" : 0,
            "byteLength" : 288,
            "byteOffset" : 8736
        },
        {
            "buffer" : 0,
            "byteLength" : 288,
            "byteOffset" : 9024
        },
        {
            "buffer" : 0,
            "byteLength" : 192,
            "byteOffset" : 9312
        },
        {
            "buffer" : 0,
            "byteLength" : 192,
            "byteOffset" : 9504
        },
        {
            "buffer" : 0,
            "byteLength" : 72,
            "byteOffset" : 9696
        },
        {
            "buffer" : 0,
            "byteLength" : 288,
            "byteOffset" : 9768
        },
        {
            "buffer" : 0,
            "byteLength" : 288,
            "byteOffset" : 10056
        },
        {
            "buffer" : 0,
            "byteLength" : 192,
            "byteOffset" : 10344
        },
        {
            "buffer" : 0,
            "byteLength" : 192,
            "byteOffset" : 10536
        },
        {
            "buffer" : 0,
            "byteLength" : 288,
            "byteOffset" : 10728
        },
        {
            "buffer" : 0,
            "byteLength" : 288,
            "byteOffset" : 11016
        },
        {
            "buffer" : 0,
            "byteLength" : 192,
            "byteOffset" : 11304
        },
        {
            "buffer" : 0,
            "byteLength" : 192,
            "byteOffset" : 11496
        },
        {
            "buffer" : 0,
            "byteLength" : 288,
            "byteOffset" : 11688
        },
        {
            "buffer" : 0,
            "byteLength" : 288,
            "byteOffset" : 11976
        },
        {
            "buffer" : 0,
            "byteLength" : 192,
            "byteOffset" : 12264
        },
        {
            "buffer" : 0,
            "byteLength" : 192,
            "byteOffset" : 12456
        }
    ],
    "buffers" : [
        {
            "byteLength" : 12648,
            "uri" : "data:application/octet-stream;base64,"
        }
    ]
}
