{
	"asset":{
		"generator":"Khronos glTF Blender I/O v3.5.21",
		"version":"2.0"
	},
	"extensionsUsed":[
		"KHR_lights_punctual"
	],
	"extensionsRequired":[
		"KHR_lights_punctual"
	],
	"extensions":{
		"KHR_lights_punctual":{
			"lights":[
				{
					"color":[
						1,
						1,
						1
					],
					"intensity":318.3098861837907,
					"type":"point",
					"name":"Light"
				}
			]
		}
	},
	"scene":0,
	"scenes":[
		{
			"extras":{
				"t3dExportOnSave__":1,
				"t3dExportFormat__":2,
				"t3dExpandOverrideProps__":1,
				"t3dCollections__":{
					"Collection":{
						"objects":[
							"Cube",
							"Light",
							"Camera",
							"Cone",
							"Cone.001",
							"Cone.002",
							"Cone.003"
						],
						"offset":[
							0.0,
							0.0,
							0.0
						]
					},
					"Cone":{
						"objects":[
							"Cone"
						],
						"offset":[
							0.0,
							0.0,
							1.0
						],
						"path":"//cone.blend"
					}
				},
				"t3dWorlds__":{
					"World":{
						"ambient color":[
							0.05087608844041824,
							0.05087608844041824,
							0.05087608844041824,
							1.0
						],
						"ambient energy":1.0
					}
				},
				"t3dCurrentWorld__":"World"
			},
			"name":"Scene",
			"nodes":[
				0,
				1,
				2,
				3,
				4,
				5,
				6
			]
		}
	],
	"nodes":[
		{
			"extras":{
				"t3dGameProperties__":[],
				"t3dOriginalLocalPosition__":[
					-2.0,
					0.0,
					0.0
				]
			},
			"mesh":0,
			"name":"Cube",
			"translation":[
				-2,
				0,
				0
			]
		},
		{
			"extensions":{
				"KHR_lights_punctual":{
					"light":0
				}
			},
			"extras":{
				"t3dOriginalLocalPosition__":[
					4.076245307922363,
					1.0054539442062378,
					5.903861999511719
				]
			},
			"name":"Light",
			"rotation":[
				-0.28416627645492554,
				0.7269423007965088,
				0.34203392267227173,
				0.5232754945755005
			],
			"translation":[
				4.076245307922363,
				5.903861999511719,
				-1.0054539442062378
			]
		},
		{
			"camera":0,
			"extras":{
				"t3dOriginalLocalPosition__":[
					0.0,
					-12.718420028686523,
					12.718420028686523
				]
			},
			"name":"Camera",
			"rotation":[
				-0.3826834261417389,
				0,
				0,
				0.9238795638084412
			],
			"translation":[
				0,
				12.718420028686523,
				12.718420028686523
			]
		},
		{
			"extras":{
				"t3dOriginalLocalPosition__":[
					3.0,
					-1.0,
					0.0
				],
				"t3dInstanceCollection__":"Cone"
			},
			"name":"Cone",
			"translation":[
				3,
				0,
				1
			]
		},
		{
			"extras":{
				"t3dOriginalLocalPosition__":[
					3.0,
					3.0,
					0.0
				],
				"t3dInstanceCollection__":"Cone"
			},
			"name":"Cone.001",
			"translation":[
				3,
				0,
				-3
			]
		},
		{
			"extras":{
				"t3dOriginalLocalPosition__":[
					1.0,
					1.0,
					0.0
				],
				"t3dInstanceCollection__":"Cone"
			},
			"name":"Cone.002",
			"translation":[
				1,
				0,
				-1
			]
		},
		{
			"extras":{
				"t3dOriginalLocalPosition__":[
					5.0,
					1.0,
					0.0
				],
				"t3dInstanceCollection__":"Cone"
			},
			"name":"Cone.003",
			"translation":[
				5,
				0,
				-1
			]
		}
	],
	"cameras":[
		{
			"name":"Camera",
			"perspective":{
				"aspectRatio":1.7777777777777777,
				"yfov":0.39959652046304894,
				"zfar":100,
				"znear":0.10000000149011612
			},
			"type":"perspective"
		}
	],
	"materials":[
		{
			"extras":{
				"t3dMaterialShadeless__":0,
				"t3dMaterialColor__":[
					0.04034477099776268,
					0.21463240683078766,
					1.0,
					1.0
				]
			},
			"name":"Material",
			"pbrMetallicRoughness":{
				"baseColorFactor":[
					0.800000011920929,
					0.800000011920929,
					0.800000011920929,
					1
				],
				"metallicFactor":0,
				"roughnessFactor":0.5
			}
		}
	],
	"meshes":[
		{
			"name":"Cube",
			"primitives":[
				{
					"attributes":{
						"POSITION":0,
						"TEXCOORD_0":1,
						"NORMAL":2
					},
					"indices":3,
					"material":0
				}
			]
		}
	],
	"accessors":[
		{
			"bufferView":0,
			"componentType":5126,
			"count":24,
			"max":[
				1,
				1,
				1
			],
			"min":[
				-1,
				-1,
				-1
			],
			"type":"VEC3"
		},
		{
			"bufferView":1,
			"componentType":5126,
			"count":24,
			"type":"VEC2"
		},
		{
			"bufferView":2,
			"componentType":5126,
			"count":24,
			"type":"VEC3"
		},
		{
			"bufferView":3,
			"componentType":5123,
			"count":36,
			"type":"SCALAR"
		}
	],
	"bufferViews":[
		{
			"buffer":0,
			"byteLength":288,
			"byteOffset":0,
			"target":34962
		},
		{
			"buffer":0,
			"byteLength":192,
			"byteOffset":288,
			"target":34962
		},
		{
			"buffer":0,
			"byteLength":288,
			"byteOffset":480,
			"target":34962
		},
		{
			"buffer":0,
			"byteLength":72,
			"byteOffset":768,
			"target":34963
		}
	],
	"buffers":[
		{
			"byteLength":840,
			"uri":"data:application/octet-stream;base64,"
		}
	]
}
