{
	"asset":{
		"generator":"Khronos glTF Blender I/O v3.5.21",
		"version":"2.0"
	},
	"extensionsUsed":[
		"KHR_lights_punctual"
	],
	"extensionsRequired":[
		"KHR_lights_punctual"
	],
	"extensions":{
		"KHR_lights_punctual":{
			"lights":[
				{
					"color":[
						1,
						1,
						1
					],
					"intensity":79.57747154594767,
					"type":"point",
					"name":"Light"
				}
			]
		}
	},
	"scene":0,
	"scenes":[
		{
			"extras":{
				"t3dExportFormat__":2,
				"t3dExportOnSave__":1,
				"t3dRenderResolutionH__":360,
				"t3dCollections__":{
					"Collection":{
						"objects":[
							"Cube",
							"Light",
							"Shallow",
							"Cube.001",
							"Cube.002",
							"Orthographic",
							"Wide Angle",
							"Cube.003",
							"Cube.004",
							"Cube.005",
							"Super Wide Angle",
							"Cube.006",
							"Cube.007"
						],
						"offset":[
							0.0,
							0.0,
							0.0
						]
					}
				},
				"t3dWorlds__":{
					"World":{
						"ambient color":[
							0.05087608844041824,
							0.05087608844041824,
							0.05087608844041824,
							1.0
						],
						"ambient energy":1.0
					}
				},
				"t3dCurrentWorld__":"World"
			},
			"name":"Scene",
			"nodes":[
				0,
				1,
				2,
				3,
				4,
				5,
				6,
				7,
				8,
				9,
				10,
				11,
				12
			]
		}
	],
	"nodes":[
		{
			"extras":{
				"t3dOriginalLocalPosition__":[
					4.25,
					0.0,
					0.0
				]
			},
			"mesh":0,
			"name":"Cube",
			"translation":[
				4.25,
				0,
				0
			]
		},
		{
			"extensions":{
				"KHR_lights_punctual":{
					"light":0
				}
			},
			"extras":{
				"t3dOriginalLocalPosition__":[
					-0.03555774688720703,
					-3.2212681770324707,
					1.8544291257858276
				]
			},
			"name":"Light",
			"rotation":[
				-0.28416627645492554,
				0.7269423007965088,
				0.34203392267227173,
				0.5232754945755005
			],
			"translation":[
				-0.03555774688720703,
				1.8544291257858276,
				3.2212681770324707
			]
		},
		{
			"camera":0,
			"extras":{
				"t3dFovY__":0.6911112070083618,
				"t3dOriginalLocalPosition__":[
					0.0,
					-15.501559257507324,
					-2.416654069747892e-06
				]
			},
			"name":"Shallow",
			"translation":[
				0,
				-2.416654069747892e-06,
				15.501559257507324
			]
		},
		{
			"extras":{
				"t3dOriginalLocalPosition__":[
					-4.25,
					0.0,
					0.0
				]
			},
			"mesh":0,
			"name":"Cube.001",
			"translation":[
				-4.25,
				0,
				0
			]
		},
		{
			"extras":{
				"t3dOriginalLocalPosition__":[
					0.0,
					0.0,
					0.0
				]
			},
			"mesh":0,
			"name":"Cube.002"
		},
		{
			"camera":1,
			"extras":{
				"t3dFovY__":0.6911112070083618,
				"t3dOriginalLocalPosition__":[
					0.0,
					-15.986564636230469,
					-2.416654069747892e-06
				]
			},
			"name":"Orthographic",
			"translation":[
				0,
				-2.416654069747892e-06,
				15.986564636230469
			]
		},
		{
			"camera":2,
			"extras":{
				"t3dFovY__":1.8901524543762207,
				"t3dOriginalLocalPosition__":[
					0.0,
					-5.786786079406738,
					-2.416654069747892e-06
				]
			},
			"name":"Wide Angle",
			"translation":[
				0,
				-2.416654069747892e-06,
				5.786786079406738
			]
		},
		{
			"extras":{
				"t3dOriginalLocalPosition__":[
					3.0,
					-3.0,
					0.0
				]
			},
			"mesh":0,
			"name":"Cube.003",
			"scale":[
				0.5,
				0.5,
				0.5
			],
			"translation":[
				3,
				0,
				3
			]
		},
		{
			"extras":{
				"t3dOriginalLocalPosition__":[
					-3.0,
					-3.0,
					0.0
				]
			},
			"mesh":0,
			"name":"Cube.004",
			"scale":[
				0.5,
				0.5,
				0.5
			],
			"translation":[
				-3,
				0,
				3
			]
		},
		{
			"extras":{
				"t3dOriginalLocalPosition__":[
					0.0,
					0.0,
					3.0
				]
			},
			"mesh":1,
			"name":"Cube.005",
			"translation":[
				0,
				3,
				0
			]
		},
		{
			"camera":3,
			"extras":{
				"t3dFovY__":1.8901524543762207,
				"t3dOriginalLocalPosition__":[
					0.0,
					-4.786786079406738,
					-2.416654069747892e-06
				]
			},
			"name":"Super Wide Angle",
			"translation":[
				0,
				-2.416654069747892e-06,
				4.786786079406738
			]
		},
		{
			"extras":{
				"t3dOriginalLocalPosition__":[
					-2.0,
					-5.0,
					0.0
				]
			},
			"mesh":0,
			"name":"Cube.006",
			"scale":[
				0.5,
				0.5,
				0.5
			],
			"translation":[
				-2,
				0,
				5
			]
		},
		{
			"extras":{
				"t3dOriginalLocalPosition__":[
					1.9999998807907104,
					-5.0,
					0.0
				]
			},
			"mesh":0,
			"name":"Cube.007",
			"scale":[
				0.5,
				0.5,
				0.5
			],
			"translation":[
				1.9999998807907104,
				0,
				5
			]
		}
	],
	"cameras":[
		{
			"extras":{
				"t3dFOV__":23
			},
			"name":"Shallow",
			"perspective":{
				"aspectRatio":1.7777777777777777,
				"yfov":0.40142571174612823,
				"zfar":100,
				"znear":0.10000000149011612
			},
			"type":"perspective"
		},
		{
			"name":"Orthographic",
			"orthographic":{
				"xmag":5.25,
				"ymag":2.953125,
				"zfar":21.70000457763672,
				"znear":0.10000000149011612
			},
			"type":"orthographic"
		},
		{
			"extras":{
				"t3dFOV__":90
			},
			"name":"Wide",
			"perspective":{
				"aspectRatio":1.7777777777777777,
				"yfov":1.5707962410233096,
				"zfar":100,
				"znear":0.10000000149011612
			},
			"type":"perspective"
		},
		{
			"extras":{
				"t3dFOV__":90
			},
			"name":"Super Wide Angle",
			"perspective":{
				"aspectRatio":1.7777777777777777,
				"yfov":2.6354470672831827,
				"zfar":100,
				"znear":0.10000000149011612
			},
			"type":"perspective"
		}
	],
	"materials":[
		{
			"extras":{
				"t3dMaterialShadeless__":0
			},
			"name":"Material",
			"pbrMetallicRoughness":{
				"baseColorFactor":[
					0.800000011920929,
					0.800000011920929,
					0.800000011920929,
					1
				],
				"metallicFactor":0,
				"roughnessFactor":0.5
			}
		}
	],
	"meshes":[
		{
			"name":"Cube",
			"primitives":[
				{
					"attributes":{
						"POSITION":0,
						"TEXCOORD_0":1,
						"NORMAL":2
					},
					"indices":3,
					"material":0
				}
			]
		},
		{
			"name":"Cube.001",
			"primitives":[
				{
					"attributes":{
						"POSITION":4,
						"TEXCOORD_0":5,
						"NORMAL":6
					},
					"indices":3,
					"material":0
				}
			]
		}
	],
	"accessors":[
		{
			"bufferView":0,
			"componentType":5126,
			"count":24,
			"max":[
				1,
				1,
				1
			],
			"min":[
				-1,
				-1,
				-1
			],
			"type":"VEC3"
		},
		{
			"bufferView":1,
			"componentType":5126,
			"count":24,
			"type":"VEC2"
		},
		{
			"bufferView":2,
			"componentType":5126,
			"count":24,
			"type":"VEC3"
		},
		{
			"bufferView":3,
			"componentType":5123,
			"count":36,
			"type":"SCALAR"
		},
		{
			"bufferView":4,
			"componentType":5126,
			"count":24,
			"max":[
				0.5,
				0.5,
				0.5
			],
			"min":[
				-0.5,
				-0.5,
				-0.5
			],
			"type":"VEC3"
		},
		{
			"bufferView":5,
			"componentType":5126,
			"count":24,
			"type":"VEC2"
		},
		{
			"bufferView":6,
			"componentType":5126,
			"count":24,
			"type":"VEC3"
		}
	],
	"bufferViews":[
		{
			"buffer":0,
			"byteLength":288,
			"byteOffset":0,
			"target":34962
		},
		{
			"buffer":0,
			"byteLength":192,
			"byteOffset":288,
			"target":34962
		},
		{
			"buffer":0,
			"byteLength":288,
			"byteOffset":480,
			"target":34962
		},
		{
			"buffer":0,
			"byteLength":72,
			"byteOffset":768,
			"target":34963
		},
		{
			"buffer":0,
			"byteLength":288,
			"byteOffset":840,
			"target":34962
		},
		{
			"buffer":0,
			"byteLength":192,
			"byteOffset":1128,
			"target":34962
		},
		{
			"buffer":0,
			"byteLength":288,
			"byteOffset":1320,
			"target":34962
		}
	],
	"buffers":[
		{
			"byteLength":1608,
			"uri":"data:application/octet-stream;base64,"
		}
	]
}
