{
	"asset":{
		"generator":"Khronos glTF Blender I/O v3.5.21",
		"version":"2.0"
	},
	"extensionsUsed":[
		"KHR_lights_punctual"
	],
	"extensionsRequired":[
		"KHR_lights_punctual"
	],
	"extensions":{
		"KHR_lights_punctual":{
			"lights":[
				{
					"color":[
						1,
						1,
						1
					],
					"intensity":79.57747154594767,
					"type":"point",
					"name":"Light"
				}
			]
		}
	},
	"scene":0,
	"scenes":[
		{
			"extras":{
				"t3dExportOnSave__":1,
				"t3dExportFormat__":2,
				"t3dCollections__":{
					"Collection":{
						"objects":[
							"Light",
							"Camera",
							"Cube.001",
							"Screen"
						],
						"offset":[
							0.0,
							0.0,
							0.0
						]
					}
				},
				"t3dWorlds__":{
					"World":{
						"ambient color":[
							0.05087608844041824,
							0.05087608844041824,
							0.05087608844041824,
							1.0
						],
						"ambient energy":1.0
					}
				},
				"t3dCurrentWorld__":"World"
			},
			"name":"Scene",
			"nodes":[
				0,
				1,
				2,
				3
			]
		}
	],
	"nodes":[
		{
			"extensions":{
				"KHR_lights_punctual":{
					"light":0
				}
			},
			"extras":{
				"t3dOriginalLocalPosition__":[
					4.076245307922363,
					1.0054539442062378,
					5.903861999511719
				]
			},
			"name":"Light",
			"rotation":[
				-0.28416627645492554,
				0.7269423007965088,
				0.34203392267227173,
				0.5232754945755005
			],
			"translation":[
				4.076245307922363,
				5.903861999511719,
				-1.0054539442062378
			]
		},
		{
			"camera":0,
			"extras":{
				"t3dOriginalLocalPosition__":[
					2.908250093460083,
					-0.1067499965429306,
					10.364105224609375
				]
			},
			"name":"Camera",
			"rotation":[
				-0.7071068286895752,
				0,
				0,
				0.7071068286895752
			],
			"translation":[
				2.908250093460083,
				10.364105224609375,
				0.1067499965429306
			]
		},
		{
			"extras":{
				"t3dOriginalLocalPosition__":[
					-1.2316889762878418,
					2.712953630634729e-07,
					-2.0191850662231445
				]
			},
			"mesh":0,
			"name":"Cube.001",
			"translation":[
				-1.2316889762878418,
				-2.0191850662231445,
				0
			]
		},
		{
			"extras":{
				"t3dOriginalLocalPosition__":[
					-1.0,
					0.0,
					0.22010883688926697
				]
			},
			"mesh":1,
			"name":"Screen",
			"translation":[
				-1,
				0.22010883688926697,
				0
			]
		}
	],
	"cameras":[
		{
			"name":"Camera",
			"perspective":{
				"aspectRatio":1.7777777777777777,
				"yfov":0.39959652046304894,
				"zfar":100,
				"znear":0.10000000149011612
			},
			"type":"perspective"
		}
	],
	"materials":[
		{
			"extras":{
				"t3dMaterialShadeless__":0
			},
			"name":"VertexColor",
			"pbrMetallicRoughness":{
				"metallicFactor":0,
				"roughnessFactor":0.5
			}
		},
		{
			"extras":{
				"t3dMaterialShadeless__":1,
				"t3dMaterialColor__":[
					1.0,
					1.0,
					1.0,
					1.0
				]
			},
			"name":"Text",
			"pbrMetallicRoughness":{
				"baseColorFactor":[
					0.800000011920929,
					0.800000011920929,
					0.800000011920929,
					1
				],
				"metallicFactor":0,
				"roughnessFactor":0.5
			}
		}
	],
	"meshes":[
		{
			"name":"Cube.001",
			"primitives":[
				{
					"attributes":{
						"POSITION":0,
						"TEXCOORD_0":1,
						"NORMAL":2
					},
					"indices":3,
					"material":0
				}
			]
		},
		{
			"extras":{
				"t3dVertexColorNames__":[
					"Col"
				],
				"t3dActiveVertexColorIndex__":0
			},
			"name":"Plane",
			"primitives":[
				{
					"attributes":{
						"COLOR_0":4,
						"POSITION":5,
						"TEXCOORD_0":6,
						"NORMAL":7
					},
					"indices":8,
					"material":0
				},
				{
					"attributes":{
						"COLOR_0":9,
						"POSITION":10,
						"TEXCOORD_0":11,
						"NORMAL":12
					},
					"indices":13,
					"material":1
				}
			]
		}
	],
	"accessors":[
		{
			"bufferView":0,
			"componentType":5126,
			"count":126,
			"max":[
				4.999999523162842,
				1,
				1
			],
			"min":[
				-5.000000476837158,
				-1,
				-1
			],
			"type":"VEC3"
		},
		{
			"bufferView":1,
			"componentType":5126,
			"count":126,
			"type":"VEC2"
		},
		{
			"bufferView":2,
			"componentType":5126,
			"count":126,
			"type":"VEC3"
		},
		{
			"bufferView":3,
			"componentType":5123,
			"count":432,
			"type":"SCALAR"
		},
		{
			"bufferView":4,
			"componentType":5123,
			"count":210,
			"normalized":true,
			"type":"VEC4"
		},
		{
			"bufferView":5,
			"componentType":5126,
			"count":210,
			"max":[
				2.200000047683716,
				1.1798912286758423,
				0.08579111844301224
			],
			"min":[
				-2.200000047683716,
				-1.2201088666915894,
				-0.20000000298023224
			],
			"type":"VEC3"
		},
		{
			"bufferView":6,
			"componentType":5126,
			"count":210,
			"type":"VEC2"
		},
		{
			"bufferView":7,
			"componentType":5126,
			"count":210,
			"type":"VEC3"
		},
		{
			"bufferView":8,
			"componentType":5123,
			"count":408,
			"type":"SCALAR"
		},
		{
			"bufferView":9,
			"componentType":5123,
			"count":34,
			"normalized":true,
			"type":"VEC4"
		},
		{
			"bufferView":10,
			"componentType":5126,
			"count":34,
			"max":[
				2.0999999046325684,
				1.0798912048339844,
				-0.10000000149011612
			],
			"min":[
				-2.1000001430511475,
				-1.1201088428497314,
				-0.10000000149011612
			],
			"type":"VEC3"
		},
		{
			"bufferView":11,
			"componentType":5126,
			"count":34,
			"type":"VEC2"
		},
		{
			"bufferView":12,
			"componentType":5126,
			"count":34,
			"type":"VEC3"
		},
		{
			"bufferView":13,
			"componentType":5123,
			"count":72,
			"type":"SCALAR"
		}
	],
	"bufferViews":[
		{
			"buffer":0,
			"byteLength":1512,
			"byteOffset":0,
			"target":34962
		},
		{
			"buffer":0,
			"byteLength":1008,
			"byteOffset":1512,
			"target":34962
		},
		{
			"buffer":0,
			"byteLength":1512,
			"byteOffset":2520,
			"target":34962
		},
		{
			"buffer":0,
			"byteLength":864,
			"byteOffset":4032,
			"target":34963
		},
		{
			"buffer":0,
			"byteLength":1680,
			"byteOffset":4896,
			"target":34962
		},
		{
			"buffer":0,
			"byteLength":2520,
			"byteOffset":6576,
			"target":34962
		},
		{
			"buffer":0,
			"byteLength":1680,
			"byteOffset":9096,
			"target":34962
		},
		{
			"buffer":0,
			"byteLength":2520,
			"byteOffset":10776,
			"target":34962
		},
		{
			"buffer":0,
			"byteLength":816,
			"byteOffset":13296,
			"target":34963
		},
		{
			"buffer":0,
			"byteLength":272,
			"byteOffset":14112,
			"target":34962
		},
		{
			"buffer":0,
			"byteLength":408,
			"byteOffset":14384,
			"target":34962
		},
		{
			"buffer":0,
			"byteLength":272,
			"byteOffset":14792,
			"target":34962
		},
		{
			"buffer":0,
			"byteLength":408,
			"byteOffset":15064,
			"target":34962
		},
		{
			"buffer":0,
			"byteLength":144,
			"byteOffset":15472,
			"target":34963
		}
	],
	"buffers":[
		{
			"byteLength":15616,
			"uri":"data:application/octet-stream;base64,"
		}
	]
}
