{
	"asset":{
		"generator":"Khronos glTF Blender I/O v4.0.44",
		"version":"2.0"
	},
	"extensionsUsed":[
		"KHR_materials_unlit"
	],
	"scene":1,
	"scenes":[
		{
			"extras":{
				"t3dExportOnSave__":true,
				"t3dExportFormat__":1,
				"t3dPackTextures__":true,
				"t3dExportLights__":true,
				"t3dCameraResolution__":[
					1920,
					1080
				],
				"t3dRenderResolutionW__":640,
				"t3dRenderResolutionH__":360,
				"t3dExportFilepath__":"",
				"t3dExportCameras__":true,
				"t3dSectorRendering__":false,
				"t3dSectorRenderDepth__":0,
				"t3dPlaybackFPS__":60,
				"t3dAnimationSampling__":true,
				"t3dAnimationInterpolation__":true,
				"t3dMaxLightCount__":0,
				"t3dSectorDetection__":0,
				"t3dPerspectiveCorrectedTextureMapping__":false,
				"t3dCollections__":{
					"Collection":{
						"objects":[
							"Cube",
							"Suzanne",
							"Sphere",
							"Crates",
							"Triangle",
							"Hallway",
							"Plane",
							"Ground",
							"Camera",
							"Cube.006"
						],
						"offset":[
							0.0,
							0.0,
							0.0
						]
					},
					"Collection 1":{
						"objects":[
							"Cube.002",
							"Cube.003",
							"Cube.004",
							"Cube.005"
						],
						"offset":[
							0.0,
							0.0,
							0.0
						]
					}
				},
				"t3dWorlds__":{
					"World":{
						"ambient color":[
							0.05087608844041824,
							0.05087608844041824,
							0.05087608844041824,
							1.0
						],
						"ambient energy":1.0,
						"clear color":[
							0.007000000216066837,
							0.00800000037997961,
							0.009999999776482582,
							1.0
						],
						"fog mode":"OFF",
						"dithered transparency":0.0,
						"fog curve":"LINEAR",
						"fog color":[
							0.0,
							0.0,
							0.0,
							1.0
						],
						"fog range start":0.0,
						"fog range end":1.0
					}
				},
				"t3dCurrentWorld__":"World",
				"t3dView3DCameraData__":[
					{
						"clip_start":0.009999999776482582,
						"clip_end":1000.0,
						"location":[
							-22.442398071289062,
							23.747970581054688,
							22.879663467407227
						],
						"rotation":[
							[
								0.6395729780197144,
								0.33312463760375977,
								-0.6928018927574158
							],
							[
								-1.487042879944056e-07,
								0.9012287855148315,
								0.4333437383174896
							],
							[
								0.7687304615974426,
								-0.277154803276062,
								0.5764016509056091
							]
						],
						"fovY":39.597752709049864,
						"perspective":true
					}
				]
			},
			"name":"Another",
			"nodes":[
				0,
				1,
				2,
				3,
				4
			]
		},
		{
			"extras":{
				"t3dCurrentWorld__":"World"
			},
			"name":"Scene",
			"nodes":[
				5,
				6,
				7,
				8,
				9,
				10,
				11,
				12,
				13,
				14
			]
		}
	],
	"nodes":[
		{
			"extras":{
				"t3dOriginalLocalPosition__":[
					0.0,
					0.0,
					0.0
				]
			},
			"mesh":0,
			"name":"Cube.001"
		},
		{
			"extras":{
				"t3dOriginalLocalPosition__":[
					6.0,
					0.0,
					0.0
				]
			},
			"mesh":0,
			"name":"Cube.002",
			"rotation":[
				0,
				0.3826834559440613,
				0,
				0.9238795638084412
			],
			"translation":[
				6,
				0,
				0
			]
		},
		{
			"extras":{
				"t3dOriginalLocalPosition__":[
					11.0,
					0.0,
					0.0
				]
			},
			"mesh":0,
			"name":"Cube.003",
			"rotation":[
				0,
				0.7071068286895752,
				0,
				0.7071068286895752
			],
			"translation":[
				11,
				0,
				0
			]
		},
		{
			"extras":{
				"t3dOriginalLocalPosition__":[
					16.0,
					0.0,
					0.0
				]
			},
			"mesh":0,
			"name":"Cube.004",
			"rotation":[
				0,
				0.9238795638084412,
				0,
				0.3826834559440613
			],
			"translation":[
				16,
				0,
				0
			]
		},
		{
			"extras":{
				"t3dOriginalLocalPosition__":[
					22.0,
					0.0,
					0.0
				]
			},
			"mesh":0,
			"name":"Cube.005",
			"rotation":[
				0,
				1,
				0,
				1.6292068494294654e-07
			],
			"translation":[
				22,
				0,
				0
			]
		},
		{
			"extras":{
				"t3dOriginalLocalPosition__":[
					-6.0,
					0.0,
					0.0
				]
			},
			"mesh":1,
			"name":"Cube",
			"translation":[
				-6,
				0,
				0
			]
		},
		{
			"extras":{
				"t3dOriginalLocalPosition__":[
					4.13852596282959,
					0.0,
					0.0
				]
			},
			"mesh":2,
			"name":"Suzanne",
			"translation":[
				4.13852596282959,
				0,
				0
			]
		},
		{
			"extras":{
				"t3dOriginalLocalPosition__":[
					0.0,
					-0.7200651168823242,
					0.0
				]
			},
			"mesh":3,
			"name":"Sphere",
			"translation":[
				0,
				0,
				0.7200651168823242
			]
		},
		{
			"extras":{
				"t3dOriginalLocalPosition__":[
					8.0,
					0.0,
					0.17296256124973297
				]
			},
			"mesh":4,
			"name":"Crates",
			"translation":[
				8,
				0.17296256124973297,
				0
			]
		},
		{
			"extras":{
				"t3dOriginalLocalPosition__":[
					-9.0,
					0.0,
					0.0
				]
			},
			"mesh":5,
			"name":"Triangle",
			"translation":[
				-9,
				0,
				0
			]
		},
		{
			"extras":{
				"t3dOriginalLocalPosition__":[
					8.0,
					-15.0,
					2.0
				]
			},
			"mesh":6,
			"name":"Hallway",
			"translation":[
				8,
				2,
				15
			]
		},
		{
			"extras":{
				"t3dOriginalLocalPosition__":[
					-12.0,
					0.0,
					0.0
				]
			},
			"mesh":7,
			"name":"Plane",
			"translation":[
				-12,
				0,
				0
			]
		},
		{
			"extras":{
				"t3dOriginalLocalPosition__":[
					0.0,
					0.0,
					-1.0
				]
			},
			"mesh":8,
			"name":"Ground",
			"translation":[
				0,
				-1,
				0
			]
		},
		{
			"camera":0,
			"extras":{
				"t3dFovY__":1.3124876022338867,
				"t3dOriginalLocalPosition__":[
					4.284424781799316,
					-12.714475631713867,
					4.78853178024292
				]
			},
			"name":"Camera",
			"rotation":[
				-0.18715742230415344,
				0.04798436164855957,
				0.009153532795608044,
				0.9811145663261414
			],
			"translation":[
				4.284424781799316,
				4.78853178024292,
				12.714475631713867
			]
		},
		{
			"extras":{
				"t3dOriginalLocalPosition__":[
					-3.0,
					-0.7200651168823242,
					4.0
				]
			},
			"mesh":9,
			"name":"Cube.006",
			"translation":[
				-3,
				4,
				0.7200651168823242
			]
		}
	],
	"cameras":[
		{
			"name":"Camera",
			"perspective":{
				"aspectRatio":1.7777777777777777,
				"yfov":1.5707963705062866,
				"zfar":30,
				"znear":0.10000000149011612
			},
			"type":"perspective"
		}
	],
	"materials":[
		{
			"extensions":{
				"KHR_materials_unlit":{}
			},
			"extras":{
				"t3dMaterialShadeless__":1
			},
			"name":"VertexPainting",
			"pbrMetallicRoughness":{
				"metallicFactor":0,
				"roughnessFactor":0.9
			}
		},
		{
			"extensions":{
				"KHR_materials_unlit":{}
			},
			"extras":{
				"t3dMaterialShadeless__":1
			},
			"name":"OutdoorStuff",
			"pbrMetallicRoughness":{
				"baseColorTexture":{
					"index":0
				},
				"metallicFactor":0,
				"roughnessFactor":0.9
			}
		},
		{
			"extensions":{
				"KHR_materials_unlit":{}
			},
			"extras":{
				"t3dMaterialShadeless__":1,
				"t3dAutoUV__":1,
				"t3dAutoUVUnitSize__":2.0,
				"t3dAutoUVOffset__":[
					0.0,
					0.0
				]
			},
			"name":"WoodenCrate",
			"pbrMetallicRoughness":{
				"baseColorTexture":{
					"index":1
				},
				"metallicFactor":0,
				"roughnessFactor":0.9
			}
		},
		{
			"extensions":{
				"KHR_materials_unlit":{}
			},
			"extras":{
				"t3dMaterialShadeless__":1,
				"t3dMaterialColor__":[
					0.2422812283039093,
					0.799102783203125,
					0.0,
					1.0
				]
			},
			"name":"Green",
			"pbrMetallicRoughness":{
				"baseColorFactor":[
					0.24228109419345856,
					0.7991030216217041,
					0,
					1
				],
				"metallicFactor":0,
				"roughnessFactor":0.9
			}
		},
		{
			"extensions":{
				"KHR_materials_unlit":{}
			},
			"extras":{
				"t3dMaterialShadeless__":1,
				"t3dMaterialColor__":[
					0.022173894569277763,
					0.022173894569277763,
					0.022173894569277763,
					1.0
				]
			},
			"name":"Dark Gray",
			"pbrMetallicRoughness":{
				"baseColorFactor":[
					0.022173896431922913,
					0.02217387966811657,
					0.022173885256052017,
					1
				],
				"metallicFactor":0,
				"roughnessFactor":0.9
			}
		}
	],
	"meshes":[
		{
			"extras":{
				"t3dVertexColorNames__":[
					"____________________Col"
				],
				"t3dActiveVertexColorIndex__":0
			},
			"name":"Cube.001",
			"primitives":[
				{
					"attributes":{
						"COLOR_0":0,
						"POSITION":1,
						"NORMAL":2,
						"TEXCOORD_0":3
					},
					"indices":4,
					"material":0
				}
			]
		},
		{
			"extras":{
				"t3dVertexColorNames__":[
					"Col"
				],
				"t3dActiveVertexColorIndex__":0
			},
			"name":"Cube",
			"primitives":[
				{
					"attributes":{
						"COLOR_0":5,
						"POSITION":6,
						"NORMAL":7,
						"TEXCOORD_0":8
					},
					"indices":9,
					"material":0
				}
			]
		},
		{
			"extras":{
				"t3dVertexColorNames__":[
					"Col"
				],
				"t3dActiveVertexColorIndex__":0
			},
			"name":"Suzanne",
			"primitives":[
				{
					"attributes":{
						"COLOR_0":10,
						"POSITION":11,
						"NORMAL":12,
						"TEXCOORD_0":13
					},
					"indices":14,
					"material":0
				}
			]
		},
		{
			"extras":{
				"t3dVertexColorNames__":[
					"Col"
				],
				"t3dActiveVertexColorIndex__":0
			},
			"name":"Sphere",
			"primitives":[
				{
					"attributes":{
						"COLOR_0":15,
						"POSITION":16,
						"NORMAL":17,
						"TEXCOORD_0":18
					},
					"indices":19,
					"material":0
				}
			]
		},
		{
			"extras":{
				"t3dVertexColorNames__":[
					"Col"
				],
				"t3dActiveVertexColorIndex__":0
			},
			"name":"Crates",
			"primitives":[
				{
					"attributes":{
						"COLOR_0":20,
						"POSITION":21,
						"NORMAL":22,
						"TEXCOORD_0":23
					},
					"indices":24,
					"material":1
				}
			]
		},
		{
			"extras":{
				"t3dVertexColorNames__":[
					"Col"
				],
				"t3dActiveVertexColorIndex__":0
			},
			"name":"Triangle",
			"primitives":[
				{
					"attributes":{
						"COLOR_0":25,
						"POSITION":26,
						"NORMAL":27,
						"TEXCOORD_0":28
					},
					"indices":29,
					"material":0
				}
			]
		},
		{
			"extras":{
				"t3dVertexColorNames__":[
					"Col"
				],
				"t3dActiveVertexColorIndex__":0
			},
			"name":"Mesh",
			"primitives":[
				{
					"attributes":{
						"COLOR_0":30,
						"POSITION":31,
						"NORMAL":32,
						"TEXCOORD_0":33
					},
					"indices":34,
					"material":2
				}
			]
		},
		{
			"extras":{
				"t3dVertexColorNames__":[
					"Col"
				],
				"t3dActiveVertexColorIndex__":0
			},
			"name":"Plane",
			"primitives":[
				{
					"attributes":{
						"COLOR_0":35,
						"POSITION":36,
						"NORMAL":37,
						"TEXCOORD_0":38
					},
					"indices":39,
					"material":0
				}
			]
		},
		{
			"extras":{
				"t3dVertexColorNames__":[
					"Col"
				],
				"t3dActiveVertexColorIndex__":0
			},
			"name":"Ground",
			"primitives":[
				{
					"attributes":{
						"COLOR_0":40,
						"POSITION":41,
						"NORMAL":42,
						"TEXCOORD_0":43
					},
					"indices":44,
					"material":0
				}
			]
		},
		{
			"extras":{
				"t3dVertexColorNames__":[
					"Col"
				],
				"t3dActiveVertexColorIndex__":0
			},
			"name":"Cube.002",
			"primitives":[
				{
					"attributes":{
						"COLOR_0":45,
						"POSITION":46,
						"NORMAL":47,
						"TEXCOORD_0":48
					},
					"indices":49,
					"material":3
				},
				{
					"attributes":{
						"COLOR_0":50,
						"POSITION":51,
						"NORMAL":52,
						"TEXCOORD_0":53
					},
					"indices":54,
					"material":4
				}
			]
		}
	],
	"textures":[
		{
			"sampler":0,
			"source":0
		},
		{
			"sampler":0,
			"source":1
		}
	],
	"images":[
		{
			"mimeType":"image/png",
			"name":"outdoorstuff",
			"uri":"outdoorstuff.png"
		},
		{
			"mimeType":"image/png",
			"name":"woodencrate",
			"uri":"woodencrate.png"
		}
	],
	"accessors":[
		{
			"bufferView":0,
			"componentType":5123,
			"count":32,
			"normalized":true,
			"type":"VEC4"
		},
		{
			"bufferView":1,
			"componentType":5126,
			"count":32,
			"max":[
				3,
				1,
				1
			],
			"min":[
				-1,
				-1,
				-1
			],
			"type":"VEC3"
		},
		{
			"bufferView":2,
			"componentType":5126,
			"count":32,
			"type":"VEC3"
		},
		{
			"bufferView":3,
			"componentType":5126,
			"count":32,
			"type":"VEC2"
		},
		{
			"bufferView":4,
			"componentType":5123,
			"count":42,
			"type":"SCALAR"
		},
		{
			"bufferView":5,
			"componentType":5123,
			"count":24,
			"normalized":true,
			"type":"VEC4"
		},
		{
			"bufferView":6,
			"componentType":5126,
			"count":24,
			"max":[
				1,
				1,
				1
			],
			"min":[
				-1,
				-1,
				-1
			],
			"type":"VEC3"
		},
		{
			"bufferView":7,
			"componentType":5126,
			"count":24,
			"type":"VEC3"
		},
		{
			"bufferView":8,
			"componentType":5126,
			"count":24,
			"type":"VEC2"
		},
		{
			"bufferView":9,
			"componentType":5123,
			"count":36,
			"type":"SCALAR"
		},
		{
			"bufferView":10,
			"componentType":5123,
			"count":2911,
			"normalized":true,
			"type":"VEC4"
		},
		{
			"bufferView":11,
			"componentType":5126,
			"count":2911,
			"max":[
				1.3671875,
				0.984375,
				0.8515625
			],
			"min":[
				-1.3671875,
				-0.984375,
				-0.8515625
			],
			"type":"VEC3"
		},
		{
			"bufferView":12,
			"componentType":5126,
			"count":2911,
			"type":"VEC3"
		},
		{
			"bufferView":13,
			"componentType":5126,
			"count":2911,
			"type":"VEC2"
		},
		{
			"bufferView":14,
			"componentType":5123,
			"count":3003,
			"type":"SCALAR"
		},
		{
			"bufferView":15,
			"componentType":5123,
			"count":1984,
			"normalized":true,
			"type":"VEC4"
		},
		{
			"bufferView":16,
			"componentType":5126,
			"count":1984,
			"max":[
				0.9999997615814209,
				1,
				0.9999994039535522
			],
			"min":[
				-0.9999990463256836,
				-1,
				-0.9999987483024597
			],
			"type":"VEC3"
		},
		{
			"bufferView":17,
			"componentType":5126,
			"count":1984,
			"type":"VEC3"
		},
		{
			"bufferView":18,
			"componentType":5126,
			"count":1984,
			"type":"VEC2"
		},
		{
			"bufferView":19,
			"componentType":5123,
			"count":2880,
			"type":"SCALAR"
		},
		{
			"bufferView":20,
			"componentType":5123,
			"count":232,
			"normalized":true,
			"type":"VEC4"
		},
		{
			"bufferView":21,
			"componentType":5126,
			"count":232,
			"max":[
				3,
				2.009999990463257,
				1.000000238418579
			],
			"min":[
				-2,
				-1,
				-1.000000238418579
			],
			"type":"VEC3"
		},
		{
			"bufferView":22,
			"componentType":5126,
			"count":232,
			"type":"VEC3"
		},
		{
			"bufferView":23,
			"componentType":5126,
			"count":232,
			"type":"VEC2"
		},
		{
			"bufferView":24,
			"componentType":5123,
			"count":348,
			"type":"SCALAR"
		},
		{
			"bufferView":25,
			"componentType":5123,
			"count":3,
			"normalized":true,
			"type":"VEC4"
		},
		{
			"bufferView":26,
			"componentType":5126,
			"count":3,
			"max":[
				1,
				0,
				1
			],
			"min":[
				-1,
				0,
				-1
			],
			"type":"VEC3"
		},
		{
			"bufferView":27,
			"componentType":5126,
			"count":3,
			"type":"VEC3"
		},
		{
			"bufferView":28,
			"componentType":5126,
			"count":3,
			"type":"VEC2"
		},
		{
			"bufferView":29,
			"componentType":5123,
			"count":3,
			"type":"SCALAR"
		},
		{
			"bufferView":30,
			"componentType":5123,
			"count":2328,
			"normalized":true,
			"type":"VEC4"
		},
		{
			"bufferView":31,
			"componentType":5126,
			"count":2328,
			"max":[
				53.00000762939453,
				5.500000953674316,
				2.000000238418579
			],
			"min":[
				-2.000000238418579,
				-2.500000476837158,
				-44.00000762939453
			],
			"type":"VEC3"
		},
		{
			"bufferView":32,
			"componentType":5126,
			"count":2328,
			"type":"VEC3"
		},
		{
			"bufferView":33,
			"componentType":5126,
			"count":2328,
			"type":"VEC2"
		},
		{
			"bufferView":34,
			"componentType":5123,
			"count":10176,
			"type":"SCALAR"
		},
		{
			"bufferView":35,
			"componentType":5123,
			"count":25,
			"normalized":true,
			"type":"VEC4"
		},
		{
			"bufferView":36,
			"componentType":5126,
			"count":25,
			"max":[
				1,
				0,
				1
			],
			"min":[
				-1,
				0,
				-1
			],
			"type":"VEC3"
		},
		{
			"bufferView":37,
			"componentType":5126,
			"count":25,
			"type":"VEC3"
		},
		{
			"bufferView":38,
			"componentType":5126,
			"count":25,
			"type":"VEC2"
		},
		{
			"bufferView":39,
			"componentType":5123,
			"count":96,
			"type":"SCALAR"
		},
		{
			"bufferView":40,
			"componentType":5123,
			"count":256,
			"normalized":true,
			"type":"VEC4"
		},
		{
			"bufferView":41,
			"componentType":5126,
			"count":256,
			"max":[
				32,
				0,
				32
			],
			"min":[
				-32,
				0,
				-32
			],
			"type":"VEC3"
		},
		{
			"bufferView":42,
			"componentType":5126,
			"count":256,
			"type":"VEC3"
		},
		{
			"bufferView":43,
			"componentType":5126,
			"count":256,
			"type":"VEC2"
		},
		{
			"bufferView":44,
			"componentType":5123,
			"count":384,
			"type":"SCALAR"
		},
		{
			"bufferView":45,
			"componentType":5123,
			"count":42,
			"normalized":true,
			"type":"VEC4"
		},
		{
			"bufferView":46,
			"componentType":5126,
			"count":42,
			"max":[
				1,
				1,
				1
			],
			"min":[
				-1,
				-1,
				-1
			],
			"type":"VEC3"
		},
		{
			"bufferView":47,
			"componentType":5126,
			"count":42,
			"type":"VEC3"
		},
		{
			"bufferView":48,
			"componentType":5126,
			"count":42,
			"type":"VEC2"
		},
		{
			"bufferView":49,
			"componentType":5123,
			"count":72,
			"type":"SCALAR"
		},
		{
			"bufferView":50,
			"componentType":5123,
			"count":42,
			"normalized":true,
			"type":"VEC4"
		},
		{
			"bufferView":51,
			"componentType":5126,
			"count":42,
			"max":[
				1,
				1,
				1
			],
			"min":[
				-1,
				-1,
				-1
			],
			"type":"VEC3"
		},
		{
			"bufferView":52,
			"componentType":5126,
			"count":42,
			"type":"VEC3"
		},
		{
			"bufferView":53,
			"componentType":5126,
			"count":42,
			"type":"VEC2"
		},
		{
			"bufferView":54,
			"componentType":5123,
			"count":72,
			"type":"SCALAR"
		}
	],
	"bufferViews":[
		{
			"buffer":0,
			"byteLength":256,
			"byteOffset":0,
			"target":34962
		},
		{
			"buffer":0,
			"byteLength":384,
			"byteOffset":256,
			"target":34962
		},
		{
			"buffer":0,
			"byteLength":384,
			"byteOffset":640,
			"target":34962
		},
		{
			"buffer":0,
			"byteLength":256,
			"byteOffset":1024,
			"target":34962
		},
		{
			"buffer":0,
			"byteLength":84,
			"byteOffset":1280,
			"target":34963
		},
		{
			"buffer":0,
			"byteLength":192,
			"byteOffset":1364,
			"target":34962
		},
		{
			"buffer":0,
			"byteLength":288,
			"byteOffset":1556,
			"target":34962
		},
		{
			"buffer":0,
			"byteLength":288,
			"byteOffset":1844,
			"target":34962
		},
		{
			"buffer":0,
			"byteLength":192,
			"byteOffset":2132,
			"target":34962
		},
		{
			"buffer":0,
			"byteLength":72,
			"byteOffset":2324,
			"target":34963
		},
		{
			"buffer":0,
			"byteLength":23288,
			"byteOffset":2396,
			"target":34962
		},
		{
			"buffer":0,
			"byteLength":34932,
			"byteOffset":25684,
			"target":34962
		},
		{
			"buffer":0,
			"byteLength":34932,
			"byteOffset":60616,
			"target":34962
		},
		{
			"buffer":0,
			"byteLength":23288,
			"byteOffset":95548,
			"target":34962
		},
		{
			"buffer":0,
			"byteLength":6006,
			"byteOffset":118836,
			"target":34963
		},
		{
			"buffer":0,
			"byteLength":15872,
			"byteOffset":124844,
			"target":34962
		},
		{
			"buffer":0,
			"byteLength":23808,
			"byteOffset":140716,
			"target":34962
		},
		{
			"buffer":0,
			"byteLength":23808,
			"byteOffset":164524,
			"target":34962
		},
		{
			"buffer":0,
			"byteLength":15872,
			"byteOffset":188332,
			"target":34962
		},
		{
			"buffer":0,
			"byteLength":5760,
			"byteOffset":204204,
			"target":34963
		},
		{
			"buffer":0,
			"byteLength":1856,
			"byteOffset":209964,
			"target":34962
		},
		{
			"buffer":0,
			"byteLength":2784,
			"byteOffset":211820,
			"target":34962
		},
		{
			"buffer":0,
			"byteLength":2784,
			"byteOffset":214604,
			"target":34962
		},
		{
			"buffer":0,
			"byteLength":1856,
			"byteOffset":217388,
			"target":34962
		},
		{
			"buffer":0,
			"byteLength":696,
			"byteOffset":219244,
			"target":34963
		},
		{
			"buffer":0,
			"byteLength":24,
			"byteOffset":219940,
			"target":34962
		},
		{
			"buffer":0,
			"byteLength":36,
			"byteOffset":219964,
			"target":34962
		},
		{
			"buffer":0,
			"byteLength":36,
			"byteOffset":220000,
			"target":34962
		},
		{
			"buffer":0,
			"byteLength":24,
			"byteOffset":220036,
			"target":34962
		},
		{
			"buffer":0,
			"byteLength":6,
			"byteOffset":220060,
			"target":34963
		},
		{
			"buffer":0,
			"byteLength":18624,
			"byteOffset":220068,
			"target":34962
		},
		{
			"buffer":0,
			"byteLength":27936,
			"byteOffset":238692,
			"target":34962
		},
		{
			"buffer":0,
			"byteLength":27936,
			"byteOffset":266628,
			"target":34962
		},
		{
			"buffer":0,
			"byteLength":18624,
			"byteOffset":294564,
			"target":34962
		},
		{
			"buffer":0,
			"byteLength":20352,
			"byteOffset":313188,
			"target":34963
		},
		{
			"buffer":0,
			"byteLength":200,
			"byteOffset":333540,
			"target":34962
		},
		{
			"buffer":0,
			"byteLength":300,
			"byteOffset":333740,
			"target":34962
		},
		{
			"buffer":0,
			"byteLength":300,
			"byteOffset":334040,
			"target":34962
		},
		{
			"buffer":0,
			"byteLength":200,
			"byteOffset":334340,
			"target":34962
		},
		{
			"buffer":0,
			"byteLength":192,
			"byteOffset":334540,
			"target":34963
		},
		{
			"buffer":0,
			"byteLength":2048,
			"byteOffset":334732,
			"target":34962
		},
		{
			"buffer":0,
			"byteLength":3072,
			"byteOffset":336780,
			"target":34962
		},
		{
			"buffer":0,
			"byteLength":3072,
			"byteOffset":339852,
			"target":34962
		},
		{
			"buffer":0,
			"byteLength":2048,
			"byteOffset":342924,
			"target":34962
		},
		{
			"buffer":0,
			"byteLength":768,
			"byteOffset":344972,
			"target":34963
		},
		{
			"buffer":0,
			"byteLength":336,
			"byteOffset":345740,
			"target":34962
		},
		{
			"buffer":0,
			"byteLength":504,
			"byteOffset":346076,
			"target":34962
		},
		{
			"buffer":0,
			"byteLength":504,
			"byteOffset":346580,
			"target":34962
		},
		{
			"buffer":0,
			"byteLength":336,
			"byteOffset":347084,
			"target":34962
		},
		{
			"buffer":0,
			"byteLength":144,
			"byteOffset":347420,
			"target":34963
		},
		{
			"buffer":0,
			"byteLength":336,
			"byteOffset":347564,
			"target":34962
		},
		{
			"buffer":0,
			"byteLength":504,
			"byteOffset":347900,
			"target":34962
		},
		{
			"buffer":0,
			"byteLength":504,
			"byteOffset":348404,
			"target":34962
		},
		{
			"buffer":0,
			"byteLength":336,
			"byteOffset":348908,
			"target":34962
		},
		{
			"buffer":0,
			"byteLength":144,
			"byteOffset":349244,
			"target":34963
		}
	],
	"samplers":[
		{
			"magFilter":9728,
			"minFilter":9984
		}
	],
	"buffers":[
		{
			"byteLength":349388,
			"uri":"shapes.bin"
		}
	]
}
