{
	"asset":{
		"generator":"Khronos glTF Blender I/O v4.3.9",
		"version":"2.0"
	},
	"extensionsUsed":[
		"KHR_materials_unlit",
		"KHR_lights_punctual"
	],
	"extensionsRequired":[
		"KHR_lights_punctual"
	],
	"extensions":{
		"KHR_lights_punctual":{
			"lights":[
				{
					"color":[
						1,
						1,
						1
					],
					"intensity":10,
					"type":"directional",
					"name":"Point"
				}
			]
		}
	},
	"scene":1,
	"scenes":[
		{
			"extras":{
				"t3dExportOnSave__":true,
				"t3dExportFormat__":1,
				"t3dPackTextures__":true,
				"t3dExportLights__":true,
				"t3dCameraResolution__":[
					1920,
					1080
				],
				"t3dRenderResolutionW__":640,
				"t3dRenderResolutionH__":360,
				"t3dExportFilepath__":"",
				"t3dExportCameras__":true,
				"t3dSectorRendering__":false,
				"t3dSectorRenderDepth__":0,
				"t3dPlaybackFPS__":60,
				"t3dAnimationSampling__":true,
				"t3dAnimationInterpolation__":true,
				"t3dMaxLightCount__":0,
				"t3dSectorDetection__":0,
				"t3dPerspectiveCorrectedTextureMapping__":false,
				"t3dRenameInstancedObjects__":true,
				"t3dCollections__":{
					"Collection":{
						"objects":[
							"Cube",
							"Suzanne",
							"Sphere",
							"Crates",
							"Triangle",
							"Hallway",
							"Plane",
							"Ground",
							"Camera",
							"Cube.006",
							"Collection 1",
							"Point"
						],
						"offset":[
							0.0,
							0.0,
							0.0
						]
					},
					"Collection 1":{
						"objects":[
							"Cube.005"
						],
						"offset":[
							0.0,
							0.0,
							0.0
						]
					}
				},
				"t3dWorlds__":{
					"World":{
						"ambient color":[
							0.05087608844041824,
							0.05087608844041824,
							0.05087608844041824,
							1.0
						],
						"ambient energy":1.0,
						"clear color":[
							0.007000000216066837,
							0.00800000037997961,
							0.009999999776482582,
							1.0
						],
						"fog mode":"OFF",
						"dithered transparency":0.0,
						"fog curve":"LINEAR",
						"fog color":[
							0.0,
							0.0,
							0.0,
							1.0
						],
						"fog range start":0.0,
						"fog range end":1.0
					}
				},
				"t3dCurrentWorld__":"World",
				"t3dView3DCameraData__":[
					{
						"clip_start":0.009999999776482582,
						"clip_end":1000.0,
						"location":[
							-4.154661655426025,
							12.31248950958252,
							27.263944625854492
						],
						"rotation":[
							[
								0.9991228580474854,
								0.014230579137802124,
								-0.0393834263086319
							],
							[
								5.50853229697168e-08,
								0.9404865503311157,
								0.33983123302459717
							],
							[
								0.04187557473778725,
								-0.33953315019607544,
								0.9396615624427795
							]
						],
						"fovY":39.597752709049864,
						"perspective":true
					}
				]
			},
			"name":"Another",
			"nodes":[
				0
			]
		},
		{
			"extras":{
				"t3dCurrentWorld__":"World"
			},
			"name":"Scene",
			"nodes":[
				1,
				2,
				3,
				4,
				5,
				6,
				7,
				8,
				9,
				10,
				11,
				12
			]
		}
	],
	"nodes":[
		{
			"extras":{
				"t3dOriginalLocalPosition__":[
					0.0,
					0.0,
					0.0
				]
			},
			"mesh":0,
			"name":"Cube.005",
			"rotation":[
				0,
				1,
				0,
				1.6292068494294654e-07
			]
		},
		{
			"extras":{
				"t3dOriginalLocalPosition__":[
					-6.0,
					0.0,
					0.0
				]
			},
			"mesh":1,
			"name":"Cube",
			"translation":[
				-6,
				0,
				0
			]
		},
		{
			"extras":{
				"t3dOriginalLocalPosition__":[
					4.13852596282959,
					0.0,
					0.0
				]
			},
			"mesh":2,
			"name":"Suzanne",
			"translation":[
				4.13852596282959,
				0,
				0
			]
		},
		{
			"extras":{
				"t3dOriginalLocalPosition__":[
					0.0,
					-0.7200651168823242,
					0.0
				]
			},
			"mesh":3,
			"name":"Sphere",
			"translation":[
				0,
				0,
				0.7200651168823242
			]
		},
		{
			"extras":{
				"t3dOriginalLocalPosition__":[
					8.0,
					0.0,
					0.17296256124973297
				]
			},
			"mesh":4,
			"name":"Crates",
			"translation":[
				8,
				0.17296256124973297,
				0
			]
		},
		{
			"extras":{
				"t3dOriginalLocalPosition__":[
					-9.0,
					0.0,
					0.0
				]
			},
			"mesh":5,
			"name":"Triangle",
			"translation":[
				-9,
				0,
				0
			]
		},
		{
			"extras":{
				"t3dOriginalLocalPosition__":[
					8.0,
					-15.0,
					2.0
				]
			},
			"mesh":6,
			"name":"Hallway",
			"translation":[
				8,
				2,
				15
			]
		},
		{
			"extras":{
				"t3dOriginalLocalPosition__":[
					-12.0,
					0.0,
					0.0
				]
			},
			"mesh":7,
			"name":"Plane",
			"translation":[
				-12,
				0,
				0
			]
		},
		{
			"extras":{
				"t3dOriginalLocalPosition__":[
					0.0,
					0.0,
					-1.0
				]
			},
			"mesh":8,
			"name":"Ground",
			"translation":[
				0,
				-1,
				0
			]
		},
		{
			"camera":0,
			"extras":{
				"t3dFovY__":1.3124876022338867,
				"t3dOriginalLocalPosition__":[
					4.284424781799316,
					-12.714475631713867,
					4.78853178024292
				]
			},
			"name":"Camera",
			"rotation":[
				-0.18715742230415344,
				0.04798436164855957,
				0.009153532795608044,
				0.9811145663261414
			],
			"translation":[
				4.284424781799316,
				4.78853178024292,
				12.714475631713867
			]
		},
		{
			"extras":{
				"t3dOriginalLocalPosition__":[
					-3.0,
					-0.7200651168823242,
					4.0
				]
			},
			"mesh":9,
			"name":"Cube.006",
			"translation":[
				-3,
				4,
				0.7200651168823242
			]
		},
		{
			"extras":{
				"t3dOriginalLocalPosition__":[
					38.0,
					12.0,
					12.5
				],
				"t3dInstanceCollection__":"Collection 1"
			},
			"name":"Collection 1",
			"translation":[
				38,
				12.5,
				-12
			]
		},
		{
			"extensions":{
				"KHR_lights_punctual":{
					"light":0
				}
			},
			"extras":{
				"t3dOriginalLocalPosition__":[
					31.0,
					0.0,
					12.5
				]
			},
			"name":"Point",
			"rotation":[
				-0.6691933274269104,
				0.10801330953836441,
				-0.304456502199173,
				0.6691933274269104
			],
			"translation":[
				31,
				12.5,
				0
			]
		}
	],
	"cameras":[
		{
			"name":"Camera",
			"perspective":{
				"aspectRatio":1.7777777777777777,
				"yfov":1.5707963705062866,
				"zfar":30,
				"znear":0.10000000149011612
			},
			"type":"perspective"
		}
	],
	"materials":[
		{
			"extras":{
				"t3dMaterialShadeless__":1
			},
			"name":"VertexPainting"
		},
		{
			"extensions":{
				"KHR_materials_unlit":{}
			},
			"extras":{
				"t3dMaterialShadeless__":1
			},
			"name":"OutdoorStuff",
			"pbrMetallicRoughness":{
				"baseColorTexture":{
					"index":0
				},
				"metallicFactor":0,
				"roughnessFactor":0.9
			}
		},
		{
			"extras":{
				"t3dMaterialShadeless__":1,
				"t3dAutoUV__":1,
				"t3dAutoUVUnitSize__":2.0,
				"t3dAutoUVOffset__":[
					0.0,
					0.0
				]
			},
			"name":"WoodenCrate",
			"pbrMetallicRoughness":{
				"baseColorTexture":{
					"index":1
				},
				"metallicFactor":0,
				"roughnessFactor":0
			}
		},
		{
			"extensions":{
				"KHR_materials_unlit":{}
			},
			"extras":{
				"t3dMaterialShadeless__":1,
				"t3dMaterialColor__":[
					0.2422812283039093,
					0.799102783203125,
					0.0,
					1.0
				]
			},
			"name":"Green",
			"pbrMetallicRoughness":{
				"baseColorFactor":[
					0.24228109419345856,
					0.7991030216217041,
					0,
					1
				],
				"metallicFactor":0,
				"roughnessFactor":0.9
			}
		},
		{
			"extensions":{
				"KHR_materials_unlit":{}
			},
			"extras":{
				"t3dMaterialShadeless__":1,
				"t3dMaterialColor__":[
					0.022173894569277763,
					0.022173894569277763,
					0.022173894569277763,
					1.0
				]
			},
			"name":"Dark Gray",
			"pbrMetallicRoughness":{
				"baseColorFactor":[
					0.022173896431922913,
					0.02217387966811657,
					0.022173885256052017,
					1
				],
				"metallicFactor":0,
				"roughnessFactor":0.9
			}
		}
	],
	"meshes":[
		{
			"extras":{
				"t3dVertexColorNames__":[
					"________________Col"
				],
				"t3dActiveVertexColorIndex__":0
			},
			"name":"Cube.001",
			"primitives":[
				{
					"attributes":{
						"_________________COL":0,
						"POSITION":1,
						"NORMAL":2,
						"TEXCOORD_0":3,
						"COLOR_0":4
					},
					"indices":5,
					"material":0
				}
			]
		},
		{
			"extras":{
				"t3dVertexColorNames__":[
					"Col"
				],
				"t3dActiveVertexColorIndex__":0
			},
			"name":"Cube",
			"primitives":[
				{
					"attributes":{
						"_COL":6,
						"POSITION":7,
						"NORMAL":8,
						"TEXCOORD_0":9,
						"COLOR_0":10
					},
					"indices":11,
					"material":0
				}
			]
		},
		{
			"extras":{
				"t3dVertexColorNames__":[
					"Col"
				],
				"t3dActiveVertexColorIndex__":0
			},
			"name":"Suzanne",
			"primitives":[
				{
					"attributes":{
						"_COL":12,
						"POSITION":13,
						"NORMAL":14,
						"TEXCOORD_0":15,
						"COLOR_0":16
					},
					"indices":17,
					"material":0
				}
			]
		},
		{
			"extras":{
				"t3dVertexColorNames__":[
					"Col"
				],
				"t3dActiveVertexColorIndex__":0
			},
			"name":"Sphere",
			"primitives":[
				{
					"attributes":{
						"_COL":18,
						"POSITION":19,
						"NORMAL":20,
						"TEXCOORD_0":21,
						"COLOR_0":22
					},
					"indices":23,
					"material":0
				}
			]
		},
		{
			"extras":{
				"t3dVertexColorNames__":[
					"Col"
				],
				"t3dActiveVertexColorIndex__":0
			},
			"name":"Crates",
			"primitives":[
				{
					"attributes":{
						"_COL":24,
						"POSITION":25,
						"NORMAL":26,
						"TEXCOORD_0":27,
						"COLOR_0":28
					},
					"indices":29,
					"material":1
				}
			]
		},
		{
			"extras":{
				"t3dVertexColorNames__":[
					"Col"
				],
				"t3dActiveVertexColorIndex__":0
			},
			"name":"Triangle",
			"primitives":[
				{
					"attributes":{
						"_COL":30,
						"POSITION":31,
						"NORMAL":32,
						"TEXCOORD_0":33,
						"COLOR_0":34
					},
					"indices":35,
					"material":0
				}
			]
		},
		{
			"extras":{
				"t3dVertexColorNames__":[
					"Col"
				],
				"t3dActiveVertexColorIndex__":0
			},
			"name":"Mesh",
			"primitives":[
				{
					"attributes":{
						"POSITION":36,
						"NORMAL":37,
						"TEXCOORD_0":38,
						"COLOR_0":39
					},
					"indices":40,
					"material":2
				}
			]
		},
		{
			"extras":{
				"t3dVertexColorNames__":[
					"Col"
				],
				"t3dActiveVertexColorIndex__":0
			},
			"name":"Plane",
			"primitives":[
				{
					"attributes":{
						"_COL":41,
						"POSITION":42,
						"NORMAL":43,
						"TEXCOORD_0":44,
						"COLOR_0":45
					},
					"indices":46,
					"material":0
				}
			]
		},
		{
			"extras":{
				"t3dVertexColorNames__":[
					"Col"
				],
				"t3dActiveVertexColorIndex__":0
			},
			"name":"Ground",
			"primitives":[
				{
					"attributes":{
						"_COL":47,
						"POSITION":48,
						"NORMAL":49,
						"TEXCOORD_0":50,
						"COLOR_0":51
					},
					"indices":52,
					"material":0
				}
			]
		},
		{
			"extras":{
				"t3dVertexColorNames__":[
					"Col"
				],
				"t3dActiveVertexColorIndex__":0
			},
			"name":"Cube.002",
			"primitives":[
				{
					"attributes":{
						"_COL":53,
						"POSITION":54,
						"NORMAL":55,
						"TEXCOORD_0":56,
						"COLOR_0":57
					},
					"indices":58,
					"material":3
				},
				{
					"attributes":{
						"_COL":59,
						"POSITION":60,
						"NORMAL":61,
						"TEXCOORD_0":62,
						"COLOR_0":63
					},
					"indices":64,
					"material":4
				}
			]
		}
	],
	"textures":[
		{
			"sampler":0,
			"source":0
		},
		{
			"sampler":1,
			"source":1
		}
	],
	"images":[
		{
			"mimeType":"image/png",
			"name":"outdoorstuff",
			"uri":"outdoorstuff.png"
		},
		{
			"mimeType":"image/png",
			"name":"woodencrate",
			"uri":"woodencrate.png"
		}
	],
	"accessors":[
		{
			"bufferView":0,
			"componentType":5123,
			"count":32,
			"normalized":true,
			"type":"VEC4"
		},
		{
			"bufferView":1,
			"componentType":5126,
			"count":32,
			"max":[
				3,
				1,
				1
			],
			"min":[
				-1,
				-1,
				-1
			],
			"type":"VEC3"
		},
		{
			"bufferView":2,
			"componentType":5126,
			"count":32,
			"type":"VEC3"
		},
		{
			"bufferView":3,
			"componentType":5126,
			"count":32,
			"type":"VEC2"
		},
		{
			"bufferView":4,
			"componentType":5123,
			"count":32,
			"normalized":true,
			"type":"VEC4"
		},
		{
			"bufferView":5,
			"componentType":5123,
			"count":42,
			"type":"SCALAR"
		},
		{
			"bufferView":6,
			"componentType":5123,
			"count":24,
			"normalized":true,
			"type":"VEC4"
		},
		{
			"bufferView":7,
			"componentType":5126,
			"count":24,
			"max":[
				1,
				1,
				1
			],
			"min":[
				-1,
				-1,
				-1
			],
			"type":"VEC3"
		},
		{
			"bufferView":8,
			"componentType":5126,
			"count":24,
			"type":"VEC3"
		},
		{
			"bufferView":9,
			"componentType":5126,
			"count":24,
			"type":"VEC2"
		},
		{
			"bufferView":10,
			"componentType":5123,
			"count":24,
			"normalized":true,
			"type":"VEC4"
		},
		{
			"bufferView":11,
			"componentType":5123,
			"count":36,
			"type":"SCALAR"
		},
		{
			"bufferView":12,
			"componentType":5123,
			"count":2911,
			"normalized":true,
			"type":"VEC4"
		},
		{
			"bufferView":13,
			"componentType":5126,
			"count":2911,
			"max":[
				1.3671875,
				0.984375,
				0.8515625
			],
			"min":[
				-1.3671875,
				-0.984375,
				-0.8515625
			],
			"type":"VEC3"
		},
		{
			"bufferView":14,
			"componentType":5126,
			"count":2911,
			"type":"VEC3"
		},
		{
			"bufferView":15,
			"componentType":5126,
			"count":2911,
			"type":"VEC2"
		},
		{
			"bufferView":16,
			"componentType":5123,
			"count":2911,
			"normalized":true,
			"type":"VEC4"
		},
		{
			"bufferView":17,
			"componentType":5123,
			"count":3003,
			"type":"SCALAR"
		},
		{
			"bufferView":18,
			"componentType":5123,
			"count":1984,
			"normalized":true,
			"type":"VEC4"
		},
		{
			"bufferView":19,
			"componentType":5126,
			"count":1984,
			"max":[
				0.9999997615814209,
				1,
				0.9999994039535522
			],
			"min":[
				-0.9999990463256836,
				-1,
				-0.9999987483024597
			],
			"type":"VEC3"
		},
		{
			"bufferView":20,
			"componentType":5126,
			"count":1984,
			"type":"VEC3"
		},
		{
			"bufferView":21,
			"componentType":5126,
			"count":1984,
			"type":"VEC2"
		},
		{
			"bufferView":22,
			"componentType":5123,
			"count":1984,
			"normalized":true,
			"type":"VEC4"
		},
		{
			"bufferView":23,
			"componentType":5123,
			"count":2880,
			"type":"SCALAR"
		},
		{
			"bufferView":24,
			"componentType":5123,
			"count":232,
			"normalized":true,
			"type":"VEC4"
		},
		{
			"bufferView":25,
			"componentType":5126,
			"count":232,
			"max":[
				3,
				2.009999990463257,
				1.000000238418579
			],
			"min":[
				-2,
				-1,
				-1.000000238418579
			],
			"type":"VEC3"
		},
		{
			"bufferView":26,
			"componentType":5126,
			"count":232,
			"type":"VEC3"
		},
		{
			"bufferView":27,
			"componentType":5126,
			"count":232,
			"type":"VEC2"
		},
		{
			"bufferView":28,
			"componentType":5126,
			"count":232,
			"type":"VEC3"
		},
		{
			"bufferView":29,
			"componentType":5123,
			"count":348,
			"type":"SCALAR"
		},
		{
			"bufferView":30,
			"componentType":5123,
			"count":3,
			"normalized":true,
			"type":"VEC4"
		},
		{
			"bufferView":31,
			"componentType":5126,
			"count":3,
			"max":[
				1,
				0,
				1
			],
			"min":[
				-1,
				0,
				-1
			],
			"type":"VEC3"
		},
		{
			"bufferView":32,
			"componentType":5126,
			"count":3,
			"type":"VEC3"
		},
		{
			"bufferView":33,
			"componentType":5126,
			"count":3,
			"type":"VEC2"
		},
		{
			"bufferView":34,
			"componentType":5123,
			"count":3,
			"normalized":true,
			"type":"VEC4"
		},
		{
			"bufferView":35,
			"componentType":5123,
			"count":3,
			"type":"SCALAR"
		},
		{
			"bufferView":36,
			"componentType":5126,
			"count":2328,
			"max":[
				53.00000762939453,
				5.500000953674316,
				2.000000238418579
			],
			"min":[
				-2.000000238418579,
				-2.500000476837158,
				-44.00000762939453
			],
			"type":"VEC3"
		},
		{
			"bufferView":37,
			"componentType":5126,
			"count":2328,
			"type":"VEC3"
		},
		{
			"bufferView":38,
			"componentType":5126,
			"count":2328,
			"type":"VEC2"
		},
		{
			"bufferView":39,
			"componentType":5123,
			"count":2328,
			"normalized":true,
			"type":"VEC4"
		},
		{
			"bufferView":40,
			"componentType":5123,
			"count":10176,
			"type":"SCALAR"
		},
		{
			"bufferView":41,
			"componentType":5123,
			"count":25,
			"normalized":true,
			"type":"VEC4"
		},
		{
			"bufferView":42,
			"componentType":5126,
			"count":25,
			"max":[
				1,
				0,
				1
			],
			"min":[
				-1,
				0,
				-1
			],
			"type":"VEC3"
		},
		{
			"bufferView":43,
			"componentType":5126,
			"count":25,
			"type":"VEC3"
		},
		{
			"bufferView":44,
			"componentType":5126,
			"count":25,
			"type":"VEC2"
		},
		{
			"bufferView":45,
			"componentType":5123,
			"count":25,
			"normalized":true,
			"type":"VEC4"
		},
		{
			"bufferView":46,
			"componentType":5123,
			"count":96,
			"type":"SCALAR"
		},
		{
			"bufferView":47,
			"componentType":5123,
			"count":256,
			"normalized":true,
			"type":"VEC4"
		},
		{
			"bufferView":48,
			"componentType":5126,
			"count":256,
			"max":[
				32,
				0,
				32
			],
			"min":[
				-32,
				0,
				-32
			],
			"type":"VEC3"
		},
		{
			"bufferView":49,
			"componentType":5126,
			"count":256,
			"type":"VEC3"
		},
		{
			"bufferView":50,
			"componentType":5126,
			"count":256,
			"type":"VEC2"
		},
		{
			"bufferView":51,
			"componentType":5123,
			"count":256,
			"normalized":true,
			"type":"VEC4"
		},
		{
			"bufferView":52,
			"componentType":5123,
			"count":384,
			"type":"SCALAR"
		},
		{
			"bufferView":53,
			"componentType":5123,
			"count":42,
			"normalized":true,
			"type":"VEC4"
		},
		{
			"bufferView":54,
			"componentType":5126,
			"count":42,
			"max":[
				1,
				1,
				1
			],
			"min":[
				-1,
				-1,
				-1
			],
			"type":"VEC3"
		},
		{
			"bufferView":55,
			"componentType":5126,
			"count":42,
			"type":"VEC3"
		},
		{
			"bufferView":56,
			"componentType":5126,
			"count":42,
			"type":"VEC2"
		},
		{
			"bufferView":57,
			"componentType":5123,
			"count":42,
			"normalized":true,
			"type":"VEC4"
		},
		{
			"bufferView":58,
			"componentType":5123,
			"count":72,
			"type":"SCALAR"
		},
		{
			"bufferView":59,
			"componentType":5123,
			"count":42,
			"normalized":true,
			"type":"VEC4"
		},
		{
			"bufferView":60,
			"componentType":5126,
			"count":42,
			"max":[
				1,
				1,
				1
			],
			"min":[
				-1,
				-1,
				-1
			],
			"type":"VEC3"
		},
		{
			"bufferView":61,
			"componentType":5126,
			"count":42,
			"type":"VEC3"
		},
		{
			"bufferView":62,
			"componentType":5126,
			"count":42,
			"type":"VEC2"
		},
		{
			"bufferView":63,
			"componentType":5123,
			"count":42,
			"normalized":true,
			"type":"VEC4"
		},
		{
			"bufferView":64,
			"componentType":5123,
			"count":72,
			"type":"SCALAR"
		}
	],
	"bufferViews":[
		{
			"buffer":0,
			"byteLength":256,
			"byteOffset":0,
			"target":34962
		},
		{
			"buffer":0,
			"byteLength":384,
			"byteOffset":256,
			"target":34962
		},
		{
			"buffer":0,
			"byteLength":384,
			"byteOffset":640,
			"target":34962
		},
		{
			"buffer":0,
			"byteLength":256,
			"byteOffset":1024,
			"target":34962
		},
		{
			"buffer":0,
			"byteLength":256,
			"byteOffset":1280,
			"target":34962
		},
		{
			"buffer":0,
			"byteLength":84,
			"byteOffset":1536,
			"target":34963
		},
		{
			"buffer":0,
			"byteLength":192,
			"byteOffset":1620,
			"target":34962
		},
		{
			"buffer":0,
			"byteLength":288,
			"byteOffset":1812,
			"target":34962
		},
		{
			"buffer":0,
			"byteLength":288,
			"byteOffset":2100,
			"target":34962
		},
		{
			"buffer":0,
			"byteLength":192,
			"byteOffset":2388,
			"target":34962
		},
		{
			"buffer":0,
			"byteLength":192,
			"byteOffset":2580,
			"target":34962
		},
		{
			"buffer":0,
			"byteLength":72,
			"byteOffset":2772,
			"target":34963
		},
		{
			"buffer":0,
			"byteLength":23288,
			"byteOffset":2844,
			"target":34962
		},
		{
			"buffer":0,
			"byteLength":34932,
			"byteOffset":26132,
			"target":34962
		},
		{
			"buffer":0,
			"byteLength":34932,
			"byteOffset":61064,
			"target":34962
		},
		{
			"buffer":0,
			"byteLength":23288,
			"byteOffset":95996,
			"target":34962
		},
		{
			"buffer":0,
			"byteLength":23288,
			"byteOffset":119284,
			"target":34962
		},
		{
			"buffer":0,
			"byteLength":6006,
			"byteOffset":142572,
			"target":34963
		},
		{
			"buffer":0,
			"byteLength":15872,
			"byteOffset":148580,
			"target":34962
		},
		{
			"buffer":0,
			"byteLength":23808,
			"byteOffset":164452,
			"target":34962
		},
		{
			"buffer":0,
			"byteLength":23808,
			"byteOffset":188260,
			"target":34962
		},
		{
			"buffer":0,
			"byteLength":15872,
			"byteOffset":212068,
			"target":34962
		},
		{
			"buffer":0,
			"byteLength":15872,
			"byteOffset":227940,
			"target":34962
		},
		{
			"buffer":0,
			"byteLength":5760,
			"byteOffset":243812,
			"target":34963
		},
		{
			"buffer":0,
			"byteLength":1856,
			"byteOffset":249572,
			"target":34962
		},
		{
			"buffer":0,
			"byteLength":2784,
			"byteOffset":251428,
			"target":34962
		},
		{
			"buffer":0,
			"byteLength":2784,
			"byteOffset":254212,
			"target":34962
		},
		{
			"buffer":0,
			"byteLength":1856,
			"byteOffset":256996,
			"target":34962
		},
		{
			"buffer":0,
			"byteLength":2784,
			"byteOffset":258852,
			"target":34962
		},
		{
			"buffer":0,
			"byteLength":696,
			"byteOffset":261636,
			"target":34963
		},
		{
			"buffer":0,
			"byteLength":24,
			"byteOffset":262332,
			"target":34962
		},
		{
			"buffer":0,
			"byteLength":36,
			"byteOffset":262356,
			"target":34962
		},
		{
			"buffer":0,
			"byteLength":36,
			"byteOffset":262392,
			"target":34962
		},
		{
			"buffer":0,
			"byteLength":24,
			"byteOffset":262428,
			"target":34962
		},
		{
			"buffer":0,
			"byteLength":24,
			"byteOffset":262452,
			"target":34962
		},
		{
			"buffer":0,
			"byteLength":6,
			"byteOffset":262476,
			"target":34963
		},
		{
			"buffer":0,
			"byteLength":27936,
			"byteOffset":262484,
			"target":34962
		},
		{
			"buffer":0,
			"byteLength":27936,
			"byteOffset":290420,
			"target":34962
		},
		{
			"buffer":0,
			"byteLength":18624,
			"byteOffset":318356,
			"target":34962
		},
		{
			"buffer":0,
			"byteLength":18624,
			"byteOffset":336980,
			"target":34962
		},
		{
			"buffer":0,
			"byteLength":20352,
			"byteOffset":355604,
			"target":34963
		},
		{
			"buffer":0,
			"byteLength":200,
			"byteOffset":375956,
			"target":34962
		},
		{
			"buffer":0,
			"byteLength":300,
			"byteOffset":376156,
			"target":34962
		},
		{
			"buffer":0,
			"byteLength":300,
			"byteOffset":376456,
			"target":34962
		},
		{
			"buffer":0,
			"byteLength":200,
			"byteOffset":376756,
			"target":34962
		},
		{
			"buffer":0,
			"byteLength":200,
			"byteOffset":376956,
			"target":34962
		},
		{
			"buffer":0,
			"byteLength":192,
			"byteOffset":377156,
			"target":34963
		},
		{
			"buffer":0,
			"byteLength":2048,
			"byteOffset":377348,
			"target":34962
		},
		{
			"buffer":0,
			"byteLength":3072,
			"byteOffset":379396,
			"target":34962
		},
		{
			"buffer":0,
			"byteLength":3072,
			"byteOffset":382468,
			"target":34962
		},
		{
			"buffer":0,
			"byteLength":2048,
			"byteOffset":385540,
			"target":34962
		},
		{
			"buffer":0,
			"byteLength":2048,
			"byteOffset":387588,
			"target":34962
		},
		{
			"buffer":0,
			"byteLength":768,
			"byteOffset":389636,
			"target":34963
		},
		{
			"buffer":0,
			"byteLength":336,
			"byteOffset":390404,
			"target":34962
		},
		{
			"buffer":0,
			"byteLength":504,
			"byteOffset":390740,
			"target":34962
		},
		{
			"buffer":0,
			"byteLength":504,
			"byteOffset":391244,
			"target":34962
		},
		{
			"buffer":0,
			"byteLength":336,
			"byteOffset":391748,
			"target":34962
		},
		{
			"buffer":0,
			"byteLength":336,
			"byteOffset":392084,
			"target":34962
		},
		{
			"buffer":0,
			"byteLength":144,
			"byteOffset":392420,
			"target":34963
		},
		{
			"buffer":0,
			"byteLength":336,
			"byteOffset":392564,
			"target":34962
		},
		{
			"buffer":0,
			"byteLength":504,
			"byteOffset":392900,
			"target":34962
		},
		{
			"buffer":0,
			"byteLength":504,
			"byteOffset":393404,
			"target":34962
		},
		{
			"buffer":0,
			"byteLength":336,
			"byteOffset":393908,
			"target":34962
		},
		{
			"buffer":0,
			"byteLength":336,
			"byteOffset":394244,
			"target":34962
		},
		{
			"buffer":0,
			"byteLength":144,
			"byteOffset":394580,
			"target":34963
		}
	],
	"samplers":[
		{
			"magFilter":9728,
			"minFilter":9984
		},
		{
			"magFilter":9729,
			"minFilter":9987
		}
	],
	"buffers":[
		{
			"byteLength":394724,
			"uri":"shapes.bin"
		}
	]
}
