{
	"asset":{
		"generator":"Khronos glTF Blender I/O v4.1.62",
		"version":"2.0"
	},
	"extensionsUsed":[
		"KHR_materials_unlit"
	],
	"scene":1,
	"scenes":[
		{
			"name":"Another",
			"nodes":[
				2
			]
		},
		{
			"name":"Scene",
			"nodes":[
				15
			]
		}
	],
	"nodes":[
		{
			"mesh":0,
			"name":"Cube.005",
			"rotation":[
				0,
				1,
				0,
				1.6292068494294654e-07
			]
		},
		{
			"children":[
				0
			],
			"name":"Collection 1"
		},
		{
			"children":[
				1
			],
			"name":"Scene Collection"
		},
		{
			"mesh":1,
			"name":"Cube",
			"translation":[
				-6,
				0,
				0
			]
		},
		{
			"mesh":2,
			"name":"Suzanne",
			"translation":[
				4.13852596282959,
				0,
				0
			]
		},
		{
			"mesh":3,
			"name":"Sphere",
			"translation":[
				0,
				0,
				0.7200651168823242
			]
		},
		{
			"mesh":4,
			"name":"Crates",
			"translation":[
				8,
				0.17296256124973297,
				0
			]
		},
		{
			"mesh":5,
			"name":"Triangle",
			"translation":[
				-9,
				0,
				0
			]
		},
		{
			"mesh":6,
			"name":"Hallway",
			"translation":[
				8,
				2,
				15
			]
		},
		{
			"mesh":7,
			"name":"Plane",
			"translation":[
				-12,
				0,
				0
			]
		},
		{
			"mesh":8,
			"name":"Ground",
			"translation":[
				0,
				-1,
				0
			]
		},
		{
			"mesh":9,
			"name":"Cube.006",
			"translation":[
				-3,
				4,
				0.7200651168823242
			]
		},
		{
			"mesh":0,
			"name":"Cube.005",
			"rotation":[
				0,
				1,
				0,
				1.6292068494294654e-07
			]
		},
		{
			"children":[
				12
			],
			"name":"Collection 1",
			"translation":[
				38,
				12.5,
				-12
			]
		},
		{
			"children":[
				3,
				4,
				5,
				6,
				7,
				8,
				9,
				10,
				11,
				13
			],
			"name":"Collection"
		},
		{
			"children":[
				14
			],
			"name":"Scene Collection"
		}
	],
	"materials":[
		{
			"extensions":{
				"KHR_materials_unlit":{}
			},
			"name":"VertexPainting",
			"pbrMetallicRoughness":{
				"metallicFactor":0,
				"roughnessFactor":0.9
			}
		},
		{
			"extensions":{
				"KHR_materials_unlit":{}
			},
			"name":"OutdoorStuff",
			"pbrMetallicRoughness":{
				"baseColorTexture":{
					"index":0
				},
				"metallicFactor":0,
				"roughnessFactor":0.9
			}
		},
		{
			"extensions":{
				"KHR_materials_unlit":{}
			},
			"name":"WoodenCrate",
			"pbrMetallicRoughness":{
				"baseColorTexture":{
					"index":1
				},
				"metallicFactor":0,
				"roughnessFactor":0.9
			}
		},
		{
			"extensions":{
				"KHR_materials_unlit":{}
			},
			"name":"Green",
			"pbrMetallicRoughness":{
				"baseColorFactor":[
					0.24228109419345856,
					0.7991030216217041,
					0,
					1
				],
				"metallicFactor":0,
				"roughnessFactor":0.9
			}
		},
		{
			"extensions":{
				"KHR_materials_unlit":{}
			},
			"name":"Dark Gray",
			"pbrMetallicRoughness":{
				"baseColorFactor":[
					0.022173896431922913,
					0.02217387966811657,
					0.022173885256052017,
					1
				],
				"metallicFactor":0,
				"roughnessFactor":0.9
			}
		}
	],
	"meshes":[
		{
			"name":"Cube.001",
			"primitives":[
				{
					"attributes":{
						"POSITION":0,
						"NORMAL":1,
						"TEXCOORD_0":2,
						"COLOR_0":3
					},
					"indices":4,
					"material":0
				}
			]
		},
		{
			"name":"Cube",
			"primitives":[
				{
					"attributes":{
						"POSITION":5,
						"NORMAL":6,
						"TEXCOORD_0":7,
						"COLOR_0":8
					},
					"indices":9,
					"material":0
				}
			]
		},
		{
			"name":"Suzanne",
			"primitives":[
				{
					"attributes":{
						"POSITION":10,
						"NORMAL":11,
						"TEXCOORD_0":12,
						"COLOR_0":13
					},
					"indices":14,
					"material":0
				}
			]
		},
		{
			"name":"Sphere",
			"primitives":[
				{
					"attributes":{
						"POSITION":15,
						"NORMAL":16,
						"TEXCOORD_0":17,
						"COLOR_0":18
					},
					"indices":19,
					"material":0
				}
			]
		},
		{
			"name":"Crates",
			"primitives":[
				{
					"attributes":{
						"POSITION":20,
						"NORMAL":21,
						"TEXCOORD_0":22,
						"COLOR_0":23
					},
					"indices":24,
					"material":1
				}
			]
		},
		{
			"name":"Triangle",
			"primitives":[
				{
					"attributes":{
						"POSITION":25,
						"NORMAL":26,
						"TEXCOORD_0":27,
						"COLOR_0":28
					},
					"indices":29,
					"material":0
				}
			]
		},
		{
			"name":"Hallway",
			"primitives":[
				{
					"attributes":{
						"POSITION":30,
						"NORMAL":31,
						"TEXCOORD_0":32,
						"COLOR_0":33
					},
					"indices":34,
					"material":2
				}
			]
		},
		{
			"name":"Plane",
			"primitives":[
				{
					"attributes":{
						"POSITION":35,
						"NORMAL":36,
						"TEXCOORD_0":37,
						"COLOR_0":38
					},
					"indices":39,
					"material":0
				}
			]
		},
		{
			"name":"Ground",
			"primitives":[
				{
					"attributes":{
						"POSITION":40,
						"NORMAL":41,
						"TEXCOORD_0":42,
						"COLOR_0":43
					},
					"indices":44,
					"material":0
				}
			]
		},
		{
			"name":"Cube.002",
			"primitives":[
				{
					"attributes":{
						"POSITION":45,
						"NORMAL":46,
						"TEXCOORD_0":47
					},
					"indices":48,
					"material":3
				},
				{
					"attributes":{
						"POSITION":49,
						"NORMAL":50,
						"TEXCOORD_0":51
					},
					"indices":52,
					"material":4
				}
			]
		}
	],
	"textures":[
		{
			"sampler":0,
			"source":0
		},
		{
			"sampler":0,
			"source":1
		}
	],
	"images":[
		{
			"mimeType":"image/png",
			"name":"outdoorstuff",
			"uri":"outdoorstuff.png"
		},
		{
			"mimeType":"image/png",
			"name":"woodencrate",
			"uri":"woodencrate.png"
		}
	],
	"accessors":[
		{
			"bufferView":0,
			"componentType":5126,
			"count":32,
			"max":[
				3,
				1,
				1
			],
			"min":[
				-1,
				-1,
				-1
			],
			"type":"VEC3"
		},
		{
			"bufferView":1,
			"componentType":5126,
			"count":32,
			"type":"VEC3"
		},
		{
			"bufferView":2,
			"componentType":5126,
			"count":32,
			"type":"VEC2"
		},
		{
			"bufferView":3,
			"componentType":5126,
			"count":32,
			"type":"VEC3"
		},
		{
			"bufferView":4,
			"componentType":5123,
			"count":42,
			"type":"SCALAR"
		},
		{
			"bufferView":5,
			"componentType":5126,
			"count":24,
			"max":[
				1,
				1,
				1
			],
			"min":[
				-1,
				-1,
				-1
			],
			"type":"VEC3"
		},
		{
			"bufferView":6,
			"componentType":5126,
			"count":24,
			"type":"VEC3"
		},
		{
			"bufferView":7,
			"componentType":5126,
			"count":24,
			"type":"VEC2"
		},
		{
			"bufferView":8,
			"componentType":5126,
			"count":24,
			"type":"VEC3"
		},
		{
			"bufferView":9,
			"componentType":5123,
			"count":36,
			"type":"SCALAR"
		},
		{
			"bufferView":10,
			"componentType":5126,
			"count":2911,
			"max":[
				1.3671875,
				0.984375,
				0.8515625
			],
			"min":[
				-1.3671875,
				-0.984375,
				-0.8515625
			],
			"type":"VEC3"
		},
		{
			"bufferView":11,
			"componentType":5126,
			"count":2911,
			"type":"VEC3"
		},
		{
			"bufferView":12,
			"componentType":5126,
			"count":2911,
			"type":"VEC2"
		},
		{
			"bufferView":13,
			"componentType":5126,
			"count":2911,
			"type":"VEC3"
		},
		{
			"bufferView":14,
			"componentType":5123,
			"count":3003,
			"type":"SCALAR"
		},
		{
			"bufferView":15,
			"componentType":5126,
			"count":1984,
			"max":[
				0.9999997615814209,
				1,
				0.9999994039535522
			],
			"min":[
				-0.9999990463256836,
				-1,
				-0.9999987483024597
			],
			"type":"VEC3"
		},
		{
			"bufferView":16,
			"componentType":5126,
			"count":1984,
			"type":"VEC3"
		},
		{
			"bufferView":17,
			"componentType":5126,
			"count":1984,
			"type":"VEC2"
		},
		{
			"bufferView":18,
			"componentType":5126,
			"count":1984,
			"type":"VEC3"
		},
		{
			"bufferView":19,
			"componentType":5123,
			"count":2880,
			"type":"SCALAR"
		},
		{
			"bufferView":20,
			"componentType":5126,
			"count":232,
			"max":[
				3,
				2.009999990463257,
				1.000000238418579
			],
			"min":[
				-2,
				-1,
				-1.000000238418579
			],
			"type":"VEC3"
		},
		{
			"bufferView":21,
			"componentType":5126,
			"count":232,
			"type":"VEC3"
		},
		{
			"bufferView":22,
			"componentType":5126,
			"count":232,
			"type":"VEC2"
		},
		{
			"bufferView":23,
			"componentType":5126,
			"count":232,
			"type":"VEC3"
		},
		{
			"bufferView":24,
			"componentType":5123,
			"count":348,
			"type":"SCALAR"
		},
		{
			"bufferView":25,
			"componentType":5126,
			"count":3,
			"max":[
				1,
				0,
				1
			],
			"min":[
				-1,
				0,
				-1
			],
			"type":"VEC3"
		},
		{
			"bufferView":26,
			"componentType":5126,
			"count":3,
			"type":"VEC3"
		},
		{
			"bufferView":27,
			"componentType":5126,
			"count":3,
			"type":"VEC2"
		},
		{
			"bufferView":28,
			"componentType":5126,
			"count":3,
			"type":"VEC3"
		},
		{
			"bufferView":29,
			"componentType":5123,
			"count":3,
			"type":"SCALAR"
		},
		{
			"bufferView":30,
			"componentType":5126,
			"count":269,
			"max":[
				53,
				5.5,
				2
			],
			"min":[
				-2,
				-2.5,
				-44
			],
			"type":"VEC3"
		},
		{
			"bufferView":31,
			"componentType":5126,
			"count":269,
			"type":"VEC3"
		},
		{
			"bufferView":32,
			"componentType":5126,
			"count":269,
			"type":"VEC2"
		},
		{
			"bufferView":33,
			"componentType":5126,
			"count":269,
			"type":"VEC3"
		},
		{
			"bufferView":34,
			"componentType":5123,
			"count":636,
			"type":"SCALAR"
		},
		{
			"bufferView":35,
			"componentType":5126,
			"count":25,
			"max":[
				1,
				0,
				1
			],
			"min":[
				-1,
				0,
				-1
			],
			"type":"VEC3"
		},
		{
			"bufferView":36,
			"componentType":5126,
			"count":25,
			"type":"VEC3"
		},
		{
			"bufferView":37,
			"componentType":5126,
			"count":25,
			"type":"VEC2"
		},
		{
			"bufferView":38,
			"componentType":5126,
			"count":25,
			"type":"VEC3"
		},
		{
			"bufferView":39,
			"componentType":5123,
			"count":96,
			"type":"SCALAR"
		},
		{
			"bufferView":40,
			"componentType":5126,
			"count":256,
			"max":[
				32,
				0,
				32
			],
			"min":[
				-32,
				0,
				-32
			],
			"type":"VEC3"
		},
		{
			"bufferView":41,
			"componentType":5126,
			"count":256,
			"type":"VEC3"
		},
		{
			"bufferView":42,
			"componentType":5126,
			"count":256,
			"type":"VEC2"
		},
		{
			"bufferView":43,
			"componentType":5126,
			"count":256,
			"type":"VEC3"
		},
		{
			"bufferView":44,
			"componentType":5123,
			"count":384,
			"type":"SCALAR"
		},
		{
			"bufferView":45,
			"componentType":5126,
			"count":42,
			"max":[
				1,
				1,
				1
			],
			"min":[
				-1,
				-1,
				-1
			],
			"type":"VEC3"
		},
		{
			"bufferView":46,
			"componentType":5126,
			"count":42,
			"type":"VEC3"
		},
		{
			"bufferView":47,
			"componentType":5126,
			"count":42,
			"type":"VEC2"
		},
		{
			"bufferView":48,
			"componentType":5123,
			"count":72,
			"type":"SCALAR"
		},
		{
			"bufferView":49,
			"componentType":5126,
			"count":42,
			"max":[
				1,
				1,
				1
			],
			"min":[
				-1,
				-1,
				-1
			],
			"type":"VEC3"
		},
		{
			"bufferView":50,
			"componentType":5126,
			"count":42,
			"type":"VEC3"
		},
		{
			"bufferView":51,
			"componentType":5126,
			"count":42,
			"type":"VEC2"
		},
		{
			"bufferView":52,
			"componentType":5123,
			"count":72,
			"type":"SCALAR"
		}
	],
	"bufferViews":[
		{
			"buffer":0,
			"byteLength":384,
			"byteOffset":0,
			"target":34962
		},
		{
			"buffer":0,
			"byteLength":384,
			"byteOffset":384,
			"target":34962
		},
		{
			"buffer":0,
			"byteLength":256,
			"byteOffset":768,
			"target":34962
		},
		{
			"buffer":0,
			"byteLength":384,
			"byteOffset":1024,
			"target":34962
		},
		{
			"buffer":0,
			"byteLength":84,
			"byteOffset":1408,
			"target":34963
		},
		{
			"buffer":0,
			"byteLength":288,
			"byteOffset":1492,
			"target":34962
		},
		{
			"buffer":0,
			"byteLength":288,
			"byteOffset":1780,
			"target":34962
		},
		{
			"buffer":0,
			"byteLength":192,
			"byteOffset":2068,
			"target":34962
		},
		{
			"buffer":0,
			"byteLength":288,
			"byteOffset":2260,
			"target":34962
		},
		{
			"buffer":0,
			"byteLength":72,
			"byteOffset":2548,
			"target":34963
		},
		{
			"buffer":0,
			"byteLength":34932,
			"byteOffset":2620,
			"target":34962
		},
		{
			"buffer":0,
			"byteLength":34932,
			"byteOffset":37552,
			"target":34962
		},
		{
			"buffer":0,
			"byteLength":23288,
			"byteOffset":72484,
			"target":34962
		},
		{
			"buffer":0,
			"byteLength":34932,
			"byteOffset":95772,
			"target":34962
		},
		{
			"buffer":0,
			"byteLength":6006,
			"byteOffset":130704,
			"target":34963
		},
		{
			"buffer":0,
			"byteLength":23808,
			"byteOffset":136712,
			"target":34962
		},
		{
			"buffer":0,
			"byteLength":23808,
			"byteOffset":160520,
			"target":34962
		},
		{
			"buffer":0,
			"byteLength":15872,
			"byteOffset":184328,
			"target":34962
		},
		{
			"buffer":0,
			"byteLength":23808,
			"byteOffset":200200,
			"target":34962
		},
		{
			"buffer":0,
			"byteLength":5760,
			"byteOffset":224008,
			"target":34963
		},
		{
			"buffer":0,
			"byteLength":2784,
			"byteOffset":229768,
			"target":34962
		},
		{
			"buffer":0,
			"byteLength":2784,
			"byteOffset":232552,
			"target":34962
		},
		{
			"buffer":0,
			"byteLength":1856,
			"byteOffset":235336,
			"target":34962
		},
		{
			"buffer":0,
			"byteLength":2784,
			"byteOffset":237192,
			"target":34962
		},
		{
			"buffer":0,
			"byteLength":696,
			"byteOffset":239976,
			"target":34963
		},
		{
			"buffer":0,
			"byteLength":36,
			"byteOffset":240672,
			"target":34962
		},
		{
			"buffer":0,
			"byteLength":36,
			"byteOffset":240708,
			"target":34962
		},
		{
			"buffer":0,
			"byteLength":24,
			"byteOffset":240744,
			"target":34962
		},
		{
			"buffer":0,
			"byteLength":36,
			"byteOffset":240768,
			"target":34962
		},
		{
			"buffer":0,
			"byteLength":6,
			"byteOffset":240804,
			"target":34963
		},
		{
			"buffer":0,
			"byteLength":3228,
			"byteOffset":240812,
			"target":34962
		},
		{
			"buffer":0,
			"byteLength":3228,
			"byteOffset":244040,
			"target":34962
		},
		{
			"buffer":0,
			"byteLength":2152,
			"byteOffset":247268,
			"target":34962
		},
		{
			"buffer":0,
			"byteLength":3228,
			"byteOffset":249420,
			"target":34962
		},
		{
			"buffer":0,
			"byteLength":1272,
			"byteOffset":252648,
			"target":34963
		},
		{
			"buffer":0,
			"byteLength":300,
			"byteOffset":253920,
			"target":34962
		},
		{
			"buffer":0,
			"byteLength":300,
			"byteOffset":254220,
			"target":34962
		},
		{
			"buffer":0,
			"byteLength":200,
			"byteOffset":254520,
			"target":34962
		},
		{
			"buffer":0,
			"byteLength":300,
			"byteOffset":254720,
			"target":34962
		},
		{
			"buffer":0,
			"byteLength":192,
			"byteOffset":255020,
			"target":34963
		},
		{
			"buffer":0,
			"byteLength":3072,
			"byteOffset":255212,
			"target":34962
		},
		{
			"buffer":0,
			"byteLength":3072,
			"byteOffset":258284,
			"target":34962
		},
		{
			"buffer":0,
			"byteLength":2048,
			"byteOffset":261356,
			"target":34962
		},
		{
			"buffer":0,
			"byteLength":3072,
			"byteOffset":263404,
			"target":34962
		},
		{
			"buffer":0,
			"byteLength":768,
			"byteOffset":266476,
			"target":34963
		},
		{
			"buffer":0,
			"byteLength":504,
			"byteOffset":267244,
			"target":34962
		},
		{
			"buffer":0,
			"byteLength":504,
			"byteOffset":267748,
			"target":34962
		},
		{
			"buffer":0,
			"byteLength":336,
			"byteOffset":268252,
			"target":34962
		},
		{
			"buffer":0,
			"byteLength":144,
			"byteOffset":268588,
			"target":34963
		},
		{
			"buffer":0,
			"byteLength":504,
			"byteOffset":268732,
			"target":34962
		},
		{
			"buffer":0,
			"byteLength":504,
			"byteOffset":269236,
			"target":34962
		},
		{
			"buffer":0,
			"byteLength":336,
			"byteOffset":269740,
			"target":34962
		},
		{
			"buffer":0,
			"byteLength":144,
			"byteOffset":270076,
			"target":34963
		}
	],
	"samplers":[
		{
			"magFilter":9728,
			"minFilter":9984
		}
	],
	"buffers":[
		{
			"byteLength":270220,
			"uri":"test.bin"
		}
	]
}
